%TF.GenerationSoftware,KiCad,Pcbnew,6.0.11-2627ca5db0~126~ubuntu22.04.1*%
%TF.CreationDate,2023-05-04T09:26:43+02:00*%
%TF.ProjectId,OTBreakOut,4f544272-6561-46b4-9f75-742e6b696361,rev?*%
%TF.SameCoordinates,Original*%
%TF.FileFunction,Copper,L2,Bot*%
%TF.FilePolarity,Positive*%
%FSLAX46Y46*%
G04 Gerber Fmt 4.6, Leading zero omitted, Abs format (unit mm)*
G04 Created by KiCad (PCBNEW 6.0.11-2627ca5db0~126~ubuntu22.04.1) date 2023-05-04 09:26:43*
%MOMM*%
%LPD*%
G01*
G04 APERTURE LIST*
G04 Aperture macros list*
%AMHorizOval*
0 Thick line with rounded ends*
0 $1 width*
0 $2 $3 position (X,Y) of the first rounded end (center of the circle)*
0 $4 $5 position (X,Y) of the second rounded end (center of the circle)*
0 Add line between two ends*
20,1,$1,$2,$3,$4,$5,0*
0 Add two circle primitives to create the rounded ends*
1,1,$1,$2,$3*
1,1,$1,$4,$5*%
%AMFreePoly0*
4,1,22,0.500000,-0.750000,0.000000,-0.750000,0.000000,-0.745033,-0.079941,-0.743568,-0.215256,-0.701293,-0.333266,-0.622738,-0.424486,-0.514219,-0.481581,-0.384460,-0.499164,-0.250000,-0.500000,-0.250000,-0.500000,0.250000,-0.499164,0.250000,-0.499963,0.256109,-0.478152,0.396186,-0.417904,0.524511,-0.324060,0.630769,-0.204165,0.706417,-0.067858,0.745374,0.000000,0.744959,0.000000,0.750000,
0.500000,0.750000,0.500000,-0.750000,0.500000,-0.750000,$1*%
%AMFreePoly1*
4,1,20,0.000000,0.744959,0.073905,0.744508,0.209726,0.703889,0.328688,0.626782,0.421226,0.519385,0.479903,0.390333,0.500000,0.250000,0.500000,-0.250000,0.499851,-0.262216,0.476331,-0.402017,0.414519,-0.529596,0.319384,-0.634700,0.198574,-0.708877,0.061801,-0.746166,0.000000,-0.745033,0.000000,-0.750000,-0.500000,-0.750000,-0.500000,0.750000,0.000000,0.750000,0.000000,0.744959,
0.000000,0.744959,$1*%
G04 Aperture macros list end*
%TA.AperFunction,ComponentPad*%
%ADD10O,2.720000X3.240000*%
%TD*%
%TA.AperFunction,ComponentPad*%
%ADD11R,1.800000X1.800000*%
%TD*%
%TA.AperFunction,ComponentPad*%
%ADD12C,1.800000*%
%TD*%
%TA.AperFunction,ComponentPad*%
%ADD13O,4.500000X2.000000*%
%TD*%
%TA.AperFunction,ComponentPad*%
%ADD14O,3.000000X1.800000*%
%TD*%
%TA.AperFunction,ComponentPad*%
%ADD15O,1.800000X3.000000*%
%TD*%
%TA.AperFunction,ComponentPad*%
%ADD16HorizOval,1.800000X0.424264X-0.424264X-0.424264X0.424264X0*%
%TD*%
%TA.AperFunction,ComponentPad*%
%ADD17HorizOval,1.800000X0.424264X0.424264X-0.424264X-0.424264X0*%
%TD*%
%TA.AperFunction,ComponentPad*%
%ADD18O,2.000000X4.000000*%
%TD*%
%TA.AperFunction,ComponentPad*%
%ADD19O,2.000000X3.000000*%
%TD*%
%TA.AperFunction,ComponentPad*%
%ADD20C,1.100000*%
%TD*%
%TA.AperFunction,SMDPad,CuDef*%
%ADD21FreePoly0,180.000000*%
%TD*%
%TA.AperFunction,SMDPad,CuDef*%
%ADD22FreePoly1,180.000000*%
%TD*%
%TA.AperFunction,ConnectorPad*%
%ADD23C,0.787400*%
%TD*%
%TA.AperFunction,ComponentPad*%
%ADD24R,1.700000X1.700000*%
%TD*%
%TA.AperFunction,ComponentPad*%
%ADD25O,1.700000X1.700000*%
%TD*%
%TA.AperFunction,ViaPad*%
%ADD26C,0.600000*%
%TD*%
%TA.AperFunction,ViaPad*%
%ADD27C,0.800000*%
%TD*%
%TA.AperFunction,Conductor*%
%ADD28C,0.200000*%
%TD*%
%TA.AperFunction,Conductor*%
%ADD29C,0.250000*%
%TD*%
G04 APERTURE END LIST*
D10*
%TO.P,RV1,*%
%TO.N,*%
X104800000Y-144000000D03*
X95200000Y-144000000D03*
D11*
%TO.P,RV1,1,1*%
%TO.N,AUDIO*%
X97500000Y-151500000D03*
D12*
%TO.P,RV1,2,2*%
%TO.N,Net-(R7-Pad2)*%
X100000000Y-151500000D03*
%TO.P,RV1,3,3*%
%TO.N,GND*%
X102500000Y-151500000D03*
%TD*%
D13*
%TO.P,J6,*%
%TO.N,*%
X100000000Y-67550000D03*
D14*
%TO.P,J6,1*%
%TO.N,unconnected-(J6-Pad1)*%
X103500000Y-75500000D03*
D15*
%TO.P,J6,2*%
%TO.N,GND*%
X100000000Y-79000000D03*
D14*
%TO.P,J6,3*%
%TO.N,unconnected-(J6-Pad3)*%
X96500000Y-75500000D03*
D16*
%TO.P,J6,4*%
%TO.N,Net-(J6-Pad4)*%
X102474874Y-77974874D03*
D17*
%TO.P,J6,5*%
%TO.N,Net-(J6-Pad5)*%
X97525126Y-77974874D03*
%TD*%
D18*
%TO.P,J4,*%
%TO.N,*%
X99700000Y-116000000D03*
D13*
%TO.P,J4,2*%
%TO.N,CV2*%
X95000000Y-112700000D03*
%TO.P,J4,3*%
%TO.N,unconnected-(J4-Pad3)*%
X95000000Y-120900000D03*
%TD*%
D18*
%TO.P,J1,1*%
%TO.N,GND*%
X104700000Y-158000000D03*
D19*
X95300000Y-158000000D03*
D13*
%TO.P,J1,2*%
%TO.N,PHONO*%
X100000000Y-154700000D03*
%TO.P,J1,3*%
%TO.N,unconnected-(J1-Pad3)*%
X100000000Y-162900000D03*
%TD*%
D19*
%TO.P,J5,1*%
%TO.N,GND*%
X95300000Y-130000000D03*
D18*
X104700000Y-130000000D03*
D13*
%TO.P,J5,2*%
%TO.N,GATE*%
X100000000Y-126700000D03*
%TO.P,J5,3*%
%TO.N,unconnected-(J5-Pad3)*%
X100000000Y-134900000D03*
%TD*%
D19*
%TO.P,J3,*%
%TO.N,*%
X100300000Y-116000000D03*
D13*
%TO.P,J3,2*%
%TO.N,CV1*%
X105000000Y-112700000D03*
%TO.P,J3,3*%
%TO.N,unconnected-(J3-Pad3)*%
X105000000Y-120900000D03*
%TD*%
D18*
%TO.P,J2,1*%
%TO.N,GND*%
X104700000Y-102000000D03*
D19*
X95300000Y-102000000D03*
D13*
%TO.P,J2,2*%
%TO.N,AUDIO*%
X100000000Y-98700000D03*
%TO.P,J2,3*%
%TO.N,unconnected-(J2-Pad3)*%
X100000000Y-106900000D03*
%TD*%
D20*
%TO.P,J8,*%
%TO.N,*%
X97600000Y-57450000D03*
X102400000Y-57450000D03*
X97600000Y-61750000D03*
X102400000Y-61750000D03*
%TD*%
D21*
%TO.P,JP1,1,A*%
%TO.N,Net-(JP1-Pad1)*%
X94350000Y-71200000D03*
D22*
%TO.P,JP1,2,B*%
%TO.N,GND*%
X93050000Y-71200000D03*
%TD*%
D23*
%TO.P,J9,1,Pin_1*%
%TO.N,MISO*%
X107735000Y-69230000D03*
%TO.P,J9,2,Pin_2*%
%TO.N,+5V*%
X106465000Y-69230000D03*
%TO.P,J9,3,Pin_3*%
%TO.N,SCK*%
X107735000Y-70500000D03*
%TO.P,J9,4,Pin_4*%
%TO.N,MOSI*%
X106465000Y-70500000D03*
%TO.P,J9,5,Pin_5*%
%TO.N,RESET*%
X107735000Y-71770000D03*
%TO.P,J9,6,Pin_6*%
%TO.N,GND*%
X106465000Y-71770000D03*
%TD*%
D24*
%TO.P,J7,1,Pin_1*%
%TO.N,+12V*%
X104730000Y-95160000D03*
D25*
%TO.P,J7,2,Pin_2*%
X107270000Y-95160000D03*
%TO.P,J7,3,Pin_3*%
%TO.N,GND*%
X104730000Y-92620000D03*
%TO.P,J7,4,Pin_4*%
X107270000Y-92620000D03*
%TO.P,J7,5,Pin_5*%
X104730000Y-90080000D03*
%TO.P,J7,6,Pin_6*%
X107270000Y-90080000D03*
%TO.P,J7,7,Pin_7*%
X104730000Y-87540000D03*
%TO.P,J7,8,Pin_8*%
X107270000Y-87540000D03*
%TO.P,J7,9,Pin_9*%
%TO.N,-12V*%
X104730000Y-85000000D03*
%TO.P,J7,10,Pin_10*%
X107270000Y-85000000D03*
%TD*%
D26*
%TO.N,AUDIO*%
X93300000Y-110300000D03*
X94400000Y-136600000D03*
X94400000Y-138200000D03*
%TO.N,CV1*%
X105200000Y-108600000D03*
%TO.N,CV2*%
X96100000Y-98200000D03*
X96900000Y-106400000D03*
X96000000Y-94900000D03*
%TO.N,GATE*%
X94900000Y-108100000D03*
X94800000Y-94900000D03*
%TO.N,D-*%
X104700000Y-65800000D03*
X102000000Y-72900000D03*
%TO.N,D+*%
X99700000Y-93700000D03*
X103000000Y-73300000D03*
X107200000Y-60100000D03*
X93300000Y-94200000D03*
D27*
%TO.N,GND*%
X100500000Y-110250000D03*
D26*
X92240500Y-60407458D03*
D27*
X91300000Y-129500000D03*
D26*
X93700000Y-65800000D03*
X100000000Y-82300000D03*
D27*
X93000000Y-69600000D03*
X93500000Y-73200000D03*
D26*
X105100000Y-58600000D03*
X108800000Y-65900000D03*
X94200000Y-60400000D03*
%TO.N,Net-(JP1-Pad1)*%
X97300000Y-66500000D03*
%TO.N,+5V*%
X91600000Y-62500000D03*
D27*
X92100000Y-74900000D03*
D26*
X98700000Y-87900000D03*
X90500000Y-65600000D03*
D27*
X90900000Y-96200000D03*
X93450000Y-77000000D03*
X105189201Y-71893752D03*
D26*
%TO.N,UGND*%
X97348029Y-59579256D03*
X94100000Y-62500000D03*
D27*
X104400000Y-62500000D03*
D26*
X102729678Y-59665067D03*
X104100000Y-65100000D03*
D27*
%TO.N,VUSB*%
X91900000Y-97100000D03*
X103100000Y-66400000D03*
D26*
%TO.N,Net-(J8-PadA7)*%
X105200000Y-57600000D03*
X99800000Y-61600000D03*
X100200000Y-57700000D03*
%TO.N,MISO*%
X108800000Y-69200000D03*
%TO.N,SCK*%
X108800000Y-70500000D03*
%TO.N,MOSI*%
X105300000Y-70400000D03*
%TO.N,RESET*%
X108900000Y-71700000D03*
%TO.N,Net-(C3-Pad2)*%
X94952400Y-62459500D03*
X102600000Y-65100000D03*
%TO.N,Net-(J8-PadA6)*%
X100500000Y-62200000D03*
X104600000Y-61200000D03*
%TO.N,Net-(R1-Pad2)*%
X108500000Y-60100000D03*
X92500000Y-62465500D03*
%TO.N,Net-(R2-Pad2)*%
X93311898Y-62486145D03*
X108500000Y-63500000D03*
%TO.N,Net-(J8-PadA5)*%
X109300000Y-57200000D03*
X99334500Y-57700000D03*
%TD*%
D28*
%TO.N,AUDIO*%
X93300000Y-110300000D02*
X93800000Y-110300000D01*
X96200000Y-104900000D02*
X100000000Y-101100000D01*
X100000000Y-101100000D02*
X100000000Y-98700000D01*
X96200000Y-107900000D02*
X96200000Y-104900000D01*
X93800000Y-110300000D02*
X96200000Y-107900000D01*
X94400000Y-136600000D02*
X94400000Y-138200000D01*
%TO.N,CV1*%
X105000000Y-108800000D02*
X105000000Y-112700000D01*
X105200000Y-108600000D02*
X105000000Y-108800000D01*
%TO.N,CV2*%
X96000000Y-98100000D02*
X96100000Y-98200000D01*
X96900000Y-106400000D02*
X96900000Y-108000000D01*
X96900000Y-108000000D02*
X95000000Y-109900000D01*
X95000000Y-109900000D02*
X95000000Y-112700000D01*
X96000000Y-94900000D02*
X96000000Y-98100000D01*
%TO.N,GATE*%
X96500000Y-99400000D02*
X95600000Y-99400000D01*
X95600000Y-99400000D02*
X94800000Y-98600000D01*
X97800000Y-100700000D02*
X96500000Y-99400000D01*
X94800000Y-98600000D02*
X94800000Y-98000000D01*
X94900000Y-108100000D02*
X94900000Y-105100000D01*
X97800000Y-102200000D02*
X97800000Y-100700000D01*
X94900000Y-105100000D02*
X97800000Y-102200000D01*
X94800000Y-94900000D02*
X94800000Y-98000000D01*
%TO.N,D-*%
X103550000Y-68450000D02*
X103800000Y-68200000D01*
X103800000Y-68200000D02*
X103800000Y-66200000D01*
X103800000Y-66200000D02*
X104200000Y-65800000D01*
X102000000Y-70000000D02*
X102000000Y-71200000D01*
X103550000Y-68450000D02*
X102000000Y-70000000D01*
X104200000Y-65800000D02*
X104700000Y-65800000D01*
X102000000Y-71200000D02*
X102000000Y-72900000D01*
%TO.N,D+*%
X108600000Y-65000000D02*
X109060000Y-64540000D01*
X102400000Y-72400000D02*
X102400000Y-70200000D01*
X103000000Y-73000000D02*
X102400000Y-72400000D01*
X93300000Y-94200000D02*
X99200000Y-94200000D01*
X102400000Y-70200000D02*
X104400000Y-68200000D01*
X106400000Y-65000000D02*
X108600000Y-65000000D01*
X104400000Y-68200000D02*
X104400000Y-67000000D01*
X108700000Y-59300000D02*
X107800000Y-59300000D01*
X104400000Y-67000000D02*
X106400000Y-65000000D01*
X107800000Y-59300000D02*
X107200000Y-59900000D01*
X107200000Y-59900000D02*
X107200000Y-60100000D01*
X103000000Y-73300000D02*
X103000000Y-73000000D01*
X99200000Y-94200000D02*
X99700000Y-93700000D01*
X109060000Y-64540000D02*
X109060000Y-59660000D01*
X109060000Y-59660000D02*
X108700000Y-59300000D01*
D29*
%TO.N,GND*%
X91800000Y-130000000D02*
X91300000Y-129500000D01*
D28*
X109500000Y-65200000D02*
X109500000Y-64400000D01*
D29*
X95300000Y-130000000D02*
X91800000Y-130000000D01*
X93050000Y-71200000D02*
X93050000Y-72750000D01*
D28*
X100000000Y-79000000D02*
X100000000Y-82300000D01*
X109500000Y-64400000D02*
X109500000Y-58800000D01*
D29*
X93050000Y-69650000D02*
X93000000Y-69600000D01*
D28*
X109200000Y-58500000D02*
X105200000Y-58500000D01*
X109500000Y-58800000D02*
X109200000Y-58500000D01*
D29*
X93050000Y-72750000D02*
X93500000Y-73200000D01*
D28*
X108800000Y-65900000D02*
X109500000Y-65200000D01*
X105200000Y-58500000D02*
X105100000Y-58600000D01*
D29*
X93050000Y-71200000D02*
X93050000Y-69650000D01*
D28*
%TO.N,Net-(JP1-Pad1)*%
X97300000Y-69700000D02*
X97300000Y-66500000D01*
X95800000Y-71200000D02*
X97200000Y-69800000D01*
X95500000Y-71200000D02*
X95800000Y-71200000D01*
X97200000Y-69800000D02*
X97300000Y-69700000D01*
X94350000Y-71200000D02*
X95500000Y-71200000D01*
D29*
%TO.N,+5V*%
X91600000Y-62500000D02*
X91600000Y-64500000D01*
X105189201Y-71893752D02*
X105189201Y-71489201D01*
X105070000Y-69230000D02*
X106465000Y-69230000D01*
X92100000Y-76300000D02*
X92750000Y-76300000D01*
X90900000Y-96200000D02*
X90900000Y-91600000D01*
X90500000Y-65600000D02*
X91000000Y-66100000D01*
X93450000Y-77000000D02*
X92750000Y-76300000D01*
X105189201Y-71893752D02*
X105100000Y-71804551D01*
X91000000Y-80700000D02*
X91000000Y-80900000D01*
X91000000Y-91500000D02*
X90900000Y-91600000D01*
X104600000Y-70900000D02*
X104600000Y-69700000D01*
X91000000Y-87900000D02*
X91000000Y-91500000D01*
X91600000Y-64500000D02*
X90500000Y-65600000D01*
X98700000Y-87900000D02*
X91000000Y-87900000D01*
X104600000Y-69700000D02*
X105070000Y-69230000D01*
X91000000Y-76300000D02*
X91000000Y-80700000D01*
X105189201Y-71489201D02*
X104600000Y-70900000D01*
X91000000Y-66100000D02*
X91000000Y-68000000D01*
X92100000Y-76300000D02*
X92100000Y-74900000D01*
X91000000Y-76300000D02*
X92100000Y-76300000D01*
X91000000Y-68000000D02*
X91000000Y-76300000D01*
X91000000Y-80700000D02*
X91000000Y-87900000D01*
D28*
%TO.N,UGND*%
X102729678Y-59665067D02*
X103344612Y-60280001D01*
X103750000Y-62850000D02*
X100150000Y-62850000D01*
X105300000Y-60700000D02*
X105300000Y-61100000D01*
X97300000Y-65700000D02*
X103500000Y-65700000D01*
X94100000Y-62500000D02*
X97300000Y-65700000D01*
X103344612Y-60280001D02*
X104880001Y-60280001D01*
X105300000Y-61100000D02*
X105300000Y-61600000D01*
X97468773Y-59700000D02*
X97348029Y-59579256D01*
X99200000Y-61900000D02*
X99200000Y-60300000D01*
X103750000Y-62850000D02*
X104150000Y-62850000D01*
X105300000Y-61600000D02*
X104400000Y-62500000D01*
X103500000Y-65700000D02*
X104100000Y-65100000D01*
X104880001Y-60280001D02*
X105300000Y-60700000D01*
X99200000Y-60300000D02*
X98600000Y-59700000D01*
X98600000Y-59700000D02*
X97468773Y-59700000D01*
X103750000Y-62850000D02*
X104050000Y-62850000D01*
X100150000Y-62850000D02*
X99200000Y-61900000D01*
X104050000Y-62850000D02*
X104400000Y-62500000D01*
D29*
%TO.N,VUSB*%
X99800000Y-89500000D02*
X99800000Y-87400000D01*
X101200000Y-69900000D02*
X103100000Y-68000000D01*
X98400000Y-69900000D02*
X101200000Y-69900000D01*
X98800000Y-86400000D02*
X94600000Y-86400000D01*
X94600000Y-86400000D02*
X93400000Y-85200000D01*
X93800000Y-74500000D02*
X98400000Y-69900000D01*
X94400000Y-90100000D02*
X99200000Y-90100000D01*
X93800000Y-76000000D02*
X93800000Y-74500000D01*
X91900000Y-92600000D02*
X94400000Y-90100000D01*
X91900000Y-97100000D02*
X91900000Y-92600000D01*
X99800000Y-87400000D02*
X98800000Y-86400000D01*
X93400000Y-81500000D02*
X94700000Y-80200000D01*
X99200000Y-90100000D02*
X99800000Y-89500000D01*
X103100000Y-68000000D02*
X103100000Y-66400000D01*
X94700000Y-80200000D02*
X94700000Y-76900000D01*
X93400000Y-85200000D02*
X93400000Y-81500000D01*
X94700000Y-76900000D02*
X93800000Y-76000000D01*
D28*
%TO.N,Net-(J8-PadA7)*%
X99800000Y-58100000D02*
X100200000Y-57700000D01*
X105200000Y-57600000D02*
X104000000Y-58800000D01*
X104000000Y-58800000D02*
X99800000Y-58800000D01*
X99800000Y-58800000D02*
X99800000Y-58100000D01*
X99800000Y-61600000D02*
X99800000Y-58800000D01*
%TO.N,MISO*%
X107765000Y-69200000D02*
X107735000Y-69230000D01*
X108800000Y-69200000D02*
X107765000Y-69200000D01*
%TO.N,SCK*%
X108800000Y-70500000D02*
X107735000Y-70500000D01*
%TO.N,MOSI*%
X105400000Y-70500000D02*
X105300000Y-70400000D01*
X106465000Y-70500000D02*
X105400000Y-70500000D01*
X106365000Y-70400000D02*
X106465000Y-70500000D01*
%TO.N,RESET*%
X108900000Y-71700000D02*
X107805000Y-71700000D01*
X107805000Y-71700000D02*
X107735000Y-71770000D01*
%TO.N,Net-(C3-Pad2)*%
X102500000Y-65000000D02*
X102600000Y-65100000D01*
X94952400Y-62552400D02*
X97400000Y-65000000D01*
X94952400Y-62459500D02*
X94952400Y-62552400D01*
X97400000Y-65000000D02*
X102500000Y-65000000D01*
%TO.N,Net-(J8-PadA6)*%
X100500000Y-62200000D02*
X100500000Y-61700000D01*
X101500000Y-60700000D02*
X103700000Y-60700000D01*
X100500000Y-61700000D02*
X101500000Y-60700000D01*
X104200000Y-61200000D02*
X104600000Y-61200000D01*
X103700000Y-60700000D02*
X104200000Y-61200000D01*
%TO.N,Net-(R1-Pad2)*%
X92500000Y-62100000D02*
X93100000Y-61500000D01*
X93100000Y-61500000D02*
X95400000Y-61500000D01*
X92500000Y-62465500D02*
X92500000Y-62100000D01*
X108624144Y-62275856D02*
X108624144Y-60224144D01*
X95400000Y-61500000D02*
X98080000Y-64180000D01*
X108624144Y-60224144D02*
X108500000Y-60100000D01*
X98080000Y-64180000D02*
X106720000Y-64180000D01*
X106720000Y-64180000D02*
X108624144Y-62275856D01*
%TO.N,Net-(R2-Pad2)*%
X97840000Y-64540000D02*
X107060000Y-64540000D01*
X95200000Y-61900000D02*
X97840000Y-64540000D01*
X107060000Y-64540000D02*
X108100000Y-63500000D01*
X93311898Y-62486145D02*
X93898043Y-61900000D01*
X108100000Y-63500000D02*
X108500000Y-63500000D01*
X93898043Y-61900000D02*
X95200000Y-61900000D01*
%TO.N,Net-(J8-PadA5)*%
X101300000Y-57900000D02*
X101700000Y-58300000D01*
X100900000Y-57100000D02*
X101300000Y-57500000D01*
X101300000Y-57500000D02*
X101300000Y-57900000D01*
X104660000Y-57040000D02*
X109140000Y-57040000D01*
X99334500Y-57565500D02*
X99800000Y-57100000D01*
X99334500Y-57700000D02*
X99300000Y-57665500D01*
X99800000Y-57100000D02*
X100900000Y-57100000D01*
X101700000Y-58300000D02*
X103400000Y-58300000D01*
X109140000Y-57040000D02*
X109300000Y-57200000D01*
X103400000Y-58300000D02*
X104660000Y-57040000D01*
X99334500Y-57700000D02*
X99334500Y-57565500D01*
D29*
%TO.N,+12V*%
X107270000Y-95160000D02*
X104730000Y-95160000D01*
%TO.N,-12V*%
X107270000Y-85000000D02*
X104730000Y-85000000D01*
%TD*%
%TA.AperFunction,Conductor*%
%TO.N,GND*%
G36*
X109610721Y-64543140D02*
G01*
X109669893Y-64582373D01*
X109698461Y-64647368D01*
X109699500Y-64663517D01*
X109699500Y-71427536D01*
X109679498Y-71495657D01*
X109625842Y-71542150D01*
X109555568Y-71552254D01*
X109490988Y-71522760D01*
X109457091Y-71475754D01*
X109444874Y-71446260D01*
X109424536Y-71397159D01*
X109328282Y-71271718D01*
X109202841Y-71175464D01*
X109195739Y-71172522D01*
X109146927Y-71121331D01*
X109133489Y-71051618D01*
X109159875Y-70985707D01*
X109182216Y-70963630D01*
X109221733Y-70933308D01*
X109221736Y-70933305D01*
X109228282Y-70928282D01*
X109324536Y-70802841D01*
X109385044Y-70656762D01*
X109405682Y-70500000D01*
X109385044Y-70343238D01*
X109324536Y-70197159D01*
X109228282Y-70071718D01*
X109102841Y-69975464D01*
X109080980Y-69966409D01*
X109025699Y-69921861D01*
X109003278Y-69854498D01*
X109020836Y-69785706D01*
X109072798Y-69737328D01*
X109080980Y-69733591D01*
X109102841Y-69724536D01*
X109228282Y-69628282D01*
X109324536Y-69502841D01*
X109385044Y-69356762D01*
X109405682Y-69200000D01*
X109385044Y-69043238D01*
X109324536Y-68897159D01*
X109228282Y-68771718D01*
X109102841Y-68675464D01*
X108956762Y-68614956D01*
X108800000Y-68594318D01*
X108643238Y-68614956D01*
X108497159Y-68675464D01*
X108487480Y-68682891D01*
X108396666Y-68752575D01*
X108330446Y-68778175D01*
X108260897Y-68763910D01*
X108236143Y-68746688D01*
X108139775Y-68660827D01*
X108139769Y-68660823D01*
X108134099Y-68655771D01*
X108110194Y-68643114D01*
X107992321Y-68580703D01*
X107992318Y-68580702D01*
X107985606Y-68577148D01*
X107978243Y-68575299D01*
X107978239Y-68575297D01*
X107868241Y-68547668D01*
X107866067Y-68547122D01*
X107804871Y-68511127D01*
X107772850Y-68447762D01*
X107780170Y-68377144D01*
X107790377Y-68357404D01*
X107816008Y-68317017D01*
X107816010Y-68317013D01*
X107819786Y-68311063D01*
X107840278Y-68253515D01*
X107877314Y-68149506D01*
X107877315Y-68149501D01*
X107879676Y-68142871D01*
X107880509Y-68135885D01*
X107880510Y-68135881D01*
X107899981Y-67972584D01*
X107900815Y-67965591D01*
X107898905Y-67947416D01*
X107882890Y-67795040D01*
X107882889Y-67795036D01*
X107882153Y-67788032D01*
X107824617Y-67619021D01*
X107818414Y-67608937D01*
X107734759Y-67472958D01*
X107734758Y-67472957D01*
X107731067Y-67466957D01*
X107606151Y-67339397D01*
X107456079Y-67242683D01*
X107388492Y-67218083D01*
X107294929Y-67184029D01*
X107294928Y-67184029D01*
X107288310Y-67181620D01*
X107150419Y-67164200D01*
X107055111Y-67164200D01*
X106978863Y-67172752D01*
X106929572Y-67178281D01*
X106929570Y-67178282D01*
X106922576Y-67179066D01*
X106753971Y-67237781D01*
X106602563Y-67332391D01*
X106590441Y-67344429D01*
X106480876Y-67453231D01*
X106480873Y-67453235D01*
X106475879Y-67458194D01*
X106472105Y-67464140D01*
X106472104Y-67464142D01*
X106383992Y-67602983D01*
X106383990Y-67602987D01*
X106380214Y-67608937D01*
X106377849Y-67615579D01*
X106322686Y-67770494D01*
X106322685Y-67770499D01*
X106320324Y-67777129D01*
X106319491Y-67784115D01*
X106319490Y-67784119D01*
X106304451Y-67910250D01*
X106299185Y-67954409D01*
X106317847Y-68131968D01*
X106320118Y-68138639D01*
X106372934Y-68293784D01*
X106375383Y-68300979D01*
X106379074Y-68306978D01*
X106379075Y-68306981D01*
X106386169Y-68318512D01*
X106407841Y-68353738D01*
X106411156Y-68359127D01*
X106429815Y-68427628D01*
X106408477Y-68495342D01*
X106353917Y-68540771D01*
X106333254Y-68547668D01*
X106228633Y-68572786D01*
X106221244Y-68574560D01*
X106071936Y-68651623D01*
X106038756Y-68680568D01*
X105952517Y-68755800D01*
X105945320Y-68762078D01*
X105943980Y-68763985D01*
X105885445Y-68800049D01*
X105852252Y-68804500D01*
X105002607Y-68804500D01*
X104979790Y-68811914D01*
X104960571Y-68816528D01*
X104936874Y-68820281D01*
X104928037Y-68824784D01*
X104928036Y-68824784D01*
X104915498Y-68831172D01*
X104897237Y-68838736D01*
X104883853Y-68843085D01*
X104883850Y-68843087D01*
X104874419Y-68846151D01*
X104866396Y-68851980D01*
X104855009Y-68860253D01*
X104838163Y-68870577D01*
X104816780Y-68881472D01*
X104251472Y-69446780D01*
X104240577Y-69468163D01*
X104230253Y-69485009D01*
X104216151Y-69504419D01*
X104213087Y-69513850D01*
X104213085Y-69513853D01*
X104208736Y-69527237D01*
X104201172Y-69545498D01*
X104194784Y-69558036D01*
X104190281Y-69566874D01*
X104188730Y-69576668D01*
X104186528Y-69590570D01*
X104181914Y-69609790D01*
X104174500Y-69632607D01*
X104174500Y-70967393D01*
X104181914Y-70990210D01*
X104186528Y-71009429D01*
X104190281Y-71033126D01*
X104194784Y-71041963D01*
X104194784Y-71041964D01*
X104201172Y-71054502D01*
X104208736Y-71072763D01*
X104213085Y-71086147D01*
X104213087Y-71086150D01*
X104216151Y-71095581D01*
X104221980Y-71103604D01*
X104230253Y-71114991D01*
X104240577Y-71131837D01*
X104251472Y-71153220D01*
X104275446Y-71177194D01*
X104436554Y-71338301D01*
X104534716Y-71436463D01*
X104568742Y-71498775D01*
X104563014Y-71571328D01*
X104505725Y-71718265D01*
X104504733Y-71725798D01*
X104504733Y-71725799D01*
X104486526Y-71864102D01*
X104483595Y-71886363D01*
X104502200Y-72054887D01*
X104529059Y-72128282D01*
X104557603Y-72206281D01*
X104560467Y-72214108D01*
X104564703Y-72220411D01*
X104564703Y-72220412D01*
X104573906Y-72234107D01*
X104655031Y-72354835D01*
X104660643Y-72359942D01*
X104660646Y-72359945D01*
X104774813Y-72463829D01*
X104774817Y-72463832D01*
X104780434Y-72468943D01*
X104787107Y-72472566D01*
X104787111Y-72472569D01*
X104922759Y-72546219D01*
X104922761Y-72546220D01*
X104929436Y-72549844D01*
X104936785Y-72551772D01*
X105086084Y-72590940D01*
X105086086Y-72590940D01*
X105093434Y-72592868D01*
X105221077Y-72594873D01*
X105288875Y-72615942D01*
X105334520Y-72670321D01*
X105343518Y-72740745D01*
X105337799Y-72763121D01*
X105304324Y-72857129D01*
X105303491Y-72864115D01*
X105303490Y-72864119D01*
X105288451Y-72990250D01*
X105283185Y-73034409D01*
X105283921Y-73041412D01*
X105283921Y-73041413D01*
X105300888Y-73202841D01*
X105301847Y-73211968D01*
X105304118Y-73218639D01*
X105331816Y-73300000D01*
X105359383Y-73380979D01*
X105363073Y-73386978D01*
X105363074Y-73386979D01*
X105410698Y-73464391D01*
X105452933Y-73533043D01*
X105577849Y-73660603D01*
X105727921Y-73757317D01*
X105895690Y-73818380D01*
X106033581Y-73835800D01*
X106128889Y-73835800D01*
X106205137Y-73827248D01*
X106254428Y-73821719D01*
X106254430Y-73821718D01*
X106261424Y-73820934D01*
X106430029Y-73762219D01*
X106581437Y-73667609D01*
X106654342Y-73595211D01*
X106703124Y-73546769D01*
X106703127Y-73546765D01*
X106708121Y-73541806D01*
X106731046Y-73505682D01*
X106800008Y-73397017D01*
X106800010Y-73397013D01*
X106803786Y-73391063D01*
X106836212Y-73300000D01*
X106861314Y-73229506D01*
X106861315Y-73229501D01*
X106863676Y-73222871D01*
X106864509Y-73215885D01*
X106864510Y-73215881D01*
X106883981Y-73052584D01*
X106884815Y-73045591D01*
X106869513Y-72900000D01*
X106866890Y-72875040D01*
X106866889Y-72875036D01*
X106866153Y-72868032D01*
X106817618Y-72725461D01*
X106814600Y-72654530D01*
X106850410Y-72593226D01*
X106879509Y-72573840D01*
X106893606Y-72561858D01*
X106892009Y-72556220D01*
X106105790Y-71770000D01*
X105686240Y-71350451D01*
X105663989Y-71338301D01*
X105612367Y-71327072D01*
X105570817Y-71290546D01*
X105558950Y-71274213D01*
X105548622Y-71257360D01*
X105537729Y-71235981D01*
X105469916Y-71168168D01*
X105435890Y-71105856D01*
X105440955Y-71035041D01*
X105483502Y-70978205D01*
X105510792Y-70962664D01*
X105512279Y-70962048D01*
X105602841Y-70924536D01*
X105609395Y-70919507D01*
X105613077Y-70917381D01*
X105676078Y-70900500D01*
X105830574Y-70900500D01*
X105898695Y-70920502D01*
X105924919Y-70946189D01*
X105926434Y-70944881D01*
X105931397Y-70950631D01*
X105935634Y-70956936D01*
X105941252Y-70962048D01*
X106054288Y-71064904D01*
X106054292Y-71064907D01*
X106059909Y-71070018D01*
X106173788Y-71131849D01*
X106184584Y-71137711D01*
X106213558Y-71159347D01*
X106428096Y-71373886D01*
X106462121Y-71436198D01*
X106465000Y-71462981D01*
X106465000Y-71770000D01*
X106772020Y-71770000D01*
X106840141Y-71790002D01*
X106861115Y-71806905D01*
X107075070Y-72020860D01*
X107104300Y-72066653D01*
X107107368Y-72075035D01*
X107111920Y-72087475D01*
X107205634Y-72226936D01*
X107211246Y-72232043D01*
X107211249Y-72232046D01*
X107324288Y-72334904D01*
X107324292Y-72334907D01*
X107329909Y-72340018D01*
X107336586Y-72343643D01*
X107336587Y-72343644D01*
X107425371Y-72391850D01*
X107475693Y-72441933D01*
X107490949Y-72511271D01*
X107471635Y-72570094D01*
X107396214Y-72688937D01*
X107393849Y-72695579D01*
X107338686Y-72850494D01*
X107338685Y-72850499D01*
X107336324Y-72857129D01*
X107335491Y-72864115D01*
X107335490Y-72864119D01*
X107320451Y-72990250D01*
X107315185Y-73034409D01*
X107315921Y-73041412D01*
X107315921Y-73041413D01*
X107332888Y-73202841D01*
X107333847Y-73211968D01*
X107336118Y-73218639D01*
X107363816Y-73300000D01*
X107391383Y-73380979D01*
X107395073Y-73386978D01*
X107395074Y-73386979D01*
X107442698Y-73464391D01*
X107484933Y-73533043D01*
X107609849Y-73660603D01*
X107759921Y-73757317D01*
X107927690Y-73818380D01*
X108065581Y-73835800D01*
X108160889Y-73835800D01*
X108237137Y-73827248D01*
X108286428Y-73821719D01*
X108286430Y-73821718D01*
X108293424Y-73820934D01*
X108462029Y-73762219D01*
X108613437Y-73667609D01*
X108686342Y-73595211D01*
X108735124Y-73546769D01*
X108735127Y-73546765D01*
X108740121Y-73541806D01*
X108763046Y-73505682D01*
X108832008Y-73397017D01*
X108832010Y-73397013D01*
X108835786Y-73391063D01*
X108868212Y-73300000D01*
X108893314Y-73229506D01*
X108893315Y-73229501D01*
X108895676Y-73222871D01*
X108896509Y-73215885D01*
X108896510Y-73215881D01*
X108915981Y-73052584D01*
X108916815Y-73045591D01*
X108901513Y-72900000D01*
X108898890Y-72875040D01*
X108898889Y-72875036D01*
X108898153Y-72868032D01*
X108862439Y-72763123D01*
X108842888Y-72705691D01*
X108842887Y-72705688D01*
X108840617Y-72699021D01*
X108834414Y-72688937D01*
X108750759Y-72552958D01*
X108750758Y-72552957D01*
X108747067Y-72546957D01*
X108742141Y-72541927D01*
X108742135Y-72541919D01*
X108708494Y-72507567D01*
X108675123Y-72444902D01*
X108680929Y-72374143D01*
X108724068Y-72317756D01*
X108790844Y-72293643D01*
X108814963Y-72294487D01*
X108891812Y-72304604D01*
X108900000Y-72305682D01*
X108908188Y-72304604D01*
X109048574Y-72286122D01*
X109056762Y-72285044D01*
X109202841Y-72224536D01*
X109328282Y-72128282D01*
X109424536Y-72002841D01*
X109457091Y-71924246D01*
X109501639Y-71868965D01*
X109569003Y-71846544D01*
X109637794Y-71864102D01*
X109686172Y-71916064D01*
X109699500Y-71972464D01*
X109699500Y-114081527D01*
X109679498Y-114149648D01*
X109625842Y-114196141D01*
X109591336Y-114206258D01*
X109588154Y-114206713D01*
X109583505Y-114207290D01*
X109527017Y-114213227D01*
X109520348Y-114215497D01*
X109513471Y-114217009D01*
X109513361Y-114216509D01*
X109504138Y-114218715D01*
X109490348Y-114220685D01*
X109483130Y-114221504D01*
X109438998Y-114225222D01*
X109433093Y-114227484D01*
X109412145Y-114237958D01*
X109396150Y-114244623D01*
X109381738Y-114249495D01*
X109381736Y-114249496D01*
X109370718Y-114253221D01*
X109361780Y-114260662D01*
X109354616Y-114264671D01*
X109341270Y-114273395D01*
X109334209Y-114276925D01*
X109316923Y-114284018D01*
X109302090Y-114288854D01*
X109302087Y-114288856D01*
X109293635Y-114291611D01*
X109288406Y-114295165D01*
X109286048Y-114297130D01*
X109286044Y-114297133D01*
X109255925Y-114322232D01*
X109251296Y-114325908D01*
X109214016Y-114354119D01*
X109210291Y-114360130D01*
X109208884Y-114361433D01*
X109205235Y-114364474D01*
X109204045Y-114365206D01*
X109202267Y-114366947D01*
X109198329Y-114370229D01*
X109198326Y-114370230D01*
X109140272Y-114418609D01*
X109132806Y-114424372D01*
X109099854Y-114447889D01*
X109095932Y-114452849D01*
X109081312Y-114475591D01*
X109072355Y-114487833D01*
X109052869Y-114511351D01*
X109049168Y-114522383D01*
X109043514Y-114532543D01*
X109043198Y-114532367D01*
X109038437Y-114542283D01*
X108985469Y-114624680D01*
X108980533Y-114631807D01*
X108955542Y-114665358D01*
X108953324Y-114671280D01*
X108952533Y-114674247D01*
X108952528Y-114674262D01*
X108946688Y-114696165D01*
X108941617Y-114711272D01*
X108930576Y-114738345D01*
X108930356Y-114749979D01*
X108928010Y-114761370D01*
X108927869Y-114761341D01*
X108926263Y-114772757D01*
X108913258Y-114821528D01*
X108906272Y-114847725D01*
X108901559Y-114861943D01*
X108890117Y-114890622D01*
X108889500Y-114896915D01*
X108889500Y-114933193D01*
X108889132Y-114942818D01*
X108887235Y-114967584D01*
X108886065Y-114982849D01*
X108889019Y-114992685D01*
X108889500Y-115001600D01*
X108889500Y-116819105D01*
X108888192Y-116832342D01*
X108887905Y-116833158D01*
X108887551Y-116839471D01*
X108887679Y-116842544D01*
X108887679Y-116842550D01*
X108889391Y-116883633D01*
X108889500Y-116888878D01*
X108889500Y-116907948D01*
X108890499Y-116913310D01*
X108890839Y-116918385D01*
X108899467Y-117125456D01*
X108899561Y-117128790D01*
X108900211Y-117171630D01*
X108900212Y-117171637D01*
X108900347Y-117180529D01*
X108902198Y-117186575D01*
X108908636Y-117202028D01*
X108915127Y-117222271D01*
X108919620Y-117241831D01*
X108926130Y-117251470D01*
X108926131Y-117251472D01*
X108927191Y-117253041D01*
X108939084Y-117275103D01*
X108963181Y-117332936D01*
X108967915Y-117346401D01*
X108974358Y-117368687D01*
X108974361Y-117368694D01*
X108976832Y-117377240D01*
X108980209Y-117382586D01*
X108982098Y-117385015D01*
X108982101Y-117385019D01*
X109001761Y-117410296D01*
X109007771Y-117418716D01*
X109022692Y-117441545D01*
X109022695Y-117441548D01*
X109029058Y-117451283D01*
X109037939Y-117457672D01*
X109044713Y-117465520D01*
X109051890Y-117474748D01*
X109059288Y-117485339D01*
X109066543Y-117496951D01*
X109070361Y-117503802D01*
X109071319Y-117505205D01*
X109075254Y-117513179D01*
X109079518Y-117517848D01*
X109081809Y-117519910D01*
X109081811Y-117519912D01*
X109098824Y-117535224D01*
X109099253Y-117535644D01*
X109099958Y-117536550D01*
X109102277Y-117538607D01*
X109102286Y-117538616D01*
X109123336Y-117557289D01*
X109123982Y-117557866D01*
X109138228Y-117570687D01*
X109143330Y-117575544D01*
X109195230Y-117627807D01*
X109201179Y-117631583D01*
X109201181Y-117631584D01*
X109201264Y-117631637D01*
X109201993Y-117632237D01*
X109206668Y-117635996D01*
X109206624Y-117636050D01*
X109225176Y-117651323D01*
X109234300Y-117660946D01*
X109234303Y-117660948D01*
X109240419Y-117667399D01*
X109245874Y-117670596D01*
X109248663Y-117671883D01*
X109248676Y-117671890D01*
X109271243Y-117682305D01*
X109284161Y-117689204D01*
X109311007Y-117705616D01*
X109316739Y-117706661D01*
X109329851Y-117713240D01*
X109346864Y-117724037D01*
X109395531Y-117741366D01*
X109420125Y-117753271D01*
X109437935Y-117764424D01*
X109444016Y-117766157D01*
X109468577Y-117770622D01*
X109477122Y-117772176D01*
X109496849Y-117777445D01*
X109509410Y-117781918D01*
X109509419Y-117781920D01*
X109516049Y-117784281D01*
X109550393Y-117788376D01*
X109564484Y-117790057D01*
X109583617Y-117794925D01*
X109583724Y-117794486D01*
X109592363Y-117796588D01*
X109600622Y-117799883D01*
X109605159Y-117800328D01*
X109664751Y-117834788D01*
X109697239Y-117897915D01*
X109699500Y-117921675D01*
X109699500Y-164573500D01*
X109679498Y-164641621D01*
X109625842Y-164688114D01*
X109573500Y-164699500D01*
X90426500Y-164699500D01*
X90358379Y-164679498D01*
X90311886Y-164625842D01*
X90300500Y-164573500D01*
X90300500Y-162900000D01*
X97444532Y-162900000D01*
X97464365Y-163126692D01*
X97523261Y-163346496D01*
X97619432Y-163552734D01*
X97749953Y-163739139D01*
X97910861Y-163900047D01*
X98097266Y-164030568D01*
X98102244Y-164032889D01*
X98102247Y-164032891D01*
X98298522Y-164124416D01*
X98303504Y-164126739D01*
X98308812Y-164128161D01*
X98308814Y-164128162D01*
X98517993Y-164184211D01*
X98517995Y-164184211D01*
X98523308Y-164185635D01*
X98622302Y-164194296D01*
X98690492Y-164200262D01*
X98690499Y-164200262D01*
X98693216Y-164200500D01*
X101306784Y-164200500D01*
X101309501Y-164200262D01*
X101309508Y-164200262D01*
X101377698Y-164194296D01*
X101476692Y-164185635D01*
X101482005Y-164184211D01*
X101482007Y-164184211D01*
X101691186Y-164128162D01*
X101691188Y-164128161D01*
X101696496Y-164126739D01*
X101701478Y-164124416D01*
X101897753Y-164032891D01*
X101897756Y-164032889D01*
X101902734Y-164030568D01*
X102089139Y-163900047D01*
X102250047Y-163739139D01*
X102380568Y-163552734D01*
X102476739Y-163346496D01*
X102535635Y-163126692D01*
X102555468Y-162900000D01*
X102535635Y-162673308D01*
X102476739Y-162453504D01*
X102380568Y-162247266D01*
X102250047Y-162060861D01*
X102089139Y-161899953D01*
X101902734Y-161769432D01*
X101897756Y-161767111D01*
X101897753Y-161767109D01*
X101701478Y-161675584D01*
X101701476Y-161675583D01*
X101696496Y-161673261D01*
X101691188Y-161671839D01*
X101691186Y-161671838D01*
X101482007Y-161615789D01*
X101482005Y-161615789D01*
X101476692Y-161614365D01*
X101377698Y-161605704D01*
X101309508Y-161599738D01*
X101309501Y-161599738D01*
X101306784Y-161599500D01*
X98693216Y-161599500D01*
X98690499Y-161599738D01*
X98690492Y-161599738D01*
X98622302Y-161605704D01*
X98523308Y-161614365D01*
X98517995Y-161615789D01*
X98517993Y-161615789D01*
X98308814Y-161671838D01*
X98308812Y-161671839D01*
X98303504Y-161673261D01*
X98298524Y-161675583D01*
X98298522Y-161675584D01*
X98102247Y-161767109D01*
X98102244Y-161767111D01*
X98097266Y-161769432D01*
X97910861Y-161899953D01*
X97749953Y-162060861D01*
X97619432Y-162247266D01*
X97523261Y-162453504D01*
X97464365Y-162673308D01*
X97444532Y-162900000D01*
X90300500Y-162900000D01*
X90300500Y-158558456D01*
X93792000Y-158558456D01*
X93792202Y-158563488D01*
X93806150Y-158736843D01*
X93807762Y-158746796D01*
X93863233Y-158972633D01*
X93866416Y-158982203D01*
X93957280Y-159196265D01*
X93961955Y-159205207D01*
X94085874Y-159401987D01*
X94091914Y-159410060D01*
X94245703Y-159584500D01*
X94252956Y-159591504D01*
X94432654Y-159739110D01*
X94440936Y-159744866D01*
X94641919Y-159861841D01*
X94651024Y-159866203D01*
X94868115Y-159949537D01*
X94877804Y-159952388D01*
X95028264Y-159983821D01*
X95042325Y-159982698D01*
X95046000Y-159972590D01*
X95046000Y-159970590D01*
X95554000Y-159970590D01*
X95558136Y-159984676D01*
X95571114Y-159986725D01*
X95588830Y-159984675D01*
X95598727Y-159982715D01*
X95822494Y-159919396D01*
X95831938Y-159915884D01*
X96042705Y-159817601D01*
X96051471Y-159812622D01*
X96243802Y-159681913D01*
X96251677Y-159675581D01*
X96420626Y-159515814D01*
X96427387Y-159508305D01*
X96568625Y-159323574D01*
X96574089Y-159315095D01*
X96683978Y-159110153D01*
X96688020Y-159100901D01*
X96702635Y-159058456D01*
X103192000Y-159058456D01*
X103192202Y-159063488D01*
X103206150Y-159236843D01*
X103207762Y-159246796D01*
X103263233Y-159472633D01*
X103266416Y-159482203D01*
X103357280Y-159696265D01*
X103361955Y-159705207D01*
X103485874Y-159901987D01*
X103491914Y-159910060D01*
X103645703Y-160084500D01*
X103652956Y-160091504D01*
X103832654Y-160239110D01*
X103840936Y-160244866D01*
X104041919Y-160361841D01*
X104051024Y-160366203D01*
X104268115Y-160449537D01*
X104277804Y-160452388D01*
X104428264Y-160483821D01*
X104442325Y-160482698D01*
X104446000Y-160472590D01*
X104446000Y-160470590D01*
X104954000Y-160470590D01*
X104958136Y-160484676D01*
X104971114Y-160486725D01*
X104988830Y-160484675D01*
X104998727Y-160482715D01*
X105222494Y-160419396D01*
X105231938Y-160415884D01*
X105442705Y-160317601D01*
X105451471Y-160312622D01*
X105643802Y-160181913D01*
X105651677Y-160175581D01*
X105820626Y-160015814D01*
X105827387Y-160008305D01*
X105968625Y-159823574D01*
X105974089Y-159815095D01*
X106083978Y-159610153D01*
X106088020Y-159600901D01*
X106163727Y-159381029D01*
X106166236Y-159371257D01*
X106206004Y-159141029D01*
X106206859Y-159133157D01*
X106207936Y-159109449D01*
X106208000Y-159106616D01*
X106208000Y-158272115D01*
X106203525Y-158256876D01*
X106202135Y-158255671D01*
X106194452Y-158254000D01*
X104972115Y-158254000D01*
X104956876Y-158258475D01*
X104955671Y-158259865D01*
X104954000Y-158267548D01*
X104954000Y-160470590D01*
X104446000Y-160470590D01*
X104446000Y-158272115D01*
X104441525Y-158256876D01*
X104440135Y-158255671D01*
X104432452Y-158254000D01*
X103210115Y-158254000D01*
X103194876Y-158258475D01*
X103193671Y-158259865D01*
X103192000Y-158267548D01*
X103192000Y-159058456D01*
X96702635Y-159058456D01*
X96763727Y-158881029D01*
X96766236Y-158871257D01*
X96806004Y-158641029D01*
X96806859Y-158633157D01*
X96807936Y-158609449D01*
X96808000Y-158606616D01*
X96808000Y-158272115D01*
X96803525Y-158256876D01*
X96802135Y-158255671D01*
X96794452Y-158254000D01*
X95572115Y-158254000D01*
X95556876Y-158258475D01*
X95555671Y-158259865D01*
X95554000Y-158267548D01*
X95554000Y-159970590D01*
X95046000Y-159970590D01*
X95046000Y-158272115D01*
X95041525Y-158256876D01*
X95040135Y-158255671D01*
X95032452Y-158254000D01*
X93810115Y-158254000D01*
X93794876Y-158258475D01*
X93793671Y-158259865D01*
X93792000Y-158267548D01*
X93792000Y-158558456D01*
X90300500Y-158558456D01*
X90300500Y-157727885D01*
X93792000Y-157727885D01*
X93796475Y-157743124D01*
X93797865Y-157744329D01*
X93805548Y-157746000D01*
X95027885Y-157746000D01*
X95043124Y-157741525D01*
X95044329Y-157740135D01*
X95046000Y-157732452D01*
X95046000Y-157727885D01*
X95554000Y-157727885D01*
X95558475Y-157743124D01*
X95559865Y-157744329D01*
X95567548Y-157746000D01*
X96789885Y-157746000D01*
X96805124Y-157741525D01*
X96806329Y-157740135D01*
X96808000Y-157732452D01*
X96808000Y-157727885D01*
X103192000Y-157727885D01*
X103196475Y-157743124D01*
X103197865Y-157744329D01*
X103205548Y-157746000D01*
X104427885Y-157746000D01*
X104443124Y-157741525D01*
X104444329Y-157740135D01*
X104446000Y-157732452D01*
X104446000Y-157727885D01*
X104954000Y-157727885D01*
X104958475Y-157743124D01*
X104959865Y-157744329D01*
X104967548Y-157746000D01*
X106189885Y-157746000D01*
X106205124Y-157741525D01*
X106206329Y-157740135D01*
X106208000Y-157732452D01*
X106208000Y-156941544D01*
X106207798Y-156936512D01*
X106193850Y-156763157D01*
X106192238Y-156753204D01*
X106136767Y-156527367D01*
X106133584Y-156517797D01*
X106042720Y-156303735D01*
X106038045Y-156294793D01*
X105914126Y-156098013D01*
X105908086Y-156089940D01*
X105754297Y-155915500D01*
X105747044Y-155908496D01*
X105567346Y-155760890D01*
X105559064Y-155755134D01*
X105358081Y-155638159D01*
X105348976Y-155633797D01*
X105131885Y-155550463D01*
X105122196Y-155547612D01*
X104971736Y-155516179D01*
X104957675Y-155517302D01*
X104954000Y-155527410D01*
X104954000Y-157727885D01*
X104446000Y-157727885D01*
X104446000Y-155529410D01*
X104441864Y-155515324D01*
X104428886Y-155513275D01*
X104411170Y-155515325D01*
X104401273Y-155517285D01*
X104177506Y-155580604D01*
X104168062Y-155584116D01*
X103957295Y-155682399D01*
X103948529Y-155687378D01*
X103756198Y-155818087D01*
X103748323Y-155824419D01*
X103579374Y-155984186D01*
X103572613Y-155991695D01*
X103431375Y-156176426D01*
X103425911Y-156184905D01*
X103316022Y-156389847D01*
X103311980Y-156399099D01*
X103236273Y-156618971D01*
X103233764Y-156628743D01*
X103193996Y-156858971D01*
X103193141Y-156866843D01*
X103192064Y-156890551D01*
X103192000Y-156893384D01*
X103192000Y-157727885D01*
X96808000Y-157727885D01*
X96808000Y-157441544D01*
X96807798Y-157436512D01*
X96793850Y-157263157D01*
X96792238Y-157253204D01*
X96736767Y-157027367D01*
X96733584Y-157017797D01*
X96642720Y-156803735D01*
X96638045Y-156794793D01*
X96514126Y-156598013D01*
X96508086Y-156589940D01*
X96354297Y-156415500D01*
X96347044Y-156408496D01*
X96167346Y-156260890D01*
X96159064Y-156255134D01*
X95958081Y-156138159D01*
X95948976Y-156133797D01*
X95731885Y-156050463D01*
X95722196Y-156047612D01*
X95571736Y-156016179D01*
X95557675Y-156017302D01*
X95554000Y-156027410D01*
X95554000Y-157727885D01*
X95046000Y-157727885D01*
X95046000Y-156029410D01*
X95041864Y-156015324D01*
X95028886Y-156013275D01*
X95011170Y-156015325D01*
X95001273Y-156017285D01*
X94777506Y-156080604D01*
X94768062Y-156084116D01*
X94557295Y-156182399D01*
X94548529Y-156187378D01*
X94356198Y-156318087D01*
X94348323Y-156324419D01*
X94179374Y-156484186D01*
X94172613Y-156491695D01*
X94031375Y-156676426D01*
X94025911Y-156684905D01*
X93916022Y-156889847D01*
X93911980Y-156899099D01*
X93836273Y-157118971D01*
X93833764Y-157128743D01*
X93793996Y-157358971D01*
X93793141Y-157366843D01*
X93792064Y-157390551D01*
X93792000Y-157393384D01*
X93792000Y-157727885D01*
X90300500Y-157727885D01*
X90300500Y-154700000D01*
X97444532Y-154700000D01*
X97464365Y-154926692D01*
X97523261Y-155146496D01*
X97619432Y-155352734D01*
X97749953Y-155539139D01*
X97910861Y-155700047D01*
X98097266Y-155830568D01*
X98102244Y-155832889D01*
X98102247Y-155832891D01*
X98264382Y-155908496D01*
X98303504Y-155926739D01*
X98308812Y-155928161D01*
X98308814Y-155928162D01*
X98517993Y-155984211D01*
X98517995Y-155984211D01*
X98523308Y-155985635D01*
X98622302Y-155994296D01*
X98690492Y-156000262D01*
X98690499Y-156000262D01*
X98693216Y-156000500D01*
X101306784Y-156000500D01*
X101309501Y-156000262D01*
X101309508Y-156000262D01*
X101377698Y-155994296D01*
X101476692Y-155985635D01*
X101482005Y-155984211D01*
X101482007Y-155984211D01*
X101691186Y-155928162D01*
X101691188Y-155928161D01*
X101696496Y-155926739D01*
X101735618Y-155908496D01*
X101897753Y-155832891D01*
X101897756Y-155832889D01*
X101902734Y-155830568D01*
X102089139Y-155700047D01*
X102250047Y-155539139D01*
X102380568Y-155352734D01*
X102476739Y-155146496D01*
X102535635Y-154926692D01*
X102555468Y-154700000D01*
X102535635Y-154473308D01*
X102476739Y-154253504D01*
X102380568Y-154047266D01*
X102250047Y-153860861D01*
X102089139Y-153699953D01*
X101902734Y-153569432D01*
X101897756Y-153567111D01*
X101897753Y-153567109D01*
X101701478Y-153475584D01*
X101701476Y-153475583D01*
X101696496Y-153473261D01*
X101691188Y-153471839D01*
X101691186Y-153471838D01*
X101482007Y-153415789D01*
X101482005Y-153415789D01*
X101476692Y-153414365D01*
X101377698Y-153405704D01*
X101309508Y-153399738D01*
X101309501Y-153399738D01*
X101306784Y-153399500D01*
X98693216Y-153399500D01*
X98690499Y-153399738D01*
X98690492Y-153399738D01*
X98622302Y-153405704D01*
X98523308Y-153414365D01*
X98517995Y-153415789D01*
X98517993Y-153415789D01*
X98308814Y-153471838D01*
X98308812Y-153471839D01*
X98303504Y-153473261D01*
X98298524Y-153475583D01*
X98298522Y-153475584D01*
X98102247Y-153567109D01*
X98102244Y-153567111D01*
X98097266Y-153569432D01*
X97910861Y-153699953D01*
X97749953Y-153860861D01*
X97619432Y-154047266D01*
X97523261Y-154253504D01*
X97464365Y-154473308D01*
X97444532Y-154700000D01*
X90300500Y-154700000D01*
X90300500Y-152444646D01*
X96299500Y-152444646D01*
X96302618Y-152470846D01*
X96306456Y-152479486D01*
X96306456Y-152479487D01*
X96342014Y-152559540D01*
X96348061Y-152573153D01*
X96356294Y-152581372D01*
X96356295Y-152581373D01*
X96387835Y-152612858D01*
X96427287Y-152652241D01*
X96437924Y-152656944D01*
X96437926Y-152656945D01*
X96472729Y-152672331D01*
X96529673Y-152697506D01*
X96555354Y-152700500D01*
X98444646Y-152700500D01*
X98448350Y-152700059D01*
X98448353Y-152700059D01*
X98455746Y-152699179D01*
X98470846Y-152697382D01*
X98531423Y-152670475D01*
X98562518Y-152656663D01*
X98573153Y-152651939D01*
X98652241Y-152572713D01*
X98697506Y-152470327D01*
X98700500Y-152444646D01*
X98700500Y-152123128D01*
X98720502Y-152055007D01*
X98774158Y-152008514D01*
X98844432Y-151998410D01*
X98909012Y-152027904D01*
X98940926Y-152070377D01*
X98955883Y-152102821D01*
X99083222Y-152283002D01*
X99241264Y-152436961D01*
X99246060Y-152440166D01*
X99246063Y-152440168D01*
X99330261Y-152496427D01*
X99424717Y-152559540D01*
X99430020Y-152561818D01*
X99430023Y-152561820D01*
X99620616Y-152643705D01*
X99627436Y-152646635D01*
X99707088Y-152664658D01*
X99836995Y-152694054D01*
X99837001Y-152694055D01*
X99842632Y-152695329D01*
X99848403Y-152695556D01*
X99848405Y-152695556D01*
X99916211Y-152698220D01*
X100063098Y-152703991D01*
X100172275Y-152688161D01*
X100275738Y-152673160D01*
X100275743Y-152673159D01*
X100281452Y-152672331D01*
X100286916Y-152670476D01*
X100286921Y-152670475D01*
X100313637Y-152661406D01*
X101703423Y-152661406D01*
X101708704Y-152668461D01*
X101885080Y-152771527D01*
X101894363Y-152775974D01*
X102101003Y-152854883D01*
X102110901Y-152857759D01*
X102327653Y-152901857D01*
X102337883Y-152903076D01*
X102558914Y-152911182D01*
X102569223Y-152910714D01*
X102788623Y-152882608D01*
X102798688Y-152880468D01*
X103010557Y-152816905D01*
X103020152Y-152813144D01*
X103218778Y-152715838D01*
X103227636Y-152710559D01*
X103285097Y-152669572D01*
X103293497Y-152658874D01*
X103286510Y-152645721D01*
X102512811Y-151872021D01*
X102498868Y-151864408D01*
X102497034Y-151864539D01*
X102490420Y-151868790D01*
X101710180Y-152649031D01*
X101703423Y-152661406D01*
X100313637Y-152661406D01*
X100484907Y-152603268D01*
X100484912Y-152603266D01*
X100490379Y-152601410D01*
X100540836Y-152573153D01*
X100570875Y-152556330D01*
X100682884Y-152493602D01*
X100699856Y-152479487D01*
X100848086Y-152356204D01*
X100852518Y-152352518D01*
X100993602Y-152182884D01*
X101019355Y-152136899D01*
X101070089Y-152087240D01*
X101139621Y-152072892D01*
X101205872Y-152098414D01*
X101238249Y-152137431D01*
X101238932Y-152137012D01*
X101330097Y-152285781D01*
X101340553Y-152295242D01*
X101349331Y-152291458D01*
X102127979Y-151512811D01*
X102134356Y-151501132D01*
X102864408Y-151501132D01*
X102864539Y-151502966D01*
X102868790Y-151509580D01*
X103646307Y-152287096D01*
X103658313Y-152293652D01*
X103670052Y-152284684D01*
X103708010Y-152231859D01*
X103713321Y-152223020D01*
X103811318Y-152024737D01*
X103815117Y-152015142D01*
X103879415Y-151803517D01*
X103881594Y-151793436D01*
X103910702Y-151572338D01*
X103911221Y-151565663D01*
X103912744Y-151503364D01*
X103912550Y-151496646D01*
X103894279Y-151274400D01*
X103892596Y-151264238D01*
X103838710Y-151049708D01*
X103835389Y-151039953D01*
X103747193Y-150837118D01*
X103742315Y-150828020D01*
X103669224Y-150715038D01*
X103658538Y-150705835D01*
X103648973Y-150710238D01*
X102872021Y-151487189D01*
X102864408Y-151501132D01*
X102134356Y-151501132D01*
X102135592Y-151498868D01*
X102135461Y-151497034D01*
X102131210Y-151490420D01*
X101353862Y-150713073D01*
X101342330Y-150706776D01*
X101330048Y-150716399D01*
X101274467Y-150797877D01*
X101269379Y-150806833D01*
X101247310Y-150854378D01*
X101200486Y-150907745D01*
X101132243Y-150927326D01*
X101064247Y-150906903D01*
X101028223Y-150869872D01*
X101027980Y-150870053D01*
X101026594Y-150868197D01*
X100895967Y-150693267D01*
X100750811Y-150559086D01*
X100738189Y-150547418D01*
X100738186Y-150547416D01*
X100733949Y-150543499D01*
X100547350Y-150425764D01*
X100342421Y-150344006D01*
X100336761Y-150342880D01*
X100336757Y-150342879D01*
X100325858Y-150340711D01*
X101705508Y-150340711D01*
X101712251Y-150353040D01*
X102487189Y-151127979D01*
X102501132Y-151135592D01*
X102502966Y-151135461D01*
X102509580Y-151131210D01*
X103288994Y-150351795D01*
X103296011Y-150338944D01*
X103288237Y-150328274D01*
X103285902Y-150326430D01*
X103277320Y-150320729D01*
X103083678Y-150213833D01*
X103074272Y-150209606D01*
X102865772Y-150135772D01*
X102855809Y-150133140D01*
X102638047Y-150094350D01*
X102627796Y-150093381D01*
X102406616Y-150090679D01*
X102396332Y-150091399D01*
X102177693Y-150124855D01*
X102167666Y-150127244D01*
X101957426Y-150195961D01*
X101947916Y-150199958D01*
X101751725Y-150302089D01*
X101743007Y-150307578D01*
X101713961Y-150329386D01*
X101705508Y-150340711D01*
X100325858Y-150340711D01*
X100131691Y-150302089D01*
X100131688Y-150302089D01*
X100126024Y-150300962D01*
X100120249Y-150300886D01*
X100120245Y-150300886D01*
X100009504Y-150299437D01*
X99905406Y-150298074D01*
X99899709Y-150299053D01*
X99899708Y-150299053D01*
X99693654Y-150334459D01*
X99693653Y-150334459D01*
X99687957Y-150335438D01*
X99480957Y-150411804D01*
X99475996Y-150414756D01*
X99475995Y-150414756D01*
X99469489Y-150418627D01*
X99291341Y-150524614D01*
X99125457Y-150670090D01*
X98988863Y-150843360D01*
X98974819Y-150870053D01*
X98938008Y-150940019D01*
X98888589Y-150990991D01*
X98819456Y-151007154D01*
X98752560Y-150983375D01*
X98709140Y-150927204D01*
X98700500Y-150881351D01*
X98700500Y-150555354D01*
X98697382Y-150529154D01*
X98651939Y-150426847D01*
X98634869Y-150409806D01*
X98580945Y-150355977D01*
X98572713Y-150347759D01*
X98562076Y-150343056D01*
X98562074Y-150343055D01*
X98502538Y-150316735D01*
X98470327Y-150302494D01*
X98444646Y-150299500D01*
X96555354Y-150299500D01*
X96551650Y-150299941D01*
X96551647Y-150299941D01*
X96544254Y-150300821D01*
X96529154Y-150302618D01*
X96520514Y-150306456D01*
X96520513Y-150306456D01*
X96447372Y-150338944D01*
X96426847Y-150348061D01*
X96347759Y-150427287D01*
X96302494Y-150529673D01*
X96299500Y-150555354D01*
X96299500Y-152444646D01*
X90300500Y-152444646D01*
X90300500Y-144325246D01*
X93539500Y-144325246D01*
X93554872Y-144520563D01*
X93615887Y-144774710D01*
X93715908Y-145016182D01*
X93852473Y-145239036D01*
X93855685Y-145242796D01*
X93855688Y-145242801D01*
X94006828Y-145419762D01*
X94022218Y-145437782D01*
X94025980Y-145440995D01*
X94217199Y-145604312D01*
X94217204Y-145604315D01*
X94220964Y-145607527D01*
X94443818Y-145744092D01*
X94448388Y-145745985D01*
X94448392Y-145745987D01*
X94680717Y-145842219D01*
X94685290Y-145844113D01*
X94773061Y-145865185D01*
X94934624Y-145903973D01*
X94934630Y-145903974D01*
X94939437Y-145905128D01*
X95200000Y-145925635D01*
X95460563Y-145905128D01*
X95465370Y-145903974D01*
X95465376Y-145903973D01*
X95626939Y-145865185D01*
X95714710Y-145844113D01*
X95719283Y-145842219D01*
X95951608Y-145745987D01*
X95951612Y-145745985D01*
X95956182Y-145744092D01*
X96179036Y-145607527D01*
X96182796Y-145604315D01*
X96182801Y-145604312D01*
X96374020Y-145440995D01*
X96377782Y-145437782D01*
X96393172Y-145419762D01*
X96544312Y-145242801D01*
X96544315Y-145242796D01*
X96547527Y-145239036D01*
X96684092Y-145016182D01*
X96784113Y-144774710D01*
X96845128Y-144520563D01*
X96860500Y-144325246D01*
X103139500Y-144325246D01*
X103154872Y-144520563D01*
X103215887Y-144774710D01*
X103315908Y-145016182D01*
X103452473Y-145239036D01*
X103455685Y-145242796D01*
X103455688Y-145242801D01*
X103606828Y-145419762D01*
X103622218Y-145437782D01*
X103625980Y-145440995D01*
X103817199Y-145604312D01*
X103817204Y-145604315D01*
X103820964Y-145607527D01*
X104043818Y-145744092D01*
X104048388Y-145745985D01*
X104048392Y-145745987D01*
X104280717Y-145842219D01*
X104285290Y-145844113D01*
X104373061Y-145865185D01*
X104534624Y-145903973D01*
X104534630Y-145903974D01*
X104539437Y-145905128D01*
X104800000Y-145925635D01*
X105060563Y-145905128D01*
X105065370Y-145903974D01*
X105065376Y-145903973D01*
X105226939Y-145865185D01*
X105314710Y-145844113D01*
X105319283Y-145842219D01*
X105551608Y-145745987D01*
X105551612Y-145745985D01*
X105556182Y-145744092D01*
X105779036Y-145607527D01*
X105782796Y-145604315D01*
X105782801Y-145604312D01*
X105974020Y-145440995D01*
X105977782Y-145437782D01*
X105993172Y-145419762D01*
X106144312Y-145242801D01*
X106144315Y-145242796D01*
X106147527Y-145239036D01*
X106284092Y-145016182D01*
X106384113Y-144774710D01*
X106445128Y-144520563D01*
X106460500Y-144325246D01*
X106460500Y-143674754D01*
X106445128Y-143479437D01*
X106384113Y-143225290D01*
X106284092Y-142983818D01*
X106147527Y-142760964D01*
X106144315Y-142757204D01*
X106144312Y-142757199D01*
X105980995Y-142565980D01*
X105977782Y-142562218D01*
X105959762Y-142546828D01*
X105782801Y-142395688D01*
X105782796Y-142395685D01*
X105779036Y-142392473D01*
X105556182Y-142255908D01*
X105551612Y-142254015D01*
X105551608Y-142254013D01*
X105319283Y-142157781D01*
X105319281Y-142157780D01*
X105314710Y-142155887D01*
X105226939Y-142134815D01*
X105065376Y-142096027D01*
X105065370Y-142096026D01*
X105060563Y-142094872D01*
X104800000Y-142074365D01*
X104539437Y-142094872D01*
X104534630Y-142096026D01*
X104534624Y-142096027D01*
X104373061Y-142134815D01*
X104285290Y-142155887D01*
X104280719Y-142157780D01*
X104280717Y-142157781D01*
X104048392Y-142254013D01*
X104048388Y-142254015D01*
X104043818Y-142255908D01*
X103820964Y-142392473D01*
X103817204Y-142395685D01*
X103817199Y-142395688D01*
X103640238Y-142546828D01*
X103622218Y-142562218D01*
X103619005Y-142565980D01*
X103455688Y-142757199D01*
X103455685Y-142757204D01*
X103452473Y-142760964D01*
X103315908Y-142983818D01*
X103215887Y-143225290D01*
X103154872Y-143479437D01*
X103139500Y-143674754D01*
X103139500Y-144325246D01*
X96860500Y-144325246D01*
X96860500Y-143674754D01*
X96845128Y-143479437D01*
X96784113Y-143225290D01*
X96684092Y-142983818D01*
X96547527Y-142760964D01*
X96544315Y-142757204D01*
X96544312Y-142757199D01*
X96380995Y-142565980D01*
X96377782Y-142562218D01*
X96359762Y-142546828D01*
X96182801Y-142395688D01*
X96182796Y-142395685D01*
X96179036Y-142392473D01*
X95956182Y-142255908D01*
X95951612Y-142254015D01*
X95951608Y-142254013D01*
X95719283Y-142157781D01*
X95719281Y-142157780D01*
X95714710Y-142155887D01*
X95626939Y-142134815D01*
X95465376Y-142096027D01*
X95465370Y-142096026D01*
X95460563Y-142094872D01*
X95200000Y-142074365D01*
X94939437Y-142094872D01*
X94934630Y-142096026D01*
X94934624Y-142096027D01*
X94773061Y-142134815D01*
X94685290Y-142155887D01*
X94680719Y-142157780D01*
X94680717Y-142157781D01*
X94448392Y-142254013D01*
X94448388Y-142254015D01*
X94443818Y-142255908D01*
X94220964Y-142392473D01*
X94217204Y-142395685D01*
X94217199Y-142395688D01*
X94040238Y-142546828D01*
X94022218Y-142562218D01*
X94019005Y-142565980D01*
X93855688Y-142757199D01*
X93855685Y-142757204D01*
X93852473Y-142760964D01*
X93715908Y-142983818D01*
X93615887Y-143225290D01*
X93554872Y-143479437D01*
X93539500Y-143674754D01*
X93539500Y-144325246D01*
X90300500Y-144325246D01*
X90300500Y-138200000D01*
X93794318Y-138200000D01*
X93814956Y-138356762D01*
X93875464Y-138502841D01*
X93971718Y-138628282D01*
X94097159Y-138724536D01*
X94243238Y-138785044D01*
X94400000Y-138805682D01*
X94408188Y-138804604D01*
X94548574Y-138786122D01*
X94556762Y-138785044D01*
X94702841Y-138724536D01*
X94828282Y-138628282D01*
X94924536Y-138502841D01*
X94985044Y-138356762D01*
X95005682Y-138200000D01*
X94985044Y-138043238D01*
X94924536Y-137897159D01*
X94828282Y-137771718D01*
X94830614Y-137769928D01*
X94803379Y-137720052D01*
X94800500Y-137693269D01*
X94800500Y-137106731D01*
X94820502Y-137038610D01*
X94828618Y-137028540D01*
X94828282Y-137028282D01*
X94919509Y-136909392D01*
X94924536Y-136902841D01*
X94985044Y-136756762D01*
X95005682Y-136600000D01*
X94985044Y-136443238D01*
X94924536Y-136297159D01*
X94828282Y-136171718D01*
X94702841Y-136075464D01*
X94556762Y-136014956D01*
X94400000Y-135994318D01*
X94243238Y-136014956D01*
X94097159Y-136075464D01*
X93971718Y-136171718D01*
X93875464Y-136297159D01*
X93814956Y-136443238D01*
X93794318Y-136600000D01*
X93814956Y-136756762D01*
X93875464Y-136902841D01*
X93880491Y-136909392D01*
X93971718Y-137028282D01*
X93969386Y-137030072D01*
X93996621Y-137079948D01*
X93999500Y-137106731D01*
X93999500Y-137693269D01*
X93979498Y-137761390D01*
X93971382Y-137771460D01*
X93971718Y-137771718D01*
X93875464Y-137897159D01*
X93814956Y-138043238D01*
X93794318Y-138200000D01*
X90300500Y-138200000D01*
X90300500Y-134900000D01*
X97444532Y-134900000D01*
X97464365Y-135126692D01*
X97523261Y-135346496D01*
X97619432Y-135552734D01*
X97749953Y-135739139D01*
X97910861Y-135900047D01*
X98097266Y-136030568D01*
X98102244Y-136032889D01*
X98102247Y-136032891D01*
X98298522Y-136124416D01*
X98303504Y-136126739D01*
X98308812Y-136128161D01*
X98308814Y-136128162D01*
X98517993Y-136184211D01*
X98517995Y-136184211D01*
X98523308Y-136185635D01*
X98622302Y-136194296D01*
X98690492Y-136200262D01*
X98690499Y-136200262D01*
X98693216Y-136200500D01*
X101306784Y-136200500D01*
X101309501Y-136200262D01*
X101309508Y-136200262D01*
X101377698Y-136194296D01*
X101476692Y-136185635D01*
X101482005Y-136184211D01*
X101482007Y-136184211D01*
X101691186Y-136128162D01*
X101691188Y-136128161D01*
X101696496Y-136126739D01*
X101701478Y-136124416D01*
X101897753Y-136032891D01*
X101897756Y-136032889D01*
X101902734Y-136030568D01*
X102089139Y-135900047D01*
X102250047Y-135739139D01*
X102380568Y-135552734D01*
X102476739Y-135346496D01*
X102535635Y-135126692D01*
X102555468Y-134900000D01*
X102535635Y-134673308D01*
X102476739Y-134453504D01*
X102380568Y-134247266D01*
X102250047Y-134060861D01*
X102089139Y-133899953D01*
X101902734Y-133769432D01*
X101897756Y-133767111D01*
X101897753Y-133767109D01*
X101701478Y-133675584D01*
X101701476Y-133675583D01*
X101696496Y-133673261D01*
X101691188Y-133671839D01*
X101691186Y-133671838D01*
X101482007Y-133615789D01*
X101482005Y-133615789D01*
X101476692Y-133614365D01*
X101377698Y-133605704D01*
X101309508Y-133599738D01*
X101309501Y-133599738D01*
X101306784Y-133599500D01*
X98693216Y-133599500D01*
X98690499Y-133599738D01*
X98690492Y-133599738D01*
X98622302Y-133605704D01*
X98523308Y-133614365D01*
X98517995Y-133615789D01*
X98517993Y-133615789D01*
X98308814Y-133671838D01*
X98308812Y-133671839D01*
X98303504Y-133673261D01*
X98298524Y-133675583D01*
X98298522Y-133675584D01*
X98102247Y-133767109D01*
X98102244Y-133767111D01*
X98097266Y-133769432D01*
X97910861Y-133899953D01*
X97749953Y-134060861D01*
X97619432Y-134247266D01*
X97523261Y-134453504D01*
X97464365Y-134673308D01*
X97444532Y-134900000D01*
X90300500Y-134900000D01*
X90300500Y-130558456D01*
X93792000Y-130558456D01*
X93792202Y-130563488D01*
X93806150Y-130736843D01*
X93807762Y-130746796D01*
X93863233Y-130972633D01*
X93866416Y-130982203D01*
X93957280Y-131196265D01*
X93961955Y-131205207D01*
X94085874Y-131401987D01*
X94091914Y-131410060D01*
X94245703Y-131584500D01*
X94252956Y-131591504D01*
X94432654Y-131739110D01*
X94440936Y-131744866D01*
X94641919Y-131861841D01*
X94651024Y-131866203D01*
X94868115Y-131949537D01*
X94877804Y-131952388D01*
X95028264Y-131983821D01*
X95042325Y-131982698D01*
X95046000Y-131972590D01*
X95046000Y-131970590D01*
X95554000Y-131970590D01*
X95558136Y-131984676D01*
X95571114Y-131986725D01*
X95588830Y-131984675D01*
X95598727Y-131982715D01*
X95822494Y-131919396D01*
X95831938Y-131915884D01*
X96042705Y-131817601D01*
X96051471Y-131812622D01*
X96243802Y-131681913D01*
X96251677Y-131675581D01*
X96420626Y-131515814D01*
X96427387Y-131508305D01*
X96568625Y-131323574D01*
X96574089Y-131315095D01*
X96683978Y-131110153D01*
X96688020Y-131100901D01*
X96702635Y-131058456D01*
X103192000Y-131058456D01*
X103192202Y-131063488D01*
X103206150Y-131236843D01*
X103207762Y-131246796D01*
X103263233Y-131472633D01*
X103266416Y-131482203D01*
X103357280Y-131696265D01*
X103361955Y-131705207D01*
X103485874Y-131901987D01*
X103491914Y-131910060D01*
X103645703Y-132084500D01*
X103652956Y-132091504D01*
X103832654Y-132239110D01*
X103840936Y-132244866D01*
X104041919Y-132361841D01*
X104051024Y-132366203D01*
X104268115Y-132449537D01*
X104277804Y-132452388D01*
X104428264Y-132483821D01*
X104442325Y-132482698D01*
X104446000Y-132472590D01*
X104446000Y-132470590D01*
X104954000Y-132470590D01*
X104958136Y-132484676D01*
X104971114Y-132486725D01*
X104988830Y-132484675D01*
X104998727Y-132482715D01*
X105222494Y-132419396D01*
X105231938Y-132415884D01*
X105442705Y-132317601D01*
X105451471Y-132312622D01*
X105643802Y-132181913D01*
X105651677Y-132175581D01*
X105820626Y-132015814D01*
X105827387Y-132008305D01*
X105968625Y-131823574D01*
X105974089Y-131815095D01*
X106083978Y-131610153D01*
X106088020Y-131600901D01*
X106163727Y-131381029D01*
X106166236Y-131371257D01*
X106206004Y-131141029D01*
X106206859Y-131133157D01*
X106207936Y-131109449D01*
X106208000Y-131106616D01*
X106208000Y-130272115D01*
X106203525Y-130256876D01*
X106202135Y-130255671D01*
X106194452Y-130254000D01*
X104972115Y-130254000D01*
X104956876Y-130258475D01*
X104955671Y-130259865D01*
X104954000Y-130267548D01*
X104954000Y-132470590D01*
X104446000Y-132470590D01*
X104446000Y-130272115D01*
X104441525Y-130256876D01*
X104440135Y-130255671D01*
X104432452Y-130254000D01*
X103210115Y-130254000D01*
X103194876Y-130258475D01*
X103193671Y-130259865D01*
X103192000Y-130267548D01*
X103192000Y-131058456D01*
X96702635Y-131058456D01*
X96763727Y-130881029D01*
X96766236Y-130871257D01*
X96806004Y-130641029D01*
X96806859Y-130633157D01*
X96807936Y-130609449D01*
X96808000Y-130606616D01*
X96808000Y-130272115D01*
X96803525Y-130256876D01*
X96802135Y-130255671D01*
X96794452Y-130254000D01*
X95572115Y-130254000D01*
X95556876Y-130258475D01*
X95555671Y-130259865D01*
X95554000Y-130267548D01*
X95554000Y-131970590D01*
X95046000Y-131970590D01*
X95046000Y-130272115D01*
X95041525Y-130256876D01*
X95040135Y-130255671D01*
X95032452Y-130254000D01*
X93810115Y-130254000D01*
X93794876Y-130258475D01*
X93793671Y-130259865D01*
X93792000Y-130267548D01*
X93792000Y-130558456D01*
X90300500Y-130558456D01*
X90300500Y-129727885D01*
X93792000Y-129727885D01*
X93796475Y-129743124D01*
X93797865Y-129744329D01*
X93805548Y-129746000D01*
X95027885Y-129746000D01*
X95043124Y-129741525D01*
X95044329Y-129740135D01*
X95046000Y-129732452D01*
X95046000Y-129727885D01*
X95554000Y-129727885D01*
X95558475Y-129743124D01*
X95559865Y-129744329D01*
X95567548Y-129746000D01*
X96789885Y-129746000D01*
X96805124Y-129741525D01*
X96806329Y-129740135D01*
X96808000Y-129732452D01*
X96808000Y-129727885D01*
X103192000Y-129727885D01*
X103196475Y-129743124D01*
X103197865Y-129744329D01*
X103205548Y-129746000D01*
X104427885Y-129746000D01*
X104443124Y-129741525D01*
X104444329Y-129740135D01*
X104446000Y-129732452D01*
X104446000Y-129727885D01*
X104954000Y-129727885D01*
X104958475Y-129743124D01*
X104959865Y-129744329D01*
X104967548Y-129746000D01*
X106189885Y-129746000D01*
X106205124Y-129741525D01*
X106206329Y-129740135D01*
X106208000Y-129732452D01*
X106208000Y-128941544D01*
X106207798Y-128936512D01*
X106193850Y-128763157D01*
X106192238Y-128753204D01*
X106136767Y-128527367D01*
X106133584Y-128517797D01*
X106042720Y-128303735D01*
X106038045Y-128294793D01*
X105914126Y-128098013D01*
X105908086Y-128089940D01*
X105754297Y-127915500D01*
X105747044Y-127908496D01*
X105567346Y-127760890D01*
X105559064Y-127755134D01*
X105358081Y-127638159D01*
X105348976Y-127633797D01*
X105131885Y-127550463D01*
X105122196Y-127547612D01*
X104971736Y-127516179D01*
X104957675Y-127517302D01*
X104954000Y-127527410D01*
X104954000Y-129727885D01*
X104446000Y-129727885D01*
X104446000Y-127529410D01*
X104441864Y-127515324D01*
X104428886Y-127513275D01*
X104411170Y-127515325D01*
X104401273Y-127517285D01*
X104177506Y-127580604D01*
X104168062Y-127584116D01*
X103957295Y-127682399D01*
X103948529Y-127687378D01*
X103756198Y-127818087D01*
X103748323Y-127824419D01*
X103579374Y-127984186D01*
X103572613Y-127991695D01*
X103431375Y-128176426D01*
X103425911Y-128184905D01*
X103316022Y-128389847D01*
X103311980Y-128399099D01*
X103236273Y-128618971D01*
X103233764Y-128628743D01*
X103193996Y-128858971D01*
X103193141Y-128866843D01*
X103192064Y-128890551D01*
X103192000Y-128893384D01*
X103192000Y-129727885D01*
X96808000Y-129727885D01*
X96808000Y-129441544D01*
X96807798Y-129436512D01*
X96793850Y-129263157D01*
X96792238Y-129253204D01*
X96736767Y-129027367D01*
X96733584Y-129017797D01*
X96642720Y-128803735D01*
X96638045Y-128794793D01*
X96514126Y-128598013D01*
X96508086Y-128589940D01*
X96354297Y-128415500D01*
X96347044Y-128408496D01*
X96167346Y-128260890D01*
X96159064Y-128255134D01*
X95958081Y-128138159D01*
X95948976Y-128133797D01*
X95731885Y-128050463D01*
X95722196Y-128047612D01*
X95571736Y-128016179D01*
X95557675Y-128017302D01*
X95554000Y-128027410D01*
X95554000Y-129727885D01*
X95046000Y-129727885D01*
X95046000Y-128029410D01*
X95041864Y-128015324D01*
X95028886Y-128013275D01*
X95011170Y-128015325D01*
X95001273Y-128017285D01*
X94777506Y-128080604D01*
X94768062Y-128084116D01*
X94557295Y-128182399D01*
X94548529Y-128187378D01*
X94356198Y-128318087D01*
X94348323Y-128324419D01*
X94179374Y-128484186D01*
X94172613Y-128491695D01*
X94031375Y-128676426D01*
X94025911Y-128684905D01*
X93916022Y-128889847D01*
X93911980Y-128899099D01*
X93836273Y-129118971D01*
X93833764Y-129128743D01*
X93793996Y-129358971D01*
X93793141Y-129366843D01*
X93792064Y-129390551D01*
X93792000Y-129393384D01*
X93792000Y-129727885D01*
X90300500Y-129727885D01*
X90300500Y-126700000D01*
X97444532Y-126700000D01*
X97464365Y-126926692D01*
X97523261Y-127146496D01*
X97619432Y-127352734D01*
X97749953Y-127539139D01*
X97910861Y-127700047D01*
X98097266Y-127830568D01*
X98102244Y-127832889D01*
X98102247Y-127832891D01*
X98264382Y-127908496D01*
X98303504Y-127926739D01*
X98308812Y-127928161D01*
X98308814Y-127928162D01*
X98517993Y-127984211D01*
X98517995Y-127984211D01*
X98523308Y-127985635D01*
X98622302Y-127994296D01*
X98690492Y-128000262D01*
X98690499Y-128000262D01*
X98693216Y-128000500D01*
X101306784Y-128000500D01*
X101309501Y-128000262D01*
X101309508Y-128000262D01*
X101377698Y-127994296D01*
X101476692Y-127985635D01*
X101482005Y-127984211D01*
X101482007Y-127984211D01*
X101691186Y-127928162D01*
X101691188Y-127928161D01*
X101696496Y-127926739D01*
X101735618Y-127908496D01*
X101897753Y-127832891D01*
X101897756Y-127832889D01*
X101902734Y-127830568D01*
X102089139Y-127700047D01*
X102250047Y-127539139D01*
X102380568Y-127352734D01*
X102476739Y-127146496D01*
X102535635Y-126926692D01*
X102555468Y-126700000D01*
X102535635Y-126473308D01*
X102476739Y-126253504D01*
X102380568Y-126047266D01*
X102250047Y-125860861D01*
X102089139Y-125699953D01*
X101902734Y-125569432D01*
X101897756Y-125567111D01*
X101897753Y-125567109D01*
X101701478Y-125475584D01*
X101701476Y-125475583D01*
X101696496Y-125473261D01*
X101691188Y-125471839D01*
X101691186Y-125471838D01*
X101482007Y-125415789D01*
X101482005Y-125415789D01*
X101476692Y-125414365D01*
X101377698Y-125405704D01*
X101309508Y-125399738D01*
X101309501Y-125399738D01*
X101306784Y-125399500D01*
X98693216Y-125399500D01*
X98690499Y-125399738D01*
X98690492Y-125399738D01*
X98622302Y-125405704D01*
X98523308Y-125414365D01*
X98517995Y-125415789D01*
X98517993Y-125415789D01*
X98308814Y-125471838D01*
X98308812Y-125471839D01*
X98303504Y-125473261D01*
X98298524Y-125475583D01*
X98298522Y-125475584D01*
X98102247Y-125567109D01*
X98102244Y-125567111D01*
X98097266Y-125569432D01*
X97910861Y-125699953D01*
X97749953Y-125860861D01*
X97619432Y-126047266D01*
X97523261Y-126253504D01*
X97464365Y-126473308D01*
X97444532Y-126700000D01*
X90300500Y-126700000D01*
X90300500Y-120900000D01*
X92444532Y-120900000D01*
X92464365Y-121126692D01*
X92523261Y-121346496D01*
X92619432Y-121552734D01*
X92749953Y-121739139D01*
X92910861Y-121900047D01*
X93097266Y-122030568D01*
X93102244Y-122032889D01*
X93102247Y-122032891D01*
X93298522Y-122124416D01*
X93303504Y-122126739D01*
X93308812Y-122128161D01*
X93308814Y-122128162D01*
X93517993Y-122184211D01*
X93517995Y-122184211D01*
X93523308Y-122185635D01*
X93622302Y-122194296D01*
X93690492Y-122200262D01*
X93690499Y-122200262D01*
X93693216Y-122200500D01*
X96306784Y-122200500D01*
X96309501Y-122200262D01*
X96309508Y-122200262D01*
X96377698Y-122194296D01*
X96476692Y-122185635D01*
X96482005Y-122184211D01*
X96482007Y-122184211D01*
X96691186Y-122128162D01*
X96691188Y-122128161D01*
X96696496Y-122126739D01*
X96701478Y-122124416D01*
X96897753Y-122032891D01*
X96897756Y-122032889D01*
X96902734Y-122030568D01*
X97089139Y-121900047D01*
X97250047Y-121739139D01*
X97380568Y-121552734D01*
X97476739Y-121346496D01*
X97535635Y-121126692D01*
X97555468Y-120900000D01*
X102444532Y-120900000D01*
X102464365Y-121126692D01*
X102523261Y-121346496D01*
X102619432Y-121552734D01*
X102749953Y-121739139D01*
X102910861Y-121900047D01*
X103097266Y-122030568D01*
X103102244Y-122032889D01*
X103102247Y-122032891D01*
X103298522Y-122124416D01*
X103303504Y-122126739D01*
X103308812Y-122128161D01*
X103308814Y-122128162D01*
X103517993Y-122184211D01*
X103517995Y-122184211D01*
X103523308Y-122185635D01*
X103622302Y-122194296D01*
X103690492Y-122200262D01*
X103690499Y-122200262D01*
X103693216Y-122200500D01*
X106306784Y-122200500D01*
X106309501Y-122200262D01*
X106309508Y-122200262D01*
X106377698Y-122194296D01*
X106476692Y-122185635D01*
X106482005Y-122184211D01*
X106482007Y-122184211D01*
X106691186Y-122128162D01*
X106691188Y-122128161D01*
X106696496Y-122126739D01*
X106701478Y-122124416D01*
X106897753Y-122032891D01*
X106897756Y-122032889D01*
X106902734Y-122030568D01*
X107089139Y-121900047D01*
X107250047Y-121739139D01*
X107380568Y-121552734D01*
X107476739Y-121346496D01*
X107535635Y-121126692D01*
X107555468Y-120900000D01*
X107535635Y-120673308D01*
X107476739Y-120453504D01*
X107380568Y-120247266D01*
X107250047Y-120060861D01*
X107089139Y-119899953D01*
X106902734Y-119769432D01*
X106897756Y-119767111D01*
X106897753Y-119767109D01*
X106701478Y-119675584D01*
X106701476Y-119675583D01*
X106696496Y-119673261D01*
X106691188Y-119671839D01*
X106691186Y-119671838D01*
X106482007Y-119615789D01*
X106482005Y-119615789D01*
X106476692Y-119614365D01*
X106377698Y-119605704D01*
X106309508Y-119599738D01*
X106309501Y-119599738D01*
X106306784Y-119599500D01*
X103693216Y-119599500D01*
X103690499Y-119599738D01*
X103690492Y-119599738D01*
X103622302Y-119605704D01*
X103523308Y-119614365D01*
X103517995Y-119615789D01*
X103517993Y-119615789D01*
X103308814Y-119671838D01*
X103308812Y-119671839D01*
X103303504Y-119673261D01*
X103298524Y-119675583D01*
X103298522Y-119675584D01*
X103102247Y-119767109D01*
X103102244Y-119767111D01*
X103097266Y-119769432D01*
X102910861Y-119899953D01*
X102749953Y-120060861D01*
X102619432Y-120247266D01*
X102523261Y-120453504D01*
X102464365Y-120673308D01*
X102444532Y-120900000D01*
X97555468Y-120900000D01*
X97535635Y-120673308D01*
X97476739Y-120453504D01*
X97380568Y-120247266D01*
X97250047Y-120060861D01*
X97089139Y-119899953D01*
X96902734Y-119769432D01*
X96897756Y-119767111D01*
X96897753Y-119767109D01*
X96701478Y-119675584D01*
X96701476Y-119675583D01*
X96696496Y-119673261D01*
X96691188Y-119671839D01*
X96691186Y-119671838D01*
X96482007Y-119615789D01*
X96482005Y-119615789D01*
X96476692Y-119614365D01*
X96377698Y-119605704D01*
X96309508Y-119599738D01*
X96309501Y-119599738D01*
X96306784Y-119599500D01*
X93693216Y-119599500D01*
X93690499Y-119599738D01*
X93690492Y-119599738D01*
X93622302Y-119605704D01*
X93523308Y-119614365D01*
X93517995Y-119615789D01*
X93517993Y-119615789D01*
X93308814Y-119671838D01*
X93308812Y-119671839D01*
X93303504Y-119673261D01*
X93298524Y-119675583D01*
X93298522Y-119675584D01*
X93102247Y-119767109D01*
X93102244Y-119767111D01*
X93097266Y-119769432D01*
X92910861Y-119899953D01*
X92749953Y-120060861D01*
X92619432Y-120247266D01*
X92523261Y-120453504D01*
X92464365Y-120673308D01*
X92444532Y-120900000D01*
X90300500Y-120900000D01*
X90300500Y-117426977D01*
X90320502Y-117358856D01*
X90374158Y-117312363D01*
X90413963Y-117301602D01*
X90425301Y-117300468D01*
X90429196Y-117300079D01*
X90435079Y-117299630D01*
X90481756Y-117297164D01*
X90487728Y-117295087D01*
X90506869Y-117286253D01*
X90524390Y-117279696D01*
X90536717Y-117276101D01*
X90536719Y-117276100D01*
X90547886Y-117272843D01*
X90557134Y-117265783D01*
X90560455Y-117264104D01*
X90578787Y-117253060D01*
X90591852Y-117247030D01*
X90604044Y-117242156D01*
X90642993Y-117228897D01*
X90648994Y-117225206D01*
X90653123Y-117223262D01*
X90656940Y-117222455D01*
X90662518Y-117219477D01*
X90685399Y-117204223D01*
X90687699Y-117202793D01*
X90691302Y-117201130D01*
X90696038Y-117197774D01*
X90696043Y-117197771D01*
X90708862Y-117188687D01*
X90715692Y-117184172D01*
X90789954Y-117138486D01*
X90789955Y-117138485D01*
X90795955Y-117134794D01*
X90800987Y-117129866D01*
X90802052Y-117129034D01*
X90816445Y-117119309D01*
X90821422Y-117116424D01*
X90829118Y-117111964D01*
X90833492Y-117107397D01*
X90848607Y-117088160D01*
X90859777Y-117075737D01*
X90871441Y-117064379D01*
X90871442Y-117064378D01*
X90879240Y-117056784D01*
X98399500Y-117056784D01*
X98399738Y-117059501D01*
X98399738Y-117059508D01*
X98400164Y-117064379D01*
X98414365Y-117226692D01*
X98415789Y-117232005D01*
X98415789Y-117232007D01*
X98445539Y-117343034D01*
X98473261Y-117446496D01*
X98475583Y-117451476D01*
X98475584Y-117451478D01*
X98563493Y-117639997D01*
X98569432Y-117652734D01*
X98699953Y-117839139D01*
X98860861Y-118000047D01*
X99047266Y-118130568D01*
X99052244Y-118132889D01*
X99052247Y-118132891D01*
X99248522Y-118224416D01*
X99253504Y-118226739D01*
X99258812Y-118228161D01*
X99258814Y-118228162D01*
X99467993Y-118284211D01*
X99467995Y-118284211D01*
X99473308Y-118285635D01*
X99700000Y-118305468D01*
X99926692Y-118285635D01*
X99932005Y-118284211D01*
X99932007Y-118284211D01*
X100141186Y-118228162D01*
X100141188Y-118228161D01*
X100146496Y-118226739D01*
X100151478Y-118224416D01*
X100347753Y-118132891D01*
X100347756Y-118132889D01*
X100352734Y-118130568D01*
X100539139Y-118000047D01*
X100700047Y-117839139D01*
X100775022Y-117732062D01*
X100824984Y-117690139D01*
X100915881Y-117647753D01*
X100947753Y-117632891D01*
X100947756Y-117632889D01*
X100952734Y-117630568D01*
X101139139Y-117500047D01*
X101300047Y-117339139D01*
X101430568Y-117152734D01*
X101441734Y-117128790D01*
X101524416Y-116951478D01*
X101524417Y-116951476D01*
X101526739Y-116946496D01*
X101538623Y-116902146D01*
X101584211Y-116732007D01*
X101584211Y-116732005D01*
X101585635Y-116726692D01*
X101600500Y-116556784D01*
X101600500Y-115443216D01*
X101585635Y-115273308D01*
X101579067Y-115248797D01*
X101528162Y-115058814D01*
X101528161Y-115058812D01*
X101526739Y-115053504D01*
X101524416Y-115048522D01*
X101432891Y-114852247D01*
X101432889Y-114852244D01*
X101430568Y-114847266D01*
X101300047Y-114660861D01*
X101139139Y-114499953D01*
X100952734Y-114369432D01*
X100947756Y-114367111D01*
X100947753Y-114367109D01*
X100859403Y-114325911D01*
X100824984Y-114309861D01*
X100775021Y-114267937D01*
X100774271Y-114266865D01*
X100700047Y-114160861D01*
X100539139Y-113999953D01*
X100352734Y-113869432D01*
X100347756Y-113867111D01*
X100347753Y-113867109D01*
X100151478Y-113775584D01*
X100151476Y-113775583D01*
X100146496Y-113773261D01*
X100141188Y-113771839D01*
X100141186Y-113771838D01*
X99932007Y-113715789D01*
X99932005Y-113715789D01*
X99926692Y-113714365D01*
X99700000Y-113694532D01*
X99473308Y-113714365D01*
X99467995Y-113715789D01*
X99467993Y-113715789D01*
X99258814Y-113771838D01*
X99258812Y-113771839D01*
X99253504Y-113773261D01*
X99248524Y-113775583D01*
X99248522Y-113775584D01*
X99052247Y-113867109D01*
X99052244Y-113867111D01*
X99047266Y-113869432D01*
X98860861Y-113999953D01*
X98699953Y-114160861D01*
X98569432Y-114347266D01*
X98567111Y-114352244D01*
X98567109Y-114352247D01*
X98496416Y-114503848D01*
X98473261Y-114553504D01*
X98471839Y-114558812D01*
X98471838Y-114558814D01*
X98415789Y-114767993D01*
X98414365Y-114773308D01*
X98409228Y-114832025D01*
X98400276Y-114934350D01*
X98399500Y-114943216D01*
X98399500Y-117056784D01*
X90879240Y-117056784D01*
X90879776Y-117056262D01*
X90881784Y-117051887D01*
X90887631Y-117045018D01*
X90924268Y-117009141D01*
X90929918Y-117000375D01*
X90963136Y-116948830D01*
X90972863Y-116935693D01*
X90975028Y-116933135D01*
X90981669Y-116927221D01*
X90985035Y-116921868D01*
X90997624Y-116896690D01*
X91004411Y-116884783D01*
X91005680Y-116882814D01*
X91021554Y-116858183D01*
X91031183Y-116831728D01*
X91033985Y-116832748D01*
X91036755Y-116818429D01*
X91038760Y-116814418D01*
X91056008Y-116779922D01*
X91057188Y-116777623D01*
X91077878Y-116738312D01*
X91082019Y-116730445D01*
X91083292Y-116724251D01*
X91084918Y-116708803D01*
X91089117Y-116687227D01*
X91091107Y-116680294D01*
X91094316Y-116669115D01*
X91093009Y-116654426D01*
X91093206Y-116630076D01*
X91102978Y-116537236D01*
X91105858Y-116520636D01*
X91106588Y-116517637D01*
X91109883Y-116509378D01*
X91110500Y-116503085D01*
X91110500Y-116472392D01*
X91111163Y-116459746D01*
X91111167Y-116459439D01*
X91111775Y-116453663D01*
X91111316Y-116447881D01*
X91111316Y-116447868D01*
X91110896Y-116442584D01*
X91110500Y-116432608D01*
X91110500Y-115452984D01*
X91110711Y-115445698D01*
X91112757Y-115410380D01*
X91112757Y-115410377D01*
X91113271Y-115401499D01*
X91111866Y-115395334D01*
X91104460Y-115373116D01*
X91100125Y-115356343D01*
X91097339Y-115341385D01*
X91095209Y-115329947D01*
X91089104Y-115320043D01*
X91084916Y-115309190D01*
X91086940Y-115308409D01*
X91079906Y-115289394D01*
X91079653Y-115289471D01*
X91078707Y-115286380D01*
X91078705Y-115286374D01*
X91077802Y-115283425D01*
X91063374Y-115248797D01*
X91060149Y-115240184D01*
X91056241Y-115228460D01*
X91053432Y-115223390D01*
X91052431Y-115221110D01*
X91048135Y-115212225D01*
X91045603Y-115206149D01*
X91042927Y-115199143D01*
X91028802Y-115158581D01*
X91026485Y-115151927D01*
X91021534Y-115144004D01*
X91012086Y-115125707D01*
X91010476Y-115121844D01*
X91008986Y-115118097D01*
X90994334Y-115079443D01*
X90994332Y-115079440D01*
X90991183Y-115071132D01*
X90987386Y-115066076D01*
X90975209Y-115052792D01*
X90962626Y-115036593D01*
X90950942Y-115018717D01*
X90941501Y-115011925D01*
X90937149Y-115007374D01*
X90933644Y-115003351D01*
X90931316Y-114999625D01*
X90922611Y-114990859D01*
X90870111Y-114937991D01*
X90866637Y-114934350D01*
X90847996Y-114914015D01*
X90844605Y-114910161D01*
X90819254Y-114880138D01*
X90813514Y-114873340D01*
X90808251Y-114869834D01*
X90805527Y-114868381D01*
X90790802Y-114860527D01*
X90774377Y-114850061D01*
X90771270Y-114847725D01*
X90755877Y-114836151D01*
X90744686Y-114832976D01*
X90742769Y-114832025D01*
X90731258Y-114825540D01*
X90659086Y-114779739D01*
X90653136Y-114775963D01*
X90614962Y-114762370D01*
X90596676Y-114753458D01*
X90591139Y-114750959D01*
X90583626Y-114746196D01*
X90577554Y-114744430D01*
X90574538Y-114743865D01*
X90574536Y-114743864D01*
X90559875Y-114741115D01*
X90540828Y-114735972D01*
X90490586Y-114718081D01*
X90490581Y-114718080D01*
X90483951Y-114715719D01*
X90432297Y-114709560D01*
X90411580Y-114707089D01*
X90346307Y-114679161D01*
X90306495Y-114620378D01*
X90300500Y-114581975D01*
X90300500Y-112700000D01*
X92444532Y-112700000D01*
X92464365Y-112926692D01*
X92523261Y-113146496D01*
X92619432Y-113352734D01*
X92749953Y-113539139D01*
X92910861Y-113700047D01*
X93097266Y-113830568D01*
X93102244Y-113832889D01*
X93102247Y-113832891D01*
X93187375Y-113872587D01*
X93303504Y-113926739D01*
X93308812Y-113928161D01*
X93308814Y-113928162D01*
X93517993Y-113984211D01*
X93517995Y-113984211D01*
X93523308Y-113985635D01*
X93622302Y-113994296D01*
X93690492Y-114000262D01*
X93690499Y-114000262D01*
X93693216Y-114000500D01*
X96306784Y-114000500D01*
X96309501Y-114000262D01*
X96309508Y-114000262D01*
X96377698Y-113994296D01*
X96476692Y-113985635D01*
X96482005Y-113984211D01*
X96482007Y-113984211D01*
X96691186Y-113928162D01*
X96691188Y-113928161D01*
X96696496Y-113926739D01*
X96812625Y-113872587D01*
X96897753Y-113832891D01*
X96897756Y-113832889D01*
X96902734Y-113830568D01*
X97089139Y-113700047D01*
X97250047Y-113539139D01*
X97380568Y-113352734D01*
X97476739Y-113146496D01*
X97535635Y-112926692D01*
X97555468Y-112700000D01*
X102444532Y-112700000D01*
X102464365Y-112926692D01*
X102523261Y-113146496D01*
X102619432Y-113352734D01*
X102749953Y-113539139D01*
X102910861Y-113700047D01*
X103097266Y-113830568D01*
X103102244Y-113832889D01*
X103102247Y-113832891D01*
X103187375Y-113872587D01*
X103303504Y-113926739D01*
X103308812Y-113928161D01*
X103308814Y-113928162D01*
X103517993Y-113984211D01*
X103517995Y-113984211D01*
X103523308Y-113985635D01*
X103622302Y-113994296D01*
X103690492Y-114000262D01*
X103690499Y-114000262D01*
X103693216Y-114000500D01*
X106306784Y-114000500D01*
X106309501Y-114000262D01*
X106309508Y-114000262D01*
X106377698Y-113994296D01*
X106476692Y-113985635D01*
X106482005Y-113984211D01*
X106482007Y-113984211D01*
X106691186Y-113928162D01*
X106691188Y-113928161D01*
X106696496Y-113926739D01*
X106812625Y-113872587D01*
X106897753Y-113832891D01*
X106897756Y-113832889D01*
X106902734Y-113830568D01*
X107089139Y-113700047D01*
X107250047Y-113539139D01*
X107380568Y-113352734D01*
X107476739Y-113146496D01*
X107535635Y-112926692D01*
X107555468Y-112700000D01*
X107535635Y-112473308D01*
X107476739Y-112253504D01*
X107380568Y-112047266D01*
X107250047Y-111860861D01*
X107089139Y-111699953D01*
X106902734Y-111569432D01*
X106897756Y-111567111D01*
X106897753Y-111567109D01*
X106701478Y-111475584D01*
X106701476Y-111475583D01*
X106696496Y-111473261D01*
X106691188Y-111471839D01*
X106691186Y-111471838D01*
X106482007Y-111415789D01*
X106482005Y-111415789D01*
X106476692Y-111414365D01*
X106377698Y-111405704D01*
X106309508Y-111399738D01*
X106309501Y-111399738D01*
X106306784Y-111399500D01*
X105526500Y-111399500D01*
X105458379Y-111379498D01*
X105411886Y-111325842D01*
X105400500Y-111273500D01*
X105400500Y-109251118D01*
X105420502Y-109182997D01*
X105478281Y-109134710D01*
X105495207Y-109127699D01*
X105495212Y-109127696D01*
X105502841Y-109124536D01*
X105628282Y-109028282D01*
X105724536Y-108902841D01*
X105785044Y-108756762D01*
X105805682Y-108600000D01*
X105785044Y-108443238D01*
X105724536Y-108297159D01*
X105628282Y-108171718D01*
X105502841Y-108075464D01*
X105356762Y-108014956D01*
X105200000Y-107994318D01*
X105043238Y-108014956D01*
X104897159Y-108075464D01*
X104771718Y-108171718D01*
X104675464Y-108297159D01*
X104614956Y-108443238D01*
X104594318Y-108600000D01*
X104595396Y-108608188D01*
X104604886Y-108680272D01*
X104601517Y-108716932D01*
X104604116Y-108717344D01*
X104602566Y-108727131D01*
X104599500Y-108736567D01*
X104599500Y-111273500D01*
X104579498Y-111341621D01*
X104525842Y-111388114D01*
X104473500Y-111399500D01*
X103693216Y-111399500D01*
X103690499Y-111399738D01*
X103690492Y-111399738D01*
X103622302Y-111405704D01*
X103523308Y-111414365D01*
X103517995Y-111415789D01*
X103517993Y-111415789D01*
X103308814Y-111471838D01*
X103308812Y-111471839D01*
X103303504Y-111473261D01*
X103298524Y-111475583D01*
X103298522Y-111475584D01*
X103102247Y-111567109D01*
X103102244Y-111567111D01*
X103097266Y-111569432D01*
X102910861Y-111699953D01*
X102749953Y-111860861D01*
X102619432Y-112047266D01*
X102523261Y-112253504D01*
X102464365Y-112473308D01*
X102444532Y-112700000D01*
X97555468Y-112700000D01*
X97535635Y-112473308D01*
X97476739Y-112253504D01*
X97380568Y-112047266D01*
X97250047Y-111860861D01*
X97089139Y-111699953D01*
X96902734Y-111569432D01*
X96897756Y-111567111D01*
X96897753Y-111567109D01*
X96701478Y-111475584D01*
X96701476Y-111475583D01*
X96696496Y-111473261D01*
X96691188Y-111471839D01*
X96691186Y-111471838D01*
X96482007Y-111415789D01*
X96482005Y-111415789D01*
X96476692Y-111414365D01*
X96377698Y-111405704D01*
X96309508Y-111399738D01*
X96309501Y-111399738D01*
X96306784Y-111399500D01*
X95526500Y-111399500D01*
X95458379Y-111379498D01*
X95411886Y-111325842D01*
X95400500Y-111273500D01*
X95400500Y-110118083D01*
X95420502Y-110049962D01*
X95437405Y-110028988D01*
X97205484Y-108260909D01*
X97205487Y-108260905D01*
X97228050Y-108238342D01*
X97232555Y-108229501D01*
X97238037Y-108218742D01*
X97248365Y-108201887D01*
X97255467Y-108192112D01*
X97261296Y-108184089D01*
X97268094Y-108163168D01*
X97275658Y-108144908D01*
X97281144Y-108134141D01*
X97281145Y-108134137D01*
X97285646Y-108125304D01*
X97289087Y-108103578D01*
X97293703Y-108084353D01*
X97297435Y-108072868D01*
X97297436Y-108072864D01*
X97300500Y-108063433D01*
X97300500Y-107437133D01*
X97320502Y-107369012D01*
X97374158Y-107322519D01*
X97444432Y-107312415D01*
X97509012Y-107341909D01*
X97540695Y-107383883D01*
X97619432Y-107552734D01*
X97749953Y-107739139D01*
X97910861Y-107900047D01*
X98097266Y-108030568D01*
X98102244Y-108032889D01*
X98102247Y-108032891D01*
X98298522Y-108124416D01*
X98303504Y-108126739D01*
X98308812Y-108128161D01*
X98308814Y-108128162D01*
X98517993Y-108184211D01*
X98517995Y-108184211D01*
X98523308Y-108185635D01*
X98622302Y-108194296D01*
X98690492Y-108200262D01*
X98690499Y-108200262D01*
X98693216Y-108200500D01*
X101306784Y-108200500D01*
X101309501Y-108200262D01*
X101309508Y-108200262D01*
X101377698Y-108194296D01*
X101476692Y-108185635D01*
X101482005Y-108184211D01*
X101482007Y-108184211D01*
X101691186Y-108128162D01*
X101691188Y-108128161D01*
X101696496Y-108126739D01*
X101701478Y-108124416D01*
X101897753Y-108032891D01*
X101897756Y-108032889D01*
X101902734Y-108030568D01*
X102089139Y-107900047D01*
X102250047Y-107739139D01*
X102380568Y-107552734D01*
X102476739Y-107346496D01*
X102535635Y-107126692D01*
X102555468Y-106900000D01*
X102535635Y-106673308D01*
X102476739Y-106453504D01*
X102380568Y-106247266D01*
X102250047Y-106060861D01*
X102089139Y-105899953D01*
X101902734Y-105769432D01*
X101897756Y-105767111D01*
X101897753Y-105767109D01*
X101701478Y-105675584D01*
X101701476Y-105675583D01*
X101696496Y-105673261D01*
X101691188Y-105671839D01*
X101691186Y-105671838D01*
X101482007Y-105615789D01*
X101482005Y-105615789D01*
X101476692Y-105614365D01*
X101377698Y-105605704D01*
X101309508Y-105599738D01*
X101309501Y-105599738D01*
X101306784Y-105599500D01*
X98693216Y-105599500D01*
X98690499Y-105599738D01*
X98690492Y-105599738D01*
X98622302Y-105605704D01*
X98523308Y-105614365D01*
X98517995Y-105615789D01*
X98517993Y-105615789D01*
X98308814Y-105671838D01*
X98308812Y-105671839D01*
X98303504Y-105673261D01*
X98298524Y-105675583D01*
X98298522Y-105675584D01*
X98102247Y-105767109D01*
X98102244Y-105767111D01*
X98097266Y-105769432D01*
X97910861Y-105899953D01*
X97749953Y-106060861D01*
X97667772Y-106178228D01*
X97612318Y-106222555D01*
X97541698Y-106229864D01*
X97478338Y-106197834D01*
X97448152Y-106154173D01*
X97427698Y-106104791D01*
X97427695Y-106104787D01*
X97424536Y-106097159D01*
X97328282Y-105971718D01*
X97202841Y-105875464D01*
X97056762Y-105814956D01*
X96900000Y-105794318D01*
X96743238Y-105814956D01*
X96742776Y-105811445D01*
X96688042Y-105810099D01*
X96629277Y-105770260D01*
X96601380Y-105704974D01*
X96600500Y-105690112D01*
X96600500Y-105118083D01*
X96620502Y-105049962D01*
X96637405Y-105028988D01*
X98607937Y-103058456D01*
X103192000Y-103058456D01*
X103192202Y-103063488D01*
X103206150Y-103236843D01*
X103207762Y-103246796D01*
X103263233Y-103472633D01*
X103266416Y-103482203D01*
X103357280Y-103696265D01*
X103361955Y-103705207D01*
X103485874Y-103901987D01*
X103491914Y-103910060D01*
X103645703Y-104084500D01*
X103652956Y-104091504D01*
X103832654Y-104239110D01*
X103840936Y-104244866D01*
X104041919Y-104361841D01*
X104051024Y-104366203D01*
X104268115Y-104449537D01*
X104277804Y-104452388D01*
X104428264Y-104483821D01*
X104442325Y-104482698D01*
X104446000Y-104472590D01*
X104446000Y-104470590D01*
X104954000Y-104470590D01*
X104958136Y-104484676D01*
X104971114Y-104486725D01*
X104988830Y-104484675D01*
X104998727Y-104482715D01*
X105222494Y-104419396D01*
X105231938Y-104415884D01*
X105442705Y-104317601D01*
X105451471Y-104312622D01*
X105643802Y-104181913D01*
X105651677Y-104175581D01*
X105820626Y-104015814D01*
X105827387Y-104008305D01*
X105968625Y-103823574D01*
X105974089Y-103815095D01*
X106083978Y-103610153D01*
X106088020Y-103600901D01*
X106163727Y-103381029D01*
X106166236Y-103371257D01*
X106206004Y-103141029D01*
X106206859Y-103133157D01*
X106207936Y-103109449D01*
X106208000Y-103106616D01*
X106208000Y-102272115D01*
X106203525Y-102256876D01*
X106202135Y-102255671D01*
X106194452Y-102254000D01*
X104972115Y-102254000D01*
X104956876Y-102258475D01*
X104955671Y-102259865D01*
X104954000Y-102267548D01*
X104954000Y-104470590D01*
X104446000Y-104470590D01*
X104446000Y-102272115D01*
X104441525Y-102256876D01*
X104440135Y-102255671D01*
X104432452Y-102254000D01*
X103210115Y-102254000D01*
X103194876Y-102258475D01*
X103193671Y-102259865D01*
X103192000Y-102267548D01*
X103192000Y-103058456D01*
X98607937Y-103058456D01*
X99938508Y-101727885D01*
X103192000Y-101727885D01*
X103196475Y-101743124D01*
X103197865Y-101744329D01*
X103205548Y-101746000D01*
X104427885Y-101746000D01*
X104443124Y-101741525D01*
X104444329Y-101740135D01*
X104446000Y-101732452D01*
X104446000Y-101727885D01*
X104954000Y-101727885D01*
X104958475Y-101743124D01*
X104959865Y-101744329D01*
X104967548Y-101746000D01*
X106189885Y-101746000D01*
X106205124Y-101741525D01*
X106206329Y-101740135D01*
X106208000Y-101732452D01*
X106208000Y-100941544D01*
X106207798Y-100936512D01*
X106193850Y-100763157D01*
X106192238Y-100753204D01*
X106136767Y-100527367D01*
X106133584Y-100517797D01*
X106042720Y-100303735D01*
X106038045Y-100294793D01*
X105914126Y-100098013D01*
X105908086Y-100089940D01*
X105754297Y-99915500D01*
X105747044Y-99908496D01*
X105567346Y-99760890D01*
X105559064Y-99755134D01*
X105358081Y-99638159D01*
X105348976Y-99633797D01*
X105131885Y-99550463D01*
X105122196Y-99547612D01*
X104971736Y-99516179D01*
X104957675Y-99517302D01*
X104954000Y-99527410D01*
X104954000Y-101727885D01*
X104446000Y-101727885D01*
X104446000Y-99529410D01*
X104441864Y-99515324D01*
X104428886Y-99513275D01*
X104411170Y-99515325D01*
X104401273Y-99517285D01*
X104177506Y-99580604D01*
X104168062Y-99584116D01*
X103957295Y-99682399D01*
X103948529Y-99687378D01*
X103756198Y-99818087D01*
X103748323Y-99824419D01*
X103579374Y-99984186D01*
X103572613Y-99991695D01*
X103431375Y-100176426D01*
X103425911Y-100184905D01*
X103316022Y-100389847D01*
X103311980Y-100399099D01*
X103236273Y-100618971D01*
X103233764Y-100628743D01*
X103193996Y-100858971D01*
X103193141Y-100866843D01*
X103192064Y-100890551D01*
X103192000Y-100893384D01*
X103192000Y-101727885D01*
X99938508Y-101727885D01*
X100305484Y-101360909D01*
X100305487Y-101360905D01*
X100328050Y-101338342D01*
X100332552Y-101329507D01*
X100338037Y-101318743D01*
X100348366Y-101301887D01*
X100355467Y-101292113D01*
X100361297Y-101284089D01*
X100368096Y-101263164D01*
X100375660Y-101244903D01*
X100381144Y-101234140D01*
X100381144Y-101234139D01*
X100385646Y-101225304D01*
X100389087Y-101203578D01*
X100393703Y-101184352D01*
X100397435Y-101172867D01*
X100397435Y-101172865D01*
X100400500Y-101163433D01*
X100400500Y-100126500D01*
X100420502Y-100058379D01*
X100474158Y-100011886D01*
X100526500Y-100000500D01*
X101306784Y-100000500D01*
X101309501Y-100000262D01*
X101309508Y-100000262D01*
X101377698Y-99994296D01*
X101476692Y-99985635D01*
X101482005Y-99984211D01*
X101482007Y-99984211D01*
X101691186Y-99928162D01*
X101691188Y-99928161D01*
X101696496Y-99926739D01*
X101735618Y-99908496D01*
X101897753Y-99832891D01*
X101897756Y-99832889D01*
X101902734Y-99830568D01*
X102089139Y-99700047D01*
X102250047Y-99539139D01*
X102380568Y-99352734D01*
X102476739Y-99146496D01*
X102496714Y-99071950D01*
X102534211Y-98932007D01*
X102534211Y-98932005D01*
X102535635Y-98926692D01*
X102555468Y-98700000D01*
X102535635Y-98473308D01*
X102525131Y-98434107D01*
X102478162Y-98258814D01*
X102478161Y-98258812D01*
X102476739Y-98253504D01*
X102451790Y-98200000D01*
X102382891Y-98052247D01*
X102382889Y-98052244D01*
X102380568Y-98047266D01*
X102250047Y-97860861D01*
X102089139Y-97699953D01*
X101902734Y-97569432D01*
X101897756Y-97567111D01*
X101897753Y-97567109D01*
X101701478Y-97475584D01*
X101701476Y-97475583D01*
X101696496Y-97473261D01*
X101691188Y-97471839D01*
X101691186Y-97471838D01*
X101482007Y-97415789D01*
X101482005Y-97415789D01*
X101476692Y-97414365D01*
X101377698Y-97405704D01*
X101309508Y-97399738D01*
X101309501Y-97399738D01*
X101306784Y-97399500D01*
X98693216Y-97399500D01*
X98690499Y-97399738D01*
X98690492Y-97399738D01*
X98622302Y-97405704D01*
X98523308Y-97414365D01*
X98517995Y-97415789D01*
X98517993Y-97415789D01*
X98308814Y-97471838D01*
X98308812Y-97471839D01*
X98303504Y-97473261D01*
X98298524Y-97475583D01*
X98298522Y-97475584D01*
X98102247Y-97567109D01*
X98102244Y-97567111D01*
X98097266Y-97569432D01*
X97910861Y-97699953D01*
X97749953Y-97860861D01*
X97619432Y-98047266D01*
X97617111Y-98052244D01*
X97617109Y-98052247D01*
X97548210Y-98200000D01*
X97523261Y-98253504D01*
X97521839Y-98258812D01*
X97521838Y-98258814D01*
X97474869Y-98434107D01*
X97464365Y-98473308D01*
X97444532Y-98700000D01*
X97464365Y-98926692D01*
X97465789Y-98932005D01*
X97465789Y-98932007D01*
X97503287Y-99071950D01*
X97523261Y-99146496D01*
X97619432Y-99352734D01*
X97749953Y-99539139D01*
X97910861Y-99700047D01*
X98097266Y-99830568D01*
X98102244Y-99832889D01*
X98102247Y-99832891D01*
X98264382Y-99908496D01*
X98303504Y-99926739D01*
X98308812Y-99928161D01*
X98308814Y-99928162D01*
X98517993Y-99984211D01*
X98517995Y-99984211D01*
X98523308Y-99985635D01*
X98622302Y-99994296D01*
X98690492Y-100000262D01*
X98690499Y-100000262D01*
X98693216Y-100000500D01*
X99473500Y-100000500D01*
X99541621Y-100020502D01*
X99588114Y-100074158D01*
X99599500Y-100126500D01*
X99599500Y-100881917D01*
X99579498Y-100950038D01*
X99562595Y-100971012D01*
X98415595Y-102118012D01*
X98353283Y-102152038D01*
X98282468Y-102146973D01*
X98225632Y-102104426D01*
X98200821Y-102037906D01*
X98200500Y-102028917D01*
X98200500Y-100636567D01*
X98197436Y-100627136D01*
X98197435Y-100627132D01*
X98193703Y-100615647D01*
X98189087Y-100596422D01*
X98187197Y-100584488D01*
X98187197Y-100584487D01*
X98185646Y-100574696D01*
X98181145Y-100565863D01*
X98181144Y-100565859D01*
X98175658Y-100555092D01*
X98168092Y-100536828D01*
X98164360Y-100525342D01*
X98161296Y-100515911D01*
X98148365Y-100498113D01*
X98138037Y-100481258D01*
X98132555Y-100470499D01*
X98132554Y-100470497D01*
X98128050Y-100461658D01*
X98105487Y-100439095D01*
X98105484Y-100439091D01*
X96760909Y-99094516D01*
X96760905Y-99094513D01*
X96738342Y-99071950D01*
X96718746Y-99061965D01*
X96701893Y-99051639D01*
X96684090Y-99038704D01*
X96663166Y-99031905D01*
X96644906Y-99024341D01*
X96634141Y-99018856D01*
X96634137Y-99018855D01*
X96625304Y-99014354D01*
X96615513Y-99012803D01*
X96615512Y-99012803D01*
X96603578Y-99010913D01*
X96584353Y-99006297D01*
X96572868Y-99002565D01*
X96572864Y-99002564D01*
X96563433Y-98999500D01*
X96372464Y-98999500D01*
X96304343Y-98979498D01*
X96257850Y-98925842D01*
X96247746Y-98855568D01*
X96277240Y-98790988D01*
X96324246Y-98757091D01*
X96332341Y-98753738D01*
X96402841Y-98724536D01*
X96528282Y-98628282D01*
X96543728Y-98608153D01*
X96619509Y-98509392D01*
X96624536Y-98502841D01*
X96685044Y-98356762D01*
X96705682Y-98200000D01*
X96685044Y-98043238D01*
X96624536Y-97897159D01*
X96550047Y-97800083D01*
X96533305Y-97778264D01*
X96528282Y-97771718D01*
X96449796Y-97711493D01*
X96407929Y-97654156D01*
X96400500Y-97611531D01*
X96400500Y-95406731D01*
X96420502Y-95338610D01*
X96428618Y-95328540D01*
X96428282Y-95328282D01*
X96519509Y-95209392D01*
X96524536Y-95202841D01*
X96585044Y-95056762D01*
X96605682Y-94900000D01*
X96585044Y-94743238D01*
X96588555Y-94742776D01*
X96589901Y-94688042D01*
X96629740Y-94629277D01*
X96695026Y-94601380D01*
X96709888Y-94600500D01*
X99263433Y-94600500D01*
X99272864Y-94597436D01*
X99272868Y-94597435D01*
X99284353Y-94593703D01*
X99303578Y-94589087D01*
X99315512Y-94587197D01*
X99315513Y-94587197D01*
X99325304Y-94585646D01*
X99334137Y-94581145D01*
X99334141Y-94581144D01*
X99344906Y-94575659D01*
X99363166Y-94568095D01*
X99384090Y-94561296D01*
X99401893Y-94548361D01*
X99418745Y-94538035D01*
X99429502Y-94532554D01*
X99438342Y-94528050D01*
X99460905Y-94505487D01*
X99460909Y-94505484D01*
X99624884Y-94341509D01*
X99687196Y-94307483D01*
X99700055Y-94306101D01*
X99700000Y-94305682D01*
X99856762Y-94285044D01*
X100002841Y-94224536D01*
X100103260Y-94147482D01*
X100121736Y-94133305D01*
X100128282Y-94128282D01*
X100224536Y-94002841D01*
X100285044Y-93856762D01*
X100305682Y-93700000D01*
X100285044Y-93543238D01*
X100224536Y-93397159D01*
X100128282Y-93271718D01*
X100002841Y-93175464D01*
X99856762Y-93114956D01*
X99700000Y-93094318D01*
X99543238Y-93114956D01*
X99397159Y-93175464D01*
X99271718Y-93271718D01*
X99175464Y-93397159D01*
X99114956Y-93543238D01*
X99096887Y-93680491D01*
X99095642Y-93689946D01*
X99066920Y-93754873D01*
X99007655Y-93793965D01*
X98970720Y-93799500D01*
X93806731Y-93799500D01*
X93738610Y-93779498D01*
X93728540Y-93771382D01*
X93728282Y-93771718D01*
X93685419Y-93738828D01*
X93602841Y-93675464D01*
X93456762Y-93614956D01*
X93300000Y-93594318D01*
X93143238Y-93614956D01*
X92997159Y-93675464D01*
X92871718Y-93771718D01*
X92775464Y-93897159D01*
X92714956Y-94043238D01*
X92713878Y-94051426D01*
X92710492Y-94077147D01*
X92694318Y-94200000D01*
X92714956Y-94356762D01*
X92775464Y-94502841D01*
X92871718Y-94628282D01*
X92997159Y-94724536D01*
X93143238Y-94785044D01*
X93300000Y-94805682D01*
X93308188Y-94804604D01*
X93448574Y-94786122D01*
X93456762Y-94785044D01*
X93602841Y-94724536D01*
X93728282Y-94628282D01*
X93730072Y-94630614D01*
X93779948Y-94603379D01*
X93806731Y-94600500D01*
X94090112Y-94600500D01*
X94158233Y-94620502D01*
X94204726Y-94674158D01*
X94214653Y-94743198D01*
X94214956Y-94743238D01*
X94194318Y-94900000D01*
X94214956Y-95056762D01*
X94275464Y-95202841D01*
X94280491Y-95209392D01*
X94371718Y-95328282D01*
X94369386Y-95330072D01*
X94396621Y-95379948D01*
X94399500Y-95406731D01*
X94399500Y-98663433D01*
X94402564Y-98672864D01*
X94402565Y-98672868D01*
X94406297Y-98684353D01*
X94410913Y-98703578D01*
X94411214Y-98705475D01*
X94414354Y-98725304D01*
X94418855Y-98734137D01*
X94418856Y-98734141D01*
X94424341Y-98744906D01*
X94431905Y-98763166D01*
X94438704Y-98784090D01*
X94451639Y-98801893D01*
X94461965Y-98818745D01*
X94471950Y-98838342D01*
X94494513Y-98860905D01*
X94494516Y-98860909D01*
X95339091Y-99705484D01*
X95339095Y-99705487D01*
X95361658Y-99728050D01*
X95370497Y-99732554D01*
X95370499Y-99732555D01*
X95381258Y-99738037D01*
X95398114Y-99748365D01*
X95415911Y-99761296D01*
X95436832Y-99768094D01*
X95455092Y-99775658D01*
X95465859Y-99781144D01*
X95465863Y-99781145D01*
X95474696Y-99785646D01*
X95484487Y-99787197D01*
X95484488Y-99787197D01*
X95496422Y-99789087D01*
X95515644Y-99793702D01*
X95521015Y-99795447D01*
X95579622Y-99835519D01*
X95607260Y-99900915D01*
X95595156Y-99970872D01*
X95558421Y-100015523D01*
X95558284Y-100015627D01*
X95554000Y-100027410D01*
X95554000Y-101727885D01*
X95558475Y-101743124D01*
X95559865Y-101744329D01*
X95567548Y-101746000D01*
X96789885Y-101746000D01*
X96805124Y-101741525D01*
X96806329Y-101740135D01*
X96808000Y-101732452D01*
X96808000Y-101441544D01*
X96807798Y-101436512D01*
X96793850Y-101263157D01*
X96792238Y-101253204D01*
X96736767Y-101027367D01*
X96733584Y-101017797D01*
X96642720Y-100803735D01*
X96638045Y-100794793D01*
X96514126Y-100598013D01*
X96508086Y-100589940D01*
X96354297Y-100415500D01*
X96347044Y-100408496D01*
X96167346Y-100260890D01*
X96159064Y-100255134D01*
X95958081Y-100138159D01*
X95948976Y-100133797D01*
X95731885Y-100050463D01*
X95721388Y-100047374D01*
X95661686Y-100008953D01*
X95632233Y-99944354D01*
X95642381Y-99874086D01*
X95688908Y-99820460D01*
X95756962Y-99800500D01*
X96281917Y-99800500D01*
X96350038Y-99820502D01*
X96371012Y-99837405D01*
X97362595Y-100828988D01*
X97396621Y-100891300D01*
X97399500Y-100918083D01*
X97399500Y-101981918D01*
X97379498Y-102050039D01*
X97362595Y-102071013D01*
X97023095Y-102410513D01*
X96960783Y-102444539D01*
X96889968Y-102439474D01*
X96833132Y-102396927D01*
X96808321Y-102330407D01*
X96808000Y-102321418D01*
X96808000Y-102272115D01*
X96803525Y-102256876D01*
X96802135Y-102255671D01*
X96794452Y-102254000D01*
X93810115Y-102254000D01*
X93794876Y-102258475D01*
X93793671Y-102259865D01*
X93792000Y-102267548D01*
X93792000Y-102558456D01*
X93792202Y-102563488D01*
X93806150Y-102736843D01*
X93807762Y-102746796D01*
X93863233Y-102972633D01*
X93866416Y-102982203D01*
X93957280Y-103196265D01*
X93961955Y-103205207D01*
X94085874Y-103401987D01*
X94091914Y-103410060D01*
X94245703Y-103584500D01*
X94252956Y-103591504D01*
X94432654Y-103739110D01*
X94440936Y-103744866D01*
X94641919Y-103861841D01*
X94651024Y-103866203D01*
X94868115Y-103949537D01*
X94877804Y-103952388D01*
X95105429Y-103999941D01*
X95115438Y-104001206D01*
X95133247Y-104002014D01*
X95200390Y-104025084D01*
X95244402Y-104080793D01*
X95251309Y-104151453D01*
X95216628Y-104216979D01*
X94594516Y-104839091D01*
X94594513Y-104839095D01*
X94571950Y-104861658D01*
X94567446Y-104870498D01*
X94561965Y-104881255D01*
X94551639Y-104898107D01*
X94538704Y-104915910D01*
X94531907Y-104936830D01*
X94524341Y-104955094D01*
X94518856Y-104965859D01*
X94518855Y-104965863D01*
X94514354Y-104974696D01*
X94512803Y-104984487D01*
X94512803Y-104984488D01*
X94510913Y-104996422D01*
X94506297Y-105015647D01*
X94502565Y-105027132D01*
X94502564Y-105027136D01*
X94499500Y-105036567D01*
X94499500Y-107593269D01*
X94479498Y-107661390D01*
X94471382Y-107671460D01*
X94471718Y-107671718D01*
X94375464Y-107797159D01*
X94314956Y-107943238D01*
X94294318Y-108100000D01*
X94314956Y-108256762D01*
X94375464Y-108402841D01*
X94471718Y-108528282D01*
X94597159Y-108624536D01*
X94604788Y-108627696D01*
X94604793Y-108627699D01*
X94643497Y-108643731D01*
X94698778Y-108688279D01*
X94721198Y-108755643D01*
X94703639Y-108824434D01*
X94684373Y-108849234D01*
X93768850Y-109764757D01*
X93706538Y-109798783D01*
X93635723Y-109793718D01*
X93617210Y-109783470D01*
X93616546Y-109784621D01*
X93609393Y-109780491D01*
X93602841Y-109775464D01*
X93456762Y-109714956D01*
X93300000Y-109694318D01*
X93143238Y-109714956D01*
X92997159Y-109775464D01*
X92871718Y-109871718D01*
X92775464Y-109997159D01*
X92714956Y-110143238D01*
X92694318Y-110300000D01*
X92714956Y-110456762D01*
X92775464Y-110602841D01*
X92871718Y-110728282D01*
X92997159Y-110824536D01*
X93143238Y-110885044D01*
X93300000Y-110905682D01*
X93308188Y-110904604D01*
X93448574Y-110886122D01*
X93456762Y-110885044D01*
X93602841Y-110824536D01*
X93728282Y-110728282D01*
X93730072Y-110730614D01*
X93779948Y-110703379D01*
X93806731Y-110700500D01*
X93863433Y-110700500D01*
X93872864Y-110697436D01*
X93872868Y-110697435D01*
X93884353Y-110693703D01*
X93903578Y-110689087D01*
X93915512Y-110687197D01*
X93915513Y-110687197D01*
X93925304Y-110685646D01*
X93934137Y-110681145D01*
X93934141Y-110681144D01*
X93944906Y-110675659D01*
X93963166Y-110668095D01*
X93984090Y-110661296D01*
X94001893Y-110648361D01*
X94018745Y-110638035D01*
X94029502Y-110632554D01*
X94038342Y-110628050D01*
X94060905Y-110605487D01*
X94060909Y-110605484D01*
X94384405Y-110281988D01*
X94446717Y-110247962D01*
X94517532Y-110253027D01*
X94574368Y-110295574D01*
X94599179Y-110362094D01*
X94599500Y-110371083D01*
X94599500Y-111273500D01*
X94579498Y-111341621D01*
X94525842Y-111388114D01*
X94473500Y-111399500D01*
X93693216Y-111399500D01*
X93690499Y-111399738D01*
X93690492Y-111399738D01*
X93622302Y-111405704D01*
X93523308Y-111414365D01*
X93517995Y-111415789D01*
X93517993Y-111415789D01*
X93308814Y-111471838D01*
X93308812Y-111471839D01*
X93303504Y-111473261D01*
X93298524Y-111475583D01*
X93298522Y-111475584D01*
X93102247Y-111567109D01*
X93102244Y-111567111D01*
X93097266Y-111569432D01*
X92910861Y-111699953D01*
X92749953Y-111860861D01*
X92619432Y-112047266D01*
X92523261Y-112253504D01*
X92464365Y-112473308D01*
X92444532Y-112700000D01*
X90300500Y-112700000D01*
X90300500Y-101727885D01*
X93792000Y-101727885D01*
X93796475Y-101743124D01*
X93797865Y-101744329D01*
X93805548Y-101746000D01*
X95027885Y-101746000D01*
X95043124Y-101741525D01*
X95044329Y-101740135D01*
X95046000Y-101732452D01*
X95046000Y-100029410D01*
X95041864Y-100015324D01*
X95028886Y-100013275D01*
X95011170Y-100015325D01*
X95001273Y-100017285D01*
X94777506Y-100080604D01*
X94768062Y-100084116D01*
X94557295Y-100182399D01*
X94548529Y-100187378D01*
X94356198Y-100318087D01*
X94348323Y-100324419D01*
X94179374Y-100484186D01*
X94172613Y-100491695D01*
X94031375Y-100676426D01*
X94025911Y-100684905D01*
X93916022Y-100889847D01*
X93911980Y-100899099D01*
X93836273Y-101118971D01*
X93833764Y-101128743D01*
X93793996Y-101358971D01*
X93793141Y-101366843D01*
X93792064Y-101390551D01*
X93792000Y-101393384D01*
X93792000Y-101727885D01*
X90300500Y-101727885D01*
X90300500Y-96882645D01*
X90320502Y-96814524D01*
X90374158Y-96768031D01*
X90444432Y-96757927D01*
X90490587Y-96776380D01*
X90491233Y-96775191D01*
X90633558Y-96852467D01*
X90633560Y-96852468D01*
X90640235Y-96856092D01*
X90647584Y-96858020D01*
X90796883Y-96897188D01*
X90796885Y-96897188D01*
X90804233Y-96899116D01*
X90890609Y-96900473D01*
X90966161Y-96901660D01*
X90966164Y-96901660D01*
X90973760Y-96901779D01*
X91050445Y-96884216D01*
X91121310Y-96888505D01*
X91178608Y-96930427D01*
X91204146Y-96996672D01*
X91203495Y-97023480D01*
X91194394Y-97092611D01*
X91212999Y-97261135D01*
X91220867Y-97282634D01*
X91263634Y-97399500D01*
X91271266Y-97420356D01*
X91275502Y-97426659D01*
X91275502Y-97426660D01*
X91288574Y-97446113D01*
X91365830Y-97561083D01*
X91371442Y-97566190D01*
X91371445Y-97566193D01*
X91485612Y-97670077D01*
X91485616Y-97670080D01*
X91491233Y-97675191D01*
X91497906Y-97678814D01*
X91497910Y-97678817D01*
X91633558Y-97752467D01*
X91633560Y-97752468D01*
X91640235Y-97756092D01*
X91647584Y-97758020D01*
X91796883Y-97797188D01*
X91796885Y-97797188D01*
X91804233Y-97799116D01*
X91890609Y-97800473D01*
X91966161Y-97801660D01*
X91966164Y-97801660D01*
X91973760Y-97801779D01*
X91981165Y-97800083D01*
X91981166Y-97800083D01*
X92041586Y-97786245D01*
X92139029Y-97763928D01*
X92290498Y-97687747D01*
X92419423Y-97577634D01*
X92518361Y-97439947D01*
X92528838Y-97413886D01*
X92578766Y-97289687D01*
X92578767Y-97289685D01*
X92581601Y-97282634D01*
X92605490Y-97114778D01*
X92605645Y-97100000D01*
X92603840Y-97085080D01*
X92586188Y-96939220D01*
X92585276Y-96931680D01*
X92525345Y-96773077D01*
X92429312Y-96633349D01*
X92367679Y-96578436D01*
X92330125Y-96518186D01*
X92325500Y-96484361D01*
X92325500Y-92887966D01*
X103398257Y-92887966D01*
X103428565Y-93022446D01*
X103431645Y-93032275D01*
X103511770Y-93229603D01*
X103516413Y-93238794D01*
X103627694Y-93420388D01*
X103633777Y-93428699D01*
X103773213Y-93589667D01*
X103780580Y-93596883D01*
X103944434Y-93732916D01*
X103952876Y-93738828D01*
X104014284Y-93774712D01*
X104063007Y-93826351D01*
X104076078Y-93896134D01*
X104049346Y-93961906D01*
X103991299Y-94002784D01*
X103950713Y-94009500D01*
X103835354Y-94009500D01*
X103831650Y-94009941D01*
X103831647Y-94009941D01*
X103824254Y-94010821D01*
X103809154Y-94012618D01*
X103800514Y-94016456D01*
X103800513Y-94016456D01*
X103720150Y-94052152D01*
X103706847Y-94058061D01*
X103627759Y-94137287D01*
X103582494Y-94239673D01*
X103579500Y-94265354D01*
X103579500Y-96054646D01*
X103582618Y-96080846D01*
X103628061Y-96183153D01*
X103636294Y-96191372D01*
X103636295Y-96191373D01*
X103662363Y-96217395D01*
X103707287Y-96262241D01*
X103717924Y-96266944D01*
X103717926Y-96266945D01*
X103755382Y-96283504D01*
X103809673Y-96307506D01*
X103835354Y-96310500D01*
X105624646Y-96310500D01*
X105628350Y-96310059D01*
X105628353Y-96310059D01*
X105635746Y-96309179D01*
X105650846Y-96307382D01*
X105753153Y-96261939D01*
X105832241Y-96182713D01*
X105877506Y-96080327D01*
X105880500Y-96054646D01*
X105880500Y-95711500D01*
X105900502Y-95643379D01*
X105954158Y-95596886D01*
X106006500Y-95585500D01*
X106118540Y-95585500D01*
X106186661Y-95605502D01*
X106232966Y-95658749D01*
X106269369Y-95737714D01*
X106391405Y-95910391D01*
X106395539Y-95914418D01*
X106535727Y-96050983D01*
X106542865Y-96057937D01*
X106547661Y-96061142D01*
X106547664Y-96061144D01*
X106690936Y-96156875D01*
X106718677Y-96175411D01*
X106723985Y-96177692D01*
X106723986Y-96177692D01*
X106907650Y-96256600D01*
X106907653Y-96256601D01*
X106912953Y-96258878D01*
X106918582Y-96260152D01*
X106918583Y-96260152D01*
X107113550Y-96304269D01*
X107113553Y-96304269D01*
X107119186Y-96305544D01*
X107124957Y-96305771D01*
X107124959Y-96305771D01*
X107186989Y-96308208D01*
X107330470Y-96313846D01*
X107336179Y-96313018D01*
X107336183Y-96313018D01*
X107534015Y-96284333D01*
X107534019Y-96284332D01*
X107539730Y-96283504D01*
X107626579Y-96254023D01*
X107734483Y-96217395D01*
X107734488Y-96217393D01*
X107739955Y-96215537D01*
X107783103Y-96191373D01*
X107919395Y-96115046D01*
X107919399Y-96115043D01*
X107924442Y-96112219D01*
X108087012Y-95977012D01*
X108222219Y-95814442D01*
X108225043Y-95809399D01*
X108225046Y-95809395D01*
X108322713Y-95634998D01*
X108322714Y-95634996D01*
X108325537Y-95629955D01*
X108327393Y-95624488D01*
X108327395Y-95624483D01*
X108391647Y-95435200D01*
X108393504Y-95429730D01*
X108400723Y-95379948D01*
X108423314Y-95224140D01*
X108423314Y-95224138D01*
X108423846Y-95220470D01*
X108425429Y-95160000D01*
X108406081Y-94949440D01*
X108348686Y-94745931D01*
X108339694Y-94727696D01*
X108257719Y-94561469D01*
X108255165Y-94556290D01*
X108128651Y-94386867D01*
X108001236Y-94269086D01*
X107977622Y-94247257D01*
X107977620Y-94247255D01*
X107973381Y-94243337D01*
X107935616Y-94219509D01*
X107799434Y-94133584D01*
X107799433Y-94133584D01*
X107794554Y-94130505D01*
X107770643Y-94120966D01*
X107714785Y-94077147D01*
X107691483Y-94010083D01*
X107708138Y-93941068D01*
X107759461Y-93892013D01*
X107771348Y-93886627D01*
X107771842Y-93886433D01*
X107963095Y-93792739D01*
X107971945Y-93787464D01*
X108145328Y-93663792D01*
X108153200Y-93657139D01*
X108304052Y-93506812D01*
X108310730Y-93498965D01*
X108435003Y-93326020D01*
X108440313Y-93317183D01*
X108534670Y-93126267D01*
X108538469Y-93116672D01*
X108600377Y-92912910D01*
X108602555Y-92902837D01*
X108603986Y-92891962D01*
X108601775Y-92877778D01*
X108588617Y-92874000D01*
X103413225Y-92874000D01*
X103399694Y-92877973D01*
X103398257Y-92887966D01*
X92325500Y-92887966D01*
X92325500Y-92828438D01*
X92345502Y-92760317D01*
X92362405Y-92739343D01*
X92747565Y-92354183D01*
X103394389Y-92354183D01*
X103395912Y-92362607D01*
X103408292Y-92366000D01*
X104457885Y-92366000D01*
X104473124Y-92361525D01*
X104474329Y-92360135D01*
X104476000Y-92352452D01*
X104476000Y-92347885D01*
X104984000Y-92347885D01*
X104988475Y-92363124D01*
X104989865Y-92364329D01*
X104997548Y-92366000D01*
X106997885Y-92366000D01*
X107013124Y-92361525D01*
X107014329Y-92360135D01*
X107016000Y-92352452D01*
X107016000Y-92347885D01*
X107524000Y-92347885D01*
X107528475Y-92363124D01*
X107529865Y-92364329D01*
X107537548Y-92366000D01*
X108588344Y-92366000D01*
X108601875Y-92362027D01*
X108603180Y-92352947D01*
X108561214Y-92185875D01*
X108557894Y-92176124D01*
X108472972Y-91980814D01*
X108468105Y-91971739D01*
X108352426Y-91792926D01*
X108346136Y-91784757D01*
X108202806Y-91627240D01*
X108195273Y-91620215D01*
X108028139Y-91488222D01*
X108019552Y-91482517D01*
X107982116Y-91461851D01*
X107932146Y-91411419D01*
X107917374Y-91341976D01*
X107942490Y-91275571D01*
X107969842Y-91248964D01*
X108145327Y-91123792D01*
X108153200Y-91117139D01*
X108304052Y-90966812D01*
X108310730Y-90958965D01*
X108435003Y-90786020D01*
X108440313Y-90777183D01*
X108534670Y-90586267D01*
X108538469Y-90576672D01*
X108600377Y-90372910D01*
X108602555Y-90362837D01*
X108603986Y-90351962D01*
X108601775Y-90337778D01*
X108588617Y-90334000D01*
X107542115Y-90334000D01*
X107526876Y-90338475D01*
X107525671Y-90339865D01*
X107524000Y-90347548D01*
X107524000Y-92347885D01*
X107016000Y-92347885D01*
X107016000Y-90352115D01*
X107011525Y-90336876D01*
X107010135Y-90335671D01*
X107002452Y-90334000D01*
X105002115Y-90334000D01*
X104986876Y-90338475D01*
X104985671Y-90339865D01*
X104984000Y-90347548D01*
X104984000Y-92347885D01*
X104476000Y-92347885D01*
X104476000Y-90352115D01*
X104471525Y-90336876D01*
X104470135Y-90335671D01*
X104462452Y-90334000D01*
X103413225Y-90334000D01*
X103399694Y-90337973D01*
X103398257Y-90347966D01*
X103428565Y-90482446D01*
X103431645Y-90492275D01*
X103511770Y-90689603D01*
X103516413Y-90698794D01*
X103627694Y-90880388D01*
X103633777Y-90888699D01*
X103773213Y-91049667D01*
X103780580Y-91056883D01*
X103944434Y-91192916D01*
X103952881Y-91198831D01*
X104022479Y-91239501D01*
X104071203Y-91291140D01*
X104084274Y-91360923D01*
X104057543Y-91426694D01*
X104017087Y-91460053D01*
X104008462Y-91464542D01*
X103999738Y-91470036D01*
X103829433Y-91597905D01*
X103821726Y-91604748D01*
X103674590Y-91758717D01*
X103668104Y-91766727D01*
X103548098Y-91942649D01*
X103543000Y-91951623D01*
X103453338Y-92144783D01*
X103449775Y-92154470D01*
X103394389Y-92354183D01*
X92747565Y-92354183D01*
X94539343Y-90562405D01*
X94601655Y-90528379D01*
X94628438Y-90525500D01*
X99267393Y-90525500D01*
X99290210Y-90518086D01*
X99309429Y-90513472D01*
X99333126Y-90509719D01*
X99341964Y-90505216D01*
X99354502Y-90498828D01*
X99372763Y-90491264D01*
X99386147Y-90486915D01*
X99386150Y-90486913D01*
X99395581Y-90483849D01*
X99414991Y-90469747D01*
X99431837Y-90459423D01*
X99453220Y-90448528D01*
X99548528Y-90353220D01*
X100053218Y-89848529D01*
X100053220Y-89848528D01*
X100087565Y-89814183D01*
X103394389Y-89814183D01*
X103395912Y-89822607D01*
X103408292Y-89826000D01*
X104457885Y-89826000D01*
X104473124Y-89821525D01*
X104474329Y-89820135D01*
X104476000Y-89812452D01*
X104476000Y-89807885D01*
X104984000Y-89807885D01*
X104988475Y-89823124D01*
X104989865Y-89824329D01*
X104997548Y-89826000D01*
X106997885Y-89826000D01*
X107013124Y-89821525D01*
X107014329Y-89820135D01*
X107016000Y-89812452D01*
X107016000Y-89807885D01*
X107524000Y-89807885D01*
X107528475Y-89823124D01*
X107529865Y-89824329D01*
X107537548Y-89826000D01*
X108588344Y-89826000D01*
X108601875Y-89822027D01*
X108603180Y-89812947D01*
X108561214Y-89645875D01*
X108557894Y-89636124D01*
X108472972Y-89440814D01*
X108468105Y-89431739D01*
X108352426Y-89252926D01*
X108346136Y-89244757D01*
X108202806Y-89087240D01*
X108195273Y-89080215D01*
X108028139Y-88948222D01*
X108019552Y-88942517D01*
X107982116Y-88921851D01*
X107932146Y-88871419D01*
X107917374Y-88801976D01*
X107942490Y-88735571D01*
X107969842Y-88708964D01*
X108145327Y-88583792D01*
X108153200Y-88577139D01*
X108304052Y-88426812D01*
X108310730Y-88418965D01*
X108435003Y-88246020D01*
X108440313Y-88237183D01*
X108534670Y-88046267D01*
X108538469Y-88036672D01*
X108600377Y-87832910D01*
X108602555Y-87822837D01*
X108603986Y-87811962D01*
X108601775Y-87797778D01*
X108588617Y-87794000D01*
X107542115Y-87794000D01*
X107526876Y-87798475D01*
X107525671Y-87799865D01*
X107524000Y-87807548D01*
X107524000Y-89807885D01*
X107016000Y-89807885D01*
X107016000Y-87812115D01*
X107011525Y-87796876D01*
X107010135Y-87795671D01*
X107002452Y-87794000D01*
X105002115Y-87794000D01*
X104986876Y-87798475D01*
X104985671Y-87799865D01*
X104984000Y-87807548D01*
X104984000Y-89807885D01*
X104476000Y-89807885D01*
X104476000Y-87812115D01*
X104471525Y-87796876D01*
X104470135Y-87795671D01*
X104462452Y-87794000D01*
X103413225Y-87794000D01*
X103399694Y-87797973D01*
X103398257Y-87807966D01*
X103428565Y-87942446D01*
X103431645Y-87952275D01*
X103511770Y-88149603D01*
X103516413Y-88158794D01*
X103627694Y-88340388D01*
X103633777Y-88348699D01*
X103773213Y-88509667D01*
X103780580Y-88516883D01*
X103944434Y-88652916D01*
X103952881Y-88658831D01*
X104022479Y-88699501D01*
X104071203Y-88751140D01*
X104084274Y-88820923D01*
X104057543Y-88886694D01*
X104017087Y-88920053D01*
X104008462Y-88924542D01*
X103999738Y-88930036D01*
X103829433Y-89057905D01*
X103821726Y-89064748D01*
X103674590Y-89218717D01*
X103668104Y-89226727D01*
X103548098Y-89402649D01*
X103543000Y-89411623D01*
X103453338Y-89604783D01*
X103449775Y-89614470D01*
X103394389Y-89814183D01*
X100087565Y-89814183D01*
X100148528Y-89753220D01*
X100159421Y-89731841D01*
X100169749Y-89714988D01*
X100178021Y-89703603D01*
X100178022Y-89703601D01*
X100183849Y-89695581D01*
X100187295Y-89684977D01*
X100191264Y-89672763D01*
X100198828Y-89654502D01*
X100205216Y-89641964D01*
X100205216Y-89641963D01*
X100209719Y-89633126D01*
X100213472Y-89609429D01*
X100218086Y-89590210D01*
X100225500Y-89567393D01*
X100225500Y-87332607D01*
X100222437Y-87323180D01*
X100222436Y-87323173D01*
X100218087Y-87309788D01*
X100213473Y-87290569D01*
X100211271Y-87276669D01*
X100211270Y-87276666D01*
X100210877Y-87274183D01*
X103394389Y-87274183D01*
X103395912Y-87282607D01*
X103408292Y-87286000D01*
X108588344Y-87286000D01*
X108601875Y-87282027D01*
X108603180Y-87272947D01*
X108561214Y-87105875D01*
X108557894Y-87096124D01*
X108472972Y-86900814D01*
X108468105Y-86891739D01*
X108352426Y-86712926D01*
X108346136Y-86704757D01*
X108202806Y-86547240D01*
X108195273Y-86540215D01*
X108028139Y-86408222D01*
X108019552Y-86402517D01*
X107833117Y-86299599D01*
X107823705Y-86295369D01*
X107772178Y-86277122D01*
X107714642Y-86235528D01*
X107688726Y-86169430D01*
X107702660Y-86099814D01*
X107752672Y-86048415D01*
X107767041Y-86040368D01*
X107924442Y-85952219D01*
X108087012Y-85817012D01*
X108222219Y-85654442D01*
X108225043Y-85649399D01*
X108225046Y-85649395D01*
X108322713Y-85474998D01*
X108322714Y-85474996D01*
X108325537Y-85469955D01*
X108327393Y-85464488D01*
X108327395Y-85464483D01*
X108391647Y-85275200D01*
X108393504Y-85269730D01*
X108423846Y-85060470D01*
X108425429Y-85000000D01*
X108406081Y-84789440D01*
X108348686Y-84585931D01*
X108337553Y-84563354D01*
X108257719Y-84401469D01*
X108255165Y-84396290D01*
X108128651Y-84226867D01*
X107973381Y-84083337D01*
X107794554Y-83970505D01*
X107598160Y-83892152D01*
X107592503Y-83891027D01*
X107592497Y-83891025D01*
X107396442Y-83852028D01*
X107396440Y-83852028D01*
X107390775Y-83850901D01*
X107385000Y-83850825D01*
X107384996Y-83850825D01*
X107278976Y-83849437D01*
X107179346Y-83848133D01*
X107173649Y-83849112D01*
X107173648Y-83849112D01*
X106976650Y-83882962D01*
X106976649Y-83882962D01*
X106970953Y-83883941D01*
X106772575Y-83957127D01*
X106767614Y-83960079D01*
X106767613Y-83960079D01*
X106750089Y-83970505D01*
X106590856Y-84065238D01*
X106431881Y-84204655D01*
X106300976Y-84370708D01*
X106298284Y-84375824D01*
X106298283Y-84375826D01*
X106229181Y-84507167D01*
X106179762Y-84558140D01*
X106117673Y-84574500D01*
X105881401Y-84574500D01*
X105813280Y-84554498D01*
X105768395Y-84504229D01*
X105717719Y-84401469D01*
X105715165Y-84396290D01*
X105588651Y-84226867D01*
X105433381Y-84083337D01*
X105254554Y-83970505D01*
X105058160Y-83892152D01*
X105052503Y-83891027D01*
X105052497Y-83891025D01*
X104856442Y-83852028D01*
X104856440Y-83852028D01*
X104850775Y-83850901D01*
X104845000Y-83850825D01*
X104844996Y-83850825D01*
X104738976Y-83849437D01*
X104639346Y-83848133D01*
X104633649Y-83849112D01*
X104633648Y-83849112D01*
X104436650Y-83882962D01*
X104436649Y-83882962D01*
X104430953Y-83883941D01*
X104232575Y-83957127D01*
X104227614Y-83960079D01*
X104227613Y-83960079D01*
X104210089Y-83970505D01*
X104050856Y-84065238D01*
X103891881Y-84204655D01*
X103760976Y-84370708D01*
X103758287Y-84375819D01*
X103758285Y-84375822D01*
X103744792Y-84401469D01*
X103662523Y-84557836D01*
X103599820Y-84759773D01*
X103574967Y-84969754D01*
X103588796Y-85180749D01*
X103590217Y-85186345D01*
X103590218Y-85186350D01*
X103612784Y-85275200D01*
X103640845Y-85385690D01*
X103643262Y-85390933D01*
X103666008Y-85440272D01*
X103729369Y-85577714D01*
X103851405Y-85750391D01*
X104002865Y-85897937D01*
X104007661Y-85901142D01*
X104007664Y-85901144D01*
X104128542Y-85981912D01*
X104178677Y-86015411D01*
X104183980Y-86017690D01*
X104183985Y-86017692D01*
X104213223Y-86030253D01*
X104236768Y-86040369D01*
X104291460Y-86085636D01*
X104312998Y-86153287D01*
X104294541Y-86221842D01*
X104241951Y-86269537D01*
X104226175Y-86275901D01*
X104206868Y-86282212D01*
X104197359Y-86286209D01*
X104008463Y-86384542D01*
X103999738Y-86390036D01*
X103829433Y-86517905D01*
X103821726Y-86524748D01*
X103674590Y-86678717D01*
X103668104Y-86686727D01*
X103548098Y-86862649D01*
X103543000Y-86871623D01*
X103453338Y-87064783D01*
X103449775Y-87074470D01*
X103394389Y-87274183D01*
X100210877Y-87274183D01*
X100209719Y-87266874D01*
X100198830Y-87245503D01*
X100191265Y-87227239D01*
X100186915Y-87213852D01*
X100186914Y-87213849D01*
X100183850Y-87204420D01*
X100169744Y-87185006D01*
X100159416Y-87168150D01*
X100153032Y-87155620D01*
X100148528Y-87146780D01*
X99053220Y-86051472D01*
X99031837Y-86040577D01*
X99014991Y-86030253D01*
X99003604Y-86021980D01*
X98995581Y-86016151D01*
X98986150Y-86013087D01*
X98986147Y-86013085D01*
X98972763Y-86008736D01*
X98954502Y-86001172D01*
X98941964Y-85994784D01*
X98941963Y-85994784D01*
X98933126Y-85990281D01*
X98909429Y-85986528D01*
X98890210Y-85981914D01*
X98867393Y-85974500D01*
X94828438Y-85974500D01*
X94760317Y-85954498D01*
X94739343Y-85937595D01*
X93862405Y-85060657D01*
X93828379Y-84998345D01*
X93825500Y-84971562D01*
X93825500Y-81728438D01*
X93845502Y-81660317D01*
X93862405Y-81639343D01*
X95048528Y-80453220D01*
X95059419Y-80431844D01*
X95069749Y-80414989D01*
X95078021Y-80403604D01*
X95078021Y-80403603D01*
X95083850Y-80395581D01*
X95091264Y-80372763D01*
X95098827Y-80354502D01*
X95109719Y-80333126D01*
X95111270Y-80323335D01*
X95111272Y-80323328D01*
X95113473Y-80309431D01*
X95118087Y-80290212D01*
X95122436Y-80276827D01*
X95122437Y-80276820D01*
X95125500Y-80267393D01*
X95125500Y-79657340D01*
X98592000Y-79657340D01*
X98592225Y-79662649D01*
X98606660Y-79832771D01*
X98608452Y-79843259D01*
X98665801Y-80064211D01*
X98669333Y-80074239D01*
X98763085Y-80282363D01*
X98768265Y-80291669D01*
X98895747Y-80481024D01*
X98902406Y-80489307D01*
X99059971Y-80654478D01*
X99067942Y-80661530D01*
X99251082Y-80797790D01*
X99260119Y-80803394D01*
X99463606Y-80906851D01*
X99473459Y-80910852D01*
X99691461Y-80978544D01*
X99701848Y-80980828D01*
X99728043Y-80984300D01*
X99742207Y-80982104D01*
X99746000Y-80968919D01*
X99746000Y-80967282D01*
X100254000Y-80967282D01*
X100257973Y-80980813D01*
X100268580Y-80982338D01*
X100400840Y-80954587D01*
X100411037Y-80951527D01*
X100623340Y-80867685D01*
X100632876Y-80862951D01*
X100828025Y-80744532D01*
X100836618Y-80738266D01*
X101009027Y-80588658D01*
X101016447Y-80581028D01*
X101161180Y-80404512D01*
X101167206Y-80395745D01*
X101280129Y-80197367D01*
X101284595Y-80187703D01*
X101362481Y-79973132D01*
X101365251Y-79962865D01*
X101406081Y-79737068D01*
X101407016Y-79728838D01*
X101407930Y-79709450D01*
X101408000Y-79706474D01*
X101408000Y-79272115D01*
X101403525Y-79256876D01*
X101402135Y-79255671D01*
X101394452Y-79254000D01*
X100272115Y-79254000D01*
X100256876Y-79258475D01*
X100255671Y-79259865D01*
X100254000Y-79267548D01*
X100254000Y-80967282D01*
X99746000Y-80967282D01*
X99746000Y-79272115D01*
X99741525Y-79256876D01*
X99740135Y-79255671D01*
X99732452Y-79254000D01*
X98610115Y-79254000D01*
X98594876Y-79258475D01*
X98593671Y-79259865D01*
X98592000Y-79267548D01*
X98592000Y-79657340D01*
X95125500Y-79657340D01*
X95125500Y-76832607D01*
X95118086Y-76809790D01*
X95113472Y-76790570D01*
X95111270Y-76776668D01*
X95109719Y-76766874D01*
X95098828Y-76745498D01*
X95091264Y-76727237D01*
X95086914Y-76713851D01*
X95086913Y-76713850D01*
X95083849Y-76704419D01*
X95074215Y-76691159D01*
X95050357Y-76624291D01*
X95066437Y-76555140D01*
X95117351Y-76505660D01*
X95186933Y-76491560D01*
X95242919Y-76510789D01*
X95243360Y-76511137D01*
X95438620Y-76613869D01*
X95544611Y-76646780D01*
X95641910Y-76676992D01*
X95649333Y-76679297D01*
X95655070Y-76679976D01*
X95824789Y-76700064D01*
X95824795Y-76700064D01*
X95828476Y-76700500D01*
X96797547Y-76700500D01*
X96865668Y-76720502D01*
X96912161Y-76774158D01*
X96922265Y-76844432D01*
X96892771Y-76909012D01*
X96886642Y-76915595D01*
X96212404Y-77589833D01*
X96210547Y-77592066D01*
X96210545Y-77592068D01*
X96110953Y-77711814D01*
X96110950Y-77711818D01*
X96107260Y-77716255D01*
X96104441Y-77721289D01*
X96104438Y-77721293D01*
X96002275Y-77903718D01*
X95999452Y-77908759D01*
X95997596Y-77914226D01*
X95997594Y-77914231D01*
X95987732Y-77943284D01*
X95928531Y-78117686D01*
X95927703Y-78123395D01*
X95927702Y-78123400D01*
X95915545Y-78207251D01*
X95896871Y-78336040D01*
X95905533Y-78556506D01*
X95954228Y-78771703D01*
X95956508Y-78777009D01*
X95956508Y-78777010D01*
X95967069Y-78801590D01*
X96041323Y-78974421D01*
X96163902Y-79157873D01*
X96317860Y-79315916D01*
X96322578Y-79319251D01*
X96322580Y-79319252D01*
X96455178Y-79412963D01*
X96498040Y-79443255D01*
X96698410Y-79535628D01*
X96704009Y-79537050D01*
X96704012Y-79537051D01*
X96805334Y-79562783D01*
X96912258Y-79589938D01*
X97132422Y-79604368D01*
X97351529Y-79578434D01*
X97562241Y-79513007D01*
X97757503Y-79410275D01*
X97776167Y-79395562D01*
X97896248Y-79300898D01*
X97896251Y-79300896D01*
X97899169Y-79298595D01*
X98437534Y-78760230D01*
X98499846Y-78726204D01*
X98570661Y-78731269D01*
X98589667Y-78742545D01*
X98605548Y-78746000D01*
X99727885Y-78746000D01*
X99743124Y-78741525D01*
X99744329Y-78740135D01*
X99746000Y-78732452D01*
X99746000Y-78727885D01*
X100254000Y-78727885D01*
X100258475Y-78743124D01*
X100259865Y-78744329D01*
X100267548Y-78746000D01*
X101389883Y-78746000D01*
X101440562Y-78731119D01*
X101511559Y-78731119D01*
X101565156Y-78762920D01*
X102089833Y-79287597D01*
X102092066Y-79289454D01*
X102092068Y-79289456D01*
X102211814Y-79389047D01*
X102211817Y-79389049D01*
X102216255Y-79392740D01*
X102221289Y-79395559D01*
X102221293Y-79395562D01*
X102310771Y-79445672D01*
X102408759Y-79500548D01*
X102414227Y-79502404D01*
X102612212Y-79569612D01*
X102612214Y-79569612D01*
X102617686Y-79571470D01*
X102623402Y-79572299D01*
X102623407Y-79572300D01*
X102725392Y-79587086D01*
X102836040Y-79603129D01*
X102982927Y-79597358D01*
X103050733Y-79594694D01*
X103050735Y-79594694D01*
X103056506Y-79594467D01*
X103062138Y-79593193D01*
X103062143Y-79593192D01*
X103192458Y-79563704D01*
X103271703Y-79545773D01*
X103295316Y-79535628D01*
X103469115Y-79460958D01*
X103469118Y-79460956D01*
X103474421Y-79458678D01*
X103657874Y-79336098D01*
X103678592Y-79315916D01*
X103811776Y-79186173D01*
X103815916Y-79182140D01*
X103819249Y-79177423D01*
X103819254Y-79177418D01*
X103939924Y-79006675D01*
X103939925Y-79006673D01*
X103943256Y-79001960D01*
X104035628Y-78801590D01*
X104089938Y-78587743D01*
X104104368Y-78367578D01*
X104078435Y-78148471D01*
X104070651Y-78123400D01*
X104036056Y-78011989D01*
X104013007Y-77937759D01*
X103910275Y-77742498D01*
X103798595Y-77600832D01*
X103113358Y-76915595D01*
X103079332Y-76853283D01*
X103084397Y-76782468D01*
X103126944Y-76725632D01*
X103193464Y-76700821D01*
X103202453Y-76700500D01*
X104155970Y-76700500D01*
X104319711Y-76685454D01*
X104325273Y-76683885D01*
X104325275Y-76683885D01*
X104456840Y-76646780D01*
X104532064Y-76625565D01*
X104729947Y-76527980D01*
X104752503Y-76511137D01*
X104902109Y-76399420D01*
X104902110Y-76399420D01*
X104906733Y-76395967D01*
X105004496Y-76290208D01*
X105052582Y-76238189D01*
X105052584Y-76238186D01*
X105056501Y-76233949D01*
X105174236Y-76047350D01*
X105255994Y-75842421D01*
X105259708Y-75823752D01*
X105297911Y-75631691D01*
X105297911Y-75631688D01*
X105299038Y-75626024D01*
X105299450Y-75594594D01*
X105301850Y-75411188D01*
X105301926Y-75405406D01*
X105298001Y-75382564D01*
X105265541Y-75193654D01*
X105265541Y-75193653D01*
X105264562Y-75187957D01*
X105188196Y-74980957D01*
X105140032Y-74900000D01*
X105078340Y-74796306D01*
X105078339Y-74796305D01*
X105075386Y-74791341D01*
X104929910Y-74625457D01*
X104756640Y-74488863D01*
X104561380Y-74386131D01*
X104350667Y-74320703D01*
X104314100Y-74316375D01*
X104175211Y-74299936D01*
X104175205Y-74299936D01*
X104171524Y-74299500D01*
X102844030Y-74299500D01*
X102680289Y-74314546D01*
X102674727Y-74316115D01*
X102674725Y-74316115D01*
X102601867Y-74336663D01*
X102467936Y-74374435D01*
X102270053Y-74472020D01*
X102265427Y-74475474D01*
X102265426Y-74475475D01*
X102143102Y-74566819D01*
X102093267Y-74604033D01*
X101943499Y-74766051D01*
X101825764Y-74952650D01*
X101744006Y-75157579D01*
X101742880Y-75163239D01*
X101742879Y-75163243D01*
X101702089Y-75368309D01*
X101700962Y-75373976D01*
X101700886Y-75379751D01*
X101700886Y-75379755D01*
X101700475Y-75411188D01*
X101698074Y-75594594D01*
X101699053Y-75600291D01*
X101699053Y-75600292D01*
X101703475Y-75626024D01*
X101735438Y-75812043D01*
X101811804Y-76019043D01*
X101814756Y-76024004D01*
X101814756Y-76024005D01*
X101909102Y-76182587D01*
X101926742Y-76251358D01*
X101904401Y-76318748D01*
X101849173Y-76363361D01*
X101828629Y-76369902D01*
X101678045Y-76403976D01*
X101672739Y-76406256D01*
X101672738Y-76406256D01*
X101480633Y-76488791D01*
X101480630Y-76488793D01*
X101475327Y-76491071D01*
X101291875Y-76613650D01*
X101287735Y-76617683D01*
X101156525Y-76745502D01*
X101133832Y-76767608D01*
X101006493Y-76947788D01*
X100919242Y-77137049D01*
X100917694Y-77140406D01*
X100871009Y-77193895D01*
X100802818Y-77213653D01*
X100745550Y-77197227D01*
X100744636Y-77199024D01*
X100536394Y-77093149D01*
X100526541Y-77089148D01*
X100308539Y-77021456D01*
X100298152Y-77019172D01*
X100271957Y-77015700D01*
X100257793Y-77017896D01*
X100254000Y-77031081D01*
X100254000Y-78727885D01*
X99746000Y-78727885D01*
X99746000Y-77032718D01*
X99742027Y-77019187D01*
X99731420Y-77017662D01*
X99599160Y-77045413D01*
X99588963Y-77048473D01*
X99376660Y-77132315D01*
X99367123Y-77137049D01*
X99262032Y-77200820D01*
X99193419Y-77219059D01*
X99125836Y-77197307D01*
X99080899Y-77142839D01*
X99078412Y-77137049D01*
X99040356Y-77048473D01*
X99011210Y-76980633D01*
X99011208Y-76980630D01*
X99008930Y-76975327D01*
X98886350Y-76791874D01*
X98853387Y-76758036D01*
X98736425Y-76637972D01*
X98732392Y-76633832D01*
X98727675Y-76630499D01*
X98727670Y-76630494D01*
X98556927Y-76509824D01*
X98556925Y-76509823D01*
X98552212Y-76506492D01*
X98546973Y-76504077D01*
X98546970Y-76504075D01*
X98357089Y-76416539D01*
X98357090Y-76416539D01*
X98351842Y-76414120D01*
X98167400Y-76367278D01*
X98106299Y-76331123D01*
X98074444Y-76267674D01*
X98081949Y-76197076D01*
X98091853Y-76177920D01*
X98171155Y-76052234D01*
X98171157Y-76052229D01*
X98174236Y-76047350D01*
X98255994Y-75842421D01*
X98259708Y-75823752D01*
X98297911Y-75631691D01*
X98297911Y-75631688D01*
X98299038Y-75626024D01*
X98299450Y-75594594D01*
X98301850Y-75411188D01*
X98301926Y-75405406D01*
X98298001Y-75382564D01*
X98265541Y-75193654D01*
X98265541Y-75193653D01*
X98264562Y-75187957D01*
X98188196Y-74980957D01*
X98140032Y-74900000D01*
X98078340Y-74796306D01*
X98078339Y-74796305D01*
X98075386Y-74791341D01*
X97929910Y-74625457D01*
X97756640Y-74488863D01*
X97561380Y-74386131D01*
X97350667Y-74320703D01*
X97314100Y-74316375D01*
X97175211Y-74299936D01*
X97175205Y-74299936D01*
X97171524Y-74299500D01*
X95844030Y-74299500D01*
X95680289Y-74314546D01*
X95674727Y-74316115D01*
X95674725Y-74316115D01*
X95601867Y-74336663D01*
X95467936Y-74374435D01*
X95270053Y-74472020D01*
X95265427Y-74475474D01*
X95265426Y-74475475D01*
X95143102Y-74566819D01*
X95093267Y-74604033D01*
X94943499Y-74766051D01*
X94825764Y-74952650D01*
X94744006Y-75157579D01*
X94742880Y-75163239D01*
X94742879Y-75163243D01*
X94702089Y-75368309D01*
X94700962Y-75373976D01*
X94700886Y-75379751D01*
X94700886Y-75379755D01*
X94700475Y-75411188D01*
X94698074Y-75594594D01*
X94699053Y-75600291D01*
X94699053Y-75600292D01*
X94703475Y-75626024D01*
X94735438Y-75812043D01*
X94811804Y-76019043D01*
X94814756Y-76024004D01*
X94814756Y-76024005D01*
X94870723Y-76118077D01*
X94888363Y-76186847D01*
X94866022Y-76254237D01*
X94810795Y-76298851D01*
X94740214Y-76306525D01*
X94673342Y-76271595D01*
X94588595Y-76186847D01*
X94262404Y-75860656D01*
X94228379Y-75798344D01*
X94225500Y-75771561D01*
X94225500Y-74728438D01*
X94245502Y-74660317D01*
X94262405Y-74639343D01*
X98539343Y-70362405D01*
X98601655Y-70328379D01*
X98628438Y-70325500D01*
X101267393Y-70325500D01*
X101290210Y-70318086D01*
X101309429Y-70313472D01*
X101333126Y-70309719D01*
X101341964Y-70305216D01*
X101354502Y-70298828D01*
X101372763Y-70291264D01*
X101386147Y-70286915D01*
X101386150Y-70286913D01*
X101395581Y-70283849D01*
X101403603Y-70278020D01*
X101412438Y-70273519D01*
X101413684Y-70275964D01*
X101466301Y-70257188D01*
X101535453Y-70273265D01*
X101584936Y-70324177D01*
X101599500Y-70382982D01*
X101599500Y-72393269D01*
X101579498Y-72461390D01*
X101571382Y-72471460D01*
X101571718Y-72471718D01*
X101475464Y-72597159D01*
X101414956Y-72743238D01*
X101394318Y-72900000D01*
X101414956Y-73056762D01*
X101475464Y-73202841D01*
X101485470Y-73215881D01*
X101550017Y-73300000D01*
X101571718Y-73328282D01*
X101697159Y-73424536D01*
X101843238Y-73485044D01*
X102000000Y-73505682D01*
X102008188Y-73504604D01*
X102148574Y-73486122D01*
X102156762Y-73485044D01*
X102164389Y-73481885D01*
X102164392Y-73481884D01*
X102270735Y-73437835D01*
X102341325Y-73430246D01*
X102404812Y-73462025D01*
X102435362Y-73506025D01*
X102475464Y-73602841D01*
X102571718Y-73728282D01*
X102697159Y-73824536D01*
X102843238Y-73885044D01*
X103000000Y-73905682D01*
X103008188Y-73904604D01*
X103148574Y-73886122D01*
X103156762Y-73885044D01*
X103302841Y-73824536D01*
X103428282Y-73728282D01*
X103524536Y-73602841D01*
X103585044Y-73456762D01*
X103605682Y-73300000D01*
X103585044Y-73143238D01*
X103524536Y-72997159D01*
X103456059Y-72907918D01*
X103433305Y-72878264D01*
X103428282Y-72871718D01*
X103414785Y-72861361D01*
X103383026Y-72836992D01*
X103357793Y-72811089D01*
X103348367Y-72798115D01*
X103338038Y-72781259D01*
X103332552Y-72770493D01*
X103332551Y-72770492D01*
X103328050Y-72761658D01*
X103038110Y-72471718D01*
X102837405Y-72271012D01*
X102803379Y-72208700D01*
X102800500Y-72181917D01*
X102800500Y-70418083D01*
X102820502Y-70349962D01*
X102837405Y-70328988D01*
X104705483Y-68460909D01*
X104728050Y-68438342D01*
X104733509Y-68427628D01*
X104738038Y-68418741D01*
X104748368Y-68401884D01*
X104755466Y-68392115D01*
X104755467Y-68392112D01*
X104761296Y-68384090D01*
X104768095Y-68363166D01*
X104775659Y-68344906D01*
X104781144Y-68334141D01*
X104781145Y-68334137D01*
X104785646Y-68325304D01*
X104787902Y-68311063D01*
X104789087Y-68303578D01*
X104793703Y-68284353D01*
X104797435Y-68272868D01*
X104797436Y-68272864D01*
X104800500Y-68263433D01*
X104800500Y-67218083D01*
X104820502Y-67149962D01*
X104837405Y-67128988D01*
X106528987Y-65437405D01*
X106591299Y-65403380D01*
X106618082Y-65400500D01*
X108663433Y-65400500D01*
X108672864Y-65397436D01*
X108672868Y-65397435D01*
X108684353Y-65393703D01*
X108703578Y-65389087D01*
X108715512Y-65387197D01*
X108715513Y-65387197D01*
X108725304Y-65385646D01*
X108734137Y-65381145D01*
X108734141Y-65381144D01*
X108744906Y-65375659D01*
X108763166Y-65368095D01*
X108784090Y-65361296D01*
X108801893Y-65348361D01*
X108818745Y-65338035D01*
X108829502Y-65332554D01*
X108838342Y-65328050D01*
X108860895Y-65305497D01*
X108860910Y-65305483D01*
X109365483Y-64800909D01*
X109388050Y-64778342D01*
X109397277Y-64760234D01*
X109398038Y-64758741D01*
X109408368Y-64741884D01*
X109415465Y-64732115D01*
X109421296Y-64724090D01*
X109428094Y-64703168D01*
X109435658Y-64684907D01*
X109441145Y-64674139D01*
X109441146Y-64674135D01*
X109445646Y-64665304D01*
X109449051Y-64643806D01*
X109479464Y-64579653D01*
X109539732Y-64542126D01*
X109610721Y-64543140D01*
G37*
%TD.AperFunction*%
%TA.AperFunction,Conductor*%
G36*
X92951565Y-62968765D02*
G01*
X92969199Y-62980098D01*
X93002502Y-63005652D01*
X93002506Y-63005654D01*
X93009057Y-63010681D01*
X93155136Y-63071189D01*
X93311898Y-63091827D01*
X93320086Y-63090749D01*
X93460472Y-63072267D01*
X93468660Y-63071189D01*
X93614739Y-63010681D01*
X93621291Y-63005654D01*
X93628444Y-63001524D01*
X93629281Y-63002973D01*
X93686443Y-62980877D01*
X93755991Y-62995146D01*
X93773624Y-63006478D01*
X93790604Y-63019507D01*
X93790608Y-63019509D01*
X93797159Y-63024536D01*
X93943238Y-63085044D01*
X93951426Y-63086122D01*
X94100000Y-63105682D01*
X94099616Y-63108596D01*
X94154142Y-63124606D01*
X94175116Y-63141509D01*
X96902305Y-65868697D01*
X96936331Y-65931009D01*
X96931266Y-66001824D01*
X96889916Y-66057753D01*
X96878267Y-66066692D01*
X96878264Y-66066695D01*
X96871718Y-66071718D01*
X96775464Y-66197159D01*
X96714956Y-66343238D01*
X96694318Y-66500000D01*
X96714956Y-66656762D01*
X96775464Y-66802841D01*
X96780491Y-66809392D01*
X96871718Y-66928282D01*
X96869386Y-66930072D01*
X96896621Y-66979948D01*
X96899500Y-67006731D01*
X96899500Y-69481917D01*
X96879498Y-69550038D01*
X96862595Y-69571012D01*
X95671012Y-70762595D01*
X95608700Y-70796621D01*
X95581917Y-70799500D01*
X95242273Y-70799500D01*
X95174152Y-70779498D01*
X95127659Y-70725842D01*
X95120915Y-70707386D01*
X95117557Y-70695358D01*
X95117554Y-70695348D01*
X95116349Y-70691034D01*
X95058666Y-70559941D01*
X95021356Y-70500000D01*
X95015239Y-70490172D01*
X95015236Y-70490168D01*
X95012864Y-70486357D01*
X95009979Y-70482925D01*
X95009974Y-70482918D01*
X94923592Y-70380154D01*
X94923591Y-70380153D01*
X94920707Y-70376722D01*
X94891983Y-70351040D01*
X94859438Y-70321941D01*
X94859433Y-70321938D01*
X94856091Y-70318949D01*
X94852358Y-70316464D01*
X94852354Y-70316461D01*
X94740595Y-70242068D01*
X94740593Y-70242067D01*
X94736866Y-70239586D01*
X94658632Y-70202270D01*
X94654353Y-70200933D01*
X94654350Y-70200932D01*
X94575648Y-70176344D01*
X94521926Y-70159560D01*
X94517502Y-70158843D01*
X94517500Y-70158843D01*
X94493958Y-70155030D01*
X94436366Y-70145702D01*
X94369405Y-70144475D01*
X94297648Y-70143159D01*
X94297646Y-70143159D01*
X94293167Y-70143077D01*
X94288717Y-70143631D01*
X94284245Y-70143868D01*
X94284239Y-70143758D01*
X94275575Y-70144295D01*
X93850000Y-70144295D01*
X93848558Y-70144362D01*
X93848543Y-70144362D01*
X93836668Y-70144911D01*
X93821793Y-70145599D01*
X93713736Y-70176344D01*
X93704418Y-70183380D01*
X93704419Y-70183380D01*
X93633399Y-70237011D01*
X93633398Y-70237012D01*
X93624081Y-70244048D01*
X93605991Y-70273265D01*
X93571083Y-70329643D01*
X93571082Y-70329646D01*
X93564939Y-70339567D01*
X93562795Y-70351039D01*
X93562794Y-70351040D01*
X93558552Y-70373734D01*
X93544295Y-70450000D01*
X93544295Y-70873740D01*
X93543450Y-70886931D01*
X93543541Y-70886939D01*
X93539327Y-70933918D01*
X93539176Y-70946260D01*
X93542241Y-70993338D01*
X93542585Y-70995740D01*
X93543022Y-70998790D01*
X93544295Y-71016654D01*
X93544295Y-71373740D01*
X93543450Y-71386931D01*
X93543541Y-71386939D01*
X93539327Y-71433918D01*
X93539176Y-71446260D01*
X93542241Y-71493338D01*
X93542585Y-71495740D01*
X93543022Y-71498790D01*
X93544295Y-71516654D01*
X93544295Y-71950000D01*
X93545599Y-71978207D01*
X93547592Y-71985211D01*
X93547592Y-71985212D01*
X93567416Y-72054887D01*
X93576344Y-72086264D01*
X93591920Y-72106890D01*
X93611868Y-72133305D01*
X93644048Y-72175919D01*
X93686624Y-72202281D01*
X93729643Y-72228917D01*
X93729646Y-72228918D01*
X93739567Y-72235061D01*
X93751039Y-72237205D01*
X93751040Y-72237206D01*
X93844275Y-72254635D01*
X93844277Y-72254635D01*
X93850000Y-72255705D01*
X94340624Y-72255705D01*
X94341394Y-72255707D01*
X94412202Y-72256140D01*
X94412208Y-72256140D01*
X94416688Y-72256167D01*
X94421131Y-72255558D01*
X94421137Y-72255558D01*
X94457843Y-72250530D01*
X94502562Y-72244404D01*
X94506869Y-72243173D01*
X94506874Y-72243172D01*
X94635954Y-72206281D01*
X94635957Y-72206280D01*
X94640271Y-72205047D01*
X94719394Y-72169654D01*
X94840522Y-72093228D01*
X94906531Y-72037050D01*
X94936743Y-72002841D01*
X94998369Y-71933062D01*
X94998369Y-71933061D01*
X95001339Y-71929699D01*
X95034752Y-71878832D01*
X95046461Y-71861007D01*
X95046463Y-71861004D01*
X95048924Y-71857257D01*
X95109793Y-71727612D01*
X95121396Y-71689661D01*
X95160441Y-71630365D01*
X95225345Y-71601591D01*
X95241890Y-71600500D01*
X95793562Y-71600500D01*
X95861683Y-71620502D01*
X95908176Y-71674158D01*
X95918280Y-71744432D01*
X95888786Y-71809012D01*
X95882657Y-71815595D01*
X93451472Y-74246780D01*
X93440577Y-74268163D01*
X93430253Y-74285009D01*
X93416151Y-74304419D01*
X93413087Y-74313850D01*
X93413085Y-74313853D01*
X93408736Y-74327237D01*
X93401172Y-74345498D01*
X93390281Y-74366874D01*
X93388730Y-74376668D01*
X93386528Y-74390570D01*
X93381914Y-74409790D01*
X93374500Y-74432607D01*
X93374500Y-76018562D01*
X93354498Y-76086683D01*
X93300842Y-76133176D01*
X93230568Y-76143280D01*
X93165988Y-76113786D01*
X93159405Y-76107657D01*
X93003220Y-75951472D01*
X92981837Y-75940577D01*
X92964991Y-75930253D01*
X92953604Y-75921980D01*
X92945581Y-75916151D01*
X92936150Y-75913087D01*
X92936147Y-75913085D01*
X92922763Y-75908736D01*
X92904502Y-75901172D01*
X92891964Y-75894784D01*
X92891963Y-75894784D01*
X92883126Y-75890281D01*
X92859429Y-75886528D01*
X92840210Y-75881914D01*
X92817393Y-75874500D01*
X92651500Y-75874500D01*
X92583379Y-75854498D01*
X92536886Y-75800842D01*
X92525500Y-75748500D01*
X92525500Y-75515939D01*
X92545502Y-75447818D01*
X92569669Y-75420128D01*
X92613651Y-75382564D01*
X92613652Y-75382563D01*
X92619423Y-75377634D01*
X92718361Y-75239947D01*
X92751473Y-75157579D01*
X92778766Y-75089687D01*
X92778767Y-75089685D01*
X92781601Y-75082634D01*
X92805490Y-74914778D01*
X92805645Y-74900000D01*
X92785276Y-74731680D01*
X92725345Y-74573077D01*
X92629312Y-74433349D01*
X92602878Y-74409797D01*
X92508392Y-74325612D01*
X92508388Y-74325610D01*
X92502721Y-74320560D01*
X92490364Y-74314017D01*
X92363374Y-74246780D01*
X92352881Y-74241224D01*
X92188441Y-74199919D01*
X92180843Y-74199879D01*
X92180841Y-74199879D01*
X92103668Y-74199475D01*
X92018895Y-74199031D01*
X92011508Y-74200805D01*
X92011504Y-74200805D01*
X91868162Y-74235220D01*
X91854032Y-74238612D01*
X91847288Y-74242093D01*
X91847285Y-74242094D01*
X91735548Y-74299766D01*
X91703369Y-74316375D01*
X91697647Y-74321367D01*
X91697645Y-74321368D01*
X91634329Y-74376602D01*
X91569847Y-74406310D01*
X91499539Y-74396440D01*
X91445729Y-74350126D01*
X91425500Y-74281653D01*
X91425500Y-66032607D01*
X91422437Y-66023180D01*
X91422436Y-66023173D01*
X91418087Y-66009788D01*
X91413473Y-65990569D01*
X91411272Y-65976672D01*
X91411270Y-65976665D01*
X91409719Y-65966874D01*
X91398827Y-65945498D01*
X91391264Y-65927237D01*
X91386914Y-65913850D01*
X91383850Y-65904419D01*
X91369749Y-65885011D01*
X91359417Y-65868152D01*
X91353031Y-65855618D01*
X91348528Y-65846780D01*
X91190843Y-65689095D01*
X91156817Y-65626783D01*
X91161882Y-65555968D01*
X91190843Y-65510905D01*
X91948528Y-64753220D01*
X91959423Y-64731837D01*
X91969747Y-64714991D01*
X91978020Y-64703604D01*
X91983849Y-64695581D01*
X91986913Y-64686150D01*
X91986915Y-64686147D01*
X91991264Y-64672763D01*
X91998828Y-64654502D01*
X92005216Y-64641964D01*
X92005216Y-64641963D01*
X92009719Y-64633126D01*
X92013472Y-64609429D01*
X92018086Y-64590210D01*
X92025500Y-64567393D01*
X92025500Y-63107505D01*
X92045502Y-63039384D01*
X92099158Y-62992891D01*
X92169432Y-62982787D01*
X92199718Y-62991096D01*
X92343238Y-63050544D01*
X92500000Y-63071182D01*
X92508188Y-63070104D01*
X92523950Y-63068029D01*
X92656762Y-63050544D01*
X92802841Y-62990036D01*
X92815795Y-62980096D01*
X92882016Y-62954498D01*
X92951565Y-62968765D01*
G37*
%TD.AperFunction*%
%TA.AperFunction,Conductor*%
G36*
X96842799Y-56820502D02*
G01*
X96889292Y-56874158D01*
X96899396Y-56944432D01*
X96883797Y-56989500D01*
X96818750Y-57102165D01*
X96763503Y-57272197D01*
X96744815Y-57450000D01*
X96763503Y-57627803D01*
X96765543Y-57634080D01*
X96765543Y-57634082D01*
X96775120Y-57663556D01*
X96818750Y-57797835D01*
X96908141Y-57952665D01*
X96912559Y-57957572D01*
X96912560Y-57957573D01*
X96987768Y-58041099D01*
X97027770Y-58085526D01*
X97033109Y-58089405D01*
X97148906Y-58173537D01*
X97172407Y-58190612D01*
X97178435Y-58193296D01*
X97178437Y-58193297D01*
X97318301Y-58255568D01*
X97335733Y-58263329D01*
X97423028Y-58281884D01*
X97504152Y-58299128D01*
X97504156Y-58299128D01*
X97510609Y-58300500D01*
X97689391Y-58300500D01*
X97695844Y-58299128D01*
X97695848Y-58299128D01*
X97776972Y-58281884D01*
X97864267Y-58263329D01*
X97881699Y-58255568D01*
X98021563Y-58193297D01*
X98021565Y-58193296D01*
X98027593Y-58190612D01*
X98051095Y-58173537D01*
X98166891Y-58089405D01*
X98172230Y-58085526D01*
X98212233Y-58041099D01*
X98287440Y-57957573D01*
X98287441Y-57957572D01*
X98291859Y-57952665D01*
X98381250Y-57797835D01*
X98424880Y-57663556D01*
X98434457Y-57634082D01*
X98434457Y-57634080D01*
X98436497Y-57627803D01*
X98455185Y-57450000D01*
X98436497Y-57272197D01*
X98381250Y-57102165D01*
X98316203Y-56989500D01*
X98299465Y-56920505D01*
X98322686Y-56853413D01*
X98378493Y-56809526D01*
X98425322Y-56800500D01*
X99228916Y-56800500D01*
X99297037Y-56820502D01*
X99343530Y-56874158D01*
X99353634Y-56944432D01*
X99324140Y-57009012D01*
X99318011Y-57015595D01*
X99255097Y-57078509D01*
X99192785Y-57112535D01*
X99187508Y-57113454D01*
X99185925Y-57113878D01*
X99177738Y-57114956D01*
X99031659Y-57175464D01*
X98906218Y-57271718D01*
X98809964Y-57397159D01*
X98749456Y-57543238D01*
X98748378Y-57551426D01*
X98743061Y-57591810D01*
X98728818Y-57700000D01*
X98749456Y-57856762D01*
X98809964Y-58002841D01*
X98906218Y-58128282D01*
X99031659Y-58224536D01*
X99177738Y-58285044D01*
X99289947Y-58299817D01*
X99354873Y-58328538D01*
X99393965Y-58387803D01*
X99399500Y-58424738D01*
X99399500Y-58758564D01*
X99397949Y-58778274D01*
X99394508Y-58800000D01*
X99396059Y-58809793D01*
X99397949Y-58821726D01*
X99399500Y-58841436D01*
X99399500Y-59628917D01*
X99379498Y-59697038D01*
X99325842Y-59743531D01*
X99255568Y-59753635D01*
X99190988Y-59724141D01*
X99184404Y-59718012D01*
X99127597Y-59661204D01*
X98860909Y-59394516D01*
X98860895Y-59394503D01*
X98838342Y-59371950D01*
X98818746Y-59361965D01*
X98801893Y-59351639D01*
X98784090Y-59338704D01*
X98763166Y-59331905D01*
X98744906Y-59324341D01*
X98734141Y-59318856D01*
X98734137Y-59318855D01*
X98725304Y-59314354D01*
X98715513Y-59312803D01*
X98715512Y-59312803D01*
X98703578Y-59310913D01*
X98684353Y-59306297D01*
X98672868Y-59302565D01*
X98672864Y-59302564D01*
X98663433Y-59299500D01*
X97952416Y-59299500D01*
X97884295Y-59279498D01*
X97852454Y-59250204D01*
X97781338Y-59157524D01*
X97781334Y-59157520D01*
X97776311Y-59150974D01*
X97650870Y-59054720D01*
X97504791Y-58994212D01*
X97348029Y-58973574D01*
X97191267Y-58994212D01*
X97045188Y-59054720D01*
X97000215Y-59089229D01*
X96958987Y-59120864D01*
X96892766Y-59146464D01*
X96823218Y-59132199D01*
X96805580Y-59120864D01*
X96764352Y-59089229D01*
X96764348Y-59089227D01*
X96757797Y-59084200D01*
X96750171Y-59081041D01*
X96750169Y-59081040D01*
X96621777Y-59027858D01*
X96621778Y-59027858D01*
X96614151Y-59024699D01*
X96605967Y-59023622D01*
X96605965Y-59023621D01*
X96502788Y-59010038D01*
X96502787Y-59010038D01*
X96498701Y-59009500D01*
X96001299Y-59009500D01*
X95997213Y-59010038D01*
X95997212Y-59010038D01*
X95894035Y-59023621D01*
X95894033Y-59023622D01*
X95885849Y-59024699D01*
X95878222Y-59027858D01*
X95878223Y-59027858D01*
X95749831Y-59081040D01*
X95749829Y-59081041D01*
X95742203Y-59084200D01*
X95735652Y-59089227D01*
X95652291Y-59153192D01*
X95618851Y-59178851D01*
X95613825Y-59185401D01*
X95613822Y-59185404D01*
X95606528Y-59194910D01*
X95524200Y-59302202D01*
X95464699Y-59445849D01*
X95444405Y-59600000D01*
X95445483Y-59608188D01*
X95452463Y-59661204D01*
X95464699Y-59754151D01*
X95467858Y-59761777D01*
X95492733Y-59821829D01*
X95524200Y-59897797D01*
X95618851Y-60021149D01*
X95625397Y-60026172D01*
X95652615Y-60047057D01*
X95742203Y-60115800D01*
X95749829Y-60118959D01*
X95749831Y-60118960D01*
X95753554Y-60120502D01*
X95885849Y-60175301D01*
X95894033Y-60176378D01*
X95894035Y-60176379D01*
X95994485Y-60189603D01*
X96001299Y-60190500D01*
X96498701Y-60190500D01*
X96505515Y-60189603D01*
X96605965Y-60176379D01*
X96605967Y-60176378D01*
X96614151Y-60175301D01*
X96746446Y-60120502D01*
X96750169Y-60118960D01*
X96750171Y-60118959D01*
X96757797Y-60115800D01*
X96832613Y-60058392D01*
X96898834Y-60032792D01*
X96968382Y-60047057D01*
X96986020Y-60058392D01*
X97038633Y-60098763D01*
X97038637Y-60098765D01*
X97045188Y-60103792D01*
X97191267Y-60164300D01*
X97348029Y-60184938D01*
X97356217Y-60183860D01*
X97496603Y-60165378D01*
X97504791Y-60164300D01*
X97621880Y-60115800D01*
X97635663Y-60110091D01*
X97683881Y-60100500D01*
X98381916Y-60100500D01*
X98450037Y-60120502D01*
X98471011Y-60137404D01*
X98762595Y-60428987D01*
X98796620Y-60491300D01*
X98799500Y-60518083D01*
X98799500Y-61963433D01*
X98802564Y-61972864D01*
X98802565Y-61972868D01*
X98806297Y-61984353D01*
X98810913Y-62003578D01*
X98811778Y-62009036D01*
X98814354Y-62025304D01*
X98818855Y-62034137D01*
X98818856Y-62034141D01*
X98824341Y-62044906D01*
X98831905Y-62063166D01*
X98838704Y-62084090D01*
X98851639Y-62101893D01*
X98861965Y-62118745D01*
X98871950Y-62138342D01*
X98894513Y-62160905D01*
X98894516Y-62160909D01*
X99889091Y-63155484D01*
X99889095Y-63155487D01*
X99911658Y-63178050D01*
X99920498Y-63182554D01*
X99931255Y-63188035D01*
X99948107Y-63198361D01*
X99965910Y-63211296D01*
X99986834Y-63218095D01*
X100005094Y-63225659D01*
X100015859Y-63231144D01*
X100015863Y-63231145D01*
X100024696Y-63235646D01*
X100034487Y-63237197D01*
X100034488Y-63237197D01*
X100046422Y-63239087D01*
X100065647Y-63243703D01*
X100077132Y-63247435D01*
X100077136Y-63247436D01*
X100086567Y-63250500D01*
X104181519Y-63250500D01*
X104243786Y-63240638D01*
X104265513Y-63237197D01*
X104265515Y-63237196D01*
X104275304Y-63235646D01*
X104284137Y-63231145D01*
X104284141Y-63231144D01*
X104317834Y-63213977D01*
X104377014Y-63200260D01*
X104466161Y-63201660D01*
X104466164Y-63201660D01*
X104473760Y-63201779D01*
X104481165Y-63200083D01*
X104481166Y-63200083D01*
X104608006Y-63171033D01*
X104639029Y-63163928D01*
X104790498Y-63087747D01*
X104898919Y-62995146D01*
X104913651Y-62982564D01*
X104913652Y-62982563D01*
X104919423Y-62977634D01*
X105018361Y-62839947D01*
X105081601Y-62682634D01*
X105093290Y-62600500D01*
X105104909Y-62518862D01*
X105104909Y-62518859D01*
X105105490Y-62514778D01*
X105105645Y-62500000D01*
X105097979Y-62436653D01*
X105109652Y-62366624D01*
X105133971Y-62332422D01*
X105621037Y-61845356D01*
X105621040Y-61845352D01*
X105628050Y-61838342D01*
X105633077Y-61828476D01*
X105638038Y-61818741D01*
X105648368Y-61801884D01*
X105655465Y-61792115D01*
X105661296Y-61784090D01*
X105668094Y-61763168D01*
X105675658Y-61744907D01*
X105681145Y-61734139D01*
X105681146Y-61734135D01*
X105685646Y-61725304D01*
X105687197Y-61715515D01*
X105687199Y-61715507D01*
X105689089Y-61703573D01*
X105693703Y-61684353D01*
X105697435Y-61672867D01*
X105697436Y-61672860D01*
X105700499Y-61663433D01*
X105700499Y-61631525D01*
X105700500Y-61631519D01*
X105700500Y-60668481D01*
X105700499Y-60668475D01*
X105700499Y-60636567D01*
X105697436Y-60627140D01*
X105697435Y-60627133D01*
X105693703Y-60615647D01*
X105689089Y-60596427D01*
X105687199Y-60584493D01*
X105687197Y-60584485D01*
X105685646Y-60574696D01*
X105681146Y-60565865D01*
X105681145Y-60565861D01*
X105675658Y-60555093D01*
X105668094Y-60536832D01*
X105661296Y-60515910D01*
X105648368Y-60498116D01*
X105638038Y-60481259D01*
X105632552Y-60470493D01*
X105632551Y-60470492D01*
X105628050Y-60461658D01*
X105538342Y-60371950D01*
X105140910Y-59974517D01*
X105140906Y-59974514D01*
X105118343Y-59951951D01*
X105098747Y-59941966D01*
X105081894Y-59931640D01*
X105064091Y-59918705D01*
X105043167Y-59911906D01*
X105024907Y-59904342D01*
X105014142Y-59898857D01*
X105014138Y-59898856D01*
X105005305Y-59894355D01*
X104995514Y-59892804D01*
X104995513Y-59892804D01*
X104983579Y-59890914D01*
X104964354Y-59886298D01*
X104952869Y-59882566D01*
X104952865Y-59882565D01*
X104943434Y-59879501D01*
X104490859Y-59879501D01*
X104422738Y-59859499D01*
X104376245Y-59805843D01*
X104367091Y-59729891D01*
X104382772Y-59647690D01*
X104382772Y-59647688D01*
X104384257Y-59639904D01*
X104377082Y-59525859D01*
X104374752Y-59488828D01*
X104374752Y-59488826D01*
X104374254Y-59480917D01*
X104325028Y-59329413D01*
X104267285Y-59238424D01*
X104247673Y-59170194D01*
X104268064Y-59102188D01*
X104284575Y-59081818D01*
X105124883Y-58241509D01*
X105187196Y-58207484D01*
X105200055Y-58206101D01*
X105200000Y-58205682D01*
X105356762Y-58185044D01*
X105502841Y-58124536D01*
X105595107Y-58053738D01*
X105621736Y-58033305D01*
X105628282Y-58028282D01*
X105633429Y-58021575D01*
X105719509Y-57909392D01*
X105724536Y-57902841D01*
X105785044Y-57756762D01*
X105805682Y-57600000D01*
X105803437Y-57582945D01*
X105814377Y-57512796D01*
X105861506Y-57459698D01*
X105928359Y-57440500D01*
X108667970Y-57440500D01*
X108736091Y-57460502D01*
X108774699Y-57500994D01*
X108775464Y-57502841D01*
X108813707Y-57552680D01*
X108850017Y-57600000D01*
X108871718Y-57628282D01*
X108997159Y-57724536D01*
X109143238Y-57785044D01*
X109300000Y-57805682D01*
X109308188Y-57804604D01*
X109448574Y-57786122D01*
X109456762Y-57785044D01*
X109525282Y-57756662D01*
X109595872Y-57749073D01*
X109659359Y-57780852D01*
X109695586Y-57841910D01*
X109699500Y-57873071D01*
X109699500Y-59536486D01*
X109679498Y-59604607D01*
X109625842Y-59651100D01*
X109555568Y-59661204D01*
X109490988Y-59631710D01*
X109452604Y-59571984D01*
X109449051Y-59556195D01*
X109447197Y-59544489D01*
X109445646Y-59534696D01*
X109441145Y-59525863D01*
X109441144Y-59525859D01*
X109435659Y-59515094D01*
X109428093Y-59496830D01*
X109425493Y-59488828D01*
X109421296Y-59475910D01*
X109408361Y-59458107D01*
X109398035Y-59441255D01*
X109392554Y-59430498D01*
X109388050Y-59421658D01*
X109365487Y-59399095D01*
X109365484Y-59399091D01*
X108960909Y-58994516D01*
X108960905Y-58994513D01*
X108938342Y-58971950D01*
X108918746Y-58961965D01*
X108901893Y-58951639D01*
X108884090Y-58938704D01*
X108863166Y-58931905D01*
X108844906Y-58924341D01*
X108834141Y-58918856D01*
X108834137Y-58918855D01*
X108825304Y-58914354D01*
X108815513Y-58912803D01*
X108815512Y-58912803D01*
X108803578Y-58910913D01*
X108784353Y-58906297D01*
X108772868Y-58902565D01*
X108772864Y-58902564D01*
X108763433Y-58899500D01*
X107736567Y-58899500D01*
X107727136Y-58902564D01*
X107727132Y-58902565D01*
X107715647Y-58906297D01*
X107696422Y-58910913D01*
X107684488Y-58912803D01*
X107684487Y-58912803D01*
X107674696Y-58914354D01*
X107665863Y-58918855D01*
X107665859Y-58918856D01*
X107655094Y-58924341D01*
X107636834Y-58931905D01*
X107615910Y-58938704D01*
X107607888Y-58944533D01*
X107607885Y-58944534D01*
X107598116Y-58951632D01*
X107581259Y-58961962D01*
X107570493Y-58967448D01*
X107570492Y-58967449D01*
X107561658Y-58971950D01*
X107018990Y-59514618D01*
X106978112Y-59541932D01*
X106897159Y-59575464D01*
X106771718Y-59671718D01*
X106675464Y-59797159D01*
X106614956Y-59943238D01*
X106594318Y-60100000D01*
X106614956Y-60256762D01*
X106675464Y-60402841D01*
X106771718Y-60528282D01*
X106897159Y-60624536D01*
X107043238Y-60685044D01*
X107200000Y-60705682D01*
X107208188Y-60704604D01*
X107348574Y-60686122D01*
X107356762Y-60685044D01*
X107502841Y-60624536D01*
X107628282Y-60528282D01*
X107724536Y-60402841D01*
X107733591Y-60380980D01*
X107778139Y-60325699D01*
X107845502Y-60303278D01*
X107914294Y-60320836D01*
X107962672Y-60372798D01*
X107966408Y-60380977D01*
X107975464Y-60402841D01*
X108071718Y-60528282D01*
X108078264Y-60533305D01*
X108078268Y-60533309D01*
X108174348Y-60607034D01*
X108216215Y-60664372D01*
X108223644Y-60706996D01*
X108223644Y-62057774D01*
X108203642Y-62125895D01*
X108186739Y-62146869D01*
X106591012Y-63742595D01*
X106528700Y-63776621D01*
X106501917Y-63779500D01*
X98298082Y-63779500D01*
X98229961Y-63759498D01*
X98208987Y-63742595D01*
X97247900Y-62781508D01*
X97213874Y-62719196D01*
X97218939Y-62648381D01*
X97261486Y-62591545D01*
X97328006Y-62566734D01*
X97363192Y-62569166D01*
X97504152Y-62599128D01*
X97504156Y-62599128D01*
X97510609Y-62600500D01*
X97689391Y-62600500D01*
X97695844Y-62599128D01*
X97695848Y-62599128D01*
X97776829Y-62581915D01*
X97864267Y-62563329D01*
X97870298Y-62560644D01*
X98021563Y-62493297D01*
X98021565Y-62493296D01*
X98027593Y-62490612D01*
X98172230Y-62385526D01*
X98181006Y-62375780D01*
X98287440Y-62257573D01*
X98287441Y-62257572D01*
X98291859Y-62252665D01*
X98357863Y-62138342D01*
X98377946Y-62103558D01*
X98377947Y-62103557D01*
X98381250Y-62097835D01*
X98405618Y-62022837D01*
X98434457Y-61934082D01*
X98434458Y-61934079D01*
X98436497Y-61927803D01*
X98440017Y-61894318D01*
X98454495Y-61756565D01*
X98455185Y-61750000D01*
X98438939Y-61595434D01*
X98437187Y-61578761D01*
X98437187Y-61578760D01*
X98436497Y-61572197D01*
X98428754Y-61548365D01*
X98383292Y-61408450D01*
X98381250Y-61402165D01*
X98377835Y-61396249D01*
X98295162Y-61253056D01*
X98291859Y-61247335D01*
X98281951Y-61236331D01*
X98176645Y-61119377D01*
X98176643Y-61119376D01*
X98172230Y-61114474D01*
X98027593Y-61009388D01*
X98021565Y-61006704D01*
X98021563Y-61006703D01*
X97870298Y-60939356D01*
X97870297Y-60939356D01*
X97864267Y-60936671D01*
X97776829Y-60918085D01*
X97695848Y-60900872D01*
X97695844Y-60900872D01*
X97689391Y-60899500D01*
X97510609Y-60899500D01*
X97504156Y-60900872D01*
X97504152Y-60900872D01*
X97423171Y-60918085D01*
X97335733Y-60936671D01*
X97329703Y-60939356D01*
X97329702Y-60939356D01*
X97178438Y-61006703D01*
X97178436Y-61006704D01*
X97172408Y-61009388D01*
X97027770Y-61114474D01*
X97023357Y-61119376D01*
X97023355Y-61119377D01*
X96918049Y-61236331D01*
X96908141Y-61247335D01*
X96904838Y-61253056D01*
X96822166Y-61396249D01*
X96818750Y-61402165D01*
X96816708Y-61408450D01*
X96771247Y-61548365D01*
X96763503Y-61572197D01*
X96762813Y-61578760D01*
X96762813Y-61578761D01*
X96761061Y-61595434D01*
X96744815Y-61750000D01*
X96745505Y-61756565D01*
X96759984Y-61894318D01*
X96763503Y-61927803D01*
X96779073Y-61975723D01*
X96781101Y-62046687D01*
X96744439Y-62107486D01*
X96680727Y-62138811D01*
X96610193Y-62130719D01*
X96570145Y-62103752D01*
X95660910Y-61194517D01*
X95660901Y-61194509D01*
X95638342Y-61171950D01*
X95618746Y-61161965D01*
X95601893Y-61151639D01*
X95584090Y-61138704D01*
X95563166Y-61131905D01*
X95544906Y-61124341D01*
X95534141Y-61118856D01*
X95534137Y-61118855D01*
X95525304Y-61114354D01*
X95515513Y-61112803D01*
X95515512Y-61112803D01*
X95503578Y-61110913D01*
X95484353Y-61106297D01*
X95472868Y-61102565D01*
X95472864Y-61102564D01*
X95463433Y-61099500D01*
X93036567Y-61099500D01*
X93027136Y-61102564D01*
X93027132Y-61102565D01*
X93015647Y-61106297D01*
X92996422Y-61110913D01*
X92984488Y-61112803D01*
X92984487Y-61112803D01*
X92974696Y-61114354D01*
X92965863Y-61118855D01*
X92965859Y-61118856D01*
X92955094Y-61124341D01*
X92936834Y-61131905D01*
X92915910Y-61138704D01*
X92907888Y-61144533D01*
X92907885Y-61144534D01*
X92898116Y-61151632D01*
X92881259Y-61161962D01*
X92870493Y-61167448D01*
X92870492Y-61167449D01*
X92861658Y-61171950D01*
X92839091Y-61194517D01*
X92194516Y-61839091D01*
X92194513Y-61839095D01*
X92171950Y-61861658D01*
X92167446Y-61870498D01*
X92161965Y-61881255D01*
X92151639Y-61898107D01*
X92138704Y-61915910D01*
X92134840Y-61927803D01*
X92131907Y-61936830D01*
X92124343Y-61955090D01*
X92123402Y-61956937D01*
X92074656Y-62008555D01*
X92005742Y-62025624D01*
X91934430Y-61999702D01*
X91909396Y-61980493D01*
X91909392Y-61980491D01*
X91902841Y-61975464D01*
X91772242Y-61921368D01*
X91764391Y-61918116D01*
X91756762Y-61914956D01*
X91741085Y-61912892D01*
X91628841Y-61898115D01*
X91600000Y-61894318D01*
X91571159Y-61898115D01*
X91458916Y-61912892D01*
X91443238Y-61914956D01*
X91435609Y-61918116D01*
X91427758Y-61921368D01*
X91297159Y-61975464D01*
X91171718Y-62071718D01*
X91075464Y-62197159D01*
X91014956Y-62343238D01*
X90994318Y-62500000D01*
X91014956Y-62656762D01*
X91075464Y-62802841D01*
X91080492Y-62809394D01*
X91080494Y-62809397D01*
X91148462Y-62897975D01*
X91174063Y-62964195D01*
X91174500Y-62974679D01*
X91174500Y-64271562D01*
X91154498Y-64339683D01*
X91137595Y-64360657D01*
X90534775Y-64963477D01*
X90472463Y-64997503D01*
X90462126Y-64999304D01*
X90442946Y-65001829D01*
X90372797Y-64990889D01*
X90319699Y-64943761D01*
X90300500Y-64876907D01*
X90300500Y-56926500D01*
X90320502Y-56858379D01*
X90374158Y-56811886D01*
X90426500Y-56800500D01*
X96774678Y-56800500D01*
X96842799Y-56820502D01*
G37*
%TD.AperFunction*%
%TD*%
M02*
