M48
; DRILL file {KiCad 6.0.11-2627ca5db0~126~ubuntu22.04.1} date Do 04 Mai 2023 09:26:41
; FORMAT={-:-/ absolute / inch / decimal}
; #@! TF.CreationDate,2023-05-04T09:26:41+02:00
; #@! TF.GenerationSoftware,Kicad,Pcbnew,6.0.11-2627ca5db0~126~ubuntu22.04.1
; #@! TF.FileFunction,Plated,1,2,PTH
FMAT,2
INCH
; #@! TA.AperFunction,Plated,PTH,ViaDrill
T1C0.0118
; #@! TA.AperFunction,Plated,PTH,ViaDrill
T2C0.0157
; #@! TA.AperFunction,Plated,PTH,ComponentDrill
T3C0.0276
; #@! TA.AperFunction,Plated,PTH,ComponentDrill
T4C0.0315
; #@! TA.AperFunction,Plated,PTH,ComponentDrill
T5C0.0394
; #@! TA.AperFunction,Plated,PTH,ComponentDrill
T6C0.0433
; #@! TA.AperFunction,Plated,PTH,ComponentDrill
T7C0.0472
%
G90
G05
T1
X3.563Y-2.5827
X3.6063Y-2.4606
X3.6315Y-2.3782
X3.6417Y-2.4593
X3.6732Y-3.7087
X3.6732Y-4.3425
X3.6737Y-2.4601
X3.689Y-2.5906
X3.7047Y-2.4606
X3.7087Y-2.378
X3.7165Y-5.378
X3.7165Y-5.4409
X3.7323Y-3.7362
X3.7362Y-4.2559
X3.7383Y-2.459
X3.7795Y-3.7362
X3.7835Y-3.8661
X3.815Y-4.189
X3.8307Y-2.6181
X3.8326Y-2.3456
X3.8858Y-3.4606
X3.9108Y-2.2717
X3.9252Y-3.689
X3.9291Y-2.4252
X3.937Y-3.2402
X3.9449Y-2.2717
X3.9567Y-2.4488
X4.0157Y-2.8701
X4.0394Y-2.563
X4.0445Y-2.349
X4.0551Y-2.8858
X4.0984Y-2.563
X4.1181Y-2.4094
X4.122Y-2.5906
X4.1378Y-2.3071
X4.1417Y-2.2677
X4.1417Y-4.2756
X4.1457Y-2.7717
X4.2205Y-2.3661
X4.2717Y-2.3661
X4.2717Y-2.5
X4.2835Y-2.5945
X4.2835Y-2.7244
X4.2835Y-2.7756
X4.2874Y-2.8228
X4.3031Y-2.252
T2
X3.5787Y-3.7874
X3.5945Y-5.0984
X3.6181Y-3.8228
X3.626Y-2.9488
X3.6614Y-2.7402
X3.6791Y-3.0315
X3.6811Y-2.8819
X3.9567Y-4.3406
X4.0591Y-2.6142
X4.1102Y-2.4606
X4.1413Y-2.8305
T3
X3.8425Y-2.2618
X3.8425Y-2.4311
X4.0315Y-2.2618
X4.0315Y-2.4311
T5
X3.8386Y-5.9646
X3.937Y-5.9646
X4.0354Y-5.9646
X4.1232Y-3.3465
X4.1232Y-3.4465
X4.1232Y-3.5465
X4.1232Y-3.6465
X4.1232Y-3.7465
X4.2232Y-3.3465
X4.2232Y-3.4465
X4.2232Y-3.5465
X4.2232Y-3.6465
X4.2232Y-3.7465
T7
X3.7992Y-2.9724
X3.8396Y-3.0699
X3.937Y-3.1102
X4.0344Y-3.0699
X4.0748Y-2.9724
T3
G00X3.7854Y-4.437
M15
G01X3.6949Y-4.437
M16
G05
G00X3.7854Y-4.7598
M15
G01X3.6949Y-4.7598
M16
G05
G00X3.9823Y-3.8858
M15
G01X3.8917Y-3.8858
M16
G05
G00X3.9823Y-4.2087
M15
G01X3.8917Y-4.2087
M16
G05
G00X3.9823Y-4.9882
M15
G01X3.8917Y-4.9882
M16
G05
G00X3.9823Y-5.311
M15
G01X3.8917Y-5.311
M16
G05
G00X3.9823Y-6.0906
M15
G01X3.8917Y-6.0906
M16
G05
G00X3.9823Y-6.4134
M15
G01X3.8917Y-6.4134
M16
G05
G00X4.1791Y-4.437
M15
G01X4.0886Y-4.437
M16
G05
G00X4.1791Y-4.7598
M15
G01X4.0886Y-4.7598
M16
G05
T4
G00X3.9843Y-2.6594
M15
G01X3.8898Y-2.6594
M16
G05
T5
G00X3.5551Y-4.5866
M15
G01X3.5551Y-4.5472
M16
G05
G00X3.752Y-4.0354
M15
G01X3.752Y-3.9961
M16
G05
G00X3.752Y-5.1378
M15
G01X3.752Y-5.0984
M16
G05
G00X3.752Y-6.2402
M15
G01X3.752Y-6.2008
M16
G05
G00X3.9252Y-4.6063
M15
G01X3.9252Y-4.5276
M16
G05
G00X3.9488Y-4.5866
M15
G01X3.9488Y-4.5472
M16
G05
G00X4.122Y-4.0551
M15
G01X4.122Y-3.9764
M16
G05
G00X4.122Y-5.1575
M15
G01X4.122Y-5.0787
M16
G05
G00X4.122Y-6.2598
M15
G01X4.122Y-6.1811
M16
G05
G00X4.3189Y-4.6063
M15
G01X4.3189Y-4.5276
M16
G05
T6
G00X3.748Y-5.6831
M15
G01X3.748Y-5.6555
M16
G05
G00X4.126Y-5.6831
M15
G01X4.126Y-5.6555
M16
G05
T0
M30
