%TF.GenerationSoftware,KiCad,Pcbnew,6.0.11-2627ca5db0~126~ubuntu22.04.1*%
%TF.CreationDate,2023-05-04T09:26:43+02:00*%
%TF.ProjectId,OTBreakOut,4f544272-6561-46b4-9f75-742e6b696361,rev?*%
%TF.SameCoordinates,Original*%
%TF.FileFunction,Legend,Bot*%
%TF.FilePolarity,Positive*%
%FSLAX46Y46*%
G04 Gerber Fmt 4.6, Leading zero omitted, Abs format (unit mm)*
G04 Created by KiCad (PCBNEW 6.0.11-2627ca5db0~126~ubuntu22.04.1) date 2023-05-04 09:26:43*
%MOMM*%
%LPD*%
G01*
G04 APERTURE LIST*
%ADD10C,0.150000*%
%ADD11C,0.300000*%
%ADD12C,0.120000*%
G04 APERTURE END LIST*
D10*
X107185714Y-137276857D02*
X106957142Y-137276857D01*
X106842857Y-137334000D01*
X106728571Y-137448285D01*
X106671428Y-137676857D01*
X106671428Y-138076857D01*
X106728571Y-138305428D01*
X106842857Y-138419714D01*
X106957142Y-138476857D01*
X107185714Y-138476857D01*
X107300000Y-138419714D01*
X107414285Y-138305428D01*
X107471428Y-138076857D01*
X107471428Y-137676857D01*
X107414285Y-137448285D01*
X107300000Y-137334000D01*
X107185714Y-137276857D01*
X106157142Y-137676857D02*
X106157142Y-138876857D01*
X106157142Y-137734000D02*
X106042857Y-137676857D01*
X105814285Y-137676857D01*
X105700000Y-137734000D01*
X105642857Y-137791142D01*
X105585714Y-137905428D01*
X105585714Y-138248285D01*
X105642857Y-138362571D01*
X105700000Y-138419714D01*
X105814285Y-138476857D01*
X106042857Y-138476857D01*
X106157142Y-138419714D01*
X104614285Y-138419714D02*
X104728571Y-138476857D01*
X104957142Y-138476857D01*
X105071428Y-138419714D01*
X105128571Y-138305428D01*
X105128571Y-137848285D01*
X105071428Y-137734000D01*
X104957142Y-137676857D01*
X104728571Y-137676857D01*
X104614285Y-137734000D01*
X104557142Y-137848285D01*
X104557142Y-137962571D01*
X105128571Y-138076857D01*
X104042857Y-137676857D02*
X104042857Y-138476857D01*
X104042857Y-137791142D02*
X103985714Y-137734000D01*
X103871428Y-137676857D01*
X103700000Y-137676857D01*
X103585714Y-137734000D01*
X103528571Y-137848285D01*
X103528571Y-138476857D01*
X103128571Y-137276857D02*
X102442857Y-137276857D01*
X102785714Y-138476857D02*
X102785714Y-137276857D01*
X102042857Y-138476857D02*
X102042857Y-137276857D01*
X101528571Y-138476857D02*
X101528571Y-137848285D01*
X101585714Y-137734000D01*
X101700000Y-137676857D01*
X101871428Y-137676857D01*
X101985714Y-137734000D01*
X102042857Y-137791142D01*
X100500000Y-138419714D02*
X100614285Y-138476857D01*
X100842857Y-138476857D01*
X100957142Y-138419714D01*
X101014285Y-138305428D01*
X101014285Y-137848285D01*
X100957142Y-137734000D01*
X100842857Y-137676857D01*
X100614285Y-137676857D01*
X100500000Y-137734000D01*
X100442857Y-137848285D01*
X100442857Y-137962571D01*
X101014285Y-138076857D01*
X99928571Y-138476857D02*
X99928571Y-137676857D01*
X99928571Y-137905428D02*
X99871428Y-137791142D01*
X99814285Y-137734000D01*
X99700000Y-137676857D01*
X99585714Y-137676857D01*
X98728571Y-138419714D02*
X98842857Y-138476857D01*
X99071428Y-138476857D01*
X99185714Y-138419714D01*
X99242857Y-138305428D01*
X99242857Y-137848285D01*
X99185714Y-137734000D01*
X99071428Y-137676857D01*
X98842857Y-137676857D01*
X98728571Y-137734000D01*
X98671428Y-137848285D01*
X98671428Y-137962571D01*
X99242857Y-138076857D01*
X98157142Y-138476857D02*
X98157142Y-137676857D01*
X98157142Y-137791142D02*
X98100000Y-137734000D01*
X97985714Y-137676857D01*
X97814285Y-137676857D01*
X97700000Y-137734000D01*
X97642857Y-137848285D01*
X97642857Y-138476857D01*
X97642857Y-137848285D02*
X97585714Y-137734000D01*
X97471428Y-137676857D01*
X97300000Y-137676857D01*
X97185714Y-137734000D01*
X97128571Y-137848285D01*
X97128571Y-138476857D01*
X96557142Y-138476857D02*
X96557142Y-137676857D01*
X96557142Y-137276857D02*
X96614285Y-137334000D01*
X96557142Y-137391142D01*
X96500000Y-137334000D01*
X96557142Y-137276857D01*
X96557142Y-137391142D01*
X95985714Y-137676857D02*
X95985714Y-138476857D01*
X95985714Y-137791142D02*
X95928571Y-137734000D01*
X95814285Y-137676857D01*
X95642857Y-137676857D01*
X95528571Y-137734000D01*
X95471428Y-137848285D01*
X95471428Y-138476857D01*
X94157142Y-137276857D02*
X93757142Y-138476857D01*
X93357142Y-137276857D01*
X92442857Y-137676857D02*
X92442857Y-138476857D01*
X92728571Y-137219714D02*
X93014285Y-138076857D01*
X92271428Y-138076857D01*
X106300000Y-139780285D02*
X106128571Y-139837428D01*
X106071428Y-139894571D01*
X106014285Y-140008857D01*
X106014285Y-140180285D01*
X106071428Y-140294571D01*
X106128571Y-140351714D01*
X106242857Y-140408857D01*
X106700000Y-140408857D01*
X106700000Y-139208857D01*
X106300000Y-139208857D01*
X106185714Y-139266000D01*
X106128571Y-139323142D01*
X106071428Y-139437428D01*
X106071428Y-139551714D01*
X106128571Y-139666000D01*
X106185714Y-139723142D01*
X106300000Y-139780285D01*
X106700000Y-139780285D01*
X105500000Y-140408857D02*
X105500000Y-139608857D01*
X105500000Y-139837428D02*
X105442857Y-139723142D01*
X105385714Y-139666000D01*
X105271428Y-139608857D01*
X105157142Y-139608857D01*
X104300000Y-140351714D02*
X104414285Y-140408857D01*
X104642857Y-140408857D01*
X104757142Y-140351714D01*
X104814285Y-140237428D01*
X104814285Y-139780285D01*
X104757142Y-139666000D01*
X104642857Y-139608857D01*
X104414285Y-139608857D01*
X104300000Y-139666000D01*
X104242857Y-139780285D01*
X104242857Y-139894571D01*
X104814285Y-140008857D01*
X103214285Y-140408857D02*
X103214285Y-139780285D01*
X103271428Y-139666000D01*
X103385714Y-139608857D01*
X103614285Y-139608857D01*
X103728571Y-139666000D01*
X103214285Y-140351714D02*
X103328571Y-140408857D01*
X103614285Y-140408857D01*
X103728571Y-140351714D01*
X103785714Y-140237428D01*
X103785714Y-140123142D01*
X103728571Y-140008857D01*
X103614285Y-139951714D01*
X103328571Y-139951714D01*
X103214285Y-139894571D01*
X102642857Y-140408857D02*
X102642857Y-139208857D01*
X102528571Y-139951714D02*
X102185714Y-140408857D01*
X102185714Y-139608857D02*
X102642857Y-140066000D01*
X101442857Y-139208857D02*
X101214285Y-139208857D01*
X101100000Y-139266000D01*
X100985714Y-139380285D01*
X100928571Y-139608857D01*
X100928571Y-140008857D01*
X100985714Y-140237428D01*
X101100000Y-140351714D01*
X101214285Y-140408857D01*
X101442857Y-140408857D01*
X101557142Y-140351714D01*
X101671428Y-140237428D01*
X101728571Y-140008857D01*
X101728571Y-139608857D01*
X101671428Y-139380285D01*
X101557142Y-139266000D01*
X101442857Y-139208857D01*
X99900000Y-139608857D02*
X99900000Y-140408857D01*
X100414285Y-139608857D02*
X100414285Y-140237428D01*
X100357142Y-140351714D01*
X100242857Y-140408857D01*
X100071428Y-140408857D01*
X99957142Y-140351714D01*
X99900000Y-140294571D01*
X99500000Y-139608857D02*
X99042857Y-139608857D01*
X99328571Y-139208857D02*
X99328571Y-140237428D01*
X99271428Y-140351714D01*
X99157142Y-140408857D01*
X99042857Y-140408857D01*
X97328571Y-139780285D02*
X97157142Y-139837428D01*
X97100000Y-139894571D01*
X97042857Y-140008857D01*
X97042857Y-140180285D01*
X97100000Y-140294571D01*
X97157142Y-140351714D01*
X97271428Y-140408857D01*
X97728571Y-140408857D01*
X97728571Y-139208857D01*
X97328571Y-139208857D01*
X97214285Y-139266000D01*
X97157142Y-139323142D01*
X97100000Y-139437428D01*
X97100000Y-139551714D01*
X97157142Y-139666000D01*
X97214285Y-139723142D01*
X97328571Y-139780285D01*
X97728571Y-139780285D01*
X96357142Y-140408857D02*
X96471428Y-140351714D01*
X96528571Y-140294571D01*
X96585714Y-140180285D01*
X96585714Y-139837428D01*
X96528571Y-139723142D01*
X96471428Y-139666000D01*
X96357142Y-139608857D01*
X96185714Y-139608857D01*
X96071428Y-139666000D01*
X96014285Y-139723142D01*
X95957142Y-139837428D01*
X95957142Y-140180285D01*
X96014285Y-140294571D01*
X96071428Y-140351714D01*
X96185714Y-140408857D01*
X96357142Y-140408857D01*
X94928571Y-140408857D02*
X94928571Y-139780285D01*
X94985714Y-139666000D01*
X95100000Y-139608857D01*
X95328571Y-139608857D01*
X95442857Y-139666000D01*
X94928571Y-140351714D02*
X95042857Y-140408857D01*
X95328571Y-140408857D01*
X95442857Y-140351714D01*
X95500000Y-140237428D01*
X95500000Y-140123142D01*
X95442857Y-140008857D01*
X95328571Y-139951714D01*
X95042857Y-139951714D01*
X94928571Y-139894571D01*
X94357142Y-140408857D02*
X94357142Y-139608857D01*
X94357142Y-139837428D02*
X94300000Y-139723142D01*
X94242857Y-139666000D01*
X94128571Y-139608857D01*
X94014285Y-139608857D01*
X93100000Y-140408857D02*
X93100000Y-139208857D01*
X93100000Y-140351714D02*
X93214285Y-140408857D01*
X93442857Y-140408857D01*
X93557142Y-140351714D01*
X93614285Y-140294571D01*
X93671428Y-140180285D01*
X93671428Y-139837428D01*
X93614285Y-139723142D01*
X93557142Y-139666000D01*
X93442857Y-139608857D01*
X93214285Y-139608857D01*
X93100000Y-139666000D01*
%TO.C,JP1*%
X94283333Y-68852380D02*
X94283333Y-69566666D01*
X94330952Y-69709523D01*
X94426190Y-69804761D01*
X94569047Y-69852380D01*
X94664285Y-69852380D01*
X93807142Y-69852380D02*
X93807142Y-68852380D01*
X93426190Y-68852380D01*
X93330952Y-68900000D01*
X93283333Y-68947619D01*
X93235714Y-69042857D01*
X93235714Y-69185714D01*
X93283333Y-69280952D01*
X93330952Y-69328571D01*
X93426190Y-69376190D01*
X93807142Y-69376190D01*
X92283333Y-69852380D02*
X92854761Y-69852380D01*
X92569047Y-69852380D02*
X92569047Y-68852380D01*
X92664285Y-68995238D01*
X92759523Y-69090476D01*
X92854761Y-69138095D01*
%TO.C,J9*%
X108333333Y-74302380D02*
X108333333Y-75016666D01*
X108380952Y-75159523D01*
X108476190Y-75254761D01*
X108619047Y-75302380D01*
X108714285Y-75302380D01*
X107809523Y-75302380D02*
X107619047Y-75302380D01*
X107523809Y-75254761D01*
X107476190Y-75207142D01*
X107380952Y-75064285D01*
X107333333Y-74873809D01*
X107333333Y-74492857D01*
X107380952Y-74397619D01*
X107428571Y-74350000D01*
X107523809Y-74302380D01*
X107714285Y-74302380D01*
X107809523Y-74350000D01*
X107857142Y-74397619D01*
X107904761Y-74492857D01*
X107904761Y-74730952D01*
X107857142Y-74826190D01*
X107809523Y-74873809D01*
X107714285Y-74921428D01*
X107523809Y-74921428D01*
X107428571Y-74873809D01*
X107380952Y-74826190D01*
X107333333Y-74730952D01*
%TO.C,J7*%
X107433333Y-97402380D02*
X107433333Y-98116666D01*
X107480952Y-98259523D01*
X107576190Y-98354761D01*
X107719047Y-98402380D01*
X107814285Y-98402380D01*
X107052380Y-97402380D02*
X106385714Y-97402380D01*
X106814285Y-98402380D01*
D11*
%TO.C,X1*%
X97833714Y-87515428D02*
X96817714Y-89039428D01*
X96817714Y-87515428D02*
X97833714Y-89039428D01*
X95438857Y-89039428D02*
X96309714Y-89039428D01*
X95874285Y-89039428D02*
X95874285Y-87515428D01*
X96019428Y-87733142D01*
X96164571Y-87878285D01*
X96309714Y-87950857D01*
D12*
%TO.C,JP1*%
X93000000Y-72200000D02*
X94400000Y-72200000D01*
X92300000Y-70900000D02*
X92300000Y-71500000D01*
X94400000Y-70200000D02*
X93000000Y-70200000D01*
X95100000Y-71500000D02*
X95100000Y-70900000D01*
X92300000Y-71500000D02*
G75*
G03*
X93000000Y-72200000I700000J0D01*
G01*
X93000000Y-70200000D02*
G75*
G03*
X92300000Y-70900000I0J-700000D01*
G01*
X94400000Y-72200000D02*
G75*
G03*
X95100000Y-71500000I1J699999D01*
G01*
X95100000Y-70900000D02*
G75*
G03*
X94400000Y-70200000I-699999J1D01*
G01*
%TO.C,J9*%
X108370000Y-68595000D02*
X107735000Y-68595000D01*
X108370000Y-69230000D02*
X108370000Y-68595000D01*
%TO.C,J7*%
X103400000Y-95160000D02*
X103400000Y-96490000D01*
X103400000Y-83670000D02*
X108600000Y-83670000D01*
X103400000Y-93890000D02*
X103400000Y-83670000D01*
X103400000Y-96490000D02*
X104730000Y-96490000D01*
X108600000Y-96490000D02*
X108600000Y-83670000D01*
X106000000Y-93890000D02*
X106000000Y-96490000D01*
X106000000Y-96490000D02*
X108600000Y-96490000D01*
X103400000Y-93890000D02*
X106000000Y-93890000D01*
%TO.C,X1*%
G36*
X101119549Y-89882879D02*
G01*
X100771337Y-90656592D01*
X100290610Y-91356772D01*
X99697572Y-91964738D01*
X99012431Y-92461809D01*
X98255394Y-92829304D01*
X97446667Y-93048543D01*
X97292036Y-93065644D01*
X97008511Y-93083477D01*
X96684667Y-93094366D01*
X96293085Y-93083117D01*
X95477373Y-92941866D01*
X94698428Y-92654070D01*
X93976885Y-92235518D01*
X93333381Y-91701998D01*
X92788552Y-91069298D01*
X92363034Y-90353206D01*
X92077462Y-89569510D01*
X92044893Y-89427179D01*
X91969491Y-88867509D01*
X91969320Y-88862364D01*
X93062567Y-88862364D01*
X93092751Y-88988689D01*
X93248415Y-89029598D01*
X93288061Y-89031899D01*
X93392392Y-89072945D01*
X93497887Y-89186929D01*
X93625987Y-89401766D01*
X93798128Y-89745371D01*
X93964986Y-90063793D01*
X94402736Y-90703220D01*
X94906370Y-91202689D01*
X95464698Y-91550082D01*
X95892810Y-91709087D01*
X96532468Y-91812294D01*
X97153220Y-91760254D01*
X97738631Y-91561637D01*
X98272268Y-91225114D01*
X98737698Y-90759353D01*
X99118487Y-90173025D01*
X99398203Y-89474801D01*
X99427299Y-89379418D01*
X99492087Y-89214695D01*
X99555656Y-89177732D01*
X99647136Y-89241189D01*
X99769786Y-89337128D01*
X99902756Y-89378039D01*
X99958754Y-89297950D01*
X99937413Y-89115682D01*
X99838363Y-88850058D01*
X99661238Y-88519899D01*
X99552854Y-88353189D01*
X99391343Y-88172534D01*
X99275582Y-88154873D01*
X99202237Y-88300822D01*
X99167974Y-88610995D01*
X99148857Y-88850991D01*
X98998974Y-89488476D01*
X98722259Y-90048983D01*
X98337300Y-90517141D01*
X97862688Y-90877579D01*
X97317009Y-91114925D01*
X96718853Y-91213809D01*
X96086807Y-91158859D01*
X96004720Y-91139756D01*
X95440908Y-90912319D01*
X94949109Y-90539004D01*
X94542367Y-90032163D01*
X94233723Y-89404145D01*
X94119643Y-89048048D01*
X94038981Y-88517333D01*
X94090447Y-88031438D01*
X94103315Y-87971083D01*
X94098105Y-87796086D01*
X94005606Y-87753995D01*
X93839360Y-87843867D01*
X93612913Y-88064756D01*
X93386782Y-88331902D01*
X93159898Y-88645233D01*
X93062567Y-88862364D01*
X91969320Y-88862364D01*
X91948948Y-88247652D01*
X91983397Y-87641204D01*
X92072974Y-87121757D01*
X92201915Y-86707930D01*
X92461532Y-86160538D01*
X95036489Y-86160538D01*
X95036623Y-86202923D01*
X95052220Y-86497621D01*
X95102383Y-86676318D01*
X95199427Y-86786311D01*
X95213884Y-86796891D01*
X95361522Y-86887520D01*
X95479328Y-86880536D01*
X95649828Y-86773611D01*
X95674639Y-86755390D01*
X95776735Y-86639751D01*
X95802934Y-86545277D01*
X97204354Y-86545277D01*
X97280312Y-86826488D01*
X97304122Y-86863276D01*
X97475727Y-86972152D01*
X97690312Y-86972696D01*
X97872332Y-86860559D01*
X97905119Y-86810426D01*
X97980994Y-86570741D01*
X98013886Y-86260533D01*
X97999855Y-85951803D01*
X97934959Y-85716555D01*
X97812589Y-85568551D01*
X97633284Y-85476803D01*
X97550741Y-85474592D01*
X97427671Y-85546764D01*
X97317904Y-85750161D01*
X97289866Y-85823661D01*
X97211463Y-86173377D01*
X97208371Y-86187171D01*
X97204354Y-86545277D01*
X95802934Y-86545277D01*
X95825519Y-86463832D01*
X95838000Y-86173377D01*
X95830766Y-85944998D01*
X95773447Y-85619991D01*
X95653505Y-85435235D01*
X95464388Y-85376756D01*
X95330215Y-85394481D01*
X95161306Y-85515963D01*
X95066261Y-85766070D01*
X95036489Y-86160538D01*
X92461532Y-86160538D01*
X92562933Y-85946739D01*
X93048743Y-85272276D01*
X93640401Y-84696397D01*
X94318963Y-84230958D01*
X95065485Y-83887814D01*
X95861022Y-83678821D01*
X96686632Y-83615835D01*
X97523369Y-83710712D01*
X97549966Y-83716435D01*
X98430696Y-83989044D01*
X99217995Y-84398005D01*
X99901542Y-84933588D01*
X100471015Y-85586060D01*
X100866201Y-86260533D01*
X100916095Y-86345688D01*
X101226461Y-87202739D01*
X101287458Y-87523322D01*
X101329880Y-88032366D01*
X101331775Y-88587012D01*
X101293461Y-89120110D01*
X101262165Y-89297950D01*
X101215257Y-89564511D01*
X101119549Y-89882879D01*
G37*
%TD*%
M02*
