%TF.GenerationSoftware,KiCad,Pcbnew,6.0.11-2627ca5db0~126~ubuntu22.04.1*%
%TF.CreationDate,2023-05-04T09:26:43+02:00*%
%TF.ProjectId,OTBreakOut,4f544272-6561-46b4-9f75-742e6b696361,rev?*%
%TF.SameCoordinates,Original*%
%TF.FileFunction,Soldermask,Bot*%
%TF.FilePolarity,Negative*%
%FSLAX46Y46*%
G04 Gerber Fmt 4.6, Leading zero omitted, Abs format (unit mm)*
G04 Created by KiCad (PCBNEW 6.0.11-2627ca5db0~126~ubuntu22.04.1) date 2023-05-04 09:26:43*
%MOMM*%
%LPD*%
G01*
G04 APERTURE LIST*
G04 Aperture macros list*
%AMHorizOval*
0 Thick line with rounded ends*
0 $1 width*
0 $2 $3 position (X,Y) of the first rounded end (center of the circle)*
0 $4 $5 position (X,Y) of the second rounded end (center of the circle)*
0 Add line between two ends*
20,1,$1,$2,$3,$4,$5,0*
0 Add two circle primitives to create the rounded ends*
1,1,$1,$2,$3*
1,1,$1,$4,$5*%
%AMFreePoly0*
4,1,22,0.500000,-0.750000,0.000000,-0.750000,0.000000,-0.745033,-0.079941,-0.743568,-0.215256,-0.701293,-0.333266,-0.622738,-0.424486,-0.514219,-0.481581,-0.384460,-0.499164,-0.250000,-0.500000,-0.250000,-0.500000,0.250000,-0.499164,0.250000,-0.499963,0.256109,-0.478152,0.396186,-0.417904,0.524511,-0.324060,0.630769,-0.204165,0.706417,-0.067858,0.745374,0.000000,0.744959,0.000000,0.750000,
0.500000,0.750000,0.500000,-0.750000,0.500000,-0.750000,$1*%
%AMFreePoly1*
4,1,20,0.000000,0.744959,0.073905,0.744508,0.209726,0.703889,0.328688,0.626782,0.421226,0.519385,0.479903,0.390333,0.500000,0.250000,0.500000,-0.250000,0.499851,-0.262216,0.476331,-0.402017,0.414519,-0.529596,0.319384,-0.634700,0.198574,-0.708877,0.061801,-0.746166,0.000000,-0.745033,0.000000,-0.750000,-0.500000,-0.750000,-0.500000,0.750000,0.000000,0.750000,0.000000,0.744959,
0.000000,0.744959,$1*%
G04 Aperture macros list end*
%ADD10C,0.200000*%
%ADD11O,2.720000X3.240000*%
%ADD12R,1.800000X1.800000*%
%ADD13C,1.800000*%
%ADD14O,4.500000X2.000000*%
%ADD15O,3.000000X1.800000*%
%ADD16O,1.800000X3.000000*%
%ADD17HorizOval,1.800000X0.424264X-0.424264X-0.424264X0.424264X0*%
%ADD18HorizOval,1.800000X0.424264X0.424264X-0.424264X-0.424264X0*%
%ADD19O,2.000000X3.000000*%
%ADD20O,2.000000X4.000000*%
%ADD21C,0.660000*%
%ADD22C,1.100000*%
%ADD23O,1.000000X0.580000*%
%ADD24FreePoly0,180.000000*%
%ADD25FreePoly1,180.000000*%
%ADD26C,0.990600*%
%ADD27C,0.787400*%
%ADD28R,1.700000X1.700000*%
%ADD29O,1.700000X1.700000*%
G04 APERTURE END LIST*
D10*
G36*
X109620000Y-118410000D02*
G01*
X109120000Y-118340000D01*
X108780000Y-118160000D01*
X108500000Y-117810000D01*
X108360000Y-117460000D01*
X108280000Y-116840000D01*
X108280000Y-115010000D01*
X108350000Y-114530000D01*
X108640000Y-113950000D01*
X109120000Y-113620000D01*
X109670000Y-113540000D01*
X109620000Y-118410000D01*
G37*
X109620000Y-118410000D02*
X109120000Y-118340000D01*
X108780000Y-118160000D01*
X108500000Y-117810000D01*
X108360000Y-117460000D01*
X108280000Y-116840000D01*
X108280000Y-115010000D01*
X108350000Y-114530000D01*
X108640000Y-113950000D01*
X109120000Y-113620000D01*
X109670000Y-113540000D01*
X109620000Y-118410000D01*
G36*
X90794627Y-114247707D02*
G01*
X91064627Y-114407707D01*
X91294627Y-114577707D01*
X91544627Y-114907707D01*
X91644627Y-115227707D01*
X91664627Y-115647707D01*
X91654627Y-116447707D01*
X91644627Y-116817707D01*
X91514627Y-117207707D01*
X91314627Y-117457707D01*
X90984627Y-117677707D01*
X90584627Y-117857707D01*
X90464627Y-117867707D01*
X90424627Y-114207707D01*
X90794627Y-114247707D01*
G37*
X90794627Y-114247707D02*
X91064627Y-114407707D01*
X91294627Y-114577707D01*
X91544627Y-114907707D01*
X91644627Y-115227707D01*
X91664627Y-115647707D01*
X91654627Y-116447707D01*
X91644627Y-116817707D01*
X91514627Y-117207707D01*
X91314627Y-117457707D01*
X90984627Y-117677707D01*
X90584627Y-117857707D01*
X90464627Y-117867707D01*
X90424627Y-114207707D01*
X90794627Y-114247707D01*
D11*
%TO.C,RV1*%
X104800000Y-144000000D03*
X95200000Y-144000000D03*
D12*
X97500000Y-151500000D03*
D13*
X100000000Y-151500000D03*
X102500000Y-151500000D03*
%TD*%
D14*
%TO.C,J6*%
X100000000Y-67550000D03*
D15*
X103500000Y-75500000D03*
D16*
X100000000Y-79000000D03*
D15*
X96500000Y-75500000D03*
D17*
X102474874Y-77974874D03*
D18*
X97525126Y-77974874D03*
%TD*%
D19*
%TO.C,J4*%
X90300000Y-116000000D03*
D20*
X99700000Y-116000000D03*
D14*
X95000000Y-112700000D03*
X95000000Y-120900000D03*
%TD*%
D20*
%TO.C,J1*%
X104700000Y-158000000D03*
D19*
X95300000Y-158000000D03*
D14*
X100000000Y-154700000D03*
X100000000Y-162900000D03*
%TD*%
D19*
%TO.C,J5*%
X95300000Y-130000000D03*
D20*
X104700000Y-130000000D03*
D14*
X100000000Y-126700000D03*
X100000000Y-134900000D03*
%TD*%
D20*
%TO.C,J3*%
X109700000Y-116000000D03*
D19*
X100300000Y-116000000D03*
D14*
X105000000Y-112700000D03*
X105000000Y-120900000D03*
%TD*%
D20*
%TO.C,J2*%
X104700000Y-102000000D03*
D19*
X95300000Y-102000000D03*
D14*
X100000000Y-98700000D03*
X100000000Y-106900000D03*
%TD*%
D21*
%TO.C,J8*%
X103750000Y-59600000D03*
D22*
X97600000Y-57450000D03*
X102400000Y-57450000D03*
X97600000Y-61750000D03*
X102400000Y-61750000D03*
D23*
X96250000Y-59600000D03*
%TD*%
D24*
%TO.C,JP1*%
X94350000Y-71200000D03*
D25*
X93050000Y-71200000D03*
%TD*%
D26*
%TO.C,J9*%
X106084000Y-73040000D03*
X107100000Y-67960000D03*
X108116000Y-73040000D03*
D27*
X107735000Y-69230000D03*
X106465000Y-69230000D03*
X107735000Y-70500000D03*
X106465000Y-70500000D03*
X107735000Y-71770000D03*
X106465000Y-71770000D03*
%TD*%
D28*
%TO.C,J7*%
X104730000Y-95160000D03*
D29*
X107270000Y-95160000D03*
X104730000Y-92620000D03*
X107270000Y-92620000D03*
X104730000Y-90080000D03*
X107270000Y-90080000D03*
X104730000Y-87540000D03*
X107270000Y-87540000D03*
X104730000Y-85000000D03*
X107270000Y-85000000D03*
%TD*%
M02*
