%TF.GenerationSoftware,KiCad,Pcbnew,6.0.11-2627ca5db0~126~ubuntu22.04.1*%
%TF.CreationDate,2024-04-26T14:23:43+02:00*%
%TF.ProjectId,OTBreakOut_AntennaPanel,4f544272-6561-46b4-9f75-745f416e7465,rev?*%
%TF.SameCoordinates,Original*%
%TF.FileFunction,Legend,Top*%
%TF.FilePolarity,Positive*%
%FSLAX46Y46*%
G04 Gerber Fmt 4.6, Leading zero omitted, Abs format (unit mm)*
G04 Created by KiCad (PCBNEW 6.0.11-2627ca5db0~126~ubuntu22.04.1) date 2024-04-26 14:23:43*
%MOMM*%
%LPD*%
G01*
G04 APERTURE LIST*
%ADD10C,0.300000*%
%ADD11C,0.120000*%
G04 APERTURE END LIST*
D10*
X95392857Y-87250000D02*
X96107142Y-87250000D01*
X95250000Y-87678571D02*
X95750000Y-86178571D01*
X96250000Y-87678571D01*
X96750000Y-87678571D02*
X96750000Y-86178571D01*
X97607142Y-87678571D01*
X97607142Y-86178571D01*
X98107142Y-86178571D02*
X98964285Y-86178571D01*
X98535714Y-87678571D02*
X98535714Y-86178571D01*
X99464285Y-86892857D02*
X99964285Y-86892857D01*
X100178571Y-87678571D02*
X99464285Y-87678571D01*
X99464285Y-86178571D01*
X100178571Y-86178571D01*
X100821428Y-87678571D02*
X100821428Y-86178571D01*
X101678571Y-87678571D01*
X101678571Y-86178571D01*
X102392857Y-87678571D02*
X102392857Y-86178571D01*
X103250000Y-87678571D01*
X103250000Y-86178571D01*
X103892857Y-87250000D02*
X104607142Y-87250000D01*
X103750000Y-87678571D02*
X104250000Y-86178571D01*
X104750000Y-87678571D01*
D11*
%TO.C,REF\u002A\u002A*%
X108750000Y-82750000D02*
X107250000Y-84250000D01*
X107250000Y-66750000D02*
X108750000Y-68250000D01*
X91250000Y-82750000D02*
X91250000Y-68250000D01*
X107250000Y-84250000D02*
X92750000Y-84250000D01*
X108750000Y-68250000D02*
X108750000Y-82750000D01*
X92750000Y-66750000D02*
X107250000Y-66750000D01*
X92750000Y-66750000D02*
X91250000Y-68250000D01*
X92750000Y-84250000D02*
X91250000Y-82750000D01*
%TD*%
M02*
