%TF.GenerationSoftware,KiCad,Pcbnew,6.0.11-2627ca5db0~126~ubuntu22.04.1*%
%TF.CreationDate,2024-03-30T15:57:52+01:00*%
%TF.ProjectId,OTBreakOutPanel,4f544272-6561-46b4-9f75-7450616e656c,rev?*%
%TF.SameCoordinates,Original*%
%TF.FileFunction,Profile,NP*%
%FSLAX46Y46*%
G04 Gerber Fmt 4.6, Leading zero omitted, Abs format (unit mm)*
G04 Created by KiCad (PCBNEW 6.0.11-2627ca5db0~126~ubuntu22.04.1) date 2024-03-30 15:57:52*
%MOMM*%
%LPD*%
G01*
G04 APERTURE LIST*
%TA.AperFunction,Profile*%
%ADD10C,0.150000*%
%TD*%
%TA.AperFunction,Profile*%
%ADD11C,0.250000*%
%TD*%
%TA.AperFunction,Profile*%
%ADD12C,0.200000*%
%TD*%
G04 APERTURE END LIST*
D10*
X98400000Y-83339999D02*
X98400000Y-84450000D01*
D11*
X96100000Y-51100000D02*
X98800000Y-51100000D01*
X103500000Y-144000000D02*
G75*
G03*
X103500000Y-144000000I-3500000J0D01*
G01*
X96100000Y-47900000D02*
G75*
G03*
X96100000Y-51100000I0J-1600000D01*
G01*
D12*
X97200000Y-62350000D02*
X102800000Y-62350000D01*
D11*
X103250000Y-130000000D02*
G75*
G03*
X103250000Y-130000000I-3250000J0D01*
G01*
X98800000Y-170400000D02*
X96100000Y-170400000D01*
X98800000Y-47900000D02*
X96100000Y-47900000D01*
X98800000Y-173600000D02*
G75*
G03*
X98800000Y-170400000I0J1600000D01*
G01*
X90000000Y-175000000D02*
X110000000Y-175000000D01*
X98250000Y-116000000D02*
G75*
G03*
X98250000Y-116000000I-3250000J0D01*
G01*
X96100000Y-170400000D02*
G75*
G03*
X96100000Y-173600000I0J-1600000D01*
G01*
X110000000Y-46500000D02*
X90000000Y-46500000D01*
X98800000Y-51100000D02*
G75*
G03*
X98800000Y-47900000I0J1600000D01*
G01*
D10*
X101600000Y-83339999D02*
G75*
G03*
X98400000Y-83339999I-1600000J7839999D01*
G01*
D12*
X102800000Y-62350000D02*
G75*
G03*
X102800000Y-58650000I0J1850000D01*
G01*
X97200000Y-58650000D02*
G75*
G03*
X97200000Y-62350000I0J-1850000D01*
G01*
D11*
X103250000Y-102000000D02*
G75*
G03*
X103250000Y-102000000I-3250000J0D01*
G01*
D12*
X97200000Y-58650000D02*
X102800000Y-58650000D01*
D11*
X108250000Y-116000000D02*
G75*
G03*
X108250000Y-116000000I-3250000J0D01*
G01*
X96100000Y-173600000D02*
X98800000Y-173600000D01*
D10*
X98400000Y-84450000D02*
X101600000Y-84450000D01*
X101600000Y-84450000D02*
X101600000Y-83339999D01*
D11*
X110000000Y-175000000D02*
X110000000Y-46500000D01*
X90000000Y-46500000D02*
X90000000Y-175000000D01*
X103250000Y-158000000D02*
G75*
G03*
X103250000Y-158000000I-3250000J0D01*
G01*
M02*
