%TF.GenerationSoftware,KiCad,Pcbnew,6.0.11-2627ca5db0~126~ubuntu22.04.1*%
%TF.CreationDate,2024-03-30T15:57:52+01:00*%
%TF.ProjectId,OTBreakOutPanel,4f544272-6561-46b4-9f75-7450616e656c,rev?*%
%TF.SameCoordinates,Original*%
%TF.FileFunction,Legend,Top*%
%TF.FilePolarity,Positive*%
%FSLAX46Y46*%
G04 Gerber Fmt 4.6, Leading zero omitted, Abs format (unit mm)*
G04 Created by KiCad (PCBNEW 6.0.11-2627ca5db0~126~ubuntu22.04.1) date 2024-03-30 15:57:52*
%MOMM*%
%LPD*%
G01*
G04 APERTURE LIST*
%ADD10C,0.300000*%
G04 APERTURE END LIST*
D10*
X92428571Y-165178571D02*
X92428571Y-163678571D01*
X92428571Y-164392857D02*
X93285714Y-164392857D01*
X93285714Y-165178571D02*
X93285714Y-163678571D01*
X94000000Y-164392857D02*
X94500000Y-164392857D01*
X94714285Y-165178571D02*
X94000000Y-165178571D01*
X94000000Y-163678571D01*
X94714285Y-163678571D01*
X95285714Y-164750000D02*
X96000000Y-164750000D01*
X95142857Y-165178571D02*
X95642857Y-163678571D01*
X96142857Y-165178571D01*
X96642857Y-165178571D02*
X96642857Y-163678571D01*
X97000000Y-163678571D01*
X97214285Y-163750000D01*
X97357142Y-163892857D01*
X97428571Y-164035714D01*
X97500000Y-164321428D01*
X97500000Y-164535714D01*
X97428571Y-164821428D01*
X97357142Y-164964285D01*
X97214285Y-165107142D01*
X97000000Y-165178571D01*
X96642857Y-165178571D01*
X99285714Y-165178571D02*
X99285714Y-163678571D01*
X99857142Y-163678571D01*
X100000000Y-163750000D01*
X100071428Y-163821428D01*
X100142857Y-163964285D01*
X100142857Y-164178571D01*
X100071428Y-164321428D01*
X100000000Y-164392857D01*
X99857142Y-164464285D01*
X99285714Y-164464285D01*
X100785714Y-165178571D02*
X100785714Y-163678571D01*
X100785714Y-164392857D02*
X101642857Y-164392857D01*
X101642857Y-165178571D02*
X101642857Y-163678571D01*
X102642857Y-163678571D02*
X102928571Y-163678571D01*
X103071428Y-163750000D01*
X103214285Y-163892857D01*
X103285714Y-164178571D01*
X103285714Y-164678571D01*
X103214285Y-164964285D01*
X103071428Y-165107142D01*
X102928571Y-165178571D01*
X102642857Y-165178571D01*
X102500000Y-165107142D01*
X102357142Y-164964285D01*
X102285714Y-164678571D01*
X102285714Y-164178571D01*
X102357142Y-163892857D01*
X102500000Y-163750000D01*
X102642857Y-163678571D01*
X103928571Y-165178571D02*
X103928571Y-163678571D01*
X104785714Y-165178571D01*
X104785714Y-163678571D01*
X105500000Y-164392857D02*
X106000000Y-164392857D01*
X106214285Y-165178571D02*
X105500000Y-165178571D01*
X105500000Y-163678571D01*
X106214285Y-163678571D01*
X106785714Y-165107142D02*
X107000000Y-165178571D01*
X107357142Y-165178571D01*
X107500000Y-165107142D01*
X107571428Y-165035714D01*
X107642857Y-164892857D01*
X107642857Y-164750000D01*
X107571428Y-164607142D01*
X107500000Y-164535714D01*
X107357142Y-164464285D01*
X107071428Y-164392857D01*
X106928571Y-164321428D01*
X106857142Y-164250000D01*
X106785714Y-164107142D01*
X106785714Y-163964285D01*
X106857142Y-163821428D01*
X106928571Y-163750000D01*
X107071428Y-163678571D01*
X107428571Y-163678571D01*
X107642857Y-163750000D01*
X95785714Y-150178571D02*
X96285714Y-151678571D01*
X96785714Y-150178571D01*
X97571428Y-150178571D02*
X97857142Y-150178571D01*
X98000000Y-150250000D01*
X98142857Y-150392857D01*
X98214285Y-150678571D01*
X98214285Y-151178571D01*
X98142857Y-151464285D01*
X98000000Y-151607142D01*
X97857142Y-151678571D01*
X97571428Y-151678571D01*
X97428571Y-151607142D01*
X97285714Y-151464285D01*
X97214285Y-151178571D01*
X97214285Y-150678571D01*
X97285714Y-150392857D01*
X97428571Y-150250000D01*
X97571428Y-150178571D01*
X99571428Y-151678571D02*
X98857142Y-151678571D01*
X98857142Y-150178571D01*
X100071428Y-150178571D02*
X100071428Y-151392857D01*
X100142857Y-151535714D01*
X100214285Y-151607142D01*
X100357142Y-151678571D01*
X100642857Y-151678571D01*
X100785714Y-151607142D01*
X100857142Y-151535714D01*
X100928571Y-151392857D01*
X100928571Y-150178571D01*
X101642857Y-151678571D02*
X101642857Y-150178571D01*
X102142857Y-151250000D01*
X102642857Y-150178571D01*
X102642857Y-151678571D01*
X103357142Y-150892857D02*
X103857142Y-150892857D01*
X104071428Y-151678571D02*
X103357142Y-151678571D01*
X103357142Y-150178571D01*
X104071428Y-150178571D01*
X97250000Y-108750000D02*
X97964285Y-108750000D01*
X97107142Y-109178571D02*
X97607142Y-107678571D01*
X98107142Y-109178571D01*
X99250000Y-108178571D02*
X99250000Y-109178571D01*
X98607142Y-108178571D02*
X98607142Y-108964285D01*
X98678571Y-109107142D01*
X98821428Y-109178571D01*
X99035714Y-109178571D01*
X99178571Y-109107142D01*
X99250000Y-109035714D01*
X100607142Y-109178571D02*
X100607142Y-107678571D01*
X100607142Y-109107142D02*
X100464285Y-109178571D01*
X100178571Y-109178571D01*
X100035714Y-109107142D01*
X99964285Y-109035714D01*
X99892857Y-108892857D01*
X99892857Y-108464285D01*
X99964285Y-108321428D01*
X100035714Y-108250000D01*
X100178571Y-108178571D01*
X100464285Y-108178571D01*
X100607142Y-108250000D01*
X101321428Y-109178571D02*
X101321428Y-108178571D01*
X101321428Y-107678571D02*
X101250000Y-107750000D01*
X101321428Y-107821428D01*
X101392857Y-107750000D01*
X101321428Y-107678571D01*
X101321428Y-107821428D01*
X102250000Y-109178571D02*
X102107142Y-109107142D01*
X102035714Y-109035714D01*
X101964285Y-108892857D01*
X101964285Y-108464285D01*
X102035714Y-108321428D01*
X102107142Y-108250000D01*
X102250000Y-108178571D01*
X102464285Y-108178571D01*
X102607142Y-108250000D01*
X102678571Y-108321428D01*
X102750000Y-108464285D01*
X102750000Y-108892857D01*
X102678571Y-109035714D01*
X102607142Y-109107142D01*
X102464285Y-109178571D01*
X102250000Y-109178571D01*
X92178571Y-121678571D02*
X92678571Y-123178571D01*
X93178571Y-121678571D01*
X93678571Y-122607142D02*
X94821428Y-122607142D01*
X96392857Y-123035714D02*
X96321428Y-123107142D01*
X96107142Y-123178571D01*
X95964285Y-123178571D01*
X95750000Y-123107142D01*
X95607142Y-122964285D01*
X95535714Y-122821428D01*
X95464285Y-122535714D01*
X95464285Y-122321428D01*
X95535714Y-122035714D01*
X95607142Y-121892857D01*
X95750000Y-121750000D01*
X95964285Y-121678571D01*
X96107142Y-121678571D01*
X96321428Y-121750000D01*
X96392857Y-121821428D01*
X96821428Y-121678571D02*
X97321428Y-123178571D01*
X97821428Y-121678571D01*
X98500000Y-135750000D02*
X98357142Y-135678571D01*
X98142857Y-135678571D01*
X97928571Y-135750000D01*
X97785714Y-135892857D01*
X97714285Y-136035714D01*
X97642857Y-136321428D01*
X97642857Y-136535714D01*
X97714285Y-136821428D01*
X97785714Y-136964285D01*
X97928571Y-137107142D01*
X98142857Y-137178571D01*
X98285714Y-137178571D01*
X98500000Y-137107142D01*
X98571428Y-137035714D01*
X98571428Y-136535714D01*
X98285714Y-136535714D01*
X99142857Y-136750000D02*
X99857142Y-136750000D01*
X99000000Y-137178571D02*
X99500000Y-135678571D01*
X100000000Y-137178571D01*
X100285714Y-135678571D02*
X101142857Y-135678571D01*
X100714285Y-137178571D02*
X100714285Y-135678571D01*
X101642857Y-136392857D02*
X102142857Y-136392857D01*
X102357142Y-137178571D02*
X101642857Y-137178571D01*
X101642857Y-135678571D01*
X102357142Y-135678571D01*
X98035714Y-87678571D02*
X98035714Y-86178571D01*
X98535714Y-87250000D01*
X99035714Y-86178571D01*
X99035714Y-87678571D01*
X99750000Y-87678571D02*
X99750000Y-86178571D01*
X100464285Y-87678571D02*
X100464285Y-86178571D01*
X100821428Y-86178571D01*
X101035714Y-86250000D01*
X101178571Y-86392857D01*
X101250000Y-86535714D01*
X101321428Y-86821428D01*
X101321428Y-87035714D01*
X101250000Y-87321428D01*
X101178571Y-87464285D01*
X101035714Y-87607142D01*
X100821428Y-87678571D01*
X100464285Y-87678571D01*
X101964285Y-87678571D02*
X101964285Y-86178571D01*
X102285714Y-123178571D02*
X102285714Y-121678571D01*
X102857142Y-121678571D01*
X103000000Y-121750000D01*
X103071428Y-121821428D01*
X103142857Y-121964285D01*
X103142857Y-122178571D01*
X103071428Y-122321428D01*
X103000000Y-122392857D01*
X102857142Y-122464285D01*
X102285714Y-122464285D01*
X103785714Y-122607142D02*
X104928571Y-122607142D01*
X106500000Y-123035714D02*
X106428571Y-123107142D01*
X106214285Y-123178571D01*
X106071428Y-123178571D01*
X105857142Y-123107142D01*
X105714285Y-122964285D01*
X105642857Y-122821428D01*
X105571428Y-122535714D01*
X105571428Y-122321428D01*
X105642857Y-122035714D01*
X105714285Y-121892857D01*
X105857142Y-121750000D01*
X106071428Y-121678571D01*
X106214285Y-121678571D01*
X106428571Y-121750000D01*
X106500000Y-121821428D01*
X106928571Y-121678571D02*
X107428571Y-123178571D01*
X107928571Y-121678571D01*
X98107142Y-63678571D02*
X98107142Y-64892857D01*
X98178571Y-65035714D01*
X98250000Y-65107142D01*
X98392857Y-65178571D01*
X98678571Y-65178571D01*
X98821428Y-65107142D01*
X98892857Y-65035714D01*
X98964285Y-64892857D01*
X98964285Y-63678571D01*
X99607142Y-65107142D02*
X99821428Y-65178571D01*
X100178571Y-65178571D01*
X100321428Y-65107142D01*
X100392857Y-65035714D01*
X100464285Y-64892857D01*
X100464285Y-64750000D01*
X100392857Y-64607142D01*
X100321428Y-64535714D01*
X100178571Y-64464285D01*
X99892857Y-64392857D01*
X99750000Y-64321428D01*
X99678571Y-64250000D01*
X99607142Y-64107142D01*
X99607142Y-63964285D01*
X99678571Y-63821428D01*
X99750000Y-63750000D01*
X99892857Y-63678571D01*
X100250000Y-63678571D01*
X100464285Y-63750000D01*
X101607142Y-64392857D02*
X101821428Y-64464285D01*
X101892857Y-64535714D01*
X101964285Y-64678571D01*
X101964285Y-64892857D01*
X101892857Y-65035714D01*
X101821428Y-65107142D01*
X101678571Y-65178571D01*
X101107142Y-65178571D01*
X101107142Y-63678571D01*
X101607142Y-63678571D01*
X101750000Y-63750000D01*
X101821428Y-63821428D01*
X101892857Y-63964285D01*
X101892857Y-64107142D01*
X101821428Y-64250000D01*
X101750000Y-64321428D01*
X101607142Y-64392857D01*
X101107142Y-64392857D01*
M02*
