%TF.GenerationSoftware,KiCad,Pcbnew,6.0.11-2627ca5db0~126~ubuntu22.04.1*%
%TF.CreationDate,2024-03-30T15:57:52+01:00*%
%TF.ProjectId,OTBreakOutPanel,4f544272-6561-46b4-9f75-7450616e656c,rev?*%
%TF.SameCoordinates,Original*%
%TF.FileFunction,Soldermask,Bot*%
%TF.FilePolarity,Negative*%
%FSLAX46Y46*%
G04 Gerber Fmt 4.6, Leading zero omitted, Abs format (unit mm)*
G04 Created by KiCad (PCBNEW 6.0.11-2627ca5db0~126~ubuntu22.04.1) date 2024-03-30 15:57:52*
%MOMM*%
%LPD*%
G01*
G04 APERTURE LIST*
%ADD10C,0.000000*%
G04 APERTURE END LIST*
D10*
G36*
X101400000Y-56510000D02*
G01*
X101400000Y-58510000D01*
X103080000Y-58520000D01*
X103350000Y-58570000D01*
X103780000Y-58760000D01*
X104000000Y-58900000D01*
X104230000Y-59110000D01*
X104400000Y-59300000D01*
X104560000Y-59550000D01*
X104720000Y-59930000D01*
X104780000Y-60170000D01*
X104800000Y-60510000D01*
X104790000Y-60740000D01*
X104680000Y-61190000D01*
X104510000Y-61530000D01*
X104300000Y-61820000D01*
X104020000Y-62080000D01*
X103750000Y-62260000D01*
X103450000Y-62390000D01*
X103220000Y-62450000D01*
X103020000Y-62490000D01*
X102800000Y-62500000D01*
X97200000Y-62500000D01*
X96810000Y-62460000D01*
X96490000Y-62370000D01*
X96130000Y-62180000D01*
X95810000Y-61940000D01*
X95660000Y-61780000D01*
X95430000Y-61430000D01*
X95280000Y-61060000D01*
X95210000Y-60660000D01*
X95200000Y-60370000D01*
X95260000Y-60000000D01*
X95400000Y-59630000D01*
X95580000Y-59330000D01*
X95800000Y-59070000D01*
X96060000Y-58860000D01*
X96450000Y-58640000D01*
X96930000Y-58520000D01*
X98600000Y-58520000D01*
X98610000Y-56500000D01*
X101400000Y-56510000D01*
G37*
M02*
