%TF.GenerationSoftware,KiCad,Pcbnew,6.0.11-2627ca5db0~126~ubuntu22.04.1*%
%TF.CreationDate,2024-03-30T15:57:52+01:00*%
%TF.ProjectId,OTBreakOutPanel,4f544272-6561-46b4-9f75-7450616e656c,rev?*%
%TF.SameCoordinates,Original*%
%TF.FileFunction,Copper,L2,Bot*%
%TF.FilePolarity,Positive*%
%FSLAX46Y46*%
G04 Gerber Fmt 4.6, Leading zero omitted, Abs format (unit mm)*
G04 Created by KiCad (PCBNEW 6.0.11-2627ca5db0~126~ubuntu22.04.1) date 2024-03-30 15:57:52*
%MOMM*%
%LPD*%
G01*
G04 APERTURE LIST*
G04 APERTURE END LIST*
%TA.AperFunction,NonConductor*%
G36*
X101285296Y-56519555D02*
G01*
X101353345Y-56539800D01*
X101399646Y-56593621D01*
X101410843Y-56644701D01*
X101420000Y-58000000D01*
X103035430Y-58000000D01*
X103064183Y-58003324D01*
X103674114Y-58146277D01*
X103704416Y-58157649D01*
X104169243Y-58404292D01*
X104189462Y-58417660D01*
X104588812Y-58740943D01*
X104608859Y-58761350D01*
X104913118Y-59151183D01*
X104925222Y-59169895D01*
X105104962Y-59510454D01*
X105113339Y-59530256D01*
X105246620Y-59939618D01*
X105251544Y-59960805D01*
X105291485Y-60240390D01*
X105298555Y-60289882D01*
X105299796Y-60310215D01*
X105290600Y-60770000D01*
X105290273Y-60786370D01*
X105286819Y-60813256D01*
X105173040Y-61287334D01*
X105164433Y-61311777D01*
X105048057Y-61557957D01*
X104915056Y-61839304D01*
X104903044Y-61859563D01*
X104678388Y-62168466D01*
X104659241Y-62189371D01*
X104365497Y-62445212D01*
X104354000Y-62454114D01*
X104019950Y-62683177D01*
X103998932Y-62694812D01*
X103562008Y-62884779D01*
X103537177Y-62892640D01*
X103217179Y-62958522D01*
X103202686Y-62960636D01*
X102755563Y-62999516D01*
X102744427Y-62999990D01*
X98741876Y-62992981D01*
X97047363Y-62990013D01*
X97032693Y-62989130D01*
X96633184Y-62941570D01*
X96607426Y-62935714D01*
X96194727Y-62795021D01*
X96166940Y-62781550D01*
X95678243Y-62465333D01*
X95662676Y-62453447D01*
X95658824Y-62450000D01*
X95550414Y-62353002D01*
X95301035Y-62129873D01*
X95281558Y-62107843D01*
X95047285Y-61770491D01*
X95034966Y-61748255D01*
X94896429Y-61425000D01*
X94804944Y-61211536D01*
X94797429Y-61187718D01*
X94712406Y-60781493D01*
X94709760Y-60758255D01*
X94704490Y-60500000D01*
X95344272Y-60500000D01*
X95363161Y-60764098D01*
X95419442Y-61022819D01*
X95511970Y-61270897D01*
X95638862Y-61503282D01*
X95641563Y-61506890D01*
X95794836Y-61711640D01*
X95794842Y-61711647D01*
X95797534Y-61715243D01*
X95984757Y-61902466D01*
X95988353Y-61905158D01*
X95988360Y-61905164D01*
X96173988Y-62044123D01*
X96196718Y-62061138D01*
X96429103Y-62188030D01*
X96433315Y-62189601D01*
X96672963Y-62278985D01*
X96672966Y-62278986D01*
X96677181Y-62280558D01*
X96681571Y-62281513D01*
X96681578Y-62281515D01*
X96873797Y-62323329D01*
X96935902Y-62336839D01*
X97200000Y-62355728D01*
X97200000Y-62352211D01*
X97211270Y-62351000D01*
X102784562Y-62351000D01*
X102800000Y-62352382D01*
X102800000Y-62355728D01*
X102815785Y-62354599D01*
X102895215Y-62348918D01*
X103064098Y-62336839D01*
X103126203Y-62323329D01*
X103318422Y-62281515D01*
X103318429Y-62281513D01*
X103322819Y-62280558D01*
X103327034Y-62278986D01*
X103327037Y-62278985D01*
X103566685Y-62189601D01*
X103570897Y-62188030D01*
X103803282Y-62061138D01*
X103826012Y-62044123D01*
X104011640Y-61905164D01*
X104011647Y-61905158D01*
X104015243Y-61902466D01*
X104202466Y-61715243D01*
X104205158Y-61711647D01*
X104205164Y-61711640D01*
X104358437Y-61506890D01*
X104361138Y-61503282D01*
X104488030Y-61270897D01*
X104580558Y-61022819D01*
X104636839Y-60764098D01*
X104655728Y-60500000D01*
X104636839Y-60235902D01*
X104580558Y-59977181D01*
X104488030Y-59729103D01*
X104361138Y-59496718D01*
X104344123Y-59473988D01*
X104205164Y-59288360D01*
X104205158Y-59288353D01*
X104202466Y-59284757D01*
X104015243Y-59097534D01*
X104011647Y-59094842D01*
X104011640Y-59094836D01*
X103806890Y-58941563D01*
X103803282Y-58938862D01*
X103570897Y-58811970D01*
X103340126Y-58725897D01*
X103327037Y-58721015D01*
X103327034Y-58721014D01*
X103322819Y-58719442D01*
X103318429Y-58718487D01*
X103318422Y-58718485D01*
X103094709Y-58669820D01*
X103064098Y-58663161D01*
X102800000Y-58644272D01*
X102800000Y-58647789D01*
X102788730Y-58649000D01*
X97215438Y-58649000D01*
X97200000Y-58647618D01*
X97200000Y-58644272D01*
X96935902Y-58663161D01*
X96905291Y-58669820D01*
X96681578Y-58718485D01*
X96681571Y-58718487D01*
X96677181Y-58719442D01*
X96672966Y-58721014D01*
X96672963Y-58721015D01*
X96659874Y-58725897D01*
X96429103Y-58811970D01*
X96196718Y-58938862D01*
X96193110Y-58941563D01*
X95988360Y-59094836D01*
X95988353Y-59094842D01*
X95984757Y-59097534D01*
X95797534Y-59284757D01*
X95794842Y-59288353D01*
X95794836Y-59288360D01*
X95655877Y-59473988D01*
X95638862Y-59496718D01*
X95511970Y-59729103D01*
X95419442Y-59977181D01*
X95363161Y-60235902D01*
X95344272Y-60500000D01*
X94704490Y-60500000D01*
X94700316Y-60295487D01*
X94703444Y-60264899D01*
X94709034Y-60240390D01*
X94827357Y-59721590D01*
X94834766Y-59699106D01*
X94889063Y-59575000D01*
X95033646Y-59244524D01*
X95049754Y-59217503D01*
X95241789Y-58971458D01*
X95353551Y-58828263D01*
X95367725Y-58812918D01*
X95712554Y-58496826D01*
X95728436Y-58484450D01*
X96085904Y-58249274D01*
X96116045Y-58234761D01*
X96581347Y-58082826D01*
X96598970Y-58078448D01*
X97099757Y-57991773D01*
X97120394Y-57989930D01*
X97645401Y-57986382D01*
X98590000Y-57980000D01*
X98608303Y-56634731D01*
X98629230Y-56566889D01*
X98683513Y-56521130D01*
X98734741Y-56510446D01*
X101285296Y-56519555D01*
G37*
%TD.AperFunction*%
M02*
