%TF.GenerationSoftware,KiCad,Pcbnew,6.0.11-2627ca5db0~126~ubuntu22.04.1*%
%TF.CreationDate,2024-03-30T15:57:52+01:00*%
%TF.ProjectId,OTBreakOutPanel,4f544272-6561-46b4-9f75-7450616e656c,rev?*%
%TF.SameCoordinates,Original*%
%TF.FileFunction,Copper,L1,Top*%
%TF.FilePolarity,Positive*%
%FSLAX46Y46*%
G04 Gerber Fmt 4.6, Leading zero omitted, Abs format (unit mm)*
G04 Created by KiCad (PCBNEW 6.0.11-2627ca5db0~126~ubuntu22.04.1) date 2024-03-30 15:57:52*
%MOMM*%
%LPD*%
G01*
G04 APERTURE LIST*
G04 APERTURE END LIST*
%TA.AperFunction,NonConductor*%
G36*
X105500000Y-63600000D02*
G01*
X94500000Y-63500000D01*
X94500000Y-60500000D01*
X95344272Y-60500000D01*
X95363161Y-60764098D01*
X95419442Y-61022819D01*
X95511970Y-61270897D01*
X95638862Y-61503282D01*
X95641563Y-61506890D01*
X95794836Y-61711640D01*
X95794842Y-61711647D01*
X95797534Y-61715243D01*
X95984757Y-61902466D01*
X95988353Y-61905158D01*
X95988360Y-61905164D01*
X96173988Y-62044123D01*
X96196718Y-62061138D01*
X96429103Y-62188030D01*
X96433315Y-62189601D01*
X96672963Y-62278985D01*
X96672966Y-62278986D01*
X96677181Y-62280558D01*
X96681571Y-62281513D01*
X96681578Y-62281515D01*
X96873797Y-62323329D01*
X96935902Y-62336839D01*
X97200000Y-62355728D01*
X97200000Y-62352211D01*
X97211270Y-62351000D01*
X102784562Y-62351000D01*
X102800000Y-62352382D01*
X102800000Y-62355728D01*
X102815785Y-62354599D01*
X102895215Y-62348918D01*
X103064098Y-62336839D01*
X103126203Y-62323329D01*
X103318422Y-62281515D01*
X103318429Y-62281513D01*
X103322819Y-62280558D01*
X103327034Y-62278986D01*
X103327037Y-62278985D01*
X103566685Y-62189601D01*
X103570897Y-62188030D01*
X103803282Y-62061138D01*
X103826012Y-62044123D01*
X104011640Y-61905164D01*
X104011647Y-61905158D01*
X104015243Y-61902466D01*
X104202466Y-61715243D01*
X104205158Y-61711647D01*
X104205164Y-61711640D01*
X104358437Y-61506890D01*
X104361138Y-61503282D01*
X104488030Y-61270897D01*
X104580558Y-61022819D01*
X104636839Y-60764098D01*
X104655728Y-60500000D01*
X104636839Y-60235902D01*
X104580558Y-59977181D01*
X104488030Y-59729103D01*
X104361138Y-59496718D01*
X104344123Y-59473988D01*
X104205164Y-59288360D01*
X104205158Y-59288353D01*
X104202466Y-59284757D01*
X104015243Y-59097534D01*
X104011647Y-59094842D01*
X104011640Y-59094836D01*
X103806890Y-58941563D01*
X103803282Y-58938862D01*
X103570897Y-58811970D01*
X103340126Y-58725897D01*
X103327037Y-58721015D01*
X103327034Y-58721014D01*
X103322819Y-58719442D01*
X103318429Y-58718487D01*
X103318422Y-58718485D01*
X103094709Y-58669820D01*
X103064098Y-58663161D01*
X102800000Y-58644272D01*
X102800000Y-58647789D01*
X102788730Y-58649000D01*
X97215438Y-58649000D01*
X97200000Y-58647618D01*
X97200000Y-58644272D01*
X96935902Y-58663161D01*
X96905291Y-58669820D01*
X96681578Y-58718485D01*
X96681571Y-58718487D01*
X96677181Y-58719442D01*
X96672966Y-58721014D01*
X96672963Y-58721015D01*
X96659874Y-58725897D01*
X96429103Y-58811970D01*
X96196718Y-58938862D01*
X96193110Y-58941563D01*
X95988360Y-59094836D01*
X95988353Y-59094842D01*
X95984757Y-59097534D01*
X95797534Y-59284757D01*
X95794842Y-59288353D01*
X95794836Y-59288360D01*
X95655877Y-59473988D01*
X95638862Y-59496718D01*
X95511970Y-59729103D01*
X95419442Y-59977181D01*
X95363161Y-60235902D01*
X95344272Y-60500000D01*
X94500000Y-60500000D01*
X94500000Y-57500000D01*
X105500000Y-57500000D01*
X105500000Y-63600000D01*
G37*
%TD.AperFunction*%
%TA.AperFunction,NonConductor*%
G36*
X109433621Y-47028502D02*
G01*
X109480114Y-47082158D01*
X109491500Y-47134500D01*
X109491500Y-174365500D01*
X109471498Y-174433621D01*
X109417842Y-174480114D01*
X109365500Y-174491500D01*
X90634500Y-174491500D01*
X90566379Y-174471498D01*
X90519886Y-174417842D01*
X90508500Y-174365500D01*
X90508500Y-172000000D01*
X93986976Y-172000000D01*
X94005053Y-172275805D01*
X94005855Y-172279838D01*
X94005856Y-172279844D01*
X94046968Y-172486523D01*
X94058976Y-172546891D01*
X94147820Y-172808619D01*
X94149643Y-172812315D01*
X94149646Y-172812323D01*
X94206698Y-172928012D01*
X94270068Y-173056512D01*
X94423625Y-173286328D01*
X94605866Y-173494134D01*
X94813672Y-173676375D01*
X95043488Y-173829932D01*
X95047189Y-173831757D01*
X95287677Y-173950354D01*
X95287685Y-173950357D01*
X95291381Y-173952180D01*
X95295295Y-173953509D01*
X95295296Y-173953509D01*
X95549196Y-174039696D01*
X95549200Y-174039697D01*
X95553109Y-174041024D01*
X95557153Y-174041828D01*
X95557159Y-174041830D01*
X95820156Y-174094144D01*
X95820162Y-174094145D01*
X95824195Y-174094947D01*
X95828300Y-174095216D01*
X95828307Y-174095217D01*
X95965896Y-174104234D01*
X96067697Y-174110907D01*
X96080352Y-174112382D01*
X96081904Y-174112643D01*
X96082656Y-174112770D01*
X96082658Y-174112770D01*
X96087448Y-174113576D01*
X96093724Y-174113653D01*
X96095140Y-174113670D01*
X96095143Y-174113670D01*
X96100000Y-174113729D01*
X96127624Y-174109773D01*
X96145486Y-174108500D01*
X98746750Y-174108500D01*
X98767655Y-174110246D01*
X98782656Y-174112770D01*
X98782659Y-174112770D01*
X98787448Y-174113576D01*
X98793687Y-174113652D01*
X98795140Y-174113670D01*
X98795143Y-174113670D01*
X98800000Y-174113729D01*
X98804819Y-174113039D01*
X98805338Y-174113005D01*
X98813905Y-174112113D01*
X99071693Y-174095217D01*
X99071700Y-174095216D01*
X99075805Y-174094947D01*
X99079838Y-174094145D01*
X99079844Y-174094144D01*
X99342841Y-174041830D01*
X99342847Y-174041828D01*
X99346891Y-174041024D01*
X99350800Y-174039697D01*
X99350804Y-174039696D01*
X99604704Y-173953509D01*
X99604705Y-173953509D01*
X99608619Y-173952180D01*
X99612315Y-173950357D01*
X99612323Y-173950354D01*
X99852811Y-173831757D01*
X99856512Y-173829932D01*
X100086328Y-173676375D01*
X100294134Y-173494134D01*
X100476375Y-173286328D01*
X100629932Y-173056512D01*
X100693302Y-172928012D01*
X100750354Y-172812323D01*
X100750357Y-172812315D01*
X100752180Y-172808619D01*
X100841024Y-172546891D01*
X100853032Y-172486523D01*
X100894144Y-172279844D01*
X100894145Y-172279838D01*
X100894947Y-172275805D01*
X100913024Y-172000000D01*
X100894947Y-171724195D01*
X100890393Y-171701297D01*
X100841830Y-171457159D01*
X100841828Y-171457153D01*
X100841024Y-171453109D01*
X100752180Y-171191381D01*
X100750357Y-171187685D01*
X100750354Y-171187677D01*
X100631757Y-170947189D01*
X100629932Y-170943488D01*
X100476375Y-170713672D01*
X100294134Y-170505866D01*
X100086328Y-170323625D01*
X99856512Y-170170068D01*
X99808143Y-170146215D01*
X99612323Y-170049646D01*
X99612315Y-170049643D01*
X99608619Y-170047820D01*
X99604704Y-170046491D01*
X99350804Y-169960304D01*
X99350800Y-169960303D01*
X99346891Y-169958976D01*
X99342847Y-169958172D01*
X99342841Y-169958170D01*
X99079844Y-169905856D01*
X99079838Y-169905855D01*
X99075805Y-169905053D01*
X99071700Y-169904784D01*
X99071693Y-169904783D01*
X98934104Y-169895766D01*
X98832303Y-169889093D01*
X98819648Y-169887618D01*
X98818096Y-169887357D01*
X98817344Y-169887230D01*
X98817342Y-169887230D01*
X98812552Y-169886424D01*
X98806276Y-169886347D01*
X98804860Y-169886330D01*
X98804857Y-169886330D01*
X98800000Y-169886271D01*
X98780288Y-169889094D01*
X98772376Y-169890227D01*
X98754514Y-169891500D01*
X96153250Y-169891500D01*
X96132345Y-169889754D01*
X96117344Y-169887230D01*
X96117341Y-169887230D01*
X96112552Y-169886424D01*
X96106313Y-169886348D01*
X96104860Y-169886330D01*
X96104857Y-169886330D01*
X96100000Y-169886271D01*
X96095181Y-169886961D01*
X96094662Y-169886995D01*
X96086095Y-169887887D01*
X95828307Y-169904783D01*
X95828300Y-169904784D01*
X95824195Y-169905053D01*
X95820162Y-169905855D01*
X95820156Y-169905856D01*
X95557159Y-169958170D01*
X95557153Y-169958172D01*
X95553109Y-169958976D01*
X95549200Y-169960303D01*
X95549196Y-169960304D01*
X95295296Y-170046491D01*
X95291381Y-170047820D01*
X95287685Y-170049643D01*
X95287677Y-170049646D01*
X95091857Y-170146215D01*
X95043488Y-170170068D01*
X94813672Y-170323625D01*
X94605866Y-170505866D01*
X94423625Y-170713672D01*
X94270068Y-170943488D01*
X94268243Y-170947189D01*
X94149646Y-171187677D01*
X94149643Y-171187685D01*
X94147820Y-171191381D01*
X94058976Y-171453109D01*
X94058172Y-171457153D01*
X94058170Y-171457159D01*
X94009608Y-171701297D01*
X94005053Y-171724195D01*
X93986976Y-172000000D01*
X90508500Y-172000000D01*
X90508500Y-157986864D01*
X96236693Y-157986864D01*
X96236843Y-157990045D01*
X96251500Y-158300837D01*
X96254631Y-158367237D01*
X96310916Y-158743850D01*
X96311702Y-158746932D01*
X96311702Y-158746934D01*
X96381955Y-159022546D01*
X96404972Y-159112847D01*
X96535836Y-159470450D01*
X96702169Y-159812998D01*
X96902266Y-160136983D01*
X97134080Y-160439089D01*
X97395237Y-160716222D01*
X97683063Y-160965545D01*
X97685673Y-160967380D01*
X97685679Y-160967384D01*
X97719932Y-160991457D01*
X97994611Y-161184504D01*
X98326691Y-161370859D01*
X98329605Y-161372126D01*
X98329609Y-161372128D01*
X98472884Y-161434426D01*
X98675904Y-161522701D01*
X98718744Y-161536373D01*
X99035629Y-161637504D01*
X99035637Y-161637506D01*
X99038673Y-161638475D01*
X99241044Y-161681121D01*
X99408166Y-161716340D01*
X99408171Y-161716341D01*
X99411285Y-161716997D01*
X99789925Y-161757462D01*
X99793112Y-161757479D01*
X99793118Y-161757479D01*
X99965791Y-161758383D01*
X100170716Y-161759456D01*
X100314092Y-161745650D01*
X100546594Y-161723263D01*
X100546599Y-161723262D01*
X100549759Y-161722958D01*
X100552879Y-161722335D01*
X100552883Y-161722334D01*
X100920045Y-161648968D01*
X100920044Y-161648968D01*
X100923173Y-161648343D01*
X100926209Y-161647409D01*
X100926217Y-161647407D01*
X101284090Y-161537310D01*
X101284094Y-161537309D01*
X101287135Y-161536373D01*
X101290070Y-161535133D01*
X101290076Y-161535131D01*
X101445860Y-161469325D01*
X101637918Y-161388197D01*
X101971932Y-161205330D01*
X102285756Y-160989644D01*
X102288195Y-160987576D01*
X102288201Y-160987571D01*
X102573736Y-160745420D01*
X102576177Y-160743350D01*
X102578383Y-160741058D01*
X102578389Y-160741052D01*
X102838014Y-160471260D01*
X102840221Y-160468967D01*
X103075186Y-160169305D01*
X103278665Y-159847433D01*
X103280085Y-159844585D01*
X103280090Y-159844576D01*
X103447155Y-159509494D01*
X103448575Y-159506646D01*
X103583177Y-159150432D01*
X103681092Y-158782440D01*
X103686780Y-158746934D01*
X103740813Y-158409588D01*
X103741318Y-158406437D01*
X103743763Y-158364045D01*
X103763140Y-158027968D01*
X103763238Y-158026273D01*
X103763330Y-158000000D01*
X103746645Y-157670645D01*
X103744225Y-157622865D01*
X103744224Y-157622860D01*
X103744064Y-157619692D01*
X103686465Y-157243277D01*
X103631553Y-157030949D01*
X103591918Y-156877691D01*
X103591915Y-156877683D01*
X103591121Y-156874611D01*
X103586487Y-156862082D01*
X103528196Y-156704502D01*
X103459010Y-156517467D01*
X103424585Y-156447197D01*
X103292889Y-156178370D01*
X103292885Y-156178362D01*
X103291483Y-156175501D01*
X103090255Y-155852217D01*
X102857388Y-155550922D01*
X102743056Y-155430441D01*
X102597465Y-155277019D01*
X102597462Y-155277016D01*
X102595266Y-155274702D01*
X102306572Y-155026386D01*
X101994261Y-154808515D01*
X101661532Y-154623321D01*
X101658612Y-154622063D01*
X101658607Y-154622061D01*
X101314726Y-154473962D01*
X101314716Y-154473958D01*
X101311792Y-154472699D01*
X100948620Y-154358191D01*
X100683149Y-154303214D01*
X100578861Y-154281617D01*
X100578858Y-154281617D01*
X100575736Y-154280970D01*
X100297836Y-154252253D01*
X100200113Y-154242154D01*
X100200110Y-154242154D01*
X100196957Y-154241828D01*
X100193790Y-154241822D01*
X100193781Y-154241822D01*
X100006199Y-154241495D01*
X99816162Y-154241163D01*
X99437249Y-154278983D01*
X99434114Y-154279621D01*
X99434113Y-154279621D01*
X99067219Y-154354267D01*
X99064098Y-154354902D01*
X98700529Y-154468141D01*
X98350265Y-154617541D01*
X98347477Y-154619080D01*
X98347475Y-154619081D01*
X98248181Y-154673894D01*
X98016891Y-154801573D01*
X98014270Y-154803388D01*
X98014265Y-154803391D01*
X97706446Y-155016536D01*
X97703822Y-155018353D01*
X97414263Y-155265660D01*
X97151178Y-155540963D01*
X97149221Y-155543476D01*
X97149220Y-155543478D01*
X96989367Y-155748819D01*
X96917261Y-155841443D01*
X96714906Y-156164023D01*
X96546186Y-156505401D01*
X96545072Y-156508382D01*
X96545071Y-156508383D01*
X96541675Y-156517467D01*
X96412829Y-156862082D01*
X96316199Y-157230414D01*
X96315706Y-157233563D01*
X96315704Y-157233572D01*
X96302449Y-157318217D01*
X96257286Y-157606625D01*
X96257115Y-157609791D01*
X96257114Y-157609796D01*
X96256578Y-157619692D01*
X96237536Y-157971292D01*
X96236693Y-157986864D01*
X90508500Y-157986864D01*
X90508500Y-143943965D01*
X95987057Y-143943965D01*
X96000741Y-144335827D01*
X96052599Y-144724484D01*
X96142136Y-145106225D01*
X96268496Y-145477407D01*
X96430475Y-145834487D01*
X96626525Y-146174056D01*
X96628314Y-146176554D01*
X96628316Y-146176558D01*
X96728047Y-146315860D01*
X96854776Y-146492874D01*
X97113049Y-146787896D01*
X97398878Y-147056308D01*
X97709536Y-147295546D01*
X97712139Y-147297173D01*
X97712144Y-147297176D01*
X97831576Y-147371805D01*
X98042056Y-147503328D01*
X98393266Y-147677670D01*
X98759812Y-147816907D01*
X99138195Y-147919712D01*
X99436419Y-147970153D01*
X99521783Y-147984591D01*
X99521786Y-147984591D01*
X99524805Y-147985102D01*
X99679444Y-147995916D01*
X99912885Y-148012240D01*
X99912893Y-148012240D01*
X99915951Y-148012454D01*
X100168037Y-148005413D01*
X100304825Y-148001592D01*
X100304828Y-148001592D01*
X100307899Y-148001506D01*
X100310952Y-148001120D01*
X100310956Y-148001120D01*
X100452576Y-147983229D01*
X100696908Y-147952362D01*
X100699912Y-147951680D01*
X100699915Y-147951679D01*
X101076269Y-147866174D01*
X101076275Y-147866172D01*
X101079265Y-147865493D01*
X101082184Y-147864522D01*
X101448396Y-147742700D01*
X101448402Y-147742698D01*
X101451320Y-147741727D01*
X101592735Y-147678765D01*
X101806722Y-147583492D01*
X101806728Y-147583489D01*
X101809522Y-147582245D01*
X101812191Y-147580729D01*
X102147784Y-147390086D01*
X102147790Y-147390083D01*
X102150452Y-147388570D01*
X102470855Y-147162550D01*
X102596390Y-147054192D01*
X102765347Y-146908353D01*
X102765351Y-146908349D01*
X102767674Y-146906344D01*
X102845040Y-146825102D01*
X103035957Y-146624618D01*
X103038074Y-146622395D01*
X103140197Y-146491684D01*
X103277565Y-146315860D01*
X103277567Y-146315857D01*
X103279475Y-146313415D01*
X103489574Y-145982354D01*
X103666363Y-145632370D01*
X103698437Y-145549678D01*
X103807041Y-145269681D01*
X103807044Y-145269672D01*
X103808156Y-145266805D01*
X103913600Y-144889148D01*
X103981688Y-144503004D01*
X103994788Y-144332747D01*
X104011619Y-144114013D01*
X104011619Y-144114002D01*
X104011769Y-144112059D01*
X104013334Y-144000000D01*
X104010594Y-143943965D01*
X103994330Y-143611440D01*
X103994180Y-143608367D01*
X103936901Y-143220473D01*
X103842043Y-142840019D01*
X103710512Y-142470637D01*
X103543564Y-142115854D01*
X103541997Y-142113225D01*
X103541992Y-142113216D01*
X103344361Y-141781689D01*
X103342791Y-141779055D01*
X103340977Y-141776595D01*
X103340972Y-141776587D01*
X103111933Y-141465926D01*
X103111931Y-141465923D01*
X103110111Y-141463455D01*
X102847744Y-141172068D01*
X102558195Y-140907673D01*
X102244228Y-140672795D01*
X102196015Y-140643596D01*
X101911467Y-140471267D01*
X101911458Y-140471262D01*
X101908839Y-140469676D01*
X101555229Y-140300255D01*
X101552339Y-140299203D01*
X101552334Y-140299201D01*
X101189674Y-140167204D01*
X101189671Y-140167203D01*
X101186775Y-140166149D01*
X100910563Y-140095229D01*
X100809977Y-140069403D01*
X100809974Y-140069402D01*
X100806993Y-140068637D01*
X100419508Y-140008651D01*
X100028018Y-139986764D01*
X100024939Y-139986893D01*
X100024936Y-139986893D01*
X99769188Y-139997612D01*
X99636261Y-140003183D01*
X99633217Y-140003611D01*
X99633215Y-140003611D01*
X99422778Y-140033186D01*
X99247976Y-140057753D01*
X98866869Y-140149953D01*
X98496579Y-140278902D01*
X98140638Y-140443369D01*
X97802446Y-140641785D01*
X97642444Y-140758033D01*
X97487711Y-140870453D01*
X97487705Y-140870458D01*
X97485230Y-140872256D01*
X97482944Y-140874285D01*
X97482941Y-140874288D01*
X97403123Y-140945154D01*
X97192017Y-141132583D01*
X97189938Y-141134828D01*
X97189931Y-141134835D01*
X97101569Y-141230258D01*
X96925608Y-141420279D01*
X96688544Y-141732599D01*
X96483089Y-142066562D01*
X96311203Y-142418980D01*
X96174527Y-142786489D01*
X96074367Y-143165581D01*
X96011677Y-143552638D01*
X96011483Y-143555718D01*
X96011483Y-143555720D01*
X95989443Y-143906035D01*
X95987057Y-143943965D01*
X90508500Y-143943965D01*
X90508500Y-129986864D01*
X96236693Y-129986864D01*
X96236843Y-129990045D01*
X96251500Y-130300837D01*
X96254631Y-130367237D01*
X96310916Y-130743850D01*
X96311702Y-130746932D01*
X96311702Y-130746934D01*
X96381955Y-131022546D01*
X96404972Y-131112847D01*
X96535836Y-131470450D01*
X96702169Y-131812998D01*
X96902266Y-132136983D01*
X97134080Y-132439089D01*
X97395237Y-132716222D01*
X97683063Y-132965545D01*
X97685673Y-132967380D01*
X97685679Y-132967384D01*
X97719932Y-132991457D01*
X97994611Y-133184504D01*
X98326691Y-133370859D01*
X98329605Y-133372126D01*
X98329609Y-133372128D01*
X98472884Y-133434426D01*
X98675904Y-133522701D01*
X98718744Y-133536373D01*
X99035629Y-133637504D01*
X99035637Y-133637506D01*
X99038673Y-133638475D01*
X99241044Y-133681121D01*
X99408166Y-133716340D01*
X99408171Y-133716341D01*
X99411285Y-133716997D01*
X99789925Y-133757462D01*
X99793112Y-133757479D01*
X99793118Y-133757479D01*
X99965791Y-133758383D01*
X100170716Y-133759456D01*
X100314092Y-133745650D01*
X100546594Y-133723263D01*
X100546599Y-133723262D01*
X100549759Y-133722958D01*
X100552879Y-133722335D01*
X100552883Y-133722334D01*
X100920045Y-133648968D01*
X100920044Y-133648968D01*
X100923173Y-133648343D01*
X100926209Y-133647409D01*
X100926217Y-133647407D01*
X101284090Y-133537310D01*
X101284094Y-133537309D01*
X101287135Y-133536373D01*
X101290070Y-133535133D01*
X101290076Y-133535131D01*
X101445860Y-133469325D01*
X101637918Y-133388197D01*
X101971932Y-133205330D01*
X102285756Y-132989644D01*
X102288195Y-132987576D01*
X102288201Y-132987571D01*
X102573736Y-132745420D01*
X102576177Y-132743350D01*
X102578383Y-132741058D01*
X102578389Y-132741052D01*
X102838014Y-132471260D01*
X102840221Y-132468967D01*
X103075186Y-132169305D01*
X103278665Y-131847433D01*
X103280085Y-131844585D01*
X103280090Y-131844576D01*
X103447155Y-131509494D01*
X103448575Y-131506646D01*
X103583177Y-131150432D01*
X103681092Y-130782440D01*
X103686780Y-130746934D01*
X103740813Y-130409588D01*
X103741318Y-130406437D01*
X103743763Y-130364045D01*
X103763140Y-130027968D01*
X103763238Y-130026273D01*
X103763330Y-130000000D01*
X103746645Y-129670645D01*
X103744225Y-129622865D01*
X103744224Y-129622860D01*
X103744064Y-129619692D01*
X103686465Y-129243277D01*
X103631553Y-129030949D01*
X103591918Y-128877691D01*
X103591915Y-128877683D01*
X103591121Y-128874611D01*
X103586487Y-128862082D01*
X103528196Y-128704502D01*
X103459010Y-128517467D01*
X103424585Y-128447197D01*
X103292889Y-128178370D01*
X103292885Y-128178362D01*
X103291483Y-128175501D01*
X103090255Y-127852217D01*
X102857388Y-127550922D01*
X102743056Y-127430441D01*
X102597465Y-127277019D01*
X102597462Y-127277016D01*
X102595266Y-127274702D01*
X102306572Y-127026386D01*
X101994261Y-126808515D01*
X101661532Y-126623321D01*
X101658612Y-126622063D01*
X101658607Y-126622061D01*
X101314726Y-126473962D01*
X101314716Y-126473958D01*
X101311792Y-126472699D01*
X100948620Y-126358191D01*
X100683149Y-126303214D01*
X100578861Y-126281617D01*
X100578858Y-126281617D01*
X100575736Y-126280970D01*
X100297836Y-126252253D01*
X100200113Y-126242154D01*
X100200110Y-126242154D01*
X100196957Y-126241828D01*
X100193790Y-126241822D01*
X100193781Y-126241822D01*
X100006199Y-126241495D01*
X99816162Y-126241163D01*
X99437249Y-126278983D01*
X99434114Y-126279621D01*
X99434113Y-126279621D01*
X99067219Y-126354267D01*
X99064098Y-126354902D01*
X98700529Y-126468141D01*
X98350265Y-126617541D01*
X98347477Y-126619080D01*
X98347475Y-126619081D01*
X98248181Y-126673894D01*
X98016891Y-126801573D01*
X98014270Y-126803388D01*
X98014265Y-126803391D01*
X97706446Y-127016536D01*
X97703822Y-127018353D01*
X97414263Y-127265660D01*
X97151178Y-127540963D01*
X97149221Y-127543476D01*
X97149220Y-127543478D01*
X96989367Y-127748819D01*
X96917261Y-127841443D01*
X96714906Y-128164023D01*
X96546186Y-128505401D01*
X96545072Y-128508382D01*
X96545071Y-128508383D01*
X96541675Y-128517467D01*
X96412829Y-128862082D01*
X96316199Y-129230414D01*
X96315706Y-129233563D01*
X96315704Y-129233572D01*
X96302449Y-129318217D01*
X96257286Y-129606625D01*
X96257115Y-129609791D01*
X96257114Y-129609796D01*
X96256578Y-129619692D01*
X96237536Y-129971292D01*
X96236693Y-129986864D01*
X90508500Y-129986864D01*
X90508500Y-115986864D01*
X91236693Y-115986864D01*
X91236843Y-115990045D01*
X91251500Y-116300837D01*
X91254631Y-116367237D01*
X91310916Y-116743850D01*
X91311702Y-116746932D01*
X91311702Y-116746934D01*
X91381955Y-117022546D01*
X91404972Y-117112847D01*
X91535836Y-117470450D01*
X91702169Y-117812998D01*
X91902266Y-118136983D01*
X92134080Y-118439089D01*
X92395237Y-118716222D01*
X92683063Y-118965545D01*
X92685673Y-118967380D01*
X92685679Y-118967384D01*
X92719932Y-118991457D01*
X92994611Y-119184504D01*
X93326691Y-119370859D01*
X93329605Y-119372126D01*
X93329609Y-119372128D01*
X93472884Y-119434426D01*
X93675904Y-119522701D01*
X93718744Y-119536373D01*
X94035629Y-119637504D01*
X94035637Y-119637506D01*
X94038673Y-119638475D01*
X94241044Y-119681121D01*
X94408166Y-119716340D01*
X94408171Y-119716341D01*
X94411285Y-119716997D01*
X94789925Y-119757462D01*
X94793112Y-119757479D01*
X94793118Y-119757479D01*
X94965791Y-119758383D01*
X95170716Y-119759456D01*
X95314092Y-119745650D01*
X95546594Y-119723263D01*
X95546599Y-119723262D01*
X95549759Y-119722958D01*
X95552879Y-119722335D01*
X95552883Y-119722334D01*
X95920045Y-119648968D01*
X95920044Y-119648968D01*
X95923173Y-119648343D01*
X95926209Y-119647409D01*
X95926217Y-119647407D01*
X96284090Y-119537310D01*
X96284094Y-119537309D01*
X96287135Y-119536373D01*
X96290070Y-119535133D01*
X96290076Y-119535131D01*
X96445860Y-119469325D01*
X96637918Y-119388197D01*
X96971932Y-119205330D01*
X97285756Y-118989644D01*
X97288195Y-118987576D01*
X97288201Y-118987571D01*
X97573736Y-118745420D01*
X97576177Y-118743350D01*
X97578383Y-118741058D01*
X97578389Y-118741052D01*
X97838014Y-118471260D01*
X97840221Y-118468967D01*
X98075186Y-118169305D01*
X98278665Y-117847433D01*
X98280085Y-117844585D01*
X98280090Y-117844576D01*
X98447155Y-117509494D01*
X98448575Y-117506646D01*
X98583177Y-117150432D01*
X98681092Y-116782440D01*
X98686780Y-116746934D01*
X98740813Y-116409588D01*
X98741318Y-116406437D01*
X98743763Y-116364045D01*
X98763140Y-116027968D01*
X98763238Y-116026273D01*
X98763330Y-116000000D01*
X98762665Y-115986864D01*
X101236693Y-115986864D01*
X101236843Y-115990045D01*
X101251500Y-116300837D01*
X101254631Y-116367237D01*
X101310916Y-116743850D01*
X101311702Y-116746932D01*
X101311702Y-116746934D01*
X101381955Y-117022546D01*
X101404972Y-117112847D01*
X101535836Y-117470450D01*
X101702169Y-117812998D01*
X101902266Y-118136983D01*
X102134080Y-118439089D01*
X102395237Y-118716222D01*
X102683063Y-118965545D01*
X102685673Y-118967380D01*
X102685679Y-118967384D01*
X102719932Y-118991457D01*
X102994611Y-119184504D01*
X103326691Y-119370859D01*
X103329605Y-119372126D01*
X103329609Y-119372128D01*
X103472884Y-119434426D01*
X103675904Y-119522701D01*
X103718744Y-119536373D01*
X104035629Y-119637504D01*
X104035637Y-119637506D01*
X104038673Y-119638475D01*
X104241044Y-119681121D01*
X104408166Y-119716340D01*
X104408171Y-119716341D01*
X104411285Y-119716997D01*
X104789925Y-119757462D01*
X104793112Y-119757479D01*
X104793118Y-119757479D01*
X104965791Y-119758383D01*
X105170716Y-119759456D01*
X105314092Y-119745650D01*
X105546594Y-119723263D01*
X105546599Y-119723262D01*
X105549759Y-119722958D01*
X105552879Y-119722335D01*
X105552883Y-119722334D01*
X105920045Y-119648968D01*
X105920044Y-119648968D01*
X105923173Y-119648343D01*
X105926209Y-119647409D01*
X105926217Y-119647407D01*
X106284090Y-119537310D01*
X106284094Y-119537309D01*
X106287135Y-119536373D01*
X106290070Y-119535133D01*
X106290076Y-119535131D01*
X106445860Y-119469325D01*
X106637918Y-119388197D01*
X106971932Y-119205330D01*
X107285756Y-118989644D01*
X107288195Y-118987576D01*
X107288201Y-118987571D01*
X107573736Y-118745420D01*
X107576177Y-118743350D01*
X107578383Y-118741058D01*
X107578389Y-118741052D01*
X107838014Y-118471260D01*
X107840221Y-118468967D01*
X108075186Y-118169305D01*
X108278665Y-117847433D01*
X108280085Y-117844585D01*
X108280090Y-117844576D01*
X108447155Y-117509494D01*
X108448575Y-117506646D01*
X108583177Y-117150432D01*
X108681092Y-116782440D01*
X108686780Y-116746934D01*
X108740813Y-116409588D01*
X108741318Y-116406437D01*
X108743763Y-116364045D01*
X108763140Y-116027968D01*
X108763238Y-116026273D01*
X108763330Y-116000000D01*
X108746645Y-115670645D01*
X108744225Y-115622865D01*
X108744224Y-115622860D01*
X108744064Y-115619692D01*
X108686465Y-115243277D01*
X108631553Y-115030949D01*
X108591918Y-114877691D01*
X108591915Y-114877683D01*
X108591121Y-114874611D01*
X108586487Y-114862082D01*
X108528196Y-114704502D01*
X108459010Y-114517467D01*
X108424585Y-114447197D01*
X108292889Y-114178370D01*
X108292885Y-114178362D01*
X108291483Y-114175501D01*
X108090255Y-113852217D01*
X107857388Y-113550922D01*
X107743056Y-113430441D01*
X107597465Y-113277019D01*
X107597462Y-113277016D01*
X107595266Y-113274702D01*
X107306572Y-113026386D01*
X106994261Y-112808515D01*
X106661532Y-112623321D01*
X106658612Y-112622063D01*
X106658607Y-112622061D01*
X106314726Y-112473962D01*
X106314716Y-112473958D01*
X106311792Y-112472699D01*
X105948620Y-112358191D01*
X105683149Y-112303214D01*
X105578861Y-112281617D01*
X105578858Y-112281617D01*
X105575736Y-112280970D01*
X105297836Y-112252253D01*
X105200113Y-112242154D01*
X105200110Y-112242154D01*
X105196957Y-112241828D01*
X105193790Y-112241822D01*
X105193781Y-112241822D01*
X105006199Y-112241495D01*
X104816162Y-112241163D01*
X104437249Y-112278983D01*
X104434114Y-112279621D01*
X104434113Y-112279621D01*
X104067219Y-112354267D01*
X104064098Y-112354902D01*
X103700529Y-112468141D01*
X103350265Y-112617541D01*
X103347477Y-112619080D01*
X103347475Y-112619081D01*
X103248181Y-112673894D01*
X103016891Y-112801573D01*
X103014270Y-112803388D01*
X103014265Y-112803391D01*
X102706446Y-113016536D01*
X102703822Y-113018353D01*
X102414263Y-113265660D01*
X102151178Y-113540963D01*
X102149221Y-113543476D01*
X102149220Y-113543478D01*
X101989367Y-113748819D01*
X101917261Y-113841443D01*
X101714906Y-114164023D01*
X101546186Y-114505401D01*
X101545072Y-114508382D01*
X101545071Y-114508383D01*
X101541675Y-114517467D01*
X101412829Y-114862082D01*
X101316199Y-115230414D01*
X101315706Y-115233563D01*
X101315704Y-115233572D01*
X101302449Y-115318217D01*
X101257286Y-115606625D01*
X101257115Y-115609791D01*
X101257114Y-115609796D01*
X101256578Y-115619692D01*
X101237536Y-115971292D01*
X101236693Y-115986864D01*
X98762665Y-115986864D01*
X98746645Y-115670645D01*
X98744225Y-115622865D01*
X98744224Y-115622860D01*
X98744064Y-115619692D01*
X98686465Y-115243277D01*
X98631553Y-115030949D01*
X98591918Y-114877691D01*
X98591915Y-114877683D01*
X98591121Y-114874611D01*
X98586487Y-114862082D01*
X98528196Y-114704502D01*
X98459010Y-114517467D01*
X98424585Y-114447197D01*
X98292889Y-114178370D01*
X98292885Y-114178362D01*
X98291483Y-114175501D01*
X98090255Y-113852217D01*
X97857388Y-113550922D01*
X97743056Y-113430441D01*
X97597465Y-113277019D01*
X97597462Y-113277016D01*
X97595266Y-113274702D01*
X97306572Y-113026386D01*
X96994261Y-112808515D01*
X96661532Y-112623321D01*
X96658612Y-112622063D01*
X96658607Y-112622061D01*
X96314726Y-112473962D01*
X96314716Y-112473958D01*
X96311792Y-112472699D01*
X95948620Y-112358191D01*
X95683149Y-112303214D01*
X95578861Y-112281617D01*
X95578858Y-112281617D01*
X95575736Y-112280970D01*
X95297836Y-112252253D01*
X95200113Y-112242154D01*
X95200110Y-112242154D01*
X95196957Y-112241828D01*
X95193790Y-112241822D01*
X95193781Y-112241822D01*
X95006199Y-112241495D01*
X94816162Y-112241163D01*
X94437249Y-112278983D01*
X94434114Y-112279621D01*
X94434113Y-112279621D01*
X94067219Y-112354267D01*
X94064098Y-112354902D01*
X93700529Y-112468141D01*
X93350265Y-112617541D01*
X93347477Y-112619080D01*
X93347475Y-112619081D01*
X93248181Y-112673894D01*
X93016891Y-112801573D01*
X93014270Y-112803388D01*
X93014265Y-112803391D01*
X92706446Y-113016536D01*
X92703822Y-113018353D01*
X92414263Y-113265660D01*
X92151178Y-113540963D01*
X92149221Y-113543476D01*
X92149220Y-113543478D01*
X91989367Y-113748819D01*
X91917261Y-113841443D01*
X91714906Y-114164023D01*
X91546186Y-114505401D01*
X91545072Y-114508382D01*
X91545071Y-114508383D01*
X91541675Y-114517467D01*
X91412829Y-114862082D01*
X91316199Y-115230414D01*
X91315706Y-115233563D01*
X91315704Y-115233572D01*
X91302449Y-115318217D01*
X91257286Y-115606625D01*
X91257115Y-115609791D01*
X91257114Y-115609796D01*
X91256578Y-115619692D01*
X91237536Y-115971292D01*
X91236693Y-115986864D01*
X90508500Y-115986864D01*
X90508500Y-101986864D01*
X96236693Y-101986864D01*
X96236843Y-101990045D01*
X96251500Y-102300837D01*
X96254631Y-102367237D01*
X96310916Y-102743850D01*
X96311702Y-102746932D01*
X96311702Y-102746934D01*
X96381955Y-103022546D01*
X96404972Y-103112847D01*
X96535836Y-103470450D01*
X96702169Y-103812998D01*
X96902266Y-104136983D01*
X97134080Y-104439089D01*
X97395237Y-104716222D01*
X97683063Y-104965545D01*
X97685673Y-104967380D01*
X97685679Y-104967384D01*
X97719932Y-104991457D01*
X97994611Y-105184504D01*
X98326691Y-105370859D01*
X98329605Y-105372126D01*
X98329609Y-105372128D01*
X98472884Y-105434426D01*
X98675904Y-105522701D01*
X98718744Y-105536373D01*
X99035629Y-105637504D01*
X99035637Y-105637506D01*
X99038673Y-105638475D01*
X99241044Y-105681121D01*
X99408166Y-105716340D01*
X99408171Y-105716341D01*
X99411285Y-105716997D01*
X99789925Y-105757462D01*
X99793112Y-105757479D01*
X99793118Y-105757479D01*
X99965791Y-105758383D01*
X100170716Y-105759456D01*
X100314092Y-105745650D01*
X100546594Y-105723263D01*
X100546599Y-105723262D01*
X100549759Y-105722958D01*
X100552879Y-105722335D01*
X100552883Y-105722334D01*
X100920045Y-105648968D01*
X100920044Y-105648968D01*
X100923173Y-105648343D01*
X100926209Y-105647409D01*
X100926217Y-105647407D01*
X101284090Y-105537310D01*
X101284094Y-105537309D01*
X101287135Y-105536373D01*
X101290070Y-105535133D01*
X101290076Y-105535131D01*
X101445860Y-105469325D01*
X101637918Y-105388197D01*
X101971932Y-105205330D01*
X102285756Y-104989644D01*
X102288195Y-104987576D01*
X102288201Y-104987571D01*
X102573736Y-104745420D01*
X102576177Y-104743350D01*
X102578383Y-104741058D01*
X102578389Y-104741052D01*
X102838014Y-104471260D01*
X102840221Y-104468967D01*
X103075186Y-104169305D01*
X103278665Y-103847433D01*
X103280085Y-103844585D01*
X103280090Y-103844576D01*
X103447155Y-103509494D01*
X103448575Y-103506646D01*
X103583177Y-103150432D01*
X103681092Y-102782440D01*
X103686780Y-102746934D01*
X103740813Y-102409588D01*
X103741318Y-102406437D01*
X103743763Y-102364045D01*
X103763140Y-102027968D01*
X103763238Y-102026273D01*
X103763330Y-102000000D01*
X103746645Y-101670645D01*
X103744225Y-101622865D01*
X103744224Y-101622860D01*
X103744064Y-101619692D01*
X103686465Y-101243277D01*
X103631553Y-101030949D01*
X103591918Y-100877691D01*
X103591915Y-100877683D01*
X103591121Y-100874611D01*
X103586487Y-100862082D01*
X103528196Y-100704502D01*
X103459010Y-100517467D01*
X103424585Y-100447197D01*
X103292889Y-100178370D01*
X103292885Y-100178362D01*
X103291483Y-100175501D01*
X103090255Y-99852217D01*
X102857388Y-99550922D01*
X102743056Y-99430441D01*
X102597465Y-99277019D01*
X102597462Y-99277016D01*
X102595266Y-99274702D01*
X102306572Y-99026386D01*
X101994261Y-98808515D01*
X101661532Y-98623321D01*
X101658612Y-98622063D01*
X101658607Y-98622061D01*
X101314726Y-98473962D01*
X101314716Y-98473958D01*
X101311792Y-98472699D01*
X100948620Y-98358191D01*
X100683149Y-98303214D01*
X100578861Y-98281617D01*
X100578858Y-98281617D01*
X100575736Y-98280970D01*
X100297836Y-98252253D01*
X100200113Y-98242154D01*
X100200110Y-98242154D01*
X100196957Y-98241828D01*
X100193790Y-98241822D01*
X100193781Y-98241822D01*
X100006199Y-98241495D01*
X99816162Y-98241163D01*
X99437249Y-98278983D01*
X99434114Y-98279621D01*
X99434113Y-98279621D01*
X99067219Y-98354267D01*
X99064098Y-98354902D01*
X98700529Y-98468141D01*
X98350265Y-98617541D01*
X98347477Y-98619080D01*
X98347475Y-98619081D01*
X98248181Y-98673894D01*
X98016891Y-98801573D01*
X98014270Y-98803388D01*
X98014265Y-98803391D01*
X97706446Y-99016536D01*
X97703822Y-99018353D01*
X97414263Y-99265660D01*
X97151178Y-99540963D01*
X97149221Y-99543476D01*
X97149220Y-99543478D01*
X96989367Y-99748819D01*
X96917261Y-99841443D01*
X96714906Y-100164023D01*
X96546186Y-100505401D01*
X96545072Y-100508382D01*
X96545071Y-100508383D01*
X96541675Y-100517467D01*
X96412829Y-100862082D01*
X96316199Y-101230414D01*
X96315706Y-101233563D01*
X96315704Y-101233572D01*
X96302449Y-101318217D01*
X96257286Y-101606625D01*
X96257115Y-101609791D01*
X96257114Y-101609796D01*
X96256578Y-101619692D01*
X96237536Y-101971292D01*
X96236693Y-101986864D01*
X90508500Y-101986864D01*
X90508500Y-75650097D01*
X91486367Y-75650097D01*
X91486476Y-75652210D01*
X91486476Y-75652224D01*
X91504479Y-76001979D01*
X91515946Y-76224774D01*
X91584271Y-76796142D01*
X91691031Y-77361589D01*
X91835739Y-77918535D01*
X91836408Y-77920540D01*
X91836411Y-77920552D01*
X92017057Y-78462412D01*
X92017063Y-78462427D01*
X92017732Y-78464435D01*
X92236181Y-78996797D01*
X92490087Y-79513189D01*
X92491146Y-79515019D01*
X92777224Y-80009409D01*
X92777231Y-80009421D01*
X92778291Y-80011252D01*
X93099477Y-80488713D01*
X93100778Y-80490390D01*
X93450873Y-80941710D01*
X93450885Y-80941724D01*
X93452177Y-80943390D01*
X93834782Y-81373207D01*
X94245543Y-81776201D01*
X94682585Y-82150532D01*
X95143911Y-82494489D01*
X95627415Y-82806503D01*
X95629262Y-82807525D01*
X95629270Y-82807530D01*
X96091264Y-83063217D01*
X96130889Y-83085147D01*
X96652034Y-83329150D01*
X96654002Y-83329914D01*
X97186483Y-83536628D01*
X97186498Y-83536633D01*
X97188468Y-83537398D01*
X97190503Y-83538033D01*
X97190510Y-83538036D01*
X97735706Y-83708302D01*
X97735710Y-83708303D01*
X97737743Y-83708938D01*
X97739806Y-83709432D01*
X97739809Y-83709433D01*
X97794852Y-83722618D01*
X97856439Y-83757939D01*
X97889154Y-83820949D01*
X97891500Y-83845152D01*
X97891500Y-84441377D01*
X97891498Y-84442147D01*
X97891024Y-84519721D01*
X97893491Y-84528352D01*
X97899150Y-84548153D01*
X97902728Y-84564915D01*
X97906920Y-84594187D01*
X97910634Y-84602355D01*
X97910634Y-84602356D01*
X97917548Y-84617562D01*
X97923996Y-84635086D01*
X97931051Y-84659771D01*
X97935843Y-84667365D01*
X97935844Y-84667368D01*
X97946830Y-84684780D01*
X97954969Y-84699863D01*
X97967208Y-84726782D01*
X97973069Y-84733584D01*
X97983970Y-84746235D01*
X97995073Y-84761239D01*
X98008776Y-84782958D01*
X98015501Y-84788897D01*
X98015504Y-84788901D01*
X98030938Y-84802532D01*
X98042982Y-84814724D01*
X98056427Y-84830327D01*
X98056430Y-84830329D01*
X98062287Y-84837127D01*
X98069816Y-84842007D01*
X98069817Y-84842008D01*
X98083835Y-84851094D01*
X98098709Y-84862385D01*
X98111217Y-84873431D01*
X98117951Y-84879378D01*
X98144711Y-84891942D01*
X98159691Y-84900263D01*
X98176983Y-84911471D01*
X98176988Y-84911473D01*
X98184515Y-84916352D01*
X98193108Y-84918922D01*
X98193113Y-84918924D01*
X98209120Y-84923711D01*
X98226564Y-84930372D01*
X98241676Y-84937467D01*
X98241678Y-84937468D01*
X98249800Y-84941281D01*
X98258667Y-84942662D01*
X98258668Y-84942662D01*
X98261353Y-84943080D01*
X98279017Y-84945830D01*
X98295732Y-84949613D01*
X98315466Y-84955515D01*
X98315472Y-84955516D01*
X98324066Y-84958086D01*
X98333037Y-84958141D01*
X98333038Y-84958141D01*
X98343097Y-84958202D01*
X98358506Y-84958296D01*
X98359289Y-84958329D01*
X98360386Y-84958500D01*
X98391377Y-84958500D01*
X98392147Y-84958502D01*
X98465785Y-84958952D01*
X98465786Y-84958952D01*
X98469721Y-84958976D01*
X98471065Y-84958592D01*
X98472410Y-84958500D01*
X101591377Y-84958500D01*
X101592148Y-84958502D01*
X101669721Y-84958976D01*
X101698152Y-84950850D01*
X101714915Y-84947272D01*
X101715753Y-84947152D01*
X101744187Y-84943080D01*
X101767564Y-84932451D01*
X101785087Y-84926004D01*
X101809771Y-84918949D01*
X101817365Y-84914157D01*
X101817368Y-84914156D01*
X101834780Y-84903170D01*
X101849865Y-84895030D01*
X101876782Y-84882792D01*
X101896235Y-84866030D01*
X101911239Y-84854927D01*
X101932958Y-84841224D01*
X101938897Y-84834499D01*
X101938901Y-84834496D01*
X101952532Y-84819062D01*
X101964724Y-84807018D01*
X101980327Y-84793573D01*
X101980329Y-84793570D01*
X101987127Y-84787713D01*
X102001094Y-84766165D01*
X102012385Y-84751291D01*
X102023431Y-84738783D01*
X102023432Y-84738782D01*
X102029378Y-84732049D01*
X102041943Y-84705287D01*
X102050263Y-84690309D01*
X102061471Y-84673017D01*
X102061473Y-84673012D01*
X102066352Y-84665485D01*
X102068922Y-84656892D01*
X102068924Y-84656887D01*
X102073711Y-84640880D01*
X102080372Y-84623436D01*
X102087467Y-84608324D01*
X102087468Y-84608322D01*
X102091281Y-84600200D01*
X102095830Y-84570983D01*
X102099613Y-84554268D01*
X102105515Y-84534534D01*
X102105516Y-84534528D01*
X102108086Y-84525934D01*
X102108296Y-84491494D01*
X102108329Y-84490711D01*
X102108500Y-84489614D01*
X102108500Y-84458623D01*
X102108502Y-84457853D01*
X102108952Y-84384215D01*
X102108952Y-84384214D01*
X102108976Y-84380279D01*
X102108592Y-84378935D01*
X102108500Y-84377590D01*
X102108500Y-83845151D01*
X102128502Y-83777030D01*
X102182158Y-83730537D01*
X102205136Y-83722621D01*
X102262257Y-83708938D01*
X102587300Y-83607426D01*
X102809490Y-83538036D01*
X102809497Y-83538033D01*
X102811532Y-83537398D01*
X102813502Y-83536633D01*
X102813517Y-83536628D01*
X103345998Y-83329914D01*
X103347966Y-83329150D01*
X103869111Y-83085147D01*
X103908736Y-83063217D01*
X104370730Y-82807530D01*
X104370738Y-82807525D01*
X104372585Y-82806503D01*
X104856089Y-82494489D01*
X105317415Y-82150532D01*
X105754457Y-81776201D01*
X106165218Y-81373207D01*
X106547823Y-80943390D01*
X106549115Y-80941724D01*
X106549127Y-80941710D01*
X106899222Y-80490390D01*
X106900523Y-80488713D01*
X107221709Y-80011252D01*
X107222769Y-80009421D01*
X107222776Y-80009409D01*
X107508854Y-79515019D01*
X107509913Y-79513189D01*
X107763819Y-78996797D01*
X107982268Y-78464435D01*
X107982937Y-78462427D01*
X107982943Y-78462412D01*
X108163589Y-77920552D01*
X108163592Y-77920540D01*
X108164261Y-77918535D01*
X108308969Y-77361589D01*
X108415729Y-76796142D01*
X108484054Y-76224774D01*
X108495521Y-76001979D01*
X108513524Y-75652224D01*
X108513524Y-75652210D01*
X108513633Y-75650097D01*
X108504330Y-75074734D01*
X108456187Y-74501314D01*
X108369425Y-73932454D01*
X108244440Y-73370754D01*
X108081802Y-72818777D01*
X107882254Y-72279046D01*
X107662470Y-71789157D01*
X107647588Y-71755985D01*
X107647580Y-71755969D01*
X107646708Y-71754025D01*
X107376240Y-71246112D01*
X107072084Y-70757627D01*
X106735630Y-70290800D01*
X106368414Y-69847764D01*
X105972114Y-69430541D01*
X105548538Y-69041037D01*
X105099623Y-68681032D01*
X105097887Y-68679823D01*
X105097879Y-68679817D01*
X104629178Y-68353395D01*
X104629169Y-68353389D01*
X104627417Y-68352169D01*
X104134079Y-68055951D01*
X103621859Y-67793729D01*
X103093099Y-67566702D01*
X102550212Y-67375907D01*
X102548162Y-67375339D01*
X102548153Y-67375336D01*
X102245712Y-67291512D01*
X101995679Y-67222214D01*
X101432031Y-67106326D01*
X100861843Y-67028772D01*
X100859713Y-67028628D01*
X100859705Y-67028627D01*
X100289853Y-66990050D01*
X100289839Y-66990050D01*
X100287719Y-66989906D01*
X99712281Y-66989906D01*
X99710161Y-66990050D01*
X99710147Y-66990050D01*
X99140295Y-67028627D01*
X99140287Y-67028628D01*
X99138157Y-67028772D01*
X98567969Y-67106326D01*
X98004321Y-67222214D01*
X97754288Y-67291512D01*
X97451847Y-67375336D01*
X97451838Y-67375339D01*
X97449788Y-67375907D01*
X96906901Y-67566702D01*
X96378141Y-67793729D01*
X95865921Y-68055951D01*
X95372583Y-68352169D01*
X95370831Y-68353389D01*
X95370822Y-68353395D01*
X94902121Y-68679817D01*
X94902113Y-68679823D01*
X94900377Y-68681032D01*
X94451462Y-69041037D01*
X94027886Y-69430541D01*
X93631586Y-69847764D01*
X93264370Y-70290800D01*
X92927916Y-70757627D01*
X92623760Y-71246112D01*
X92353292Y-71754025D01*
X92352420Y-71755969D01*
X92352412Y-71755985D01*
X92337530Y-71789157D01*
X92117746Y-72279046D01*
X91918198Y-72818777D01*
X91755560Y-73370754D01*
X91630575Y-73932454D01*
X91543813Y-74501314D01*
X91495670Y-75074734D01*
X91486367Y-75650097D01*
X90508500Y-75650097D01*
X90508500Y-60648384D01*
X94841500Y-60648384D01*
X94878695Y-60942813D01*
X94952498Y-61230258D01*
X95061746Y-61506186D01*
X95063648Y-61509645D01*
X95063649Y-61509648D01*
X95157199Y-61679814D01*
X95204715Y-61766246D01*
X95379152Y-62006337D01*
X95582304Y-62222672D01*
X95810968Y-62411839D01*
X96061538Y-62570856D01*
X96216374Y-62643716D01*
X96326472Y-62695524D01*
X96326476Y-62695526D01*
X96330062Y-62697213D01*
X96612305Y-62788920D01*
X96903817Y-62844529D01*
X97051491Y-62853820D01*
X97169492Y-62861244D01*
X97182477Y-62862740D01*
X97182648Y-62862769D01*
X97182654Y-62862770D01*
X97187448Y-62863576D01*
X97193793Y-62863653D01*
X97195140Y-62863670D01*
X97195143Y-62863670D01*
X97200000Y-62863729D01*
X97227624Y-62859773D01*
X97245486Y-62858500D01*
X102746750Y-62858500D01*
X102767655Y-62860246D01*
X102782656Y-62862770D01*
X102782659Y-62862770D01*
X102787448Y-62863576D01*
X102793687Y-62863652D01*
X102795140Y-62863670D01*
X102795143Y-62863670D01*
X102800000Y-62863729D01*
X102804815Y-62863040D01*
X102807713Y-62862851D01*
X102812038Y-62862406D01*
X103096183Y-62844529D01*
X103387695Y-62788920D01*
X103669938Y-62697213D01*
X103673524Y-62695526D01*
X103673528Y-62695524D01*
X103783626Y-62643716D01*
X103938462Y-62570856D01*
X104189032Y-62411839D01*
X104417696Y-62222672D01*
X104620848Y-62006337D01*
X104795285Y-61766246D01*
X104842802Y-61679814D01*
X104936351Y-61509648D01*
X104936352Y-61509645D01*
X104938254Y-61506186D01*
X105047502Y-61230258D01*
X105121305Y-60942813D01*
X105158500Y-60648384D01*
X105158500Y-60351616D01*
X105121305Y-60057187D01*
X105047502Y-59769742D01*
X104938254Y-59493814D01*
X104909422Y-59441368D01*
X104797194Y-59237226D01*
X104797192Y-59237223D01*
X104795285Y-59233754D01*
X104620848Y-58993663D01*
X104417696Y-58777328D01*
X104189032Y-58588161D01*
X103938462Y-58429144D01*
X103783626Y-58356284D01*
X103673528Y-58304476D01*
X103673524Y-58304474D01*
X103669938Y-58302787D01*
X103387695Y-58211080D01*
X103096183Y-58155471D01*
X102948509Y-58146180D01*
X102830508Y-58138756D01*
X102817523Y-58137260D01*
X102817352Y-58137231D01*
X102817346Y-58137230D01*
X102812552Y-58136424D01*
X102806207Y-58136347D01*
X102804860Y-58136330D01*
X102804857Y-58136330D01*
X102800000Y-58136271D01*
X102785518Y-58138345D01*
X102772376Y-58140227D01*
X102754514Y-58141500D01*
X97253250Y-58141500D01*
X97232345Y-58139754D01*
X97217344Y-58137230D01*
X97217341Y-58137230D01*
X97212552Y-58136424D01*
X97206313Y-58136348D01*
X97204860Y-58136330D01*
X97204857Y-58136330D01*
X97200000Y-58136271D01*
X97195185Y-58136960D01*
X97192287Y-58137149D01*
X97187962Y-58137594D01*
X96903817Y-58155471D01*
X96612305Y-58211080D01*
X96330062Y-58302787D01*
X96326476Y-58304474D01*
X96326472Y-58304476D01*
X96216374Y-58356284D01*
X96061538Y-58429144D01*
X95810968Y-58588161D01*
X95582304Y-58777328D01*
X95379152Y-58993663D01*
X95204715Y-59233754D01*
X95202808Y-59237223D01*
X95202806Y-59237226D01*
X95090578Y-59441368D01*
X95061746Y-59493814D01*
X94952498Y-59769742D01*
X94878695Y-60057187D01*
X94841500Y-60351616D01*
X94841500Y-60648384D01*
X90508500Y-60648384D01*
X90508500Y-49500000D01*
X93986976Y-49500000D01*
X94005053Y-49775805D01*
X94005855Y-49779838D01*
X94005856Y-49779844D01*
X94046968Y-49986523D01*
X94058976Y-50046891D01*
X94147820Y-50308619D01*
X94149643Y-50312315D01*
X94149646Y-50312323D01*
X94206698Y-50428012D01*
X94270068Y-50556512D01*
X94423625Y-50786328D01*
X94605866Y-50994134D01*
X94813672Y-51176375D01*
X95043488Y-51329932D01*
X95047189Y-51331757D01*
X95287677Y-51450354D01*
X95287685Y-51450357D01*
X95291381Y-51452180D01*
X95295295Y-51453509D01*
X95295296Y-51453509D01*
X95549196Y-51539696D01*
X95549200Y-51539697D01*
X95553109Y-51541024D01*
X95557153Y-51541828D01*
X95557159Y-51541830D01*
X95820156Y-51594144D01*
X95820162Y-51594145D01*
X95824195Y-51594947D01*
X95828300Y-51595216D01*
X95828307Y-51595217D01*
X95965896Y-51604234D01*
X96067697Y-51610907D01*
X96080352Y-51612382D01*
X96081904Y-51612643D01*
X96082656Y-51612770D01*
X96082658Y-51612770D01*
X96087448Y-51613576D01*
X96093724Y-51613652D01*
X96095140Y-51613670D01*
X96095143Y-51613670D01*
X96100000Y-51613729D01*
X96127624Y-51609773D01*
X96145486Y-51608500D01*
X98746750Y-51608500D01*
X98767655Y-51610246D01*
X98782656Y-51612770D01*
X98782659Y-51612770D01*
X98787448Y-51613576D01*
X98793687Y-51613652D01*
X98795140Y-51613670D01*
X98795143Y-51613670D01*
X98800000Y-51613729D01*
X98804819Y-51613039D01*
X98805338Y-51613005D01*
X98813905Y-51612113D01*
X99071693Y-51595217D01*
X99071700Y-51595216D01*
X99075805Y-51594947D01*
X99079838Y-51594145D01*
X99079844Y-51594144D01*
X99342841Y-51541830D01*
X99342847Y-51541828D01*
X99346891Y-51541024D01*
X99350800Y-51539697D01*
X99350804Y-51539696D01*
X99604704Y-51453509D01*
X99604705Y-51453509D01*
X99608619Y-51452180D01*
X99612315Y-51450357D01*
X99612323Y-51450354D01*
X99852811Y-51331757D01*
X99856512Y-51329932D01*
X100086328Y-51176375D01*
X100294134Y-50994134D01*
X100476375Y-50786328D01*
X100629932Y-50556512D01*
X100693302Y-50428012D01*
X100750354Y-50312323D01*
X100750357Y-50312315D01*
X100752180Y-50308619D01*
X100841024Y-50046891D01*
X100853032Y-49986523D01*
X100894144Y-49779844D01*
X100894145Y-49779838D01*
X100894947Y-49775805D01*
X100913024Y-49500000D01*
X100894947Y-49224195D01*
X100890393Y-49201297D01*
X100841830Y-48957159D01*
X100841828Y-48957153D01*
X100841024Y-48953109D01*
X100752180Y-48691381D01*
X100750357Y-48687685D01*
X100750354Y-48687677D01*
X100631757Y-48447189D01*
X100629932Y-48443488D01*
X100476375Y-48213672D01*
X100294134Y-48005866D01*
X100086328Y-47823625D01*
X99856512Y-47670068D01*
X99808143Y-47646215D01*
X99612323Y-47549646D01*
X99612315Y-47549643D01*
X99608619Y-47547820D01*
X99604704Y-47546491D01*
X99350804Y-47460304D01*
X99350800Y-47460303D01*
X99346891Y-47458976D01*
X99342847Y-47458172D01*
X99342841Y-47458170D01*
X99079844Y-47405856D01*
X99079838Y-47405855D01*
X99075805Y-47405053D01*
X99071700Y-47404784D01*
X99071693Y-47404783D01*
X98934104Y-47395766D01*
X98832303Y-47389093D01*
X98819648Y-47387618D01*
X98818096Y-47387357D01*
X98817344Y-47387230D01*
X98817342Y-47387230D01*
X98812552Y-47386424D01*
X98806276Y-47386348D01*
X98804860Y-47386330D01*
X98804857Y-47386330D01*
X98800000Y-47386271D01*
X98780288Y-47389094D01*
X98772376Y-47390227D01*
X98754514Y-47391500D01*
X96153250Y-47391500D01*
X96132345Y-47389754D01*
X96117344Y-47387230D01*
X96117341Y-47387230D01*
X96112552Y-47386424D01*
X96106313Y-47386348D01*
X96104860Y-47386330D01*
X96104857Y-47386330D01*
X96100000Y-47386271D01*
X96095181Y-47386961D01*
X96094662Y-47386995D01*
X96086095Y-47387887D01*
X95828307Y-47404783D01*
X95828300Y-47404784D01*
X95824195Y-47405053D01*
X95820162Y-47405855D01*
X95820156Y-47405856D01*
X95557159Y-47458170D01*
X95557153Y-47458172D01*
X95553109Y-47458976D01*
X95549200Y-47460303D01*
X95549196Y-47460304D01*
X95295296Y-47546491D01*
X95291381Y-47547820D01*
X95287685Y-47549643D01*
X95287677Y-47549646D01*
X95091857Y-47646215D01*
X95043488Y-47670068D01*
X94813672Y-47823625D01*
X94605866Y-48005866D01*
X94423625Y-48213672D01*
X94270068Y-48443488D01*
X94268243Y-48447189D01*
X94149646Y-48687677D01*
X94149643Y-48687685D01*
X94147820Y-48691381D01*
X94058976Y-48953109D01*
X94058172Y-48957153D01*
X94058170Y-48957159D01*
X94009608Y-49201297D01*
X94005053Y-49224195D01*
X93986976Y-49500000D01*
X90508500Y-49500000D01*
X90508500Y-47134500D01*
X90528502Y-47066379D01*
X90582158Y-47019886D01*
X90634500Y-47008500D01*
X109365500Y-47008500D01*
X109433621Y-47028502D01*
G37*
%TD.AperFunction*%
M02*
