%TF.GenerationSoftware,KiCad,Pcbnew,6.0.11-2627ca5db0~126~ubuntu22.04.1*%
%TF.CreationDate,2024-03-30T15:57:52+01:00*%
%TF.ProjectId,OTBreakOutPanel,4f544272-6561-46b4-9f75-7450616e656c,rev?*%
%TF.SameCoordinates,Original*%
%TF.FileFunction,Soldermask,Top*%
%TF.FilePolarity,Negative*%
%FSLAX46Y46*%
G04 Gerber Fmt 4.6, Leading zero omitted, Abs format (unit mm)*
G04 Created by KiCad (PCBNEW 6.0.11-2627ca5db0~126~ubuntu22.04.1) date 2024-03-30 15:57:52*
%MOMM*%
%LPD*%
G01*
G04 APERTURE LIST*
%ADD10C,0.050000*%
%ADD11C,0.000000*%
%ADD12C,0.300000*%
G04 APERTURE END LIST*
D10*
X102800000Y-62500000D02*
G75*
G03*
X102800000Y-58500000I0J2000000D01*
G01*
D11*
G36*
X103080000Y-58520000D02*
G01*
X103350000Y-58570000D01*
X103780000Y-58760000D01*
X104000000Y-58900000D01*
X104230000Y-59110000D01*
X104400000Y-59300000D01*
X104560000Y-59550000D01*
X104720000Y-59930000D01*
X104780000Y-60170000D01*
X104800000Y-60510000D01*
X104790000Y-60740000D01*
X104680000Y-61190000D01*
X104510000Y-61530000D01*
X104300000Y-61820000D01*
X104020000Y-62080000D01*
X103750000Y-62260000D01*
X103450000Y-62390000D01*
X103220000Y-62450000D01*
X103020000Y-62490000D01*
X102800000Y-62500000D01*
X97200000Y-62500000D01*
X96810000Y-62460000D01*
X96490000Y-62370000D01*
X96130000Y-62180000D01*
X95810000Y-61940000D01*
X95660000Y-61780000D01*
X95430000Y-61430000D01*
X95280000Y-61060000D01*
X95210000Y-60660000D01*
X95200000Y-60370000D01*
X95260000Y-60000000D01*
X95400000Y-59630000D01*
X95580000Y-59330000D01*
X95800000Y-59070000D01*
X96060000Y-58860000D01*
X96450000Y-58640000D01*
X96720000Y-58560000D01*
X97210000Y-58500000D01*
X102810000Y-58500000D01*
X103080000Y-58520000D01*
G37*
D10*
X97200000Y-58500000D02*
G75*
G03*
X97200000Y-62500000I0J-2000000D01*
G01*
D12*
X92821428Y-89978571D02*
X93107142Y-89978571D01*
X93250000Y-90050000D01*
X93392857Y-90192857D01*
X93464285Y-90478571D01*
X93464285Y-90978571D01*
X93392857Y-91264285D01*
X93250000Y-91407142D01*
X93107142Y-91478571D01*
X92821428Y-91478571D01*
X92678571Y-91407142D01*
X92535714Y-91264285D01*
X92464285Y-90978571D01*
X92464285Y-90478571D01*
X92535714Y-90192857D01*
X92678571Y-90050000D01*
X92821428Y-89978571D01*
X94107142Y-90478571D02*
X94107142Y-91978571D01*
X94107142Y-90550000D02*
X94250000Y-90478571D01*
X94535714Y-90478571D01*
X94678571Y-90550000D01*
X94750000Y-90621428D01*
X94821428Y-90764285D01*
X94821428Y-91192857D01*
X94750000Y-91335714D01*
X94678571Y-91407142D01*
X94535714Y-91478571D01*
X94250000Y-91478571D01*
X94107142Y-91407142D01*
X96035714Y-91407142D02*
X95892857Y-91478571D01*
X95607142Y-91478571D01*
X95464285Y-91407142D01*
X95392857Y-91264285D01*
X95392857Y-90692857D01*
X95464285Y-90550000D01*
X95607142Y-90478571D01*
X95892857Y-90478571D01*
X96035714Y-90550000D01*
X96107142Y-90692857D01*
X96107142Y-90835714D01*
X95392857Y-90978571D01*
X96750000Y-90478571D02*
X96750000Y-91478571D01*
X96750000Y-90621428D02*
X96821428Y-90550000D01*
X96964285Y-90478571D01*
X97178571Y-90478571D01*
X97321428Y-90550000D01*
X97392857Y-90692857D01*
X97392857Y-91478571D01*
X97892857Y-89978571D02*
X98750000Y-89978571D01*
X98321428Y-91478571D02*
X98321428Y-89978571D01*
X99250000Y-91478571D02*
X99250000Y-89978571D01*
X99892857Y-91478571D02*
X99892857Y-90692857D01*
X99821428Y-90550000D01*
X99678571Y-90478571D01*
X99464285Y-90478571D01*
X99321428Y-90550000D01*
X99250000Y-90621428D01*
X101178571Y-91407142D02*
X101035714Y-91478571D01*
X100750000Y-91478571D01*
X100607142Y-91407142D01*
X100535714Y-91264285D01*
X100535714Y-90692857D01*
X100607142Y-90550000D01*
X100750000Y-90478571D01*
X101035714Y-90478571D01*
X101178571Y-90550000D01*
X101250000Y-90692857D01*
X101250000Y-90835714D01*
X100535714Y-90978571D01*
X101892857Y-91478571D02*
X101892857Y-90478571D01*
X101892857Y-90764285D02*
X101964285Y-90621428D01*
X102035714Y-90550000D01*
X102178571Y-90478571D01*
X102321428Y-90478571D01*
X103392857Y-91407142D02*
X103250000Y-91478571D01*
X102964285Y-91478571D01*
X102821428Y-91407142D01*
X102750000Y-91264285D01*
X102750000Y-90692857D01*
X102821428Y-90550000D01*
X102964285Y-90478571D01*
X103250000Y-90478571D01*
X103392857Y-90550000D01*
X103464285Y-90692857D01*
X103464285Y-90835714D01*
X102750000Y-90978571D01*
X104107142Y-91478571D02*
X104107142Y-90478571D01*
X104107142Y-90621428D02*
X104178571Y-90550000D01*
X104321428Y-90478571D01*
X104535714Y-90478571D01*
X104678571Y-90550000D01*
X104750000Y-90692857D01*
X104750000Y-91478571D01*
X104750000Y-90692857D02*
X104821428Y-90550000D01*
X104964285Y-90478571D01*
X105178571Y-90478571D01*
X105321428Y-90550000D01*
X105392857Y-90692857D01*
X105392857Y-91478571D01*
X106107142Y-91478571D02*
X106107142Y-90478571D01*
X106107142Y-89978571D02*
X106035714Y-90050000D01*
X106107142Y-90121428D01*
X106178571Y-90050000D01*
X106107142Y-89978571D01*
X106107142Y-90121428D01*
X106821428Y-90478571D02*
X106821428Y-91478571D01*
X106821428Y-90621428D02*
X106892857Y-90550000D01*
X107035714Y-90478571D01*
X107250000Y-90478571D01*
X107392857Y-90550000D01*
X107464285Y-90692857D01*
X107464285Y-91478571D01*
X95821428Y-93486857D02*
X96035714Y-93558285D01*
X96107142Y-93629714D01*
X96178571Y-93772571D01*
X96178571Y-93986857D01*
X96107142Y-94129714D01*
X96035714Y-94201142D01*
X95892857Y-94272571D01*
X95321428Y-94272571D01*
X95321428Y-92772571D01*
X95821428Y-92772571D01*
X95964285Y-92844000D01*
X96035714Y-92915428D01*
X96107142Y-93058285D01*
X96107142Y-93201142D01*
X96035714Y-93344000D01*
X95964285Y-93415428D01*
X95821428Y-93486857D01*
X95321428Y-93486857D01*
X96821428Y-94272571D02*
X96821428Y-93272571D01*
X96821428Y-93558285D02*
X96892857Y-93415428D01*
X96964285Y-93344000D01*
X97107142Y-93272571D01*
X97250000Y-93272571D01*
X98321428Y-94201142D02*
X98178571Y-94272571D01*
X97892857Y-94272571D01*
X97750000Y-94201142D01*
X97678571Y-94058285D01*
X97678571Y-93486857D01*
X97750000Y-93344000D01*
X97892857Y-93272571D01*
X98178571Y-93272571D01*
X98321428Y-93344000D01*
X98392857Y-93486857D01*
X98392857Y-93629714D01*
X97678571Y-93772571D01*
X99678571Y-94272571D02*
X99678571Y-93486857D01*
X99607142Y-93344000D01*
X99464285Y-93272571D01*
X99178571Y-93272571D01*
X99035714Y-93344000D01*
X99678571Y-94201142D02*
X99535714Y-94272571D01*
X99178571Y-94272571D01*
X99035714Y-94201142D01*
X98964285Y-94058285D01*
X98964285Y-93915428D01*
X99035714Y-93772571D01*
X99178571Y-93701142D01*
X99535714Y-93701142D01*
X99678571Y-93629714D01*
X100392857Y-94272571D02*
X100392857Y-92772571D01*
X100535714Y-93701142D02*
X100964285Y-94272571D01*
X100964285Y-93272571D02*
X100392857Y-93844000D01*
X101892857Y-92772571D02*
X102178571Y-92772571D01*
X102321428Y-92844000D01*
X102464285Y-92986857D01*
X102535714Y-93272571D01*
X102535714Y-93772571D01*
X102464285Y-94058285D01*
X102321428Y-94201142D01*
X102178571Y-94272571D01*
X101892857Y-94272571D01*
X101750000Y-94201142D01*
X101607142Y-94058285D01*
X101535714Y-93772571D01*
X101535714Y-93272571D01*
X101607142Y-92986857D01*
X101750000Y-92844000D01*
X101892857Y-92772571D01*
X103821428Y-93272571D02*
X103821428Y-94272571D01*
X103178571Y-93272571D02*
X103178571Y-94058285D01*
X103250000Y-94201142D01*
X103392857Y-94272571D01*
X103607142Y-94272571D01*
X103750000Y-94201142D01*
X103821428Y-94129714D01*
X104321428Y-93272571D02*
X104892857Y-93272571D01*
X104535714Y-92772571D02*
X104535714Y-94058285D01*
X104607142Y-94201142D01*
X104750000Y-94272571D01*
X104892857Y-94272571D01*
M02*
