%TF.GenerationSoftware,KiCad,Pcbnew,6.0.11-2627ca5db0~126~ubuntu22.04.1*%
%TF.CreationDate,2024-03-30T06:54:33+01:00*%
%TF.ProjectId,OTBreakOutV1,4f544272-6561-46b4-9f75-7456312e6b69,rev?*%
%TF.SameCoordinates,Original*%
%TF.FileFunction,Soldermask,Bot*%
%TF.FilePolarity,Negative*%
%FSLAX46Y46*%
G04 Gerber Fmt 4.6, Leading zero omitted, Abs format (unit mm)*
G04 Created by KiCad (PCBNEW 6.0.11-2627ca5db0~126~ubuntu22.04.1) date 2024-03-30 06:54:33*
%MOMM*%
%LPD*%
G01*
G04 APERTURE LIST*
G04 Aperture macros list*
%AMRoundRect*
0 Rectangle with rounded corners*
0 $1 Rounding radius*
0 $2 $3 $4 $5 $6 $7 $8 $9 X,Y pos of 4 corners*
0 Add a 4 corners polygon primitive as box body*
4,1,4,$2,$3,$4,$5,$6,$7,$8,$9,$2,$3,0*
0 Add four circle primitives for the rounded corners*
1,1,$1+$1,$2,$3*
1,1,$1+$1,$4,$5*
1,1,$1+$1,$6,$7*
1,1,$1+$1,$8,$9*
0 Add four rect primitives between the rounded corners*
20,1,$1+$1,$2,$3,$4,$5,0*
20,1,$1+$1,$4,$5,$6,$7,0*
20,1,$1+$1,$6,$7,$8,$9,0*
20,1,$1+$1,$8,$9,$2,$3,0*%
%AMHorizOval*
0 Thick line with rounded ends*
0 $1 width*
0 $2 $3 position (X,Y) of the first rounded end (center of the circle)*
0 $4 $5 position (X,Y) of the second rounded end (center of the circle)*
0 Add line between two ends*
20,1,$1,$2,$3,$4,$5,0*
0 Add two circle primitives to create the rounded ends*
1,1,$1,$2,$3*
1,1,$1,$4,$5*%
%AMFreePoly0*
4,1,22,0.500000,-0.750000,0.000000,-0.750000,0.000000,-0.745033,-0.079941,-0.743568,-0.215256,-0.701293,-0.333266,-0.622738,-0.424486,-0.514219,-0.481581,-0.384460,-0.499164,-0.250000,-0.500000,-0.250000,-0.500000,0.250000,-0.499164,0.250000,-0.499963,0.256109,-0.478152,0.396186,-0.417904,0.524511,-0.324060,0.630769,-0.204165,0.706417,-0.067858,0.745374,0.000000,0.744959,0.000000,0.750000,
0.500000,0.750000,0.500000,-0.750000,0.500000,-0.750000,$1*%
%AMFreePoly1*
4,1,20,0.000000,0.744959,0.073905,0.744508,0.209726,0.703889,0.328688,0.626782,0.421226,0.519385,0.479903,0.390333,0.500000,0.250000,0.500000,-0.250000,0.499851,-0.262216,0.476331,-0.402017,0.414519,-0.529596,0.319384,-0.634700,0.198574,-0.708877,0.061801,-0.746166,0.000000,-0.745033,0.000000,-0.750000,-0.500000,-0.750000,-0.500000,0.750000,0.000000,0.750000,0.000000,0.744959,
0.000000,0.744959,$1*%
G04 Aperture macros list end*
%ADD10RoundRect,0.650000X0.650000X0.650000X-0.650000X0.650000X-0.650000X-0.650000X0.650000X-0.650000X0*%
%ADD11RoundRect,0.650000X0.600000X0.400000X-0.600000X0.400000X-0.600000X-0.400000X0.600000X-0.400000X0*%
%ADD12O,2.800000X3.500000*%
%ADD13R,1.900000X1.900000*%
%ADD14C,1.900000*%
%ADD15O,4.500000X2.000000*%
%ADD16O,3.000000X1.800000*%
%ADD17O,1.800000X3.000000*%
%ADD18HorizOval,1.800000X0.424264X-0.424264X-0.424264X0.424264X0*%
%ADD19HorizOval,1.800000X0.424264X0.424264X-0.424264X-0.424264X0*%
%ADD20O,1.700000X1.200000*%
%ADD21O,1.350000X0.950000*%
%ADD22RoundRect,0.650000X-0.650000X0.650000X-0.650000X-0.650000X0.650000X-0.650000X0.650000X0.650000X0*%
%ADD23O,2.100000X3.100000*%
%ADD24FreePoly0,180.000000*%
%ADD25FreePoly1,180.000000*%
%ADD26C,0.990600*%
%ADD27C,0.787400*%
%ADD28R,1.700000X1.700000*%
%ADD29O,1.700000X1.700000*%
G04 APERTURE END LIST*
D10*
%TO.C,J2*%
X100000000Y-98620000D03*
D11*
X100000000Y-95520000D03*
D10*
X100000000Y-106920000D03*
%TD*%
D12*
%TO.C,RV1*%
X95200000Y-144000000D03*
X104800000Y-144000000D03*
D13*
X97500000Y-151000000D03*
D14*
X100000000Y-151000000D03*
X102500000Y-151000000D03*
%TD*%
D15*
%TO.C,J6*%
X100000000Y-69300000D03*
D16*
X103500000Y-75500000D03*
D17*
X100000000Y-79000000D03*
D16*
X96500000Y-75500000D03*
D18*
X102474874Y-77974874D03*
D19*
X97525126Y-77974874D03*
%TD*%
D20*
%TO.C,J8*%
X104100000Y-63570000D03*
D21*
X96225000Y-60500000D03*
D20*
X95900000Y-63570000D03*
D21*
X103775000Y-60500000D03*
D20*
X104100000Y-57430000D03*
X95900000Y-57430000D03*
%TD*%
D10*
%TO.C,J4*%
X95000000Y-112620000D03*
D11*
X95000000Y-109520000D03*
D10*
X95000000Y-120920000D03*
%TD*%
%TO.C,J5*%
X100000000Y-126620000D03*
D11*
X100000000Y-123520000D03*
D10*
X100000000Y-134920000D03*
%TD*%
%TO.C,J3*%
X105000000Y-112620000D03*
D11*
X105000000Y-109520000D03*
D10*
X105000000Y-120920000D03*
%TD*%
D22*
%TO.C,J1*%
X96620000Y-158000000D03*
D23*
X93520000Y-158000000D03*
D22*
X104920000Y-158000000D03*
%TD*%
D24*
%TO.C,JP1*%
X94350000Y-71200000D03*
D25*
X93050000Y-71200000D03*
%TD*%
D26*
%TO.C,J9*%
X106084000Y-73040000D03*
X107100000Y-67960000D03*
X108116000Y-73040000D03*
D27*
X107735000Y-69230000D03*
X106465000Y-69230000D03*
X107735000Y-70500000D03*
X106465000Y-70500000D03*
X107735000Y-71770000D03*
X106465000Y-71770000D03*
%TD*%
D28*
%TO.C,J7*%
X104350000Y-95160000D03*
D29*
X106890000Y-95160000D03*
X104350000Y-92620000D03*
X106890000Y-92620000D03*
X104350000Y-90080000D03*
X106890000Y-90080000D03*
X104350000Y-87540000D03*
X106890000Y-87540000D03*
X104350000Y-85000000D03*
X106890000Y-85000000D03*
%TD*%
M02*
