%TF.GenerationSoftware,KiCad,Pcbnew,6.0.11-2627ca5db0~126~ubuntu22.04.1*%
%TF.CreationDate,2024-03-30T06:54:33+01:00*%
%TF.ProjectId,OTBreakOutV1,4f544272-6561-46b4-9f75-7456312e6b69,rev?*%
%TF.SameCoordinates,Original*%
%TF.FileFunction,Legend,Bot*%
%TF.FilePolarity,Positive*%
%FSLAX46Y46*%
G04 Gerber Fmt 4.6, Leading zero omitted, Abs format (unit mm)*
G04 Created by KiCad (PCBNEW 6.0.11-2627ca5db0~126~ubuntu22.04.1) date 2024-03-30 06:54:33*
%MOMM*%
%LPD*%
G01*
G04 APERTURE LIST*
%ADD10C,0.150000*%
%ADD11C,0.300000*%
%ADD12C,0.120000*%
G04 APERTURE END LIST*
D10*
X109091428Y-100982380D02*
X109424761Y-100506190D01*
X109662857Y-100982380D02*
X109662857Y-99982380D01*
X109281904Y-99982380D01*
X109186666Y-100030000D01*
X109139047Y-100077619D01*
X109091428Y-100172857D01*
X109091428Y-100315714D01*
X109139047Y-100410952D01*
X109186666Y-100458571D01*
X109281904Y-100506190D01*
X109662857Y-100506190D01*
X108662857Y-100458571D02*
X108329523Y-100458571D01*
X108186666Y-100982380D02*
X108662857Y-100982380D01*
X108662857Y-99982380D01*
X108186666Y-99982380D01*
X107758095Y-100982380D02*
X107758095Y-99982380D01*
X107520000Y-99982380D01*
X107377142Y-100030000D01*
X107281904Y-100125238D01*
X107234285Y-100220476D01*
X107186666Y-100410952D01*
X107186666Y-100553809D01*
X107234285Y-100744285D01*
X107281904Y-100839523D01*
X107377142Y-100934761D01*
X107520000Y-100982380D01*
X107758095Y-100982380D01*
X106043809Y-100934761D02*
X105900952Y-100982380D01*
X105662857Y-100982380D01*
X105567619Y-100934761D01*
X105519999Y-100887142D01*
X105472380Y-100791904D01*
X105472380Y-100696666D01*
X105519999Y-100601428D01*
X105567619Y-100553809D01*
X105662857Y-100506190D01*
X105853333Y-100458571D01*
X105948571Y-100410952D01*
X105996190Y-100363333D01*
X106043809Y-100268095D01*
X106043809Y-100172857D01*
X105996190Y-100077619D01*
X105948571Y-100030000D01*
X105853333Y-99982380D01*
X105615238Y-99982380D01*
X105472380Y-100030000D01*
X105186666Y-99982380D02*
X104615238Y-99982380D01*
X104900952Y-100982380D02*
X104900952Y-99982380D01*
X103710476Y-100982380D02*
X104043809Y-100506190D01*
X104281904Y-100982380D02*
X104281904Y-99982380D01*
X103900952Y-99982380D01*
X103805714Y-100030000D01*
X103758095Y-100077619D01*
X103710476Y-100172857D01*
X103710476Y-100315714D01*
X103758095Y-100410952D01*
X103805714Y-100458571D01*
X103900952Y-100506190D01*
X104281904Y-100506190D01*
X103281904Y-100982380D02*
X103281904Y-99982380D01*
X102805714Y-100982380D02*
X102805714Y-99982380D01*
X102424761Y-99982380D01*
X102329523Y-100030000D01*
X102281904Y-100077619D01*
X102234285Y-100172857D01*
X102234285Y-100315714D01*
X102281904Y-100410952D01*
X102329523Y-100458571D01*
X102424761Y-100506190D01*
X102805714Y-100506190D01*
X101805714Y-100458571D02*
X101472380Y-100458571D01*
X101329523Y-100982380D02*
X101805714Y-100982380D01*
X101805714Y-99982380D01*
X101329523Y-99982380D01*
X108142857Y-137776857D02*
X107914285Y-137776857D01*
X107800000Y-137834000D01*
X107685714Y-137948285D01*
X107628571Y-138176857D01*
X107628571Y-138576857D01*
X107685714Y-138805428D01*
X107800000Y-138919714D01*
X107914285Y-138976857D01*
X108142857Y-138976857D01*
X108257142Y-138919714D01*
X108371428Y-138805428D01*
X108428571Y-138576857D01*
X108428571Y-138176857D01*
X108371428Y-137948285D01*
X108257142Y-137834000D01*
X108142857Y-137776857D01*
X107114285Y-138176857D02*
X107114285Y-139376857D01*
X107114285Y-138234000D02*
X107000000Y-138176857D01*
X106771428Y-138176857D01*
X106657142Y-138234000D01*
X106600000Y-138291142D01*
X106542857Y-138405428D01*
X106542857Y-138748285D01*
X106600000Y-138862571D01*
X106657142Y-138919714D01*
X106771428Y-138976857D01*
X107000000Y-138976857D01*
X107114285Y-138919714D01*
X105571428Y-138919714D02*
X105685714Y-138976857D01*
X105914285Y-138976857D01*
X106028571Y-138919714D01*
X106085714Y-138805428D01*
X106085714Y-138348285D01*
X106028571Y-138234000D01*
X105914285Y-138176857D01*
X105685714Y-138176857D01*
X105571428Y-138234000D01*
X105514285Y-138348285D01*
X105514285Y-138462571D01*
X106085714Y-138576857D01*
X105000000Y-138176857D02*
X105000000Y-138976857D01*
X105000000Y-138291142D02*
X104942857Y-138234000D01*
X104828571Y-138176857D01*
X104657142Y-138176857D01*
X104542857Y-138234000D01*
X104485714Y-138348285D01*
X104485714Y-138976857D01*
X104085714Y-137776857D02*
X103400000Y-137776857D01*
X103742857Y-138976857D02*
X103742857Y-137776857D01*
X103000000Y-138976857D02*
X103000000Y-137776857D01*
X102485714Y-138976857D02*
X102485714Y-138348285D01*
X102542857Y-138234000D01*
X102657142Y-138176857D01*
X102828571Y-138176857D01*
X102942857Y-138234000D01*
X103000000Y-138291142D01*
X101457142Y-138919714D02*
X101571428Y-138976857D01*
X101800000Y-138976857D01*
X101914285Y-138919714D01*
X101971428Y-138805428D01*
X101971428Y-138348285D01*
X101914285Y-138234000D01*
X101800000Y-138176857D01*
X101571428Y-138176857D01*
X101457142Y-138234000D01*
X101400000Y-138348285D01*
X101400000Y-138462571D01*
X101971428Y-138576857D01*
X100885714Y-138976857D02*
X100885714Y-138176857D01*
X100885714Y-138405428D02*
X100828571Y-138291142D01*
X100771428Y-138234000D01*
X100657142Y-138176857D01*
X100542857Y-138176857D01*
X99685714Y-138919714D02*
X99800000Y-138976857D01*
X100028571Y-138976857D01*
X100142857Y-138919714D01*
X100200000Y-138805428D01*
X100200000Y-138348285D01*
X100142857Y-138234000D01*
X100028571Y-138176857D01*
X99800000Y-138176857D01*
X99685714Y-138234000D01*
X99628571Y-138348285D01*
X99628571Y-138462571D01*
X100200000Y-138576857D01*
X99114285Y-138976857D02*
X99114285Y-138176857D01*
X99114285Y-138291142D02*
X99057142Y-138234000D01*
X98942857Y-138176857D01*
X98771428Y-138176857D01*
X98657142Y-138234000D01*
X98600000Y-138348285D01*
X98600000Y-138976857D01*
X98600000Y-138348285D02*
X98542857Y-138234000D01*
X98428571Y-138176857D01*
X98257142Y-138176857D01*
X98142857Y-138234000D01*
X98085714Y-138348285D01*
X98085714Y-138976857D01*
X97514285Y-138976857D02*
X97514285Y-138176857D01*
X97514285Y-137776857D02*
X97571428Y-137834000D01*
X97514285Y-137891142D01*
X97457142Y-137834000D01*
X97514285Y-137776857D01*
X97514285Y-137891142D01*
X96942857Y-138176857D02*
X96942857Y-138976857D01*
X96942857Y-138291142D02*
X96885714Y-138234000D01*
X96771428Y-138176857D01*
X96600000Y-138176857D01*
X96485714Y-138234000D01*
X96428571Y-138348285D01*
X96428571Y-138976857D01*
X95114285Y-137776857D02*
X94714285Y-138976857D01*
X94314285Y-137776857D01*
X93285714Y-138976857D02*
X93971428Y-138976857D01*
X93628571Y-138976857D02*
X93628571Y-137776857D01*
X93742857Y-137948285D01*
X93857142Y-138062571D01*
X93971428Y-138119714D01*
X92771428Y-138862571D02*
X92714285Y-138919714D01*
X92771428Y-138976857D01*
X92828571Y-138919714D01*
X92771428Y-138862571D01*
X92771428Y-138976857D01*
X92257142Y-137891142D02*
X92200000Y-137834000D01*
X92085714Y-137776857D01*
X91800000Y-137776857D01*
X91685714Y-137834000D01*
X91628571Y-137891142D01*
X91571428Y-138005428D01*
X91571428Y-138119714D01*
X91628571Y-138291142D01*
X92314285Y-138976857D01*
X91571428Y-138976857D01*
X106400000Y-140280285D02*
X106228571Y-140337428D01*
X106171428Y-140394571D01*
X106114285Y-140508857D01*
X106114285Y-140680285D01*
X106171428Y-140794571D01*
X106228571Y-140851714D01*
X106342857Y-140908857D01*
X106800000Y-140908857D01*
X106800000Y-139708857D01*
X106400000Y-139708857D01*
X106285714Y-139766000D01*
X106228571Y-139823142D01*
X106171428Y-139937428D01*
X106171428Y-140051714D01*
X106228571Y-140166000D01*
X106285714Y-140223142D01*
X106400000Y-140280285D01*
X106800000Y-140280285D01*
X105600000Y-140908857D02*
X105600000Y-140108857D01*
X105600000Y-140337428D02*
X105542857Y-140223142D01*
X105485714Y-140166000D01*
X105371428Y-140108857D01*
X105257142Y-140108857D01*
X104400000Y-140851714D02*
X104514285Y-140908857D01*
X104742857Y-140908857D01*
X104857142Y-140851714D01*
X104914285Y-140737428D01*
X104914285Y-140280285D01*
X104857142Y-140166000D01*
X104742857Y-140108857D01*
X104514285Y-140108857D01*
X104400000Y-140166000D01*
X104342857Y-140280285D01*
X104342857Y-140394571D01*
X104914285Y-140508857D01*
X103314285Y-140908857D02*
X103314285Y-140280285D01*
X103371428Y-140166000D01*
X103485714Y-140108857D01*
X103714285Y-140108857D01*
X103828571Y-140166000D01*
X103314285Y-140851714D02*
X103428571Y-140908857D01*
X103714285Y-140908857D01*
X103828571Y-140851714D01*
X103885714Y-140737428D01*
X103885714Y-140623142D01*
X103828571Y-140508857D01*
X103714285Y-140451714D01*
X103428571Y-140451714D01*
X103314285Y-140394571D01*
X102742857Y-140908857D02*
X102742857Y-139708857D01*
X102628571Y-140451714D02*
X102285714Y-140908857D01*
X102285714Y-140108857D02*
X102742857Y-140566000D01*
X101542857Y-139708857D02*
X101314285Y-139708857D01*
X101200000Y-139766000D01*
X101085714Y-139880285D01*
X101028571Y-140108857D01*
X101028571Y-140508857D01*
X101085714Y-140737428D01*
X101200000Y-140851714D01*
X101314285Y-140908857D01*
X101542857Y-140908857D01*
X101657142Y-140851714D01*
X101771428Y-140737428D01*
X101828571Y-140508857D01*
X101828571Y-140108857D01*
X101771428Y-139880285D01*
X101657142Y-139766000D01*
X101542857Y-139708857D01*
X100000000Y-140108857D02*
X100000000Y-140908857D01*
X100514285Y-140108857D02*
X100514285Y-140737428D01*
X100457142Y-140851714D01*
X100342857Y-140908857D01*
X100171428Y-140908857D01*
X100057142Y-140851714D01*
X100000000Y-140794571D01*
X99600000Y-140108857D02*
X99142857Y-140108857D01*
X99428571Y-139708857D02*
X99428571Y-140737428D01*
X99371428Y-140851714D01*
X99257142Y-140908857D01*
X99142857Y-140908857D01*
X97428571Y-140280285D02*
X97257142Y-140337428D01*
X97200000Y-140394571D01*
X97142857Y-140508857D01*
X97142857Y-140680285D01*
X97200000Y-140794571D01*
X97257142Y-140851714D01*
X97371428Y-140908857D01*
X97828571Y-140908857D01*
X97828571Y-139708857D01*
X97428571Y-139708857D01*
X97314285Y-139766000D01*
X97257142Y-139823142D01*
X97200000Y-139937428D01*
X97200000Y-140051714D01*
X97257142Y-140166000D01*
X97314285Y-140223142D01*
X97428571Y-140280285D01*
X97828571Y-140280285D01*
X96457142Y-140908857D02*
X96571428Y-140851714D01*
X96628571Y-140794571D01*
X96685714Y-140680285D01*
X96685714Y-140337428D01*
X96628571Y-140223142D01*
X96571428Y-140166000D01*
X96457142Y-140108857D01*
X96285714Y-140108857D01*
X96171428Y-140166000D01*
X96114285Y-140223142D01*
X96057142Y-140337428D01*
X96057142Y-140680285D01*
X96114285Y-140794571D01*
X96171428Y-140851714D01*
X96285714Y-140908857D01*
X96457142Y-140908857D01*
X95028571Y-140908857D02*
X95028571Y-140280285D01*
X95085714Y-140166000D01*
X95200000Y-140108857D01*
X95428571Y-140108857D01*
X95542857Y-140166000D01*
X95028571Y-140851714D02*
X95142857Y-140908857D01*
X95428571Y-140908857D01*
X95542857Y-140851714D01*
X95600000Y-140737428D01*
X95600000Y-140623142D01*
X95542857Y-140508857D01*
X95428571Y-140451714D01*
X95142857Y-140451714D01*
X95028571Y-140394571D01*
X94457142Y-140908857D02*
X94457142Y-140108857D01*
X94457142Y-140337428D02*
X94400000Y-140223142D01*
X94342857Y-140166000D01*
X94228571Y-140108857D01*
X94114285Y-140108857D01*
X93200000Y-140908857D02*
X93200000Y-139708857D01*
X93200000Y-140851714D02*
X93314285Y-140908857D01*
X93542857Y-140908857D01*
X93657142Y-140851714D01*
X93714285Y-140794571D01*
X93771428Y-140680285D01*
X93771428Y-140337428D01*
X93714285Y-140223142D01*
X93657142Y-140166000D01*
X93542857Y-140108857D01*
X93314285Y-140108857D01*
X93200000Y-140166000D01*
%TO.C,JP1*%
X94283333Y-68852380D02*
X94283333Y-69566666D01*
X94330952Y-69709523D01*
X94426190Y-69804761D01*
X94569047Y-69852380D01*
X94664285Y-69852380D01*
X93807142Y-69852380D02*
X93807142Y-68852380D01*
X93426190Y-68852380D01*
X93330952Y-68900000D01*
X93283333Y-68947619D01*
X93235714Y-69042857D01*
X93235714Y-69185714D01*
X93283333Y-69280952D01*
X93330952Y-69328571D01*
X93426190Y-69376190D01*
X93807142Y-69376190D01*
X92283333Y-69852380D02*
X92854761Y-69852380D01*
X92569047Y-69852380D02*
X92569047Y-68852380D01*
X92664285Y-68995238D01*
X92759523Y-69090476D01*
X92854761Y-69138095D01*
%TO.C,J9*%
X108333333Y-74302380D02*
X108333333Y-75016666D01*
X108380952Y-75159523D01*
X108476190Y-75254761D01*
X108619047Y-75302380D01*
X108714285Y-75302380D01*
X107809523Y-75302380D02*
X107619047Y-75302380D01*
X107523809Y-75254761D01*
X107476190Y-75207142D01*
X107380952Y-75064285D01*
X107333333Y-74873809D01*
X107333333Y-74492857D01*
X107380952Y-74397619D01*
X107428571Y-74350000D01*
X107523809Y-74302380D01*
X107714285Y-74302380D01*
X107809523Y-74350000D01*
X107857142Y-74397619D01*
X107904761Y-74492857D01*
X107904761Y-74730952D01*
X107857142Y-74826190D01*
X107809523Y-74873809D01*
X107714285Y-74921428D01*
X107523809Y-74921428D01*
X107428571Y-74873809D01*
X107380952Y-74826190D01*
X107333333Y-74730952D01*
%TO.C,J7*%
X108733333Y-79452380D02*
X108733333Y-80166666D01*
X108780952Y-80309523D01*
X108876190Y-80404761D01*
X109019047Y-80452380D01*
X109114285Y-80452380D01*
X108352380Y-79452380D02*
X107685714Y-79452380D01*
X108114285Y-80452380D01*
D11*
%TO.C,X1*%
X96933353Y-87690328D02*
X95917353Y-89214328D01*
X95917353Y-87690328D02*
X96933353Y-89214328D01*
X94538496Y-89214328D02*
X95409353Y-89214328D01*
X94973924Y-89214328D02*
X94973924Y-87690328D01*
X95119067Y-87908042D01*
X95264210Y-88053185D01*
X95409353Y-88125757D01*
D12*
%TO.C,JP1*%
X93000000Y-72200000D02*
X94400000Y-72200000D01*
X92300000Y-70900000D02*
X92300000Y-71500000D01*
X94400000Y-70200000D02*
X93000000Y-70200000D01*
X95100000Y-71500000D02*
X95100000Y-70900000D01*
X92300000Y-71500000D02*
G75*
G03*
X93000000Y-72200000I700000J0D01*
G01*
X93000000Y-70200000D02*
G75*
G03*
X92300000Y-70900000I0J-700000D01*
G01*
X94400000Y-72200000D02*
G75*
G03*
X95100000Y-71500000I1J699999D01*
G01*
X95100000Y-70900000D02*
G75*
G03*
X94400000Y-70200000I-699999J1D01*
G01*
%TO.C,J9*%
X108370000Y-68595000D02*
X107735000Y-68595000D01*
X108370000Y-69230000D02*
X108370000Y-68595000D01*
%TO.C,J7*%
X102150000Y-87880000D02*
X101150000Y-87880000D01*
X101150000Y-92280000D02*
X102150000Y-92280000D01*
D11*
X110150000Y-95160000D02*
X110950000Y-95160000D01*
X100050000Y-95160000D02*
X101050000Y-95160000D01*
D12*
X101120000Y-99080000D02*
X110120000Y-99080000D01*
X110120000Y-99080000D02*
X110120000Y-81080000D01*
X110120000Y-81080000D02*
X101120000Y-81080000D01*
X101120000Y-81080000D02*
X101120000Y-99080000D01*
X102150000Y-98060000D02*
X109050000Y-98060000D01*
X109050000Y-98060000D02*
X109050000Y-82160000D01*
X109050000Y-82160000D02*
X102150000Y-82160000D01*
X102150000Y-82160000D02*
X102150000Y-98060000D01*
%TO.C,X1*%
G36*
X100219188Y-90057779D02*
G01*
X99870976Y-90831492D01*
X99390249Y-91531672D01*
X98797211Y-92139638D01*
X98112070Y-92636709D01*
X97355033Y-93004204D01*
X96546306Y-93223443D01*
X96391675Y-93240544D01*
X96108150Y-93258377D01*
X95784306Y-93269266D01*
X95392724Y-93258017D01*
X94577012Y-93116766D01*
X93798067Y-92828970D01*
X93076524Y-92410418D01*
X92433020Y-91876898D01*
X91888191Y-91244198D01*
X91462673Y-90528106D01*
X91177101Y-89744410D01*
X91144532Y-89602079D01*
X91069130Y-89042409D01*
X91068959Y-89037264D01*
X92162206Y-89037264D01*
X92192390Y-89163589D01*
X92348054Y-89204498D01*
X92387700Y-89206799D01*
X92492031Y-89247845D01*
X92597526Y-89361829D01*
X92725626Y-89576666D01*
X92897767Y-89920271D01*
X93064625Y-90238693D01*
X93502375Y-90878120D01*
X94006009Y-91377589D01*
X94564337Y-91724982D01*
X94992449Y-91883987D01*
X95632107Y-91987194D01*
X96252859Y-91935154D01*
X96838270Y-91736537D01*
X97371907Y-91400014D01*
X97837337Y-90934253D01*
X98218126Y-90347925D01*
X98497842Y-89649701D01*
X98526938Y-89554318D01*
X98591726Y-89389595D01*
X98655295Y-89352632D01*
X98746775Y-89416089D01*
X98869425Y-89512028D01*
X99002395Y-89552939D01*
X99058393Y-89472850D01*
X99037052Y-89290582D01*
X98938002Y-89024958D01*
X98760877Y-88694799D01*
X98652493Y-88528089D01*
X98490982Y-88347434D01*
X98375221Y-88329773D01*
X98301876Y-88475722D01*
X98267613Y-88785895D01*
X98248496Y-89025891D01*
X98098613Y-89663376D01*
X97821898Y-90223883D01*
X97436939Y-90692041D01*
X96962327Y-91052479D01*
X96416648Y-91289825D01*
X95818492Y-91388709D01*
X95186446Y-91333759D01*
X95104359Y-91314656D01*
X94540547Y-91087219D01*
X94048748Y-90713904D01*
X93642006Y-90207063D01*
X93333362Y-89579045D01*
X93219282Y-89222948D01*
X93138620Y-88692233D01*
X93190086Y-88206338D01*
X93202954Y-88145983D01*
X93197744Y-87970986D01*
X93105245Y-87928895D01*
X92938999Y-88018767D01*
X92712552Y-88239656D01*
X92486421Y-88506802D01*
X92259537Y-88820133D01*
X92162206Y-89037264D01*
X91068959Y-89037264D01*
X91048587Y-88422552D01*
X91083036Y-87816104D01*
X91172613Y-87296657D01*
X91301554Y-86882830D01*
X91561171Y-86335438D01*
X94136128Y-86335438D01*
X94136262Y-86377823D01*
X94151859Y-86672521D01*
X94202022Y-86851218D01*
X94299066Y-86961211D01*
X94313523Y-86971791D01*
X94461161Y-87062420D01*
X94578967Y-87055436D01*
X94749467Y-86948511D01*
X94774278Y-86930290D01*
X94876374Y-86814651D01*
X94902573Y-86720177D01*
X96303993Y-86720177D01*
X96379951Y-87001388D01*
X96403761Y-87038176D01*
X96575366Y-87147052D01*
X96789951Y-87147596D01*
X96971971Y-87035459D01*
X97004758Y-86985326D01*
X97080633Y-86745641D01*
X97113525Y-86435433D01*
X97099494Y-86126703D01*
X97034598Y-85891455D01*
X96912228Y-85743451D01*
X96732923Y-85651703D01*
X96650380Y-85649492D01*
X96527310Y-85721664D01*
X96417543Y-85925061D01*
X96389505Y-85998561D01*
X96311102Y-86348277D01*
X96308010Y-86362071D01*
X96303993Y-86720177D01*
X94902573Y-86720177D01*
X94925158Y-86638732D01*
X94937639Y-86348277D01*
X94930405Y-86119898D01*
X94873086Y-85794891D01*
X94753144Y-85610135D01*
X94564027Y-85551656D01*
X94429854Y-85569381D01*
X94260945Y-85690863D01*
X94165900Y-85940970D01*
X94136128Y-86335438D01*
X91561171Y-86335438D01*
X91662572Y-86121639D01*
X92148382Y-85447176D01*
X92740040Y-84871297D01*
X93418602Y-84405858D01*
X94165124Y-84062714D01*
X94960661Y-83853721D01*
X95786271Y-83790735D01*
X96623008Y-83885612D01*
X96649605Y-83891335D01*
X97530335Y-84163944D01*
X98317634Y-84572905D01*
X99001181Y-85108488D01*
X99570654Y-85760960D01*
X99965840Y-86435433D01*
X100015734Y-86520588D01*
X100326100Y-87377639D01*
X100387097Y-87698222D01*
X100429519Y-88207266D01*
X100431414Y-88761912D01*
X100393100Y-89295010D01*
X100361804Y-89472850D01*
X100314896Y-89739411D01*
X100219188Y-90057779D01*
G37*
%TD*%
M02*
