%TF.GenerationSoftware,KiCad,Pcbnew,6.0.11-2627ca5db0~126~ubuntu22.04.1*%
%TF.CreationDate,2024-03-30T06:54:33+01:00*%
%TF.ProjectId,OTBreakOutV1,4f544272-6561-46b4-9f75-7456312e6b69,rev?*%
%TF.SameCoordinates,Original*%
%TF.FileFunction,Legend,Top*%
%TF.FilePolarity,Positive*%
%FSLAX46Y46*%
G04 Gerber Fmt 4.6, Leading zero omitted, Abs format (unit mm)*
G04 Created by KiCad (PCBNEW 6.0.11-2627ca5db0~126~ubuntu22.04.1) date 2024-03-30 06:54:33*
%MOMM*%
%LPD*%
G01*
G04 APERTURE LIST*
%ADD10C,0.150000*%
%ADD11C,0.120000*%
%ADD12C,0.100000*%
%ADD13C,0.200000*%
G04 APERTURE END LIST*
D10*
X92247619Y-130785714D02*
X92247619Y-130976190D01*
X92200000Y-131071428D01*
X92104761Y-131166666D01*
X91914285Y-131214285D01*
X91580952Y-131214285D01*
X91390476Y-131166666D01*
X91295238Y-131071428D01*
X91247619Y-130976190D01*
X91247619Y-130785714D01*
X91295238Y-130690476D01*
X91390476Y-130595238D01*
X91580952Y-130547619D01*
X91914285Y-130547619D01*
X92104761Y-130595238D01*
X92200000Y-130690476D01*
X92247619Y-130785714D01*
X92247619Y-131500000D02*
X92247619Y-132071428D01*
X91247619Y-131785714D02*
X92247619Y-131785714D01*
X91771428Y-133500000D02*
X91723809Y-133642857D01*
X91676190Y-133690476D01*
X91580952Y-133738095D01*
X91438095Y-133738095D01*
X91342857Y-133690476D01*
X91295238Y-133642857D01*
X91247619Y-133547619D01*
X91247619Y-133166666D01*
X92247619Y-133166666D01*
X92247619Y-133500000D01*
X92200000Y-133595238D01*
X92152380Y-133642857D01*
X92057142Y-133690476D01*
X91961904Y-133690476D01*
X91866666Y-133642857D01*
X91819047Y-133595238D01*
X91771428Y-133500000D01*
X91771428Y-133166666D01*
X91247619Y-134166666D02*
X91914285Y-134166666D01*
X91723809Y-134166666D02*
X91819047Y-134214285D01*
X91866666Y-134261904D01*
X91914285Y-134357142D01*
X91914285Y-134452380D01*
X91295238Y-135166666D02*
X91247619Y-135071428D01*
X91247619Y-134880952D01*
X91295238Y-134785714D01*
X91390476Y-134738095D01*
X91771428Y-134738095D01*
X91866666Y-134785714D01*
X91914285Y-134880952D01*
X91914285Y-135071428D01*
X91866666Y-135166666D01*
X91771428Y-135214285D01*
X91676190Y-135214285D01*
X91580952Y-134738095D01*
X91247619Y-136071428D02*
X91771428Y-136071428D01*
X91866666Y-136023809D01*
X91914285Y-135928571D01*
X91914285Y-135738095D01*
X91866666Y-135642857D01*
X91295238Y-136071428D02*
X91247619Y-135976190D01*
X91247619Y-135738095D01*
X91295238Y-135642857D01*
X91390476Y-135595238D01*
X91485714Y-135595238D01*
X91580952Y-135642857D01*
X91628571Y-135738095D01*
X91628571Y-135976190D01*
X91676190Y-136071428D01*
X91247619Y-136547619D02*
X92247619Y-136547619D01*
X91628571Y-136642857D02*
X91247619Y-136928571D01*
X91914285Y-136928571D02*
X91533333Y-136547619D01*
X92247619Y-137547619D02*
X92247619Y-137738095D01*
X92200000Y-137833333D01*
X92104761Y-137928571D01*
X91914285Y-137976190D01*
X91580952Y-137976190D01*
X91390476Y-137928571D01*
X91295238Y-137833333D01*
X91247619Y-137738095D01*
X91247619Y-137547619D01*
X91295238Y-137452380D01*
X91390476Y-137357142D01*
X91580952Y-137309523D01*
X91914285Y-137309523D01*
X92104761Y-137357142D01*
X92200000Y-137452380D01*
X92247619Y-137547619D01*
X91914285Y-138833333D02*
X91247619Y-138833333D01*
X91914285Y-138404761D02*
X91390476Y-138404761D01*
X91295238Y-138452380D01*
X91247619Y-138547619D01*
X91247619Y-138690476D01*
X91295238Y-138785714D01*
X91342857Y-138833333D01*
X91914285Y-139166666D02*
X91914285Y-139547619D01*
X92247619Y-139309523D02*
X91390476Y-139309523D01*
X91295238Y-139357142D01*
X91247619Y-139452380D01*
X91247619Y-139547619D01*
X92247619Y-140500000D02*
X91247619Y-140833333D01*
X92247619Y-141166666D01*
X91247619Y-142023809D02*
X91247619Y-141452380D01*
X91247619Y-141738095D02*
X92247619Y-141738095D01*
X92104761Y-141642857D01*
X92009523Y-141547619D01*
X91961904Y-141452380D01*
X91342857Y-142452380D02*
X91295238Y-142500000D01*
X91247619Y-142452380D01*
X91295238Y-142404761D01*
X91342857Y-142452380D01*
X91247619Y-142452380D01*
X92152380Y-142880952D02*
X92200000Y-142928571D01*
X92247619Y-143023809D01*
X92247619Y-143261904D01*
X92200000Y-143357142D01*
X92152380Y-143404761D01*
X92057142Y-143452380D01*
X91961904Y-143452380D01*
X91819047Y-143404761D01*
X91247619Y-142833333D01*
X91247619Y-143452380D01*
X107685714Y-143300000D02*
X108495238Y-143300000D01*
X108590476Y-143347619D01*
X108638095Y-143395238D01*
X108685714Y-143490476D01*
X108685714Y-143633333D01*
X108638095Y-143728571D01*
X108304761Y-143300000D02*
X108352380Y-143395238D01*
X108352380Y-143585714D01*
X108304761Y-143680952D01*
X108257142Y-143728571D01*
X108161904Y-143776190D01*
X107876190Y-143776190D01*
X107780952Y-143728571D01*
X107733333Y-143680952D01*
X107685714Y-143585714D01*
X107685714Y-143395238D01*
X107733333Y-143300000D01*
X108352380Y-142395238D02*
X107828571Y-142395238D01*
X107733333Y-142442857D01*
X107685714Y-142538095D01*
X107685714Y-142728571D01*
X107733333Y-142823809D01*
X108304761Y-142395238D02*
X108352380Y-142490476D01*
X108352380Y-142728571D01*
X108304761Y-142823809D01*
X108209523Y-142871428D01*
X108114285Y-142871428D01*
X108019047Y-142823809D01*
X107971428Y-142728571D01*
X107971428Y-142490476D01*
X107923809Y-142395238D01*
X107685714Y-141490476D02*
X108352380Y-141490476D01*
X107685714Y-141919047D02*
X108209523Y-141919047D01*
X108304761Y-141871428D01*
X108352380Y-141776190D01*
X108352380Y-141633333D01*
X108304761Y-141538095D01*
X108257142Y-141490476D01*
X108352380Y-140585714D02*
X107352380Y-140585714D01*
X108304761Y-140585714D02*
X108352380Y-140680952D01*
X108352380Y-140871428D01*
X108304761Y-140966666D01*
X108257142Y-141014285D01*
X108161904Y-141061904D01*
X107876190Y-141061904D01*
X107780952Y-141014285D01*
X107733333Y-140966666D01*
X107685714Y-140871428D01*
X107685714Y-140680952D01*
X107733333Y-140585714D01*
X108352380Y-140109523D02*
X107685714Y-140109523D01*
X107352380Y-140109523D02*
X107400000Y-140157142D01*
X107447619Y-140109523D01*
X107400000Y-140061904D01*
X107352380Y-140109523D01*
X107447619Y-140109523D01*
X108257142Y-139633333D02*
X108304761Y-139585714D01*
X108352380Y-139633333D01*
X108304761Y-139680952D01*
X108257142Y-139633333D01*
X108352380Y-139633333D01*
X108304761Y-138728571D02*
X108352380Y-138823809D01*
X108352380Y-139014285D01*
X108304761Y-139109523D01*
X108257142Y-139157142D01*
X108161904Y-139204761D01*
X107876190Y-139204761D01*
X107780952Y-139157142D01*
X107733333Y-139109523D01*
X107685714Y-139014285D01*
X107685714Y-138823809D01*
X107733333Y-138728571D01*
X108352380Y-138300000D02*
X107352380Y-138300000D01*
X108352380Y-137871428D02*
X107828571Y-137871428D01*
X107733333Y-137919047D01*
X107685714Y-138014285D01*
X107685714Y-138157142D01*
X107733333Y-138252380D01*
X107780952Y-138300000D01*
D11*
%TO.C,U1*%
X96690476Y-65261904D02*
X96690476Y-65909523D01*
X96728571Y-65985714D01*
X96766666Y-66023809D01*
X96842857Y-66061904D01*
X96995238Y-66061904D01*
X97071428Y-66023809D01*
X97109523Y-65985714D01*
X97147619Y-65909523D01*
X97147619Y-65261904D01*
X97947619Y-66061904D02*
X97490476Y-66061904D01*
X97719047Y-66061904D02*
X97719047Y-65261904D01*
X97642857Y-65376190D01*
X97566666Y-65452380D01*
X97490476Y-65490476D01*
%TO.C,C11*%
X102085714Y-72085714D02*
X102047619Y-72123809D01*
X101933333Y-72161904D01*
X101857142Y-72161904D01*
X101742857Y-72123809D01*
X101666666Y-72047619D01*
X101628571Y-71971428D01*
X101590476Y-71819047D01*
X101590476Y-71704761D01*
X101628571Y-71552380D01*
X101666666Y-71476190D01*
X101742857Y-71400000D01*
X101857142Y-71361904D01*
X101933333Y-71361904D01*
X102047619Y-71400000D01*
X102085714Y-71438095D01*
X102847619Y-72161904D02*
X102390476Y-72161904D01*
X102619047Y-72161904D02*
X102619047Y-71361904D01*
X102542857Y-71476190D01*
X102466666Y-71552380D01*
X102390476Y-71590476D01*
X103609523Y-72161904D02*
X103152380Y-72161904D01*
X103380952Y-72161904D02*
X103380952Y-71361904D01*
X103304761Y-71476190D01*
X103228571Y-71552380D01*
X103152380Y-71590476D01*
%TO.C,R1*%
X109611904Y-63633333D02*
X109230952Y-63900000D01*
X109611904Y-64090476D02*
X108811904Y-64090476D01*
X108811904Y-63785714D01*
X108850000Y-63709523D01*
X108888095Y-63671428D01*
X108964285Y-63633333D01*
X109078571Y-63633333D01*
X109154761Y-63671428D01*
X109192857Y-63709523D01*
X109230952Y-63785714D01*
X109230952Y-64090476D01*
X109611904Y-62871428D02*
X109611904Y-63328571D01*
X109611904Y-63100000D02*
X108811904Y-63100000D01*
X108926190Y-63176190D01*
X109002380Y-63252380D01*
X109040476Y-63328571D01*
D10*
%TO.C,J2*%
X102066666Y-108652380D02*
X102066666Y-109366666D01*
X102019047Y-109509523D01*
X101923809Y-109604761D01*
X101780952Y-109652380D01*
X101685714Y-109652380D01*
X102495238Y-108747619D02*
X102542857Y-108700000D01*
X102638095Y-108652380D01*
X102876190Y-108652380D01*
X102971428Y-108700000D01*
X103019047Y-108747619D01*
X103066666Y-108842857D01*
X103066666Y-108938095D01*
X103019047Y-109080952D01*
X102447619Y-109652380D01*
X103066666Y-109652380D01*
D11*
%TO.C,J10*%
X93652380Y-82661904D02*
X93652380Y-83233333D01*
X93614285Y-83347619D01*
X93538095Y-83423809D01*
X93423809Y-83461904D01*
X93347619Y-83461904D01*
X94452380Y-83461904D02*
X93995238Y-83461904D01*
X94223809Y-83461904D02*
X94223809Y-82661904D01*
X94147619Y-82776190D01*
X94071428Y-82852380D01*
X93995238Y-82890476D01*
X94947619Y-82661904D02*
X95023809Y-82661904D01*
X95100000Y-82700000D01*
X95138095Y-82738095D01*
X95176190Y-82814285D01*
X95214285Y-82966666D01*
X95214285Y-83157142D01*
X95176190Y-83309523D01*
X95138095Y-83385714D01*
X95100000Y-83423809D01*
X95023809Y-83461904D01*
X94947619Y-83461904D01*
X94871428Y-83423809D01*
X94833333Y-83385714D01*
X94795238Y-83309523D01*
X94757142Y-83157142D01*
X94757142Y-82966666D01*
X94795238Y-82814285D01*
X94833333Y-82738095D01*
X94871428Y-82700000D01*
X94947619Y-82661904D01*
%TO.C,RV1*%
X104806809Y-151999904D02*
X104540142Y-151618952D01*
X104349666Y-151999904D02*
X104349666Y-151199904D01*
X104654428Y-151199904D01*
X104730619Y-151238000D01*
X104768714Y-151276095D01*
X104806809Y-151352285D01*
X104806809Y-151466571D01*
X104768714Y-151542761D01*
X104730619Y-151580857D01*
X104654428Y-151618952D01*
X104349666Y-151618952D01*
X105035380Y-151199904D02*
X105302047Y-151999904D01*
X105568714Y-151199904D01*
X106254428Y-151999904D02*
X105797285Y-151999904D01*
X106025857Y-151999904D02*
X106025857Y-151199904D01*
X105949666Y-151314190D01*
X105873476Y-151390380D01*
X105797285Y-151428476D01*
%TO.C,C8*%
X91941666Y-156368714D02*
X91903571Y-156406809D01*
X91789285Y-156444904D01*
X91713095Y-156444904D01*
X91598809Y-156406809D01*
X91522619Y-156330619D01*
X91484523Y-156254428D01*
X91446428Y-156102047D01*
X91446428Y-155987761D01*
X91484523Y-155835380D01*
X91522619Y-155759190D01*
X91598809Y-155683000D01*
X91713095Y-155644904D01*
X91789285Y-155644904D01*
X91903571Y-155683000D01*
X91941666Y-155721095D01*
X92398809Y-155987761D02*
X92322619Y-155949666D01*
X92284523Y-155911571D01*
X92246428Y-155835380D01*
X92246428Y-155797285D01*
X92284523Y-155721095D01*
X92322619Y-155683000D01*
X92398809Y-155644904D01*
X92551190Y-155644904D01*
X92627380Y-155683000D01*
X92665476Y-155721095D01*
X92703571Y-155797285D01*
X92703571Y-155835380D01*
X92665476Y-155911571D01*
X92627380Y-155949666D01*
X92551190Y-155987761D01*
X92398809Y-155987761D01*
X92322619Y-156025857D01*
X92284523Y-156063952D01*
X92246428Y-156140142D01*
X92246428Y-156292523D01*
X92284523Y-156368714D01*
X92322619Y-156406809D01*
X92398809Y-156444904D01*
X92551190Y-156444904D01*
X92627380Y-156406809D01*
X92665476Y-156368714D01*
X92703571Y-156292523D01*
X92703571Y-156140142D01*
X92665476Y-156063952D01*
X92627380Y-156025857D01*
X92551190Y-155987761D01*
%TO.C,C2*%
X91066666Y-57585714D02*
X91028571Y-57623809D01*
X90914285Y-57661904D01*
X90838095Y-57661904D01*
X90723809Y-57623809D01*
X90647619Y-57547619D01*
X90609523Y-57471428D01*
X90571428Y-57319047D01*
X90571428Y-57204761D01*
X90609523Y-57052380D01*
X90647619Y-56976190D01*
X90723809Y-56900000D01*
X90838095Y-56861904D01*
X90914285Y-56861904D01*
X91028571Y-56900000D01*
X91066666Y-56938095D01*
X91371428Y-56938095D02*
X91409523Y-56900000D01*
X91485714Y-56861904D01*
X91676190Y-56861904D01*
X91752380Y-56900000D01*
X91790476Y-56938095D01*
X91828571Y-57014285D01*
X91828571Y-57090476D01*
X91790476Y-57204761D01*
X91333333Y-57661904D01*
X91828571Y-57661904D01*
%TO.C,C3*%
X109665714Y-61623333D02*
X109703809Y-61661428D01*
X109741904Y-61775714D01*
X109741904Y-61851904D01*
X109703809Y-61966190D01*
X109627619Y-62042380D01*
X109551428Y-62080476D01*
X109399047Y-62118571D01*
X109284761Y-62118571D01*
X109132380Y-62080476D01*
X109056190Y-62042380D01*
X108980000Y-61966190D01*
X108941904Y-61851904D01*
X108941904Y-61775714D01*
X108980000Y-61661428D01*
X109018095Y-61623333D01*
X108941904Y-61356666D02*
X108941904Y-60861428D01*
X109246666Y-61128095D01*
X109246666Y-61013809D01*
X109284761Y-60937619D01*
X109322857Y-60899523D01*
X109399047Y-60861428D01*
X109589523Y-60861428D01*
X109665714Y-60899523D01*
X109703809Y-60937619D01*
X109741904Y-61013809D01*
X109741904Y-61242380D01*
X109703809Y-61318571D01*
X109665714Y-61356666D01*
%TO.C,C4*%
X109685714Y-109733333D02*
X109723809Y-109771428D01*
X109761904Y-109885714D01*
X109761904Y-109961904D01*
X109723809Y-110076190D01*
X109647619Y-110152380D01*
X109571428Y-110190476D01*
X109419047Y-110228571D01*
X109304761Y-110228571D01*
X109152380Y-110190476D01*
X109076190Y-110152380D01*
X109000000Y-110076190D01*
X108961904Y-109961904D01*
X108961904Y-109885714D01*
X109000000Y-109771428D01*
X109038095Y-109733333D01*
X109228571Y-109047619D02*
X109761904Y-109047619D01*
X108923809Y-109238095D02*
X109495238Y-109428571D01*
X109495238Y-108933333D01*
D10*
%TO.C,J6*%
X107766666Y-79452380D02*
X107766666Y-80166666D01*
X107719047Y-80309523D01*
X107623809Y-80404761D01*
X107480952Y-80452380D01*
X107385714Y-80452380D01*
X108671428Y-79452380D02*
X108480952Y-79452380D01*
X108385714Y-79500000D01*
X108338095Y-79547619D01*
X108242857Y-79690476D01*
X108195238Y-79880952D01*
X108195238Y-80261904D01*
X108242857Y-80357142D01*
X108290476Y-80404761D01*
X108385714Y-80452380D01*
X108576190Y-80452380D01*
X108671428Y-80404761D01*
X108719047Y-80357142D01*
X108766666Y-80261904D01*
X108766666Y-80023809D01*
X108719047Y-79928571D01*
X108671428Y-79880952D01*
X108576190Y-79833333D01*
X108385714Y-79833333D01*
X108290476Y-79880952D01*
X108242857Y-79928571D01*
X108195238Y-80023809D01*
D11*
%TO.C,C9*%
X92957666Y-163099714D02*
X92919571Y-163137809D01*
X92805285Y-163175904D01*
X92729095Y-163175904D01*
X92614809Y-163137809D01*
X92538619Y-163061619D01*
X92500523Y-162985428D01*
X92462428Y-162833047D01*
X92462428Y-162718761D01*
X92500523Y-162566380D01*
X92538619Y-162490190D01*
X92614809Y-162414000D01*
X92729095Y-162375904D01*
X92805285Y-162375904D01*
X92919571Y-162414000D01*
X92957666Y-162452095D01*
X93338619Y-163175904D02*
X93491000Y-163175904D01*
X93567190Y-163137809D01*
X93605285Y-163099714D01*
X93681476Y-162985428D01*
X93719571Y-162833047D01*
X93719571Y-162528285D01*
X93681476Y-162452095D01*
X93643380Y-162414000D01*
X93567190Y-162375904D01*
X93414809Y-162375904D01*
X93338619Y-162414000D01*
X93300523Y-162452095D01*
X93262428Y-162528285D01*
X93262428Y-162718761D01*
X93300523Y-162794952D01*
X93338619Y-162833047D01*
X93414809Y-162871142D01*
X93567190Y-162871142D01*
X93643380Y-162833047D01*
X93681476Y-162794952D01*
X93719571Y-162718761D01*
D10*
%TO.C,J8*%
X100766666Y-63802380D02*
X100766666Y-64516666D01*
X100719047Y-64659523D01*
X100623809Y-64754761D01*
X100480952Y-64802380D01*
X100385714Y-64802380D01*
X101385714Y-64230952D02*
X101290476Y-64183333D01*
X101242857Y-64135714D01*
X101195238Y-64040476D01*
X101195238Y-63992857D01*
X101242857Y-63897619D01*
X101290476Y-63850000D01*
X101385714Y-63802380D01*
X101576190Y-63802380D01*
X101671428Y-63850000D01*
X101719047Y-63897619D01*
X101766666Y-63992857D01*
X101766666Y-64040476D01*
X101719047Y-64135714D01*
X101671428Y-64183333D01*
X101576190Y-64230952D01*
X101385714Y-64230952D01*
X101290476Y-64278571D01*
X101242857Y-64326190D01*
X101195238Y-64421428D01*
X101195238Y-64611904D01*
X101242857Y-64707142D01*
X101290476Y-64754761D01*
X101385714Y-64802380D01*
X101576190Y-64802380D01*
X101671428Y-64754761D01*
X101719047Y-64707142D01*
X101766666Y-64611904D01*
X101766666Y-64421428D01*
X101719047Y-64326190D01*
X101671428Y-64278571D01*
X101576190Y-64230952D01*
%TO.C,J4*%
X91466666Y-122652380D02*
X91466666Y-123366666D01*
X91419047Y-123509523D01*
X91323809Y-123604761D01*
X91180952Y-123652380D01*
X91085714Y-123652380D01*
X92371428Y-122985714D02*
X92371428Y-123652380D01*
X92133333Y-122604761D02*
X91895238Y-123319047D01*
X92514285Y-123319047D01*
D11*
%TO.C,D2*%
X105409523Y-100461904D02*
X105409523Y-99661904D01*
X105600000Y-99661904D01*
X105714285Y-99700000D01*
X105790476Y-99776190D01*
X105828571Y-99852380D01*
X105866666Y-100004761D01*
X105866666Y-100119047D01*
X105828571Y-100271428D01*
X105790476Y-100347619D01*
X105714285Y-100423809D01*
X105600000Y-100461904D01*
X105409523Y-100461904D01*
X106171428Y-99738095D02*
X106209523Y-99700000D01*
X106285714Y-99661904D01*
X106476190Y-99661904D01*
X106552380Y-99700000D01*
X106590476Y-99738095D01*
X106628571Y-99814285D01*
X106628571Y-99890476D01*
X106590476Y-100004761D01*
X106133333Y-100461904D01*
X106628571Y-100461904D01*
%TO.C,R10*%
X93521904Y-145254285D02*
X93140952Y-145520952D01*
X93521904Y-145711428D02*
X92721904Y-145711428D01*
X92721904Y-145406666D01*
X92760000Y-145330476D01*
X92798095Y-145292380D01*
X92874285Y-145254285D01*
X92988571Y-145254285D01*
X93064761Y-145292380D01*
X93102857Y-145330476D01*
X93140952Y-145406666D01*
X93140952Y-145711428D01*
X93521904Y-144492380D02*
X93521904Y-144949523D01*
X93521904Y-144720952D02*
X92721904Y-144720952D01*
X92836190Y-144797142D01*
X92912380Y-144873333D01*
X92950476Y-144949523D01*
X92721904Y-143997142D02*
X92721904Y-143920952D01*
X92760000Y-143844761D01*
X92798095Y-143806666D01*
X92874285Y-143768571D01*
X93026666Y-143730476D01*
X93217142Y-143730476D01*
X93369523Y-143768571D01*
X93445714Y-143806666D01*
X93483809Y-143844761D01*
X93521904Y-143920952D01*
X93521904Y-143997142D01*
X93483809Y-144073333D01*
X93445714Y-144111428D01*
X93369523Y-144149523D01*
X93217142Y-144187619D01*
X93026666Y-144187619D01*
X92874285Y-144149523D01*
X92798095Y-144111428D01*
X92760000Y-144073333D01*
X92721904Y-143997142D01*
%TO.C,U2*%
X105420476Y-101451904D02*
X105420476Y-102099523D01*
X105458571Y-102175714D01*
X105496666Y-102213809D01*
X105572857Y-102251904D01*
X105725238Y-102251904D01*
X105801428Y-102213809D01*
X105839523Y-102175714D01*
X105877619Y-102099523D01*
X105877619Y-101451904D01*
X106220476Y-101528095D02*
X106258571Y-101490000D01*
X106334761Y-101451904D01*
X106525238Y-101451904D01*
X106601428Y-101490000D01*
X106639523Y-101528095D01*
X106677619Y-101604285D01*
X106677619Y-101680476D01*
X106639523Y-101794761D01*
X106182380Y-102251904D01*
X106677619Y-102251904D01*
%TO.C,C5*%
X91266666Y-107585714D02*
X91228571Y-107623809D01*
X91114285Y-107661904D01*
X91038095Y-107661904D01*
X90923809Y-107623809D01*
X90847619Y-107547619D01*
X90809523Y-107471428D01*
X90771428Y-107319047D01*
X90771428Y-107204761D01*
X90809523Y-107052380D01*
X90847619Y-106976190D01*
X90923809Y-106900000D01*
X91038095Y-106861904D01*
X91114285Y-106861904D01*
X91228571Y-106900000D01*
X91266666Y-106938095D01*
X91990476Y-106861904D02*
X91609523Y-106861904D01*
X91571428Y-107242857D01*
X91609523Y-107204761D01*
X91685714Y-107166666D01*
X91876190Y-107166666D01*
X91952380Y-107204761D01*
X91990476Y-107242857D01*
X92028571Y-107319047D01*
X92028571Y-107509523D01*
X91990476Y-107585714D01*
X91952380Y-107623809D01*
X91876190Y-107661904D01*
X91685714Y-107661904D01*
X91609523Y-107623809D01*
X91571428Y-107585714D01*
%TO.C,R12*%
X109711904Y-58384285D02*
X109330952Y-58650952D01*
X109711904Y-58841428D02*
X108911904Y-58841428D01*
X108911904Y-58536666D01*
X108950000Y-58460476D01*
X108988095Y-58422380D01*
X109064285Y-58384285D01*
X109178571Y-58384285D01*
X109254761Y-58422380D01*
X109292857Y-58460476D01*
X109330952Y-58536666D01*
X109330952Y-58841428D01*
X109711904Y-57622380D02*
X109711904Y-58079523D01*
X109711904Y-57850952D02*
X108911904Y-57850952D01*
X109026190Y-57927142D01*
X109102380Y-58003333D01*
X109140476Y-58079523D01*
X108988095Y-57317619D02*
X108950000Y-57279523D01*
X108911904Y-57203333D01*
X108911904Y-57012857D01*
X108950000Y-56936666D01*
X108988095Y-56898571D01*
X109064285Y-56860476D01*
X109140476Y-56860476D01*
X109254761Y-56898571D01*
X109711904Y-57355714D01*
X109711904Y-56860476D01*
%TO.C,R7*%
X106292666Y-147554904D02*
X106026000Y-147173952D01*
X105835523Y-147554904D02*
X105835523Y-146754904D01*
X106140285Y-146754904D01*
X106216476Y-146793000D01*
X106254571Y-146831095D01*
X106292666Y-146907285D01*
X106292666Y-147021571D01*
X106254571Y-147097761D01*
X106216476Y-147135857D01*
X106140285Y-147173952D01*
X105835523Y-147173952D01*
X106559333Y-146754904D02*
X107092666Y-146754904D01*
X106749809Y-147554904D01*
%TO.C,C7*%
X92966666Y-107585714D02*
X92928571Y-107623809D01*
X92814285Y-107661904D01*
X92738095Y-107661904D01*
X92623809Y-107623809D01*
X92547619Y-107547619D01*
X92509523Y-107471428D01*
X92471428Y-107319047D01*
X92471428Y-107204761D01*
X92509523Y-107052380D01*
X92547619Y-106976190D01*
X92623809Y-106900000D01*
X92738095Y-106861904D01*
X92814285Y-106861904D01*
X92928571Y-106900000D01*
X92966666Y-106938095D01*
X93233333Y-106861904D02*
X93766666Y-106861904D01*
X93423809Y-107661904D01*
%TO.C,R2*%
X109611904Y-65293333D02*
X109230952Y-65560000D01*
X109611904Y-65750476D02*
X108811904Y-65750476D01*
X108811904Y-65445714D01*
X108850000Y-65369523D01*
X108888095Y-65331428D01*
X108964285Y-65293333D01*
X109078571Y-65293333D01*
X109154761Y-65331428D01*
X109192857Y-65369523D01*
X109230952Y-65445714D01*
X109230952Y-65750476D01*
X108888095Y-64988571D02*
X108850000Y-64950476D01*
X108811904Y-64874285D01*
X108811904Y-64683809D01*
X108850000Y-64607619D01*
X108888095Y-64569523D01*
X108964285Y-64531428D01*
X109040476Y-64531428D01*
X109154761Y-64569523D01*
X109611904Y-65026666D01*
X109611904Y-64531428D01*
D10*
%TO.C,J5*%
X102966666Y-136752380D02*
X102966666Y-137466666D01*
X102919047Y-137609523D01*
X102823809Y-137704761D01*
X102680952Y-137752380D01*
X102585714Y-137752380D01*
X103919047Y-136752380D02*
X103442857Y-136752380D01*
X103395238Y-137228571D01*
X103442857Y-137180952D01*
X103538095Y-137133333D01*
X103776190Y-137133333D01*
X103871428Y-137180952D01*
X103919047Y-137228571D01*
X103966666Y-137323809D01*
X103966666Y-137561904D01*
X103919047Y-137657142D01*
X103871428Y-137704761D01*
X103776190Y-137752380D01*
X103538095Y-137752380D01*
X103442857Y-137704761D01*
X103395238Y-137657142D01*
D11*
%TO.C,U3*%
X94790476Y-152061904D02*
X94790476Y-152709523D01*
X94828571Y-152785714D01*
X94866666Y-152823809D01*
X94942857Y-152861904D01*
X95095238Y-152861904D01*
X95171428Y-152823809D01*
X95209523Y-152785714D01*
X95247619Y-152709523D01*
X95247619Y-152061904D01*
X95552380Y-152061904D02*
X96047619Y-152061904D01*
X95780952Y-152366666D01*
X95895238Y-152366666D01*
X95971428Y-152404761D01*
X96009523Y-152442857D01*
X96047619Y-152519047D01*
X96047619Y-152709523D01*
X96009523Y-152785714D01*
X95971428Y-152823809D01*
X95895238Y-152861904D01*
X95666666Y-152861904D01*
X95590476Y-152823809D01*
X95552380Y-152785714D01*
%TO.C,C6*%
X106292666Y-150399714D02*
X106254571Y-150437809D01*
X106140285Y-150475904D01*
X106064095Y-150475904D01*
X105949809Y-150437809D01*
X105873619Y-150361619D01*
X105835523Y-150285428D01*
X105797428Y-150133047D01*
X105797428Y-150018761D01*
X105835523Y-149866380D01*
X105873619Y-149790190D01*
X105949809Y-149714000D01*
X106064095Y-149675904D01*
X106140285Y-149675904D01*
X106254571Y-149714000D01*
X106292666Y-149752095D01*
X106978380Y-149675904D02*
X106826000Y-149675904D01*
X106749809Y-149714000D01*
X106711714Y-149752095D01*
X106635523Y-149866380D01*
X106597428Y-150018761D01*
X106597428Y-150323523D01*
X106635523Y-150399714D01*
X106673619Y-150437809D01*
X106749809Y-150475904D01*
X106902190Y-150475904D01*
X106978380Y-150437809D01*
X107016476Y-150399714D01*
X107054571Y-150323523D01*
X107054571Y-150133047D01*
X107016476Y-150056857D01*
X106978380Y-150018761D01*
X106902190Y-149980666D01*
X106749809Y-149980666D01*
X106673619Y-150018761D01*
X106635523Y-150056857D01*
X106597428Y-150133047D01*
%TO.C,D1*%
X93359523Y-100461904D02*
X93359523Y-99661904D01*
X93550000Y-99661904D01*
X93664285Y-99700000D01*
X93740476Y-99776190D01*
X93778571Y-99852380D01*
X93816666Y-100004761D01*
X93816666Y-100119047D01*
X93778571Y-100271428D01*
X93740476Y-100347619D01*
X93664285Y-100423809D01*
X93550000Y-100461904D01*
X93359523Y-100461904D01*
X94578571Y-100461904D02*
X94121428Y-100461904D01*
X94350000Y-100461904D02*
X94350000Y-99661904D01*
X94273809Y-99776190D01*
X94197619Y-99852380D01*
X94121428Y-99890476D01*
%TO.C,C1*%
X92566666Y-57585714D02*
X92528571Y-57623809D01*
X92414285Y-57661904D01*
X92338095Y-57661904D01*
X92223809Y-57623809D01*
X92147619Y-57547619D01*
X92109523Y-57471428D01*
X92071428Y-57319047D01*
X92071428Y-57204761D01*
X92109523Y-57052380D01*
X92147619Y-56976190D01*
X92223809Y-56900000D01*
X92338095Y-56861904D01*
X92414285Y-56861904D01*
X92528571Y-56900000D01*
X92566666Y-56938095D01*
X93328571Y-57661904D02*
X92871428Y-57661904D01*
X93100000Y-57661904D02*
X93100000Y-56861904D01*
X93023809Y-56976190D01*
X92947619Y-57052380D01*
X92871428Y-57090476D01*
D12*
%TO.C,Y1*%
X92419047Y-64880952D02*
X92419047Y-65261904D01*
X92152380Y-64461904D02*
X92419047Y-64880952D01*
X92685714Y-64461904D01*
X93371428Y-65261904D02*
X92914285Y-65261904D01*
X93142857Y-65261904D02*
X93142857Y-64461904D01*
X93066666Y-64576190D01*
X92990476Y-64652380D01*
X92914285Y-64690476D01*
D11*
%TO.C,R13*%
X105644904Y-60314285D02*
X105263952Y-60580952D01*
X105644904Y-60771428D02*
X104844904Y-60771428D01*
X104844904Y-60466666D01*
X104883000Y-60390476D01*
X104921095Y-60352380D01*
X104997285Y-60314285D01*
X105111571Y-60314285D01*
X105187761Y-60352380D01*
X105225857Y-60390476D01*
X105263952Y-60466666D01*
X105263952Y-60771428D01*
X105644904Y-59552380D02*
X105644904Y-60009523D01*
X105644904Y-59780952D02*
X104844904Y-59780952D01*
X104959190Y-59857142D01*
X105035380Y-59933333D01*
X105073476Y-60009523D01*
X104844904Y-59285714D02*
X104844904Y-58790476D01*
X105149666Y-59057142D01*
X105149666Y-58942857D01*
X105187761Y-58866666D01*
X105225857Y-58828571D01*
X105302047Y-58790476D01*
X105492523Y-58790476D01*
X105568714Y-58828571D01*
X105606809Y-58866666D01*
X105644904Y-58942857D01*
X105644904Y-59171428D01*
X105606809Y-59247619D01*
X105568714Y-59285714D01*
%TO.C,R11*%
X99585714Y-74861904D02*
X99319047Y-74480952D01*
X99128571Y-74861904D02*
X99128571Y-74061904D01*
X99433333Y-74061904D01*
X99509523Y-74100000D01*
X99547619Y-74138095D01*
X99585714Y-74214285D01*
X99585714Y-74328571D01*
X99547619Y-74404761D01*
X99509523Y-74442857D01*
X99433333Y-74480952D01*
X99128571Y-74480952D01*
X100347619Y-74861904D02*
X99890476Y-74861904D01*
X100119047Y-74861904D02*
X100119047Y-74061904D01*
X100042857Y-74176190D01*
X99966666Y-74252380D01*
X99890476Y-74290476D01*
X101109523Y-74861904D02*
X100652380Y-74861904D01*
X100880952Y-74861904D02*
X100880952Y-74061904D01*
X100804761Y-74176190D01*
X100728571Y-74252380D01*
X100652380Y-74290476D01*
%TO.C,R6*%
X93166666Y-81861904D02*
X92900000Y-81480952D01*
X92709523Y-81861904D02*
X92709523Y-81061904D01*
X93014285Y-81061904D01*
X93090476Y-81100000D01*
X93128571Y-81138095D01*
X93166666Y-81214285D01*
X93166666Y-81328571D01*
X93128571Y-81404761D01*
X93090476Y-81442857D01*
X93014285Y-81480952D01*
X92709523Y-81480952D01*
X93852380Y-81061904D02*
X93700000Y-81061904D01*
X93623809Y-81100000D01*
X93585714Y-81138095D01*
X93509523Y-81252380D01*
X93471428Y-81404761D01*
X93471428Y-81709523D01*
X93509523Y-81785714D01*
X93547619Y-81823809D01*
X93623809Y-81861904D01*
X93776190Y-81861904D01*
X93852380Y-81823809D01*
X93890476Y-81785714D01*
X93928571Y-81709523D01*
X93928571Y-81519047D01*
X93890476Y-81442857D01*
X93852380Y-81404761D01*
X93776190Y-81366666D01*
X93623809Y-81366666D01*
X93547619Y-81404761D01*
X93509523Y-81442857D01*
X93471428Y-81519047D01*
D10*
%TO.C,J3*%
X107266666Y-122652380D02*
X107266666Y-123366666D01*
X107219047Y-123509523D01*
X107123809Y-123604761D01*
X106980952Y-123652380D01*
X106885714Y-123652380D01*
X107647619Y-122652380D02*
X108266666Y-122652380D01*
X107933333Y-123033333D01*
X108076190Y-123033333D01*
X108171428Y-123080952D01*
X108219047Y-123128571D01*
X108266666Y-123223809D01*
X108266666Y-123461904D01*
X108219047Y-123557142D01*
X108171428Y-123604761D01*
X108076190Y-123652380D01*
X107790476Y-123652380D01*
X107695238Y-123604761D01*
X107647619Y-123557142D01*
D11*
%TO.C,C10*%
X90685714Y-73085714D02*
X90647619Y-73123809D01*
X90533333Y-73161904D01*
X90457142Y-73161904D01*
X90342857Y-73123809D01*
X90266666Y-73047619D01*
X90228571Y-72971428D01*
X90190476Y-72819047D01*
X90190476Y-72704761D01*
X90228571Y-72552380D01*
X90266666Y-72476190D01*
X90342857Y-72400000D01*
X90457142Y-72361904D01*
X90533333Y-72361904D01*
X90647619Y-72400000D01*
X90685714Y-72438095D01*
X91447619Y-73161904D02*
X90990476Y-73161904D01*
X91219047Y-73161904D02*
X91219047Y-72361904D01*
X91142857Y-72476190D01*
X91066666Y-72552380D01*
X90990476Y-72590476D01*
X91942857Y-72361904D02*
X92019047Y-72361904D01*
X92095238Y-72400000D01*
X92133333Y-72438095D01*
X92171428Y-72514285D01*
X92209523Y-72666666D01*
X92209523Y-72857142D01*
X92171428Y-73009523D01*
X92133333Y-73085714D01*
X92095238Y-73123809D01*
X92019047Y-73161904D01*
X91942857Y-73161904D01*
X91866666Y-73123809D01*
X91828571Y-73085714D01*
X91790476Y-73009523D01*
X91752380Y-72857142D01*
X91752380Y-72666666D01*
X91790476Y-72514285D01*
X91828571Y-72438095D01*
X91866666Y-72400000D01*
X91942857Y-72361904D01*
%TO.C,R8*%
X91466666Y-81861904D02*
X91200000Y-81480952D01*
X91009523Y-81861904D02*
X91009523Y-81061904D01*
X91314285Y-81061904D01*
X91390476Y-81100000D01*
X91428571Y-81138095D01*
X91466666Y-81214285D01*
X91466666Y-81328571D01*
X91428571Y-81404761D01*
X91390476Y-81442857D01*
X91314285Y-81480952D01*
X91009523Y-81480952D01*
X91923809Y-81404761D02*
X91847619Y-81366666D01*
X91809523Y-81328571D01*
X91771428Y-81252380D01*
X91771428Y-81214285D01*
X91809523Y-81138095D01*
X91847619Y-81100000D01*
X91923809Y-81061904D01*
X92076190Y-81061904D01*
X92152380Y-81100000D01*
X92190476Y-81138095D01*
X92228571Y-81214285D01*
X92228571Y-81252380D01*
X92190476Y-81328571D01*
X92152380Y-81366666D01*
X92076190Y-81404761D01*
X91923809Y-81404761D01*
X91847619Y-81442857D01*
X91809523Y-81480952D01*
X91771428Y-81557142D01*
X91771428Y-81709523D01*
X91809523Y-81785714D01*
X91847619Y-81823809D01*
X91923809Y-81861904D01*
X92076190Y-81861904D01*
X92152380Y-81823809D01*
X92190476Y-81785714D01*
X92228571Y-81709523D01*
X92228571Y-81557142D01*
X92190476Y-81480952D01*
X92152380Y-81442857D01*
X92076190Y-81404761D01*
%TO.C,R9*%
X91666666Y-145749404D02*
X91400000Y-145368452D01*
X91209523Y-145749404D02*
X91209523Y-144949404D01*
X91514285Y-144949404D01*
X91590476Y-144987500D01*
X91628571Y-145025595D01*
X91666666Y-145101785D01*
X91666666Y-145216071D01*
X91628571Y-145292261D01*
X91590476Y-145330357D01*
X91514285Y-145368452D01*
X91209523Y-145368452D01*
X92047619Y-145749404D02*
X92200000Y-145749404D01*
X92276190Y-145711309D01*
X92314285Y-145673214D01*
X92390476Y-145558928D01*
X92428571Y-145406547D01*
X92428571Y-145101785D01*
X92390476Y-145025595D01*
X92352380Y-144987500D01*
X92276190Y-144949404D01*
X92123809Y-144949404D01*
X92047619Y-144987500D01*
X92009523Y-145025595D01*
X91971428Y-145101785D01*
X91971428Y-145292261D01*
X92009523Y-145368452D01*
X92047619Y-145406547D01*
X92123809Y-145444642D01*
X92276190Y-145444642D01*
X92352380Y-145406547D01*
X92390476Y-145368452D01*
X92428571Y-145292261D01*
D10*
%TO.C,J1*%
X104822666Y-163155380D02*
X104822666Y-163869666D01*
X104775047Y-164012523D01*
X104679809Y-164107761D01*
X104536952Y-164155380D01*
X104441714Y-164155380D01*
X105822666Y-164155380D02*
X105251238Y-164155380D01*
X105536952Y-164155380D02*
X105536952Y-163155380D01*
X105441714Y-163298238D01*
X105346476Y-163393476D01*
X105251238Y-163441095D01*
D11*
%TO.C,R3*%
X94066666Y-57661904D02*
X93800000Y-57280952D01*
X93609523Y-57661904D02*
X93609523Y-56861904D01*
X93914285Y-56861904D01*
X93990476Y-56900000D01*
X94028571Y-56938095D01*
X94066666Y-57014285D01*
X94066666Y-57128571D01*
X94028571Y-57204761D01*
X93990476Y-57242857D01*
X93914285Y-57280952D01*
X93609523Y-57280952D01*
X94333333Y-56861904D02*
X94828571Y-56861904D01*
X94561904Y-57166666D01*
X94676190Y-57166666D01*
X94752380Y-57204761D01*
X94790476Y-57242857D01*
X94828571Y-57319047D01*
X94828571Y-57509523D01*
X94790476Y-57585714D01*
X94752380Y-57623809D01*
X94676190Y-57661904D01*
X94447619Y-57661904D01*
X94371428Y-57623809D01*
X94333333Y-57585714D01*
%TO.C,U1*%
X91090000Y-71110000D02*
X91090000Y-70635000D01*
X95835000Y-71110000D02*
X96310000Y-71110000D01*
X95835000Y-65890000D02*
X96310000Y-65890000D01*
X91565000Y-71110000D02*
X91090000Y-71110000D01*
X91565000Y-65890000D02*
X91090000Y-65890000D01*
X96310000Y-71110000D02*
X96310000Y-70635000D01*
X96310000Y-65890000D02*
X96310000Y-66365000D01*
%TO.C,C11*%
X100140580Y-72210000D02*
X99859420Y-72210000D01*
X100140580Y-71190000D02*
X99859420Y-71190000D01*
%TO.C,R1*%
X107437258Y-63822500D02*
X106962742Y-63822500D01*
X107437258Y-62777500D02*
X106962742Y-62777500D01*
D13*
%TO.C,J2*%
X105000000Y-108000000D02*
X101600000Y-108000000D01*
X105000000Y-97500000D02*
X101500000Y-97500000D01*
X95000000Y-97500000D02*
X95000000Y-108000000D01*
X105000000Y-97500000D02*
X105000000Y-108000000D01*
X98400000Y-108000000D02*
X95000000Y-108000000D01*
X98500000Y-97500000D02*
X95000000Y-97500000D01*
D11*
X98703737Y-99411424D02*
G75*
G03*
X100000000Y-104895000I1296263J-2588576D01*
G01*
X100000000Y-104895001D02*
G75*
G03*
X101296263Y-99411423I0J2895001D01*
G01*
X101800000Y-102000000D02*
G75*
G03*
X101800000Y-102000000I-1800000J0D01*
G01*
%TO.C,J10*%
X91410000Y-87200000D02*
X91900000Y-87200000D01*
X91900000Y-91100000D02*
X92700000Y-91100000D01*
D10*
X91900000Y-89700000D02*
X92700000Y-89700000D01*
X91900000Y-84050000D02*
X97100000Y-84050000D01*
X97100000Y-84050000D02*
X97100000Y-96750000D01*
X97100000Y-96750000D02*
X91900000Y-96750000D01*
X91900000Y-96750000D02*
X91900000Y-84050000D01*
X92700000Y-84900000D02*
X96300000Y-84900000D01*
X96300000Y-84900000D02*
X96300000Y-95900000D01*
X96300000Y-95900000D02*
X92700000Y-95900000D01*
X92700000Y-95900000D02*
X92700000Y-84900000D01*
D11*
%TO.C,RV1*%
X104870000Y-150620000D02*
X104870000Y-145900000D01*
X104870000Y-139030000D02*
X95130000Y-139030000D01*
X104870000Y-150620000D02*
X103480000Y-150620000D01*
X104870000Y-142090000D02*
X104870000Y-139030000D01*
X99045000Y-150620000D02*
X98515000Y-150620000D01*
X95130000Y-142090000D02*
X95130000Y-139030000D01*
X95120000Y-150620000D02*
X95120000Y-145900000D01*
X101550000Y-150620000D02*
X100940000Y-150620000D01*
X96480000Y-150620000D02*
X95130000Y-150620000D01*
D12*
X103000000Y-144000000D02*
G75*
G03*
X103000000Y-144000000I-3000000J0D01*
G01*
D11*
%TO.C,C8*%
X92759420Y-154090000D02*
X93040580Y-154090000D01*
X92759420Y-155110000D02*
X93040580Y-155110000D01*
%TO.C,C2*%
X91710000Y-59159420D02*
X91710000Y-59440580D01*
X90690000Y-59159420D02*
X90690000Y-59440580D01*
%TO.C,C3*%
X107340580Y-62010000D02*
X107059420Y-62010000D01*
X107340580Y-60990000D02*
X107059420Y-60990000D01*
%TO.C,C4*%
X107490000Y-109680580D02*
X107490000Y-109399420D01*
X108510000Y-109680580D02*
X108510000Y-109399420D01*
%TO.C,J6*%
X108000000Y-75500000D02*
G75*
G03*
X108000000Y-75500000I-8000000J0D01*
G01*
X103500000Y-75500000D02*
G75*
G03*
X103500000Y-75500000I-3500000J0D01*
G01*
%TO.C,C9*%
X92834420Y-161760000D02*
X93115580Y-161760000D01*
X92834420Y-160740000D02*
X93115580Y-160740000D01*
%TO.C,J8*%
X97150000Y-62200000D02*
X102850000Y-62200000D01*
X97150000Y-58800000D02*
X102850000Y-58800000D01*
X102850000Y-62200000D02*
G75*
G03*
X102850000Y-58800000I0J1700000D01*
G01*
X97150000Y-58800000D02*
G75*
G03*
X97150000Y-62200000I0J-1700000D01*
G01*
D13*
%TO.C,J4*%
X90000000Y-111500000D02*
X90000000Y-122000000D01*
X100000000Y-111500000D02*
X100000000Y-122000000D01*
X93400000Y-122000000D02*
X90000000Y-122000000D01*
X93500000Y-111500000D02*
X90000000Y-111500000D01*
X100000000Y-122000000D02*
X96600000Y-122000000D01*
X100000000Y-111500000D02*
X96500000Y-111500000D01*
D11*
X93703737Y-113411424D02*
G75*
G03*
X95000000Y-118895000I1296263J-2588576D01*
G01*
X95000000Y-118895001D02*
G75*
G03*
X96296263Y-113411423I0J2895001D01*
G01*
X96800000Y-116000000D02*
G75*
G03*
X96800000Y-116000000I-1800000J0D01*
G01*
%TO.C,D2*%
X106900000Y-102250000D02*
X108900000Y-102250000D01*
X106900000Y-102250000D02*
X106900000Y-98350000D01*
X108900000Y-102250000D02*
X108900000Y-98350000D01*
%TO.C,R10*%
X93027500Y-147175242D02*
X93027500Y-147649758D01*
X94072500Y-147175242D02*
X94072500Y-147649758D01*
%TO.C,U2*%
X109610000Y-107160000D02*
X108470000Y-107160000D01*
X108470000Y-107390000D02*
X105750000Y-107390000D01*
X108470000Y-102670000D02*
X108470000Y-102900000D01*
X108470000Y-107390000D02*
X108470000Y-107160000D01*
X105750000Y-103980000D02*
X105750000Y-102670000D01*
X105750000Y-102670000D02*
X108470000Y-102670000D01*
X105750000Y-107390000D02*
X105750000Y-106080000D01*
%TO.C,C5*%
X90790000Y-105240580D02*
X90790000Y-104959420D01*
X91810000Y-105240580D02*
X91810000Y-104959420D01*
%TO.C,R12*%
X106962742Y-58422500D02*
X107437258Y-58422500D01*
X106962742Y-57377500D02*
X107437258Y-57377500D01*
%TO.C,R7*%
X107577500Y-147212258D02*
X107577500Y-146737742D01*
X108622500Y-147212258D02*
X108622500Y-146737742D01*
%TO.C,C7*%
X93835000Y-105311252D02*
X93835000Y-104788748D01*
X92365000Y-105311252D02*
X92365000Y-104788748D01*
%TO.C,R2*%
X107437258Y-65622500D02*
X106962742Y-65622500D01*
X107437258Y-64577500D02*
X106962742Y-64577500D01*
D13*
%TO.C,J5*%
X95000000Y-125500000D02*
X95000000Y-136000000D01*
X98400000Y-136000000D02*
X95000000Y-136000000D01*
X98500000Y-125500000D02*
X95000000Y-125500000D01*
X105000000Y-125500000D02*
X101500000Y-125500000D01*
X105000000Y-136000000D02*
X101600000Y-136000000D01*
X105000000Y-125500000D02*
X105000000Y-136000000D01*
D11*
X98703737Y-127411424D02*
G75*
G03*
X100000000Y-132895000I1296263J-2588576D01*
G01*
X100000000Y-132895001D02*
G75*
G03*
X101296263Y-127411423I0J2895001D01*
G01*
X101800000Y-130000000D02*
G75*
G03*
X101800000Y-130000000I-1800000J0D01*
G01*
%TO.C,U3*%
X94360000Y-151300000D02*
X94360000Y-150500000D01*
X91240000Y-151300000D02*
X91240000Y-153100000D01*
X91240000Y-151300000D02*
X91240000Y-150500000D01*
X94360000Y-151300000D02*
X94360000Y-152100000D01*
%TO.C,C6*%
X107590000Y-150515580D02*
X107590000Y-150234420D01*
X108610000Y-150515580D02*
X108610000Y-150234420D01*
%TO.C,D1*%
X91100000Y-102250000D02*
X91100000Y-98350000D01*
X93100000Y-102250000D02*
X93100000Y-98350000D01*
X91100000Y-102250000D02*
X93100000Y-102250000D01*
%TO.C,C1*%
X92190000Y-59159420D02*
X92190000Y-59440580D01*
X93210000Y-59159420D02*
X93210000Y-59440580D01*
%TO.C,Y1*%
X90800000Y-60950000D02*
X90800000Y-64250000D01*
X90800000Y-64250000D02*
X94800000Y-64250000D01*
%TO.C,R13*%
X106962742Y-60222500D02*
X107437258Y-60222500D01*
X106962742Y-59177500D02*
X107437258Y-59177500D01*
%TO.C,R11*%
X99762742Y-73722500D02*
X100237258Y-73722500D01*
X99762742Y-72677500D02*
X100237258Y-72677500D01*
%TO.C,R6*%
X92977500Y-79187258D02*
X92977500Y-78712742D01*
X94022500Y-79187258D02*
X94022500Y-78712742D01*
D13*
%TO.C,J3*%
X110000000Y-111500000D02*
X106500000Y-111500000D01*
X103400000Y-122000000D02*
X100000000Y-122000000D01*
X103500000Y-111500000D02*
X100000000Y-111500000D01*
X100000000Y-111500000D02*
X100000000Y-122000000D01*
X110000000Y-122000000D02*
X106600000Y-122000000D01*
X110000000Y-111500000D02*
X110000000Y-122000000D01*
D11*
X103703737Y-113411424D02*
G75*
G03*
X105000000Y-118895000I1296263J-2588576D01*
G01*
X105000000Y-118895001D02*
G75*
G03*
X106296263Y-113411423I0J2895001D01*
G01*
X106800000Y-116000000D02*
G75*
G03*
X106800000Y-116000000I-1800000J0D01*
G01*
%TO.C,C10*%
X93598420Y-73210000D02*
X93879580Y-73210000D01*
X93598420Y-72190000D02*
X93879580Y-72190000D01*
%TO.C,R8*%
X91377500Y-79187258D02*
X91377500Y-78712742D01*
X92422500Y-79187258D02*
X92422500Y-78712742D01*
%TO.C,R9*%
X91327500Y-147649758D02*
X91327500Y-147175242D01*
X92372500Y-147649758D02*
X92372500Y-147175242D01*
D13*
%TO.C,J1*%
X95500000Y-153500000D02*
X95500000Y-156500000D01*
X95500000Y-162500000D02*
X106000000Y-162500000D01*
X95500000Y-159500000D02*
X95500000Y-162500000D01*
X95500000Y-153500000D02*
X106000000Y-153500000D01*
X106000000Y-153500000D02*
X106000000Y-156400000D01*
X106000000Y-159600000D02*
X106000000Y-162500000D01*
D11*
X97411424Y-159296263D02*
G75*
G03*
X102895000Y-158000000I2588576J1296263D01*
G01*
X102895001Y-158000000D02*
G75*
G03*
X97411423Y-156703737I-2895001J0D01*
G01*
X101800000Y-158000000D02*
G75*
G03*
X101800000Y-158000000I-1800000J0D01*
G01*
%TO.C,R3*%
X94722500Y-59062742D02*
X94722500Y-59537258D01*
X93677500Y-59062742D02*
X93677500Y-59537258D01*
%TD*%
M02*
