%TF.GenerationSoftware,KiCad,Pcbnew,6.0.11-2627ca5db0~126~ubuntu22.04.1*%
%TF.CreationDate,2024-03-30T06:54:33+01:00*%
%TF.ProjectId,OTBreakOutV1,4f544272-6561-46b4-9f75-7456312e6b69,rev?*%
%TF.SameCoordinates,Original*%
%TF.FileFunction,Soldermask,Top*%
%TF.FilePolarity,Negative*%
%FSLAX46Y46*%
G04 Gerber Fmt 4.6, Leading zero omitted, Abs format (unit mm)*
G04 Created by KiCad (PCBNEW 6.0.11-2627ca5db0~126~ubuntu22.04.1) date 2024-03-30 06:54:33*
%MOMM*%
%LPD*%
G01*
G04 APERTURE LIST*
G04 Aperture macros list*
%AMRoundRect*
0 Rectangle with rounded corners*
0 $1 Rounding radius*
0 $2 $3 $4 $5 $6 $7 $8 $9 X,Y pos of 4 corners*
0 Add a 4 corners polygon primitive as box body*
4,1,4,$2,$3,$4,$5,$6,$7,$8,$9,$2,$3,0*
0 Add four circle primitives for the rounded corners*
1,1,$1+$1,$2,$3*
1,1,$1+$1,$4,$5*
1,1,$1+$1,$6,$7*
1,1,$1+$1,$8,$9*
0 Add four rect primitives between the rounded corners*
20,1,$1+$1,$2,$3,$4,$5,0*
20,1,$1+$1,$4,$5,$6,$7,0*
20,1,$1+$1,$6,$7,$8,$9,0*
20,1,$1+$1,$8,$9,$2,$3,0*%
%AMHorizOval*
0 Thick line with rounded ends*
0 $1 width*
0 $2 $3 position (X,Y) of the first rounded end (center of the circle)*
0 $4 $5 position (X,Y) of the second rounded end (center of the circle)*
0 Add line between two ends*
20,1,$1,$2,$3,$4,$5,0*
0 Add two circle primitives to create the rounded ends*
1,1,$1,$2,$3*
1,1,$1,$4,$5*%
%AMFreePoly0*
4,1,9,3.862500,-0.866500,0.737500,-0.866500,0.737500,-0.450000,-0.737500,-0.450000,-0.737500,0.450000,0.737500,0.450000,0.737500,0.866500,3.862500,0.866500,3.862500,-0.866500,3.862500,-0.866500,$1*%
G04 Aperture macros list end*
%ADD10RoundRect,0.062500X-0.375000X-0.062500X0.375000X-0.062500X0.375000X0.062500X-0.375000X0.062500X0*%
%ADD11RoundRect,0.062500X-0.062500X-0.375000X0.062500X-0.375000X0.062500X0.375000X-0.062500X0.375000X0*%
%ADD12R,3.100000X3.100000*%
%ADD13RoundRect,0.225000X0.225000X0.250000X-0.225000X0.250000X-0.225000X-0.250000X0.225000X-0.250000X0*%
%ADD14RoundRect,0.200000X0.200000X0.275000X-0.200000X0.275000X-0.200000X-0.275000X0.200000X-0.275000X0*%
%ADD15RoundRect,0.650000X0.650000X0.650000X-0.650000X0.650000X-0.650000X-0.650000X0.650000X-0.650000X0*%
%ADD16RoundRect,0.650000X0.600000X0.400000X-0.600000X0.400000X-0.600000X-0.400000X0.600000X-0.400000X0*%
%ADD17R,2.400000X0.740000*%
%ADD18O,2.800000X3.500000*%
%ADD19R,1.900000X1.900000*%
%ADD20C,1.900000*%
%ADD21C,2.000000*%
%ADD22RoundRect,0.225000X-0.225000X-0.250000X0.225000X-0.250000X0.225000X0.250000X-0.225000X0.250000X0*%
%ADD23RoundRect,0.225000X-0.250000X0.225000X-0.250000X-0.225000X0.250000X-0.225000X0.250000X0.225000X0*%
%ADD24RoundRect,0.225000X0.250000X-0.225000X0.250000X0.225000X-0.250000X0.225000X-0.250000X-0.225000X0*%
%ADD25O,4.500000X2.000000*%
%ADD26O,3.000000X1.800000*%
%ADD27O,1.800000X3.000000*%
%ADD28HorizOval,1.800000X0.424264X-0.424264X-0.424264X0.424264X0*%
%ADD29HorizOval,1.800000X0.424264X0.424264X-0.424264X-0.424264X0*%
%ADD30R,0.250000X1.400000*%
%ADD31O,1.700000X1.200000*%
%ADD32O,1.350000X0.950000*%
%ADD33R,1.200000X0.900000*%
%ADD34RoundRect,0.200000X-0.275000X0.200000X-0.275000X-0.200000X0.275000X-0.200000X0.275000X0.200000X0*%
%ADD35R,1.300000X0.900000*%
%ADD36FreePoly0,180.000000*%
%ADD37RoundRect,0.200000X-0.200000X-0.275000X0.200000X-0.275000X0.200000X0.275000X-0.200000X0.275000X0*%
%ADD38RoundRect,0.200000X0.275000X-0.200000X0.275000X0.200000X-0.275000X0.200000X-0.275000X-0.200000X0*%
%ADD39RoundRect,0.250000X0.475000X-0.250000X0.475000X0.250000X-0.475000X0.250000X-0.475000X-0.250000X0*%
%ADD40RoundRect,0.150000X0.150000X-0.512500X0.150000X0.512500X-0.150000X0.512500X-0.150000X-0.512500X0*%
%ADD41R,1.400000X1.200000*%
%ADD42RoundRect,0.650000X-0.650000X0.650000X-0.650000X-0.650000X0.650000X-0.650000X0.650000X0.650000X0*%
%ADD43O,2.100000X3.100000*%
%ADD44C,0.990600*%
%ADD45R,1.700000X1.700000*%
%ADD46O,1.700000X1.700000*%
G04 APERTURE END LIST*
D10*
%TO.C,U1*%
X91262500Y-66750000D03*
X91262500Y-67250000D03*
X91262500Y-67750000D03*
X91262500Y-68250000D03*
X91262500Y-68750000D03*
X91262500Y-69250000D03*
X91262500Y-69750000D03*
X91262500Y-70250000D03*
D11*
X91950000Y-70937500D03*
X92450000Y-70937500D03*
X92950000Y-70937500D03*
X93450000Y-70937500D03*
X93950000Y-70937500D03*
X94450000Y-70937500D03*
X94950000Y-70937500D03*
X95450000Y-70937500D03*
D10*
X96137500Y-70250000D03*
X96137500Y-69750000D03*
X96137500Y-69250000D03*
X96137500Y-68750000D03*
X96137500Y-68250000D03*
X96137500Y-67750000D03*
X96137500Y-67250000D03*
X96137500Y-66750000D03*
D11*
X95450000Y-66062500D03*
X94950000Y-66062500D03*
X94450000Y-66062500D03*
X93950000Y-66062500D03*
X93450000Y-66062500D03*
X92950000Y-66062500D03*
X92450000Y-66062500D03*
X91950000Y-66062500D03*
D12*
X93700000Y-68500000D03*
%TD*%
D13*
%TO.C,C11*%
X100775000Y-71700000D03*
X99225000Y-71700000D03*
%TD*%
D14*
%TO.C,R1*%
X108025000Y-63300000D03*
X106375000Y-63300000D03*
%TD*%
D15*
%TO.C,J2*%
X100000000Y-98620000D03*
D16*
X100000000Y-95520000D03*
D15*
X100000000Y-106920000D03*
%TD*%
D17*
%TO.C,J10*%
X92550000Y-87860000D03*
X96450000Y-87860000D03*
X92550000Y-89130000D03*
X96450000Y-89130000D03*
X92550000Y-90400000D03*
X96450000Y-90400000D03*
X92550000Y-91670000D03*
X96450000Y-91670000D03*
X92550000Y-92940000D03*
X96450000Y-92940000D03*
%TD*%
D18*
%TO.C,RV1*%
X95200000Y-144000000D03*
X104800000Y-144000000D03*
D19*
X97500000Y-151000000D03*
D20*
X100000000Y-151000000D03*
X102500000Y-151000000D03*
%TD*%
D21*
%TO.C,FID1*%
X93500000Y-75000000D03*
%TD*%
D22*
%TO.C,C8*%
X92125000Y-154600000D03*
X93675000Y-154600000D03*
%TD*%
D23*
%TO.C,C2*%
X91200000Y-58525000D03*
X91200000Y-60075000D03*
%TD*%
D13*
%TO.C,C3*%
X107975000Y-61500000D03*
X106425000Y-61500000D03*
%TD*%
D24*
%TO.C,C4*%
X108000000Y-110315000D03*
X108000000Y-108765000D03*
%TD*%
D25*
%TO.C,J6*%
X100000000Y-69300000D03*
D26*
X103500000Y-75500000D03*
D27*
X100000000Y-79000000D03*
D26*
X96500000Y-75500000D03*
D28*
X102474874Y-77974874D03*
D29*
X97525126Y-77974874D03*
%TD*%
D22*
%TO.C,C9*%
X92200000Y-161250000D03*
X93750000Y-161250000D03*
%TD*%
D30*
%TO.C,J8*%
X97250000Y-58200000D03*
D31*
X104100000Y-63570000D03*
D32*
X96225000Y-60500000D03*
D31*
X95900000Y-63570000D03*
D32*
X103775000Y-60500000D03*
D31*
X104100000Y-57430000D03*
X95900000Y-57430000D03*
D30*
X97750000Y-58200000D03*
X98250000Y-58200000D03*
X98750000Y-58200000D03*
X99250000Y-58200000D03*
X99750000Y-58200000D03*
X100250000Y-58200000D03*
X100750000Y-58200000D03*
X101250000Y-58200000D03*
X101750000Y-58200000D03*
X102250000Y-58200000D03*
X102750000Y-58200000D03*
X102750000Y-62800000D03*
X102250000Y-62800000D03*
X101750000Y-62800000D03*
X101250000Y-62800000D03*
X100750000Y-62800000D03*
X100250000Y-62800000D03*
X99750000Y-62800000D03*
X99250000Y-62800000D03*
X98750000Y-62800000D03*
X98250000Y-62800000D03*
X97750000Y-62800000D03*
X97250000Y-62800000D03*
%TD*%
D21*
%TO.C,FID2*%
X108000000Y-163000000D03*
%TD*%
D15*
%TO.C,J4*%
X95000000Y-112620000D03*
D16*
X95000000Y-109520000D03*
D15*
X95000000Y-120920000D03*
%TD*%
D33*
%TO.C,D2*%
X107900000Y-101650000D03*
X107900000Y-98350000D03*
%TD*%
D34*
%TO.C,R10*%
X93550000Y-146587500D03*
X93550000Y-148237500D03*
%TD*%
D35*
%TO.C,U2*%
X109060000Y-106530000D03*
D36*
X108972500Y-105030000D03*
D35*
X109060000Y-103530000D03*
%TD*%
D24*
%TO.C,C5*%
X91300000Y-105875000D03*
X91300000Y-104325000D03*
%TD*%
D37*
%TO.C,R12*%
X106375000Y-57900000D03*
X108025000Y-57900000D03*
%TD*%
D38*
%TO.C,R7*%
X108100000Y-147800000D03*
X108100000Y-146150000D03*
%TD*%
D39*
%TO.C,C7*%
X93100000Y-106000000D03*
X93100000Y-104100000D03*
%TD*%
D14*
%TO.C,R2*%
X108025000Y-65100000D03*
X106375000Y-65100000D03*
%TD*%
D15*
%TO.C,J5*%
X100000000Y-126620000D03*
D16*
X100000000Y-123520000D03*
D15*
X100000000Y-134920000D03*
%TD*%
D40*
%TO.C,U3*%
X91850000Y-152437500D03*
X92800000Y-152437500D03*
X93750000Y-152437500D03*
X93750000Y-150162500D03*
X91850000Y-150162500D03*
%TD*%
D24*
%TO.C,C6*%
X108100000Y-151150000D03*
X108100000Y-149600000D03*
%TD*%
D33*
%TO.C,D1*%
X92100000Y-101650000D03*
X92100000Y-98350000D03*
%TD*%
D23*
%TO.C,C1*%
X92700000Y-58525000D03*
X92700000Y-60075000D03*
%TD*%
D41*
%TO.C,Y1*%
X91700000Y-63450000D03*
X93900000Y-63450000D03*
X93900000Y-61750000D03*
X91700000Y-61750000D03*
%TD*%
D37*
%TO.C,R13*%
X106375000Y-59700000D03*
X108025000Y-59700000D03*
%TD*%
%TO.C,R11*%
X99175000Y-73200000D03*
X100825000Y-73200000D03*
%TD*%
D38*
%TO.C,R6*%
X93500000Y-79775000D03*
X93500000Y-78125000D03*
%TD*%
D15*
%TO.C,J3*%
X105000000Y-112620000D03*
D16*
X105000000Y-109520000D03*
D15*
X105000000Y-120920000D03*
%TD*%
D22*
%TO.C,C10*%
X92964000Y-72700000D03*
X94514000Y-72700000D03*
%TD*%
D38*
%TO.C,R8*%
X91900000Y-79775000D03*
X91900000Y-78125000D03*
%TD*%
%TO.C,R9*%
X91850000Y-148237500D03*
X91850000Y-146587500D03*
%TD*%
D42*
%TO.C,J1*%
X96620000Y-158000000D03*
D43*
X93520000Y-158000000D03*
D42*
X104920000Y-158000000D03*
%TD*%
D34*
%TO.C,R3*%
X94200000Y-58475000D03*
X94200000Y-60125000D03*
%TD*%
D44*
%TO.C,J9*%
X106084000Y-73040000D03*
X107100000Y-67960000D03*
X108116000Y-73040000D03*
%TD*%
D45*
%TO.C,J7*%
X104350000Y-95160000D03*
D46*
X106890000Y-95160000D03*
X104350000Y-92620000D03*
X106890000Y-92620000D03*
X104350000Y-90080000D03*
X106890000Y-90080000D03*
X104350000Y-87540000D03*
X106890000Y-87540000D03*
X104350000Y-85000000D03*
X106890000Y-85000000D03*
%TD*%
M02*
